<?xml version="1.0" encoding="utf-8" standalone="no"?>
<!DOCTYPE svg PUBLIC "-//W3C//DTD SVG 1.1//EN"
  "http://www.w3.org/Graphics/SVG/1.1/DTD/svg11.dtd">
<svg xmlns:xlink="http://www.w3.org/1999/xlink" width="217.44pt" height="290.295965pt" viewBox="0 0 217.44 290.295965" xmlns="http://www.w3.org/2000/svg" version="1.1">
 <metadata>
  <rdf:RDF xmlns:dc="http://purl.org/dc/elements/1.1/" xmlns:cc="http://creativecommons.org/ns#" xmlns:rdf="http://www.w3.org/1999/02/22-rdf-syntax-ns#">
   <cc:Work>
    <dc:type rdf:resource="http://purl.org/dc/dcmitype/StillImage"/>
    <dc:date>2026-05-06T15:36:47.332354</dc:date>
    <dc:format>image/svg+xml</dc:format>
    <dc:creator>
     <cc:Agent>
      <dc:title>Matplotlib v3.10.7, https://matplotlib.org/</dc:title>
     </cc:Agent>
    </dc:creator>
   </cc:Work>
  </rdf:RDF>
 </metadata>
 <defs>
  <style type="text/css">*{stroke-linejoin: round; stroke-linecap: butt}</style>
 </defs>
 <g id="figure_1">
  <g id="patch_1">
   <path d="M 0 290.295965 
L 217.44 290.295965 
L 217.44 0 
L 0 0 
z
" style="fill: #ffffff"/>
  </g>
  <g id="axes_1">
   <g id="patch_2">
    <path d="M 42.84 118.51875 
L 210.24 118.51875 
L 210.24 12.67875 
L 42.84 12.67875 
z
" style="fill: #ffffff"/>
   </g>
   <g id="matplotlib.axis_1">
    <g id="xtick_1">
     <g id="line2d_1">
      <path d="M 59.960455 118.51875 
L 59.960455 12.67875 
" clip-path="url(#p9383bb07ca)" style="fill: none"/>
     </g>
     <g id="line2d_2">
      <defs>
       <path id="m3990a7b3e1" d="M 0 0 
L 0 2 
" style="stroke: #000000"/>
      </defs>
      <g>
       <use xlink:href="#m3990a7b3e1" x="59.960455" y="118.51875" style="stroke: #000000"/>
      </g>
     </g>
    </g>
    <g id="xtick_2">
     <g id="line2d_3">
      <path d="M 78.983182 118.51875 
L 78.983182 12.67875 
" clip-path="url(#p9383bb07ca)" style="fill: none"/>
     </g>
     <g id="line2d_4">
      <g>
       <use xlink:href="#m3990a7b3e1" x="78.983182" y="118.51875" style="stroke: #000000"/>
      </g>
     </g>
    </g>
    <g id="xtick_3">
     <g id="line2d_5">
      <path d="M 98.005909 118.51875 
L 98.005909 12.67875 
" clip-path="url(#p9383bb07ca)" style="fill: none"/>
     </g>
     <g id="line2d_6">
      <g>
       <use xlink:href="#m3990a7b3e1" x="98.005909" y="118.51875" style="stroke: #000000"/>
      </g>
     </g>
    </g>
    <g id="xtick_4">
     <g id="line2d_7">
      <path d="M 117.028636 118.51875 
L 117.028636 12.67875 
" clip-path="url(#p9383bb07ca)" style="fill: none"/>
     </g>
     <g id="line2d_8">
      <g>
       <use xlink:href="#m3990a7b3e1" x="117.028636" y="118.51875" style="stroke: #000000"/>
      </g>
     </g>
    </g>
    <g id="xtick_5">
     <g id="line2d_9">
      <path d="M 136.051364 118.51875 
L 136.051364 12.67875 
" clip-path="url(#p9383bb07ca)" style="fill: none"/>
     </g>
     <g id="line2d_10">
      <g>
       <use xlink:href="#m3990a7b3e1" x="136.051364" y="118.51875" style="stroke: #000000"/>
      </g>
     </g>
    </g>
    <g id="xtick_6">
     <g id="line2d_11">
      <path d="M 155.074091 118.51875 
L 155.074091 12.67875 
" clip-path="url(#p9383bb07ca)" style="fill: none"/>
     </g>
     <g id="line2d_12">
      <g>
       <use xlink:href="#m3990a7b3e1" x="155.074091" y="118.51875" style="stroke: #000000"/>
      </g>
     </g>
    </g>
    <g id="xtick_7">
     <g id="line2d_13">
      <path d="M 174.096818 118.51875 
L 174.096818 12.67875 
" clip-path="url(#p9383bb07ca)" style="fill: none"/>
     </g>
     <g id="line2d_14">
      <g>
       <use xlink:href="#m3990a7b3e1" x="174.096818" y="118.51875" style="stroke: #000000"/>
      </g>
     </g>
    </g>
    <g id="xtick_8">
     <g id="line2d_15">
      <path d="M 193.119545 118.51875 
L 193.119545 12.67875 
" clip-path="url(#p9383bb07ca)" style="fill: none"/>
     </g>
     <g id="line2d_16">
      <g>
       <use xlink:href="#m3990a7b3e1" x="193.119545" y="118.51875" style="stroke: #000000"/>
      </g>
     </g>
    </g>
   </g>
   <g id="matplotlib.axis_2">
    <g id="ytick_1">
     <g id="line2d_17">
      <path d="M 42.84 109.69875 
L 210.24 109.69875 
" clip-path="url(#p9383bb07ca)" style="fill: none; stroke: #cccccc; stroke-width: 0.5; stroke-linecap: round"/>
     </g>
     <g id="line2d_18">
      <defs>
       <path id="mb0ef79acad" d="M 0 0 
L -2 0 
" style="stroke: #000000"/>
      </defs>
      <g>
       <use xlink:href="#mb0ef79acad" x="42.84" y="109.69875" style="stroke: #000000"/>
      </g>
     </g>
     <g id="text_1">
      <!-- 26 -->
      <g style="fill: #262626" transform="translate(31.4425 112.561875) scale(0.08 -0.08)">
       <defs>
        <path id="ArialMT-32" d="M 3222 541 
L 3222 0 
L 194 0 
Q 188 203 259 391 
Q 375 700 629 1000 
Q 884 1300 1366 1694 
Q 2113 2306 2375 2664 
Q 2638 3022 2638 3341 
Q 2638 3675 2398 3904 
Q 2159 4134 1775 4134 
Q 1369 4134 1125 3890 
Q 881 3647 878 3216 
L 300 3275 
Q 359 3922 746 4261 
Q 1134 4600 1788 4600 
Q 2447 4600 2831 4234 
Q 3216 3869 3216 3328 
Q 3216 3053 3103 2787 
Q 2991 2522 2730 2228 
Q 2469 1934 1863 1422 
Q 1356 997 1212 845 
Q 1069 694 975 541 
L 3222 541 
z
" transform="scale(0.015625)"/>
        <path id="ArialMT-36" d="M 3184 3459 
L 2625 3416 
Q 2550 3747 2413 3897 
Q 2184 4138 1850 4138 
Q 1581 4138 1378 3988 
Q 1113 3794 959 3422 
Q 806 3050 800 2363 
Q 1003 2672 1297 2822 
Q 1591 2972 1913 2972 
Q 2475 2972 2870 2558 
Q 3266 2144 3266 1488 
Q 3266 1056 3080 686 
Q 2894 316 2569 119 
Q 2244 -78 1831 -78 
Q 1128 -78 684 439 
Q 241 956 241 2144 
Q 241 3472 731 4075 
Q 1159 4600 1884 4600 
Q 2425 4600 2770 4297 
Q 3116 3994 3184 3459 
z
M 888 1484 
Q 888 1194 1011 928 
Q 1134 663 1356 523 
Q 1578 384 1822 384 
Q 2178 384 2434 671 
Q 2691 959 2691 1453 
Q 2691 1928 2437 2201 
Q 2184 2475 1800 2475 
Q 1419 2475 1153 2201 
Q 888 1928 888 1484 
z
" transform="scale(0.015625)"/>
       </defs>
       <use xlink:href="#ArialMT-32"/>
       <use xlink:href="#ArialMT-36" transform="translate(55.615234 0)"/>
      </g>
     </g>
    </g>
    <g id="ytick_2">
     <g id="line2d_19">
      <path d="M 42.84 65.59875 
L 210.24 65.59875 
" clip-path="url(#p9383bb07ca)" style="fill: none; stroke: #cccccc; stroke-width: 0.5; stroke-linecap: round"/>
     </g>
     <g id="line2d_20">
      <g>
       <use xlink:href="#mb0ef79acad" x="42.84" y="65.59875" style="stroke: #000000"/>
      </g>
     </g>
     <g id="text_2">
      <!-- 28 -->
      <g style="fill: #262626" transform="translate(31.4425 68.461875) scale(0.08 -0.08)">
       <defs>
        <path id="ArialMT-38" d="M 1131 2484 
Q 781 2613 612 2850 
Q 444 3088 444 3419 
Q 444 3919 803 4259 
Q 1163 4600 1759 4600 
Q 2359 4600 2725 4251 
Q 3091 3903 3091 3403 
Q 3091 3084 2923 2848 
Q 2756 2613 2416 2484 
Q 2838 2347 3058 2040 
Q 3278 1734 3278 1309 
Q 3278 722 2862 322 
Q 2447 -78 1769 -78 
Q 1091 -78 675 323 
Q 259 725 259 1325 
Q 259 1772 486 2073 
Q 713 2375 1131 2484 
z
M 1019 3438 
Q 1019 3113 1228 2906 
Q 1438 2700 1772 2700 
Q 2097 2700 2305 2904 
Q 2513 3109 2513 3406 
Q 2513 3716 2298 3927 
Q 2084 4138 1766 4138 
Q 1444 4138 1231 3931 
Q 1019 3725 1019 3438 
z
M 838 1322 
Q 838 1081 952 856 
Q 1066 631 1291 507 
Q 1516 384 1775 384 
Q 2178 384 2440 643 
Q 2703 903 2703 1303 
Q 2703 1709 2433 1975 
Q 2163 2241 1756 2241 
Q 1359 2241 1098 1978 
Q 838 1716 838 1322 
z
" transform="scale(0.015625)"/>
       </defs>
       <use xlink:href="#ArialMT-32"/>
       <use xlink:href="#ArialMT-38" transform="translate(55.615234 0)"/>
      </g>
     </g>
    </g>
    <g id="ytick_3">
     <g id="line2d_21">
      <path d="M 42.84 21.49875 
L 210.24 21.49875 
" clip-path="url(#p9383bb07ca)" style="fill: none; stroke: #cccccc; stroke-width: 0.5; stroke-linecap: round"/>
     </g>
     <g id="line2d_22">
      <g>
       <use xlink:href="#mb0ef79acad" x="42.84" y="21.49875" style="stroke: #000000"/>
      </g>
     </g>
     <g id="text_3">
      <!-- 30 -->
      <g style="fill: #262626" transform="translate(31.4425 24.361875) scale(0.08 -0.08)">
       <defs>
        <path id="ArialMT-33" d="M 269 1209 
L 831 1284 
Q 928 806 1161 595 
Q 1394 384 1728 384 
Q 2125 384 2398 659 
Q 2672 934 2672 1341 
Q 2672 1728 2419 1979 
Q 2166 2231 1775 2231 
Q 1616 2231 1378 2169 
L 1441 2663 
Q 1497 2656 1531 2656 
Q 1891 2656 2178 2843 
Q 2466 3031 2466 3422 
Q 2466 3731 2256 3934 
Q 2047 4138 1716 4138 
Q 1388 4138 1169 3931 
Q 950 3725 888 3313 
L 325 3413 
Q 428 3978 793 4289 
Q 1159 4600 1703 4600 
Q 2078 4600 2393 4439 
Q 2709 4278 2876 4000 
Q 3044 3722 3044 3409 
Q 3044 3113 2884 2869 
Q 2725 2625 2413 2481 
Q 2819 2388 3044 2092 
Q 3269 1797 3269 1353 
Q 3269 753 2831 336 
Q 2394 -81 1725 -81 
Q 1122 -81 723 278 
Q 325 638 269 1209 
z
" transform="scale(0.015625)"/>
        <path id="ArialMT-30" d="M 266 2259 
Q 266 3072 433 3567 
Q 600 4063 929 4331 
Q 1259 4600 1759 4600 
Q 2128 4600 2406 4451 
Q 2684 4303 2865 4023 
Q 3047 3744 3150 3342 
Q 3253 2941 3253 2259 
Q 3253 1453 3087 958 
Q 2922 463 2592 192 
Q 2263 -78 1759 -78 
Q 1097 -78 719 397 
Q 266 969 266 2259 
z
M 844 2259 
Q 844 1131 1108 757 
Q 1372 384 1759 384 
Q 2147 384 2411 759 
Q 2675 1134 2675 2259 
Q 2675 3391 2411 3762 
Q 2147 4134 1753 4134 
Q 1366 4134 1134 3806 
Q 844 3388 844 2259 
z
" transform="scale(0.015625)"/>
       </defs>
       <use xlink:href="#ArialMT-33"/>
       <use xlink:href="#ArialMT-30" transform="translate(55.615234 0)"/>
      </g>
     </g>
    </g>
    <g id="text_4">
     <!-- Cycle Length  -->
     <g style="fill: #262626" transform="translate(16.1796 92.502) rotate(-90) scale(0.088 -0.088)">
      <defs>
       <path id="ArialMT-43" d="M 3763 1606 
L 4369 1453 
Q 4178 706 3683 314 
Q 3188 -78 2472 -78 
Q 1731 -78 1267 223 
Q 803 525 561 1097 
Q 319 1669 319 2325 
Q 319 3041 592 3573 
Q 866 4106 1370 4382 
Q 1875 4659 2481 4659 
Q 3169 4659 3637 4309 
Q 4106 3959 4291 3325 
L 3694 3184 
Q 3534 3684 3231 3912 
Q 2928 4141 2469 4141 
Q 1941 4141 1586 3887 
Q 1231 3634 1087 3207 
Q 944 2781 944 2328 
Q 944 1744 1114 1308 
Q 1284 872 1643 656 
Q 2003 441 2422 441 
Q 2931 441 3284 734 
Q 3638 1028 3763 1606 
z
" transform="scale(0.015625)"/>
       <path id="ArialMT-79" d="M 397 -1278 
L 334 -750 
Q 519 -800 656 -800 
Q 844 -800 956 -737 
Q 1069 -675 1141 -563 
Q 1194 -478 1313 -144 
Q 1328 -97 1363 -6 
L 103 3319 
L 709 3319 
L 1400 1397 
Q 1534 1031 1641 628 
Q 1738 1016 1872 1384 
L 2581 3319 
L 3144 3319 
L 1881 -56 
Q 1678 -603 1566 -809 
Q 1416 -1088 1222 -1217 
Q 1028 -1347 759 -1347 
Q 597 -1347 397 -1278 
z
" transform="scale(0.015625)"/>
       <path id="ArialMT-63" d="M 2588 1216 
L 3141 1144 
Q 3050 572 2676 248 
Q 2303 -75 1759 -75 
Q 1078 -75 664 370 
Q 250 816 250 1647 
Q 250 2184 428 2587 
Q 606 2991 970 3192 
Q 1334 3394 1763 3394 
Q 2303 3394 2647 3120 
Q 2991 2847 3088 2344 
L 2541 2259 
Q 2463 2594 2264 2762 
Q 2066 2931 1784 2931 
Q 1359 2931 1093 2626 
Q 828 2322 828 1663 
Q 828 994 1084 691 
Q 1341 388 1753 388 
Q 2084 388 2306 591 
Q 2528 794 2588 1216 
z
" transform="scale(0.015625)"/>
       <path id="ArialMT-6c" d="M 409 0 
L 409 4581 
L 972 4581 
L 972 0 
L 409 0 
z
" transform="scale(0.015625)"/>
       <path id="ArialMT-65" d="M 2694 1069 
L 3275 997 
Q 3138 488 2766 206 
Q 2394 -75 1816 -75 
Q 1088 -75 661 373 
Q 234 822 234 1631 
Q 234 2469 665 2931 
Q 1097 3394 1784 3394 
Q 2450 3394 2872 2941 
Q 3294 2488 3294 1666 
Q 3294 1616 3291 1516 
L 816 1516 
Q 847 969 1125 678 
Q 1403 388 1819 388 
Q 2128 388 2347 550 
Q 2566 713 2694 1069 
z
M 847 1978 
L 2700 1978 
Q 2663 2397 2488 2606 
Q 2219 2931 1791 2931 
Q 1403 2931 1139 2672 
Q 875 2413 847 1978 
z
" transform="scale(0.015625)"/>
       <path id="ArialMT-20" transform="scale(0.015625)"/>
       <path id="ArialMT-4c" d="M 469 0 
L 469 4581 
L 1075 4581 
L 1075 541 
L 3331 541 
L 3331 0 
L 469 0 
z
" transform="scale(0.015625)"/>
       <path id="ArialMT-6e" d="M 422 0 
L 422 3319 
L 928 3319 
L 928 2847 
Q 1294 3394 1984 3394 
Q 2284 3394 2536 3286 
Q 2788 3178 2913 3003 
Q 3038 2828 3088 2588 
Q 3119 2431 3119 2041 
L 3119 0 
L 2556 0 
L 2556 2019 
Q 2556 2363 2490 2533 
Q 2425 2703 2258 2804 
Q 2091 2906 1866 2906 
Q 1506 2906 1245 2678 
Q 984 2450 984 1813 
L 984 0 
L 422 0 
z
" transform="scale(0.015625)"/>
       <path id="ArialMT-67" d="M 319 -275 
L 866 -356 
Q 900 -609 1056 -725 
Q 1266 -881 1628 -881 
Q 2019 -881 2231 -725 
Q 2444 -569 2519 -288 
Q 2563 -116 2559 434 
Q 2191 0 1641 0 
Q 956 0 581 494 
Q 206 988 206 1678 
Q 206 2153 378 2554 
Q 550 2956 876 3175 
Q 1203 3394 1644 3394 
Q 2231 3394 2613 2919 
L 2613 3319 
L 3131 3319 
L 3131 450 
Q 3131 -325 2973 -648 
Q 2816 -972 2473 -1159 
Q 2131 -1347 1631 -1347 
Q 1038 -1347 672 -1080 
Q 306 -813 319 -275 
z
M 784 1719 
Q 784 1066 1043 766 
Q 1303 466 1694 466 
Q 2081 466 2343 764 
Q 2606 1063 2606 1700 
Q 2606 2309 2336 2618 
Q 2066 2928 1684 2928 
Q 1309 2928 1046 2623 
Q 784 2319 784 1719 
z
" transform="scale(0.015625)"/>
       <path id="ArialMT-74" d="M 1650 503 
L 1731 6 
Q 1494 -44 1306 -44 
Q 1000 -44 831 53 
Q 663 150 594 308 
Q 525 466 525 972 
L 525 2881 
L 113 2881 
L 113 3319 
L 525 3319 
L 525 4141 
L 1084 4478 
L 1084 3319 
L 1650 3319 
L 1650 2881 
L 1084 2881 
L 1084 941 
Q 1084 700 1114 631 
Q 1144 563 1211 522 
Q 1278 481 1403 481 
Q 1497 481 1650 503 
z
" transform="scale(0.015625)"/>
       <path id="ArialMT-68" d="M 422 0 
L 422 4581 
L 984 4581 
L 984 2938 
Q 1378 3394 1978 3394 
Q 2347 3394 2619 3248 
Q 2891 3103 3008 2847 
Q 3125 2591 3125 2103 
L 3125 0 
L 2563 0 
L 2563 2103 
Q 2563 2525 2380 2717 
Q 2197 2909 1863 2909 
Q 1613 2909 1392 2779 
Q 1172 2650 1078 2428 
Q 984 2206 984 1816 
L 984 0 
L 422 0 
z
" transform="scale(0.015625)"/>
      </defs>
      <use xlink:href="#ArialMT-43"/>
      <use xlink:href="#ArialMT-79" transform="translate(72.216797 0)"/>
      <use xlink:href="#ArialMT-63" transform="translate(122.216797 0)"/>
      <use xlink:href="#ArialMT-6c" transform="translate(172.216797 0)"/>
      <use xlink:href="#ArialMT-65" transform="translate(194.433594 0)"/>
      <use xlink:href="#ArialMT-20" transform="translate(250.048828 0)"/>
      <use xlink:href="#ArialMT-4c" transform="translate(277.832031 0)"/>
      <use xlink:href="#ArialMT-65" transform="translate(333.447266 0)"/>
      <use xlink:href="#ArialMT-6e" transform="translate(389.0625 0)"/>
      <use xlink:href="#ArialMT-67" transform="translate(444.677734 0)"/>
      <use xlink:href="#ArialMT-74" transform="translate(500.292969 0)"/>
      <use xlink:href="#ArialMT-68" transform="translate(528.076172 0)"/>
      <use xlink:href="#ArialMT-20" transform="translate(583.691406 0)"/>
     </g>
     <!-- [days] -->
     <g style="fill: #262626" transform="translate(25.590375 77.337125) rotate(-90) scale(0.088 -0.088)">
      <defs>
       <path id="ArialMT-5b" d="M 434 -1272 
L 434 4581 
L 1675 4581 
L 1675 4116 
L 997 4116 
L 997 -806 
L 1675 -806 
L 1675 -1272 
L 434 -1272 
z
" transform="scale(0.015625)"/>
       <path id="ArialMT-64" d="M 2575 0 
L 2575 419 
Q 2259 -75 1647 -75 
Q 1250 -75 917 144 
Q 584 363 401 755 
Q 219 1147 219 1656 
Q 219 2153 384 2558 
Q 550 2963 881 3178 
Q 1213 3394 1622 3394 
Q 1922 3394 2156 3267 
Q 2391 3141 2538 2938 
L 2538 4581 
L 3097 4581 
L 3097 0 
L 2575 0 
z
M 797 1656 
Q 797 1019 1065 703 
Q 1334 388 1700 388 
Q 2069 388 2326 689 
Q 2584 991 2584 1609 
Q 2584 2291 2321 2609 
Q 2059 2928 1675 2928 
Q 1300 2928 1048 2622 
Q 797 2316 797 1656 
z
" transform="scale(0.015625)"/>
       <path id="ArialMT-61" d="M 2588 409 
Q 2275 144 1986 34 
Q 1697 -75 1366 -75 
Q 819 -75 525 192 
Q 231 459 231 875 
Q 231 1119 342 1320 
Q 453 1522 633 1644 
Q 813 1766 1038 1828 
Q 1203 1872 1538 1913 
Q 2219 1994 2541 2106 
Q 2544 2222 2544 2253 
Q 2544 2597 2384 2738 
Q 2169 2928 1744 2928 
Q 1347 2928 1158 2789 
Q 969 2650 878 2297 
L 328 2372 
Q 403 2725 575 2942 
Q 747 3159 1072 3276 
Q 1397 3394 1825 3394 
Q 2250 3394 2515 3294 
Q 2781 3194 2906 3042 
Q 3031 2891 3081 2659 
Q 3109 2516 3109 2141 
L 3109 1391 
Q 3109 606 3145 398 
Q 3181 191 3288 0 
L 2700 0 
Q 2613 175 2588 409 
z
M 2541 1666 
Q 2234 1541 1622 1453 
Q 1275 1403 1131 1340 
Q 988 1278 909 1158 
Q 831 1038 831 891 
Q 831 666 1001 516 
Q 1172 366 1500 366 
Q 1825 366 2078 508 
Q 2331 650 2450 897 
Q 2541 1088 2541 1459 
L 2541 1666 
z
" transform="scale(0.015625)"/>
       <path id="ArialMT-73" d="M 197 991 
L 753 1078 
Q 800 744 1014 566 
Q 1228 388 1613 388 
Q 2000 388 2187 545 
Q 2375 703 2375 916 
Q 2375 1106 2209 1216 
Q 2094 1291 1634 1406 
Q 1016 1563 777 1677 
Q 538 1791 414 1992 
Q 291 2194 291 2438 
Q 291 2659 392 2848 
Q 494 3038 669 3163 
Q 800 3259 1026 3326 
Q 1253 3394 1513 3394 
Q 1903 3394 2198 3281 
Q 2494 3169 2634 2976 
Q 2775 2784 2828 2463 
L 2278 2388 
Q 2241 2644 2061 2787 
Q 1881 2931 1553 2931 
Q 1166 2931 1000 2803 
Q 834 2675 834 2503 
Q 834 2394 903 2306 
Q 972 2216 1119 2156 
Q 1203 2125 1616 2013 
Q 2213 1853 2448 1751 
Q 2684 1650 2818 1456 
Q 2953 1263 2953 975 
Q 2953 694 2789 445 
Q 2625 197 2315 61 
Q 2006 -75 1616 -75 
Q 969 -75 630 194 
Q 291 463 197 991 
z
" transform="scale(0.015625)"/>
       <path id="ArialMT-5d" d="M 1363 -1272 
L 122 -1272 
L 122 -806 
L 800 -806 
L 800 4116 
L 122 4116 
L 122 4581 
L 1363 4581 
L 1363 -1272 
z
" transform="scale(0.015625)"/>
      </defs>
      <use xlink:href="#ArialMT-5b"/>
      <use xlink:href="#ArialMT-64" transform="translate(27.783203 0)"/>
      <use xlink:href="#ArialMT-61" transform="translate(83.398438 0)"/>
      <use xlink:href="#ArialMT-79" transform="translate(139.013672 0)"/>
      <use xlink:href="#ArialMT-73" transform="translate(189.013672 0)"/>
      <use xlink:href="#ArialMT-5d" transform="translate(239.013672 0)"/>
     </g>
    </g>
   </g>
   <g id="line2d_23">
    <path d="M 50.449091 25.535581 
L 51.986281 26.383471 
L 53.523471 27.230256 
L 55.060661 28.075934 
L 56.597851 28.920507 
L 58.135041 29.763974 
L 59.672231 30.606335 
L 61.209421 31.44759 
L 62.746612 32.287739 
L 64.283802 33.126783 
L 65.820992 33.964721 
L 67.358182 34.801553 
L 68.895372 35.637279 
L 70.432562 36.471899 
L 71.969752 37.305414 
L 73.506942 38.137822 
L 75.044132 38.969125 
L 76.581322 39.799322 
L 78.118512 40.628413 
L 79.655702 41.456399 
L 81.192893 42.283278 
L 82.730083 43.109052 
L 84.267273 43.93372 
L 85.804463 44.757282 
L 87.341653 45.579739 
L 88.878843 46.401089 
L 90.416033 47.221334 
L 91.953223 48.040473 
L 93.490413 48.858506 
L 95.027603 49.675433 
L 96.564793 50.491254 
L 98.101983 51.30597 
L 99.639174 52.11958 
L 101.176364 52.932084 
L 102.713554 53.743482 
L 104.250744 54.553774 
L 105.787934 55.362961 
L 107.325124 56.171041 
L 108.862314 56.978016 
L 110.399504 57.783885 
L 111.936694 58.588649 
L 113.473884 59.392306 
L 115.011074 60.194858 
L 116.548264 60.996303 
L 118.085455 61.796643 
L 119.622645 62.595878 
L 121.159835 63.394006 
L 122.697025 64.191028 
L 124.234215 64.986945 
L 125.771405 65.781756 
L 127.308595 66.575461 
L 128.845785 67.36806 
L 130.382975 68.159554 
L 131.920165 68.949942 
L 133.457355 69.739223 
L 134.994545 70.527399 
L 136.531736 71.314469 
L 138.068926 72.100434 
L 139.606116 72.885292 
L 141.143306 73.669045 
L 142.680496 74.451692 
L 144.217686 75.233233 
L 145.754876 76.013668 
L 147.292066 76.792998 
L 148.829256 77.571222 
L 150.366446 78.348339 
L 151.903636 79.124351 
L 153.440826 79.899258 
L 154.978017 80.673058 
L 156.515207 81.445753 
L 158.052397 82.217341 
L 159.589587 82.987824 
L 161.126777 83.757201 
L 162.663967 84.525473 
L 164.201157 85.292638 
L 165.738347 86.058698 
L 167.275537 86.823652 
L 168.812727 87.5875 
L 170.349917 88.350242 
L 171.887107 89.111878 
L 173.424298 89.872409 
L 174.961488 90.631834 
L 176.498678 91.390152 
L 178.035868 92.147366 
L 179.573058 92.903473 
L 181.110248 93.658474 
L 182.647438 94.41237 
L 184.184628 95.16516 
L 185.721818 95.916844 
L 187.259008 96.667422 
L 188.796198 97.416895 
L 190.333388 98.165261 
L 191.870579 98.912522 
L 193.407769 99.658677 
L 194.944959 100.403726 
L 196.482149 101.147669 
L 198.019339 101.890507 
L 199.556529 102.632239 
L 201.093719 103.372864 
L 202.630909 104.112384 
" clip-path="url(#p9383bb07ca)" style="fill: none; stroke: #2964d9; stroke-opacity: 0.5; stroke-width: 2; stroke-linecap: round"/>
   </g>
   <g id="FillBetweenPolyCollection_1">
    <defs>
     <path id="m3368958f0d" d="M 50.449091 -275.139537 
L 50.449091 -254.381229 
L 51.986281 -253.934031 
L 53.523471 -253.478936 
L 55.060661 -253.015878 
L 56.597851 -252.544786 
L 58.135041 -252.065579 
L 59.672231 -251.57817 
L 61.209421 -251.082464 
L 62.746612 -250.578356 
L 64.283802 -250.06573 
L 65.820992 -249.544459 
L 67.358182 -249.014403 
L 68.895372 -248.475412 
L 70.432562 -247.927317 
L 71.969752 -247.369939 
L 73.506942 -246.80308 
L 75.044132 -246.22653 
L 76.581322 -245.640063 
L 78.118512 -245.043438 
L 79.655702 -244.436405 
L 81.192893 -243.818706 
L 82.730083 -243.190081 
L 84.267273 -242.550275 
L 85.804463 -241.899049 
L 87.341653 -241.236194 
L 88.878843 -240.561542 
L 90.416033 -239.874988 
L 91.953223 -239.176508 
L 93.490413 -238.466175 
L 95.027603 -237.744181 
L 96.564793 -237.010847 
L 98.101983 -236.266635 
L 99.639174 -235.512143 
L 101.176364 -234.748104 
L 102.713554 -233.975363 
L 104.250744 -233.194859 
L 105.787934 -232.407595 
L 107.325124 -231.61461 
L 108.862314 -230.81695 
L 110.399504 -230.015641 
L 111.936694 -229.211667 
L 113.473884 -228.405953 
L 115.011074 -227.599353 
L 116.548264 -226.792642 
L 118.085455 -225.986511 
L 119.622645 -225.181564 
L 121.159835 -224.378322 
L 122.697025 -223.57722 
L 124.234215 -222.778615 
L 125.771405 -221.98278 
L 127.308595 -221.189917 
L 128.845785 -220.400147 
L 130.382975 -219.613519 
L 131.920165 -218.830007 
L 133.457355 -218.049509 
L 134.994545 -217.271845 
L 136.531736 -216.496755 
L 138.068926 -215.723897 
L 139.606116 -214.952839 
L 141.143306 -214.183059 
L 142.680496 -213.413941 
L 144.217686 -212.644771 
L 145.754876 -211.874739 
L 147.292066 -211.10294 
L 148.829256 -210.328382 
L 150.366446 -209.55 
L 151.903636 -208.766672 
L 153.440826 -207.977249 
L 154.978017 -207.180582 
L 156.515207 -206.375562 
L 158.052397 -205.561155 
L 159.589587 -204.736439 
L 161.126777 -203.90063 
L 162.663967 -203.053105 
L 164.201157 -202.193412 
L 165.738347 -201.32126 
L 167.275537 -200.436515 
L 168.812727 -199.539175 
L 170.349917 -198.629348 
L 171.887107 -197.707225 
L 173.424298 -196.773058 
L 174.961488 -195.827138 
L 176.498678 -194.869776 
L 178.035868 -193.901293 
L 179.573058 -192.922002 
L 181.110248 -191.932211 
L 182.647438 -190.932208 
L 184.184628 -189.922265 
L 185.721818 -188.902633 
L 187.259008 -187.873543 
L 188.796198 -186.835209 
L 190.333388 -185.787821 
L 191.870579 -184.731555 
L 193.407769 -183.66657 
L 194.944959 -182.593009 
L 196.482149 -181.511001 
L 198.019339 -180.420662 
L 199.556529 -179.3221 
L 201.093719 -178.215408 
L 202.630909 -177.100674 
L 202.630909 -195.266487 
L 202.630909 -195.266487 
L 201.093719 -195.630792 
L 199.556529 -196.005352 
L 198.019339 -196.390253 
L 196.482149 -196.78559 
L 194.944959 -197.191468 
L 193.407769 -197.608005 
L 191.870579 -198.03533 
L 190.333388 -198.473586 
L 188.796198 -198.922931 
L 187.259008 -199.383542 
L 185.721818 -199.855609 
L 184.184628 -200.339345 
L 182.647438 -200.834981 
L 181.110248 -201.34277 
L 179.573058 -201.862981 
L 178.035868 -202.395906 
L 176.498678 -202.941848 
L 174.961488 -203.501125 
L 173.424298 -204.074054 
L 171.887107 -204.660948 
L 170.349917 -205.262098 
L 168.812727 -205.877755 
L 167.275537 -206.508111 
L 165.738347 -207.153274 
L 164.201157 -207.813242 
L 162.663967 -208.487879 
L 161.126777 -209.176897 
L 159.589587 -209.879842 
L 158.052397 -210.596092 
L 156.515207 -211.324862 
L 154.978017 -212.065231 
L 153.440826 -212.816165 
L 151.903636 -213.576554 
L 150.366446 -214.345251 
L 148.829256 -215.121104 
L 147.292066 -215.902993 
L 145.754876 -216.689853 
L 144.217686 -217.480692 
L 142.680496 -218.274604 
L 141.143306 -219.07078 
L 139.606116 -219.868506 
L 138.068926 -220.667165 
L 136.531736 -221.466235 
L 134.994545 -222.265286 
L 133.457355 -223.063974 
L 131.920165 -223.862039 
L 130.382975 -224.659303 
L 128.845785 -225.455662 
L 127.308595 -226.25109 
L 125.771405 -227.045637 
L 124.234215 -227.839424 
L 122.697025 -228.632652 
L 121.159835 -229.425596 
L 119.622645 -230.21861 
L 118.085455 -231.012131 
L 116.548264 -231.80668 
L 115.011074 -232.602861 
L 113.473884 -233.401365 
L 111.936694 -234.202966 
L 110.399504 -235.008518 
L 108.862314 -235.818947 
L 107.325124 -236.635237 
L 105.787934 -237.458413 
L 104.250744 -238.289522 
L 102.713554 -239.129603 
L 101.176364 -239.979658 
L 99.639174 -240.840626 
L 98.101983 -241.713355 
L 96.564793 -242.598574 
L 95.027603 -243.496883 
L 93.490413 -244.408743 
L 91.953223 -245.334476 
L 90.416033 -246.274274 
L 88.878843 -247.228209 
L 87.341653 -248.196259 
L 85.804463 -249.178316 
L 84.267273 -250.174214 
L 82.730083 -251.183744 
L 81.192893 -252.206666 
L 79.655702 -253.242726 
L 78.118512 -254.291664 
L 76.581322 -255.353222 
L 75.044132 -256.427149 
L 73.506942 -257.513205 
L 71.969752 -258.611164 
L 70.432562 -259.720814 
L 68.895372 -260.84196 
L 67.358182 -261.974421 
L 65.820992 -263.118029 
L 64.283802 -264.272633 
L 62.746612 -265.438094 
L 61.209421 -266.614285 
L 59.672231 -267.80109 
L 58.135041 -268.998403 
L 56.597851 -270.20613 
L 55.060661 -271.424183 
L 53.523471 -272.652482 
L 51.986281 -273.890955 
L 50.449091 -275.139537 
z
"/>
    </defs>
    <g clip-path="url(#p9383bb07ca)">
     <use xlink:href="#m3368958f0d" x="0" y="290.295965" style="fill: #2964d9; fill-opacity: 0.25"/>
    </g>
   </g>
   <g id="patch_3">
    <path d="M 42.84 118.51875 
L 42.84 12.67875 
" style="fill: none; stroke: #000000; stroke-linejoin: miter; stroke-linecap: square"/>
   </g>
   <g id="patch_4">
    <path d="M 42.84 118.51875 
L 210.24 118.51875 
" style="fill: none; stroke: #000000; stroke-linejoin: miter; stroke-linecap: square"/>
   </g>
   <g id="text_5">
    <!-- 97 -->
    <g style="fill: #262626" transform="translate(55.511705 33.816863) scale(0.08 -0.08)">
     <defs>
      <path id="ArialMT-39" d="M 350 1059 
L 891 1109 
Q 959 728 1153 556 
Q 1347 384 1650 384 
Q 1909 384 2104 503 
Q 2300 622 2425 820 
Q 2550 1019 2634 1356 
Q 2719 1694 2719 2044 
Q 2719 2081 2716 2156 
Q 2547 1888 2255 1720 
Q 1963 1553 1622 1553 
Q 1053 1553 659 1965 
Q 266 2378 266 3053 
Q 266 3750 677 4175 
Q 1088 4600 1706 4600 
Q 2153 4600 2523 4359 
Q 2894 4119 3086 3673 
Q 3278 3228 3278 2384 
Q 3278 1506 3087 986 
Q 2897 466 2520 194 
Q 2144 -78 1638 -78 
Q 1100 -78 759 220 
Q 419 519 350 1059 
z
M 2653 3081 
Q 2653 3566 2395 3850 
Q 2138 4134 1775 4134 
Q 1400 4134 1122 3828 
Q 844 3522 844 3034 
Q 844 2597 1108 2323 
Q 1372 2050 1759 2050 
Q 2150 2050 2401 2323 
Q 2653 2597 2653 3081 
z
" transform="scale(0.015625)"/>
      <path id="ArialMT-37" d="M 303 3981 
L 303 4522 
L 3269 4522 
L 3269 4084 
Q 2831 3619 2401 2847 
Q 1972 2075 1738 1259 
Q 1569 684 1522 0 
L 944 0 
Q 953 541 1156 1306 
Q 1359 2072 1739 2783 
Q 2119 3494 2547 3981 
L 303 3981 
z
" transform="scale(0.015625)"/>
     </defs>
     <use xlink:href="#ArialMT-39"/>
     <use xlink:href="#ArialMT-37" transform="translate(55.615234 0)"/>
    </g>
   </g>
   <g id="text_6">
    <!-- 265 -->
    <g style="fill: #262626" transform="translate(72.310057 24.505733) scale(0.08 -0.08)">
     <defs>
      <path id="ArialMT-35" d="M 266 1200 
L 856 1250 
Q 922 819 1161 601 
Q 1400 384 1738 384 
Q 2144 384 2425 690 
Q 2706 997 2706 1503 
Q 2706 1984 2436 2262 
Q 2166 2541 1728 2541 
Q 1456 2541 1237 2417 
Q 1019 2294 894 2097 
L 366 2166 
L 809 4519 
L 3088 4519 
L 3088 3981 
L 1259 3981 
L 1013 2750 
Q 1425 3038 1878 3038 
Q 2478 3038 2890 2622 
Q 3303 2206 3303 1553 
Q 3303 931 2941 478 
Q 2500 -78 1738 -78 
Q 1113 -78 717 272 
Q 322 622 266 1200 
z
" transform="scale(0.015625)"/>
     </defs>
     <use xlink:href="#ArialMT-32"/>
     <use xlink:href="#ArialMT-36" transform="translate(55.615234 0)"/>
     <use xlink:href="#ArialMT-35" transform="translate(111.230469 0)"/>
    </g>
   </g>
   <g id="text_7">
    <!-- 493 -->
    <g style="fill: #262626" transform="translate(91.332784 45.88066) scale(0.08 -0.08)">
     <defs>
      <path id="ArialMT-34" d="M 2069 0 
L 2069 1097 
L 81 1097 
L 81 1613 
L 2172 4581 
L 2631 4581 
L 2631 1613 
L 3250 1613 
L 3250 1097 
L 2631 1097 
L 2631 0 
L 2069 0 
z
M 2069 1613 
L 2069 3678 
L 634 1613 
L 2069 1613 
z
" transform="scale(0.015625)"/>
     </defs>
     <use xlink:href="#ArialMT-34"/>
     <use xlink:href="#ArialMT-39" transform="translate(55.615234 0)"/>
     <use xlink:href="#ArialMT-33" transform="translate(111.230469 0)"/>
    </g>
   </g>
   <g id="text_8">
    <!-- 560 -->
    <g style="fill: #262626" transform="translate(110.355511 54.610048) scale(0.08 -0.08)">
     <use xlink:href="#ArialMT-35"/>
     <use xlink:href="#ArialMT-36" transform="translate(55.615234 0)"/>
     <use xlink:href="#ArialMT-30" transform="translate(111.230469 0)"/>
    </g>
   </g>
   <g id="text_9">
    <!-- 494 -->
    <g style="fill: #262626" transform="translate(129.378239 68.474735) scale(0.08 -0.08)">
     <use xlink:href="#ArialMT-34"/>
     <use xlink:href="#ArialMT-39" transform="translate(55.615234 0)"/>
     <use xlink:href="#ArialMT-34" transform="translate(111.230469 0)"/>
    </g>
   </g>
   <g id="text_10">
    <!-- 452 -->
    <g style="fill: #262626" transform="translate(148.400966 73.817153) scale(0.08 -0.08)">
     <use xlink:href="#ArialMT-34"/>
     <use xlink:href="#ArialMT-35" transform="translate(55.615234 0)"/>
     <use xlink:href="#ArialMT-32" transform="translate(111.230469 0)"/>
    </g>
   </g>
   <g id="text_11">
    <!-- 190 -->
    <g style="fill: #262626" transform="translate(167.423693 81.583889) scale(0.08 -0.08)">
     <defs>
      <path id="ArialMT-31" d="M 2384 0 
L 1822 0 
L 1822 3584 
Q 1619 3391 1289 3197 
Q 959 3003 697 2906 
L 697 3450 
Q 1169 3672 1522 3987 
Q 1875 4303 2022 4600 
L 2384 4600 
L 2384 0 
z
" transform="scale(0.015625)"/>
     </defs>
     <use xlink:href="#ArialMT-31"/>
     <use xlink:href="#ArialMT-39" transform="translate(55.615234 0)"/>
     <use xlink:href="#ArialMT-30" transform="translate(111.230469 0)"/>
    </g>
   </g>
   <g id="text_12">
    <!-- 45 -->
    <g style="fill: #262626" transform="translate(188.670795 82.354037) scale(0.08 -0.08)">
     <use xlink:href="#ArialMT-34"/>
     <use xlink:href="#ArialMT-35" transform="translate(55.615234 0)"/>
    </g>
   </g>
   <g id="line2d_24">
    <path d="M 59.960455 58.019719 
L 59.960455 35.627363 
" clip-path="url(#p9383bb07ca)" style="fill: none; stroke: #4c4c4c; stroke-width: 2; stroke-linecap: round"/>
   </g>
   <g id="line2d_25">
    <path d="M 78.983182 39.738283 
L 78.983182 26.316233 
" clip-path="url(#p9383bb07ca)" style="fill: none; stroke: #4c4c4c; stroke-width: 2; stroke-linecap: round"/>
   </g>
   <g id="line2d_26">
    <path d="M 98.005909 56.709238 
L 98.005909 47.69116 
" clip-path="url(#p9383bb07ca)" style="fill: none; stroke: #4c4c4c; stroke-width: 2; stroke-linecap: round"/>
   </g>
   <g id="line2d_27">
    <path d="M 117.028636 65.665598 
L 117.028636 56.420548 
" clip-path="url(#p9383bb07ca)" style="fill: none; stroke: #4c4c4c; stroke-width: 2; stroke-linecap: round"/>
   </g>
   <g id="line2d_28">
    <path d="M 136.051364 78.335998 
L 136.051364 70.285235 
" clip-path="url(#p9383bb07ca)" style="fill: none; stroke: #4c4c4c; stroke-width: 2; stroke-linecap: round"/>
   </g>
   <g id="line2d_29">
    <path d="M 155.074091 84.072274 
L 155.074091 75.627653 
" clip-path="url(#p9383bb07ca)" style="fill: none; stroke: #4c4c4c; stroke-width: 2; stroke-linecap: round"/>
   </g>
   <g id="line2d_30">
    <path d="M 174.096818 95.054837 
L 174.096818 83.394389 
" clip-path="url(#p9383bb07ca)" style="fill: none; stroke: #4c4c4c; stroke-width: 2; stroke-linecap: round"/>
   </g>
   <g id="line2d_31">
    <path d="M 193.119545 105.36625 
L 193.119545 84.164537 
" clip-path="url(#p9383bb07ca)" style="fill: none; stroke: #4c4c4c; stroke-width: 2; stroke-linecap: round"/>
   </g>
   <g id="line2d_32">
    <path d="M 59.960455 46.959969 
" clip-path="url(#p9383bb07ca)" style="fill: none; stroke: #4c4c4c; stroke-width: 1.8; stroke-linecap: round"/>
    <defs>
     <path id="mc0a974e2c3" d="M 0 2 
C 0.530406 2 1.03916 1.789267 1.414214 1.414214 
C 1.789267 1.03916 2 0.530406 2 0 
C 2 -0.530406 1.789267 -1.03916 1.414214 -1.414214 
C 1.03916 -1.789267 0.530406 -2 0 -2 
C -0.530406 -2 -1.03916 -1.789267 -1.414214 -1.414214 
C -1.789267 -1.03916 -2 -0.530406 -2 0 
C -2 0.530406 -1.789267 1.03916 -1.414214 1.414214 
C -1.03916 1.789267 -0.530406 2 0 2 
z
"/>
    </defs>
    <g clip-path="url(#p9383bb07ca)">
     <use xlink:href="#mc0a974e2c3" x="59.960455" y="46.959969" style="fill: #4c4c4c"/>
    </g>
   </g>
   <g id="line2d_33">
    <path d="M 78.983182 33.189036 
" clip-path="url(#p9383bb07ca)" style="fill: none; stroke: #4c4c4c; stroke-width: 1.8; stroke-linecap: round"/>
    <g clip-path="url(#p9383bb07ca)">
     <use xlink:href="#mc0a974e2c3" x="78.983182" y="33.189036" style="fill: #4c4c4c"/>
    </g>
   </g>
   <g id="line2d_34">
    <path d="M 98.005909 52.311624 
" clip-path="url(#p9383bb07ca)" style="fill: none; stroke: #4c4c4c; stroke-width: 1.8; stroke-linecap: round"/>
    <g clip-path="url(#p9383bb07ca)">
     <use xlink:href="#mc0a974e2c3" x="98.005909" y="52.311624" style="fill: #4c4c4c"/>
    </g>
   </g>
   <g id="line2d_35">
    <path d="M 117.028636 61.093319 
" clip-path="url(#p9383bb07ca)" style="fill: none; stroke: #4c4c4c; stroke-width: 1.8; stroke-linecap: round"/>
    <g clip-path="url(#p9383bb07ca)">
     <use xlink:href="#mc0a974e2c3" x="117.028636" y="61.093319" style="fill: #4c4c4c"/>
    </g>
   </g>
   <g id="line2d_36">
    <path d="M 136.051364 74.773691 
" clip-path="url(#p9383bb07ca)" style="fill: none; stroke: #4c4c4c; stroke-width: 1.8; stroke-linecap: round"/>
    <g clip-path="url(#p9383bb07ca)">
     <use xlink:href="#mc0a974e2c3" x="136.051364" y="74.773691" style="fill: #4c4c4c"/>
    </g>
   </g>
   <g id="line2d_37">
    <path d="M 155.074091 79.988383 
" clip-path="url(#p9383bb07ca)" style="fill: none; stroke: #4c4c4c; stroke-width: 1.8; stroke-linecap: round"/>
    <g clip-path="url(#p9383bb07ca)">
     <use xlink:href="#mc0a974e2c3" x="155.074091" y="79.988383" style="fill: #4c4c4c"/>
    </g>
   </g>
   <g id="line2d_38">
    <path d="M 174.096818 89.231502 
" clip-path="url(#p9383bb07ca)" style="fill: none; stroke: #4c4c4c; stroke-width: 1.8; stroke-linecap: round"/>
    <g clip-path="url(#p9383bb07ca)">
     <use xlink:href="#mc0a974e2c3" x="174.096818" y="89.231502" style="fill: #4c4c4c"/>
    </g>
   </g>
   <g id="line2d_39">
    <path d="M 193.119545 94.671162 
" clip-path="url(#p9383bb07ca)" style="fill: none; stroke: #4c4c4c; stroke-width: 1.8; stroke-linecap: round"/>
    <g clip-path="url(#p9383bb07ca)">
     <use xlink:href="#mc0a974e2c3" x="193.119545" y="94.671162" style="fill: #4c4c4c"/>
    </g>
   </g>
  </g>
  <g id="axes_2">
   <g id="patch_5">
    <path d="M 42.84 245.52675 
L 210.24 245.52675 
L 210.24 139.68675 
L 42.84 139.68675 
z
" style="fill: #ffffff"/>
   </g>
   <g id="matplotlib.axis_3">
    <g id="xtick_9">
     <g id="line2d_40">
      <path d="M 59.960455 245.52675 
L 59.960455 139.68675 
" clip-path="url(#p9b5bc29f9a)" style="fill: none"/>
     </g>
     <g id="line2d_41">
      <g>
       <use xlink:href="#m3990a7b3e1" x="59.960455" y="245.52675" style="stroke: #000000"/>
      </g>
     </g>
     <g id="text_13">
      <!-- [18,22] -->
      <g style="fill: #262626" transform="translate(52.782437 269.390214) rotate(-45) scale(0.08 -0.08)">
       <defs>
        <path id="ArialMT-2c" d="M 569 0 
L 569 641 
L 1209 641 
L 1209 0 
Q 1209 -353 1084 -570 
Q 959 -788 688 -906 
L 531 -666 
Q 709 -588 793 -436 
Q 878 -284 888 0 
L 569 0 
z
" transform="scale(0.015625)"/>
       </defs>
       <use xlink:href="#ArialMT-5b"/>
       <use xlink:href="#ArialMT-31" transform="translate(27.783203 0)"/>
       <use xlink:href="#ArialMT-38" transform="translate(83.398438 0)"/>
       <use xlink:href="#ArialMT-2c" transform="translate(139.013672 0)"/>
       <use xlink:href="#ArialMT-32" transform="translate(166.796875 0)"/>
       <use xlink:href="#ArialMT-32" transform="translate(222.412109 0)"/>
       <use xlink:href="#ArialMT-5d" transform="translate(278.027344 0)"/>
      </g>
     </g>
    </g>
    <g id="xtick_10">
     <g id="line2d_42">
      <path d="M 78.983182 245.52675 
L 78.983182 139.68675 
" clip-path="url(#p9b5bc29f9a)" style="fill: none"/>
     </g>
     <g id="line2d_43">
      <g>
       <use xlink:href="#m3990a7b3e1" x="78.983182" y="245.52675" style="stroke: #000000"/>
      </g>
     </g>
     <g id="text_14">
      <!-- (22,26] -->
      <g style="fill: #262626" transform="translate(71.642088 269.754374) rotate(-45) scale(0.08 -0.08)">
       <defs>
        <path id="ArialMT-28" d="M 1497 -1347 
Q 1031 -759 709 28 
Q 388 816 388 1659 
Q 388 2403 628 3084 
Q 909 3875 1497 4659 
L 1900 4659 
Q 1522 4009 1400 3731 
Q 1209 3300 1100 2831 
Q 966 2247 966 1656 
Q 966 153 1900 -1347 
L 1497 -1347 
z
" transform="scale(0.015625)"/>
       </defs>
       <use xlink:href="#ArialMT-28"/>
       <use xlink:href="#ArialMT-32" transform="translate(33.300781 0)"/>
       <use xlink:href="#ArialMT-32" transform="translate(88.916016 0)"/>
       <use xlink:href="#ArialMT-2c" transform="translate(144.53125 0)"/>
       <use xlink:href="#ArialMT-32" transform="translate(172.314453 0)"/>
       <use xlink:href="#ArialMT-36" transform="translate(227.929688 0)"/>
       <use xlink:href="#ArialMT-5d" transform="translate(283.544922 0)"/>
      </g>
     </g>
    </g>
    <g id="xtick_11">
     <g id="line2d_44">
      <path d="M 98.005909 245.52675 
L 98.005909 139.68675 
" clip-path="url(#p9b5bc29f9a)" style="fill: none"/>
     </g>
     <g id="line2d_45">
      <g>
       <use xlink:href="#m3990a7b3e1" x="98.005909" y="245.52675" style="stroke: #000000"/>
      </g>
     </g>
     <g id="text_15">
      <!-- (26,30] -->
      <g style="fill: #262626" transform="translate(90.664815 269.754374) rotate(-45) scale(0.08 -0.08)">
       <use xlink:href="#ArialMT-28"/>
       <use xlink:href="#ArialMT-32" transform="translate(33.300781 0)"/>
       <use xlink:href="#ArialMT-36" transform="translate(88.916016 0)"/>
       <use xlink:href="#ArialMT-2c" transform="translate(144.53125 0)"/>
       <use xlink:href="#ArialMT-33" transform="translate(172.314453 0)"/>
       <use xlink:href="#ArialMT-30" transform="translate(227.929688 0)"/>
       <use xlink:href="#ArialMT-5d" transform="translate(283.544922 0)"/>
      </g>
     </g>
    </g>
    <g id="xtick_12">
     <g id="line2d_46">
      <path d="M 117.028636 245.52675 
L 117.028636 139.68675 
" clip-path="url(#p9b5bc29f9a)" style="fill: none"/>
     </g>
     <g id="line2d_47">
      <g>
       <use xlink:href="#m3990a7b3e1" x="117.028636" y="245.52675" style="stroke: #000000"/>
      </g>
     </g>
     <g id="text_16">
      <!-- (30,34] -->
      <g style="fill: #262626" transform="translate(109.687542 269.754374) rotate(-45) scale(0.08 -0.08)">
       <use xlink:href="#ArialMT-28"/>
       <use xlink:href="#ArialMT-33" transform="translate(33.300781 0)"/>
       <use xlink:href="#ArialMT-30" transform="translate(88.916016 0)"/>
       <use xlink:href="#ArialMT-2c" transform="translate(144.53125 0)"/>
       <use xlink:href="#ArialMT-33" transform="translate(172.314453 0)"/>
       <use xlink:href="#ArialMT-34" transform="translate(227.929688 0)"/>
       <use xlink:href="#ArialMT-5d" transform="translate(283.544922 0)"/>
      </g>
     </g>
    </g>
    <g id="xtick_13">
     <g id="line2d_48">
      <path d="M 136.051364 245.52675 
L 136.051364 139.68675 
" clip-path="url(#p9b5bc29f9a)" style="fill: none"/>
     </g>
     <g id="line2d_49">
      <g>
       <use xlink:href="#m3990a7b3e1" x="136.051364" y="245.52675" style="stroke: #000000"/>
      </g>
     </g>
     <g id="text_17">
      <!-- (34,38] -->
      <g style="fill: #262626" transform="translate(128.710269 269.754374) rotate(-45) scale(0.08 -0.08)">
       <use xlink:href="#ArialMT-28"/>
       <use xlink:href="#ArialMT-33" transform="translate(33.300781 0)"/>
       <use xlink:href="#ArialMT-34" transform="translate(88.916016 0)"/>
       <use xlink:href="#ArialMT-2c" transform="translate(144.53125 0)"/>
       <use xlink:href="#ArialMT-33" transform="translate(172.314453 0)"/>
       <use xlink:href="#ArialMT-38" transform="translate(227.929688 0)"/>
       <use xlink:href="#ArialMT-5d" transform="translate(283.544922 0)"/>
      </g>
     </g>
    </g>
    <g id="xtick_14">
     <g id="line2d_50">
      <path d="M 155.074091 245.52675 
L 155.074091 139.68675 
" clip-path="url(#p9b5bc29f9a)" style="fill: none"/>
     </g>
     <g id="line2d_51">
      <g>
       <use xlink:href="#m3990a7b3e1" x="155.074091" y="245.52675" style="stroke: #000000"/>
      </g>
     </g>
     <g id="text_18">
      <!-- (38,42] -->
      <g style="fill: #262626" transform="translate(147.732997 269.754374) rotate(-45) scale(0.08 -0.08)">
       <use xlink:href="#ArialMT-28"/>
       <use xlink:href="#ArialMT-33" transform="translate(33.300781 0)"/>
       <use xlink:href="#ArialMT-38" transform="translate(88.916016 0)"/>
       <use xlink:href="#ArialMT-2c" transform="translate(144.53125 0)"/>
       <use xlink:href="#ArialMT-34" transform="translate(172.314453 0)"/>
       <use xlink:href="#ArialMT-32" transform="translate(227.929688 0)"/>
       <use xlink:href="#ArialMT-5d" transform="translate(283.544922 0)"/>
      </g>
     </g>
    </g>
    <g id="xtick_15">
     <g id="line2d_52">
      <path d="M 174.096818 245.52675 
L 174.096818 139.68675 
" clip-path="url(#p9b5bc29f9a)" style="fill: none"/>
     </g>
     <g id="line2d_53">
      <g>
       <use xlink:href="#m3990a7b3e1" x="174.096818" y="245.52675" style="stroke: #000000"/>
      </g>
     </g>
     <g id="text_19">
      <!-- (42,46] -->
      <g style="fill: #262626" transform="translate(166.755724 269.754374) rotate(-45) scale(0.08 -0.08)">
       <use xlink:href="#ArialMT-28"/>
       <use xlink:href="#ArialMT-34" transform="translate(33.300781 0)"/>
       <use xlink:href="#ArialMT-32" transform="translate(88.916016 0)"/>
       <use xlink:href="#ArialMT-2c" transform="translate(144.53125 0)"/>
       <use xlink:href="#ArialMT-34" transform="translate(172.314453 0)"/>
       <use xlink:href="#ArialMT-36" transform="translate(227.929688 0)"/>
       <use xlink:href="#ArialMT-5d" transform="translate(283.544922 0)"/>
      </g>
     </g>
    </g>
    <g id="xtick_16">
     <g id="line2d_54">
      <path d="M 193.119545 245.52675 
L 193.119545 139.68675 
" clip-path="url(#p9b5bc29f9a)" style="fill: none"/>
     </g>
     <g id="line2d_55">
      <g>
       <use xlink:href="#m3990a7b3e1" x="193.119545" y="245.52675" style="stroke: #000000"/>
      </g>
     </g>
     <g id="text_20">
      <!-- (46,50] -->
      <g style="fill: #262626" transform="translate(185.778451 269.754374) rotate(-45) scale(0.08 -0.08)">
       <use xlink:href="#ArialMT-28"/>
       <use xlink:href="#ArialMT-34" transform="translate(33.300781 0)"/>
       <use xlink:href="#ArialMT-36" transform="translate(88.916016 0)"/>
       <use xlink:href="#ArialMT-2c" transform="translate(144.53125 0)"/>
       <use xlink:href="#ArialMT-35" transform="translate(172.314453 0)"/>
       <use xlink:href="#ArialMT-30" transform="translate(227.929688 0)"/>
       <use xlink:href="#ArialMT-5d" transform="translate(283.544922 0)"/>
      </g>
     </g>
    </g>
    <g id="text_21">
     <!-- Age -->
     <g style="fill: #262626" transform="translate(118.711438 281.24384) scale(0.088 -0.088)">
      <defs>
       <path id="ArialMT-41" d="M -9 0 
L 1750 4581 
L 2403 4581 
L 4278 0 
L 3588 0 
L 3053 1388 
L 1138 1388 
L 634 0 
L -9 0 
z
M 1313 1881 
L 2866 1881 
L 2388 3150 
Q 2169 3728 2063 4100 
Q 1975 3659 1816 3225 
L 1313 1881 
z
" transform="scale(0.015625)"/>
      </defs>
      <use xlink:href="#ArialMT-41"/>
      <use xlink:href="#ArialMT-67" transform="translate(66.699219 0)"/>
      <use xlink:href="#ArialMT-65" transform="translate(122.314453 0)"/>
     </g>
    </g>
   </g>
   <g id="matplotlib.axis_4">
    <g id="ytick_4">
     <g id="line2d_56">
      <path d="M 42.84 236.70675 
L 210.24 236.70675 
" clip-path="url(#p9b5bc29f9a)" style="fill: none; stroke: #cccccc; stroke-width: 0.5; stroke-linecap: round"/>
     </g>
     <g id="line2d_57">
      <g>
       <use xlink:href="#mb0ef79acad" x="42.84" y="236.70675" style="stroke: #000000"/>
      </g>
     </g>
     <g id="text_22">
      <!-- 0.2 -->
      <g style="fill: #262626" transform="translate(29.22 239.569875) scale(0.08 -0.08)">
       <defs>
        <path id="ArialMT-2e" d="M 581 0 
L 581 641 
L 1222 641 
L 1222 0 
L 581 0 
z
" transform="scale(0.015625)"/>
       </defs>
       <use xlink:href="#ArialMT-30"/>
       <use xlink:href="#ArialMT-2e" transform="translate(55.615234 0)"/>
       <use xlink:href="#ArialMT-32" transform="translate(83.398438 0)"/>
      </g>
     </g>
    </g>
    <g id="ytick_5">
     <g id="line2d_58">
      <path d="M 42.84 192.60675 
L 210.24 192.60675 
" clip-path="url(#p9b5bc29f9a)" style="fill: none; stroke: #cccccc; stroke-width: 0.5; stroke-linecap: round"/>
     </g>
     <g id="line2d_59">
      <g>
       <use xlink:href="#mb0ef79acad" x="42.84" y="192.60675" style="stroke: #000000"/>
      </g>
     </g>
     <g id="text_23">
      <!-- 0.3 -->
      <g style="fill: #262626" transform="translate(29.22 195.469875) scale(0.08 -0.08)">
       <use xlink:href="#ArialMT-30"/>
       <use xlink:href="#ArialMT-2e" transform="translate(55.615234 0)"/>
       <use xlink:href="#ArialMT-33" transform="translate(83.398438 0)"/>
      </g>
     </g>
    </g>
    <g id="ytick_6">
     <g id="line2d_60">
      <path d="M 42.84 148.50675 
L 210.24 148.50675 
" clip-path="url(#p9b5bc29f9a)" style="fill: none; stroke: #cccccc; stroke-width: 0.5; stroke-linecap: round"/>
     </g>
     <g id="line2d_61">
      <g>
       <use xlink:href="#mb0ef79acad" x="42.84" y="148.50675" style="stroke: #000000"/>
      </g>
     </g>
     <g id="text_24">
      <!-- 0.4 -->
      <g style="fill: #262626" transform="translate(29.22 151.369875) scale(0.08 -0.08)">
       <use xlink:href="#ArialMT-30"/>
       <use xlink:href="#ArialMT-2e" transform="translate(55.615234 0)"/>
       <use xlink:href="#ArialMT-34" transform="translate(83.398438 0)"/>
      </g>
     </g>
    </g>
    <g id="text_25">
     <!-- Cycle Length Deviation  -->
     <g style="fill: #262626" transform="translate(13.92575 239.074875) rotate(-90) scale(0.088 -0.088)">
      <defs>
       <path id="ArialMT-44" d="M 494 0 
L 494 4581 
L 2072 4581 
Q 2606 4581 2888 4516 
Q 3281 4425 3559 4188 
Q 3922 3881 4101 3404 
Q 4281 2928 4281 2316 
Q 4281 1794 4159 1391 
Q 4038 988 3847 723 
Q 3656 459 3429 307 
Q 3203 156 2883 78 
Q 2563 0 2147 0 
L 494 0 
z
M 1100 541 
L 2078 541 
Q 2531 541 2789 625 
Q 3047 709 3200 863 
Q 3416 1078 3536 1442 
Q 3656 1806 3656 2325 
Q 3656 3044 3420 3430 
Q 3184 3816 2847 3947 
Q 2603 4041 2063 4041 
L 1100 4041 
L 1100 541 
z
" transform="scale(0.015625)"/>
       <path id="ArialMT-76" d="M 1344 0 
L 81 3319 
L 675 3319 
L 1388 1331 
Q 1503 1009 1600 663 
Q 1675 925 1809 1294 
L 2547 3319 
L 3125 3319 
L 1869 0 
L 1344 0 
z
" transform="scale(0.015625)"/>
       <path id="ArialMT-69" d="M 425 3934 
L 425 4581 
L 988 4581 
L 988 3934 
L 425 3934 
z
M 425 0 
L 425 3319 
L 988 3319 
L 988 0 
L 425 0 
z
" transform="scale(0.015625)"/>
       <path id="ArialMT-6f" d="M 213 1659 
Q 213 2581 725 3025 
Q 1153 3394 1769 3394 
Q 2453 3394 2887 2945 
Q 3322 2497 3322 1706 
Q 3322 1066 3130 698 
Q 2938 331 2570 128 
Q 2203 -75 1769 -75 
Q 1072 -75 642 372 
Q 213 819 213 1659 
z
M 791 1659 
Q 791 1022 1069 705 
Q 1347 388 1769 388 
Q 2188 388 2466 706 
Q 2744 1025 2744 1678 
Q 2744 2294 2464 2611 
Q 2184 2928 1769 2928 
Q 1347 2928 1069 2612 
Q 791 2297 791 1659 
z
" transform="scale(0.015625)"/>
      </defs>
      <use xlink:href="#ArialMT-43"/>
      <use xlink:href="#ArialMT-79" transform="translate(72.216797 0)"/>
      <use xlink:href="#ArialMT-63" transform="translate(122.216797 0)"/>
      <use xlink:href="#ArialMT-6c" transform="translate(172.216797 0)"/>
      <use xlink:href="#ArialMT-65" transform="translate(194.433594 0)"/>
      <use xlink:href="#ArialMT-20" transform="translate(250.048828 0)"/>
      <use xlink:href="#ArialMT-4c" transform="translate(277.832031 0)"/>
      <use xlink:href="#ArialMT-65" transform="translate(333.447266 0)"/>
      <use xlink:href="#ArialMT-6e" transform="translate(389.0625 0)"/>
      <use xlink:href="#ArialMT-67" transform="translate(444.677734 0)"/>
      <use xlink:href="#ArialMT-74" transform="translate(500.292969 0)"/>
      <use xlink:href="#ArialMT-68" transform="translate(528.076172 0)"/>
      <use xlink:href="#ArialMT-20" transform="translate(583.691406 0)"/>
      <use xlink:href="#ArialMT-44" transform="translate(611.474609 0)"/>
      <use xlink:href="#ArialMT-65" transform="translate(683.691406 0)"/>
      <use xlink:href="#ArialMT-76" transform="translate(739.306641 0)"/>
      <use xlink:href="#ArialMT-69" transform="translate(789.306641 0)"/>
      <use xlink:href="#ArialMT-61" transform="translate(811.523438 0)"/>
      <use xlink:href="#ArialMT-74" transform="translate(867.138672 0)"/>
      <use xlink:href="#ArialMT-69" transform="translate(894.921875 0)"/>
      <use xlink:href="#ArialMT-6f" transform="translate(917.138672 0)"/>
      <use xlink:href="#ArialMT-6e" transform="translate(972.753906 0)"/>
      <use xlink:href="#ArialMT-20" transform="translate(1028.369141 0)"/>
     </g>
     <!-- [proportion ≥ 3 days] -->
     <g style="fill: #262626" transform="translate(23.367875 232.68525) rotate(-90) scale(0.088 -0.088)">
      <defs>
       <path id="ArialMT-70" d="M 422 -1272 
L 422 3319 
L 934 3319 
L 934 2888 
Q 1116 3141 1344 3267 
Q 1572 3394 1897 3394 
Q 2322 3394 2647 3175 
Q 2972 2956 3137 2557 
Q 3303 2159 3303 1684 
Q 3303 1175 3120 767 
Q 2938 359 2589 142 
Q 2241 -75 1856 -75 
Q 1575 -75 1351 44 
Q 1128 163 984 344 
L 984 -1272 
L 422 -1272 
z
M 931 1641 
Q 931 1000 1190 694 
Q 1450 388 1819 388 
Q 2194 388 2461 705 
Q 2728 1022 2728 1688 
Q 2728 2322 2467 2637 
Q 2206 2953 1844 2953 
Q 1484 2953 1207 2617 
Q 931 2281 931 1641 
z
" transform="scale(0.015625)"/>
       <path id="ArialMT-72" d="M 416 0 
L 416 3319 
L 922 3319 
L 922 2816 
Q 1116 3169 1280 3281 
Q 1444 3394 1641 3394 
Q 1925 3394 2219 3213 
L 2025 2691 
Q 1819 2813 1613 2813 
Q 1428 2813 1281 2702 
Q 1134 2591 1072 2394 
Q 978 2094 978 1738 
L 978 0 
L 416 0 
z
" transform="scale(0.015625)"/>
       <path id="ArialMT-2265" d="M 3275 2381 
L 241 1084 
L 241 1644 
L 2644 2641 
L 241 3625 
L 241 4188 
L 3275 2906 
L 3275 2381 
z
M 3269 331 
L 244 331 
L 244 853 
L 3269 853 
L 3269 331 
z
" transform="scale(0.015625)"/>
      </defs>
      <use xlink:href="#ArialMT-5b"/>
      <use xlink:href="#ArialMT-70" transform="translate(27.783203 0)"/>
      <use xlink:href="#ArialMT-72" transform="translate(83.398438 0)"/>
      <use xlink:href="#ArialMT-6f" transform="translate(116.699219 0)"/>
      <use xlink:href="#ArialMT-70" transform="translate(172.314453 0)"/>
      <use xlink:href="#ArialMT-6f" transform="translate(227.929688 0)"/>
      <use xlink:href="#ArialMT-72" transform="translate(283.544922 0)"/>
      <use xlink:href="#ArialMT-74" transform="translate(316.845703 0)"/>
      <use xlink:href="#ArialMT-69" transform="translate(344.628906 0)"/>
      <use xlink:href="#ArialMT-6f" transform="translate(366.845703 0)"/>
      <use xlink:href="#ArialMT-6e" transform="translate(422.460938 0)"/>
      <use xlink:href="#ArialMT-20" transform="translate(478.076172 0)"/>
      <use xlink:href="#ArialMT-2265" transform="translate(505.859375 0)"/>
      <use xlink:href="#ArialMT-20" transform="translate(560.742188 0)"/>
      <use xlink:href="#ArialMT-33" transform="translate(588.525391 0)"/>
      <use xlink:href="#ArialMT-20" transform="translate(644.140625 0)"/>
      <use xlink:href="#ArialMT-64" transform="translate(671.923828 0)"/>
      <use xlink:href="#ArialMT-61" transform="translate(727.539062 0)"/>
      <use xlink:href="#ArialMT-79" transform="translate(783.154297 0)"/>
      <use xlink:href="#ArialMT-73" transform="translate(833.154297 0)"/>
      <use xlink:href="#ArialMT-5d" transform="translate(883.154297 0)"/>
     </g>
    </g>
   </g>
   <g id="line2d_62">
    <path d="M 50.449091 176.340234 
L 51.986281 178.071813 
L 53.523471 179.758817 
L 55.060661 181.401684 
L 56.597851 183.000866 
L 58.135041 184.556823 
L 59.672231 186.070022 
L 61.209421 187.54094 
L 62.746612 188.970056 
L 64.283802 190.357853 
L 65.820992 191.704816 
L 67.358182 193.01143 
L 68.895372 194.27818 
L 70.432562 195.505549 
L 71.969752 196.694015 
L 73.506942 197.844055 
L 75.044132 198.956137 
L 76.581322 200.030727 
L 78.118512 201.068282 
L 79.655702 202.06925 
L 81.192893 203.034073 
L 82.730083 203.963183 
L 84.267273 204.857001 
L 85.804463 205.715941 
L 87.341653 206.540402 
L 88.878843 207.330775 
L 90.416033 208.087437 
L 91.953223 208.810754 
L 93.490413 209.50108 
L 95.027603 210.158755 
L 96.564793 210.784105 
L 98.101983 211.377445 
L 99.639174 211.939075 
L 101.176364 212.46928 
L 102.713554 212.968332 
L 104.250744 213.436489 
L 105.787934 213.873994 
L 107.325124 214.281074 
L 108.862314 214.657944 
L 110.399504 215.004801 
L 111.936694 215.321828 
L 113.473884 215.609195 
L 115.011074 215.867054 
L 116.548264 216.095543 
L 118.085455 216.294784 
L 119.622645 216.464885 
L 121.159835 216.605936 
L 122.697025 216.718013 
L 124.234215 216.801178 
L 125.771405 216.855475 
L 127.308595 216.880933 
L 128.845785 216.877566 
L 130.382975 216.845373 
L 131.920165 216.784335 
L 133.457355 216.694421 
L 134.994545 216.57558 
L 136.531736 216.427751 
L 138.068926 216.250851 
L 139.606116 216.044788 
L 141.143306 215.809449 
L 142.680496 215.544709 
L 144.217686 215.250427 
L 145.754876 214.926447 
L 147.292066 214.572596 
L 148.829256 214.188687 
L 150.366446 213.774519 
L 151.903636 213.329874 
L 153.440826 212.854522 
L 154.978017 212.348215 
L 156.515207 211.810694 
L 158.052397 211.241682 
L 159.589587 210.640892 
L 161.126777 210.008018 
L 162.663967 209.342746 
L 164.201157 208.644744 
L 165.738347 207.913668 
L 167.275537 207.149164 
L 168.812727 206.350862 
L 170.349917 205.518382 
L 171.887107 204.651331 
L 173.424298 203.749305 
L 174.961488 202.81189 
L 176.498678 201.838662 
L 178.035868 200.829186 
L 179.573058 199.783021 
L 181.110248 198.699713 
L 182.647438 197.578805 
L 184.184628 196.419831 
L 185.721818 195.222319 
L 187.259008 193.985793 
L 188.796198 192.709774 
L 190.333388 191.393777 
L 191.870579 190.037318 
L 193.407769 188.639912 
L 194.944959 187.201074 
L 196.482149 185.720321 
L 198.019339 184.197175 
L 199.556529 182.631162 
L 201.093719 181.021816 
L 202.630909 179.368677 
" clip-path="url(#p9b5bc29f9a)" style="fill: none; stroke: #2964d9; stroke-opacity: 0.5; stroke-width: 2; stroke-linecap: round"/>
   </g>
   <g id="FillBetweenPolyCollection_2">
    <defs>
     <path id="m7c5ec021d0" d="M 50.449091 -132.995535 
L 50.449091 -96.045163 
L 51.986281 -95.080365 
L 53.523471 -94.137509 
L 55.060661 -93.21631 
L 56.597851 -92.316476 
L 58.135041 -91.43771 
L 59.672231 -90.57971 
L 61.209421 -89.742168 
L 62.746612 -88.924766 
L 64.283802 -88.12718 
L 65.820992 -87.349078 
L 67.358182 -86.590119 
L 68.895372 -85.84995 
L 70.432562 -85.12821 
L 71.969752 -84.424526 
L 73.506942 -83.738515 
L 75.044132 -83.069782 
L 76.581322 -82.417924 
L 78.118512 -81.782526 
L 79.655702 -81.163169 
L 81.192893 -80.55943 
L 82.730083 -79.970887 
L 84.267273 -79.397129 
L 85.804463 -78.837761 
L 87.341653 -78.292417 
L 88.878843 -77.760776 
L 90.416033 -77.242575 
L 91.953223 -76.73763 
L 93.490413 -76.245857 
L 95.027603 -75.767286 
L 96.564793 -75.302086 
L 98.101983 -74.850572 
L 99.639174 -74.41322 
L 101.176364 -73.990659 
L 102.713554 -73.583672 
L 104.250744 -73.19317 
L 105.787934 -72.820173 
L 107.325124 -72.465778 
L 108.862314 -72.131126 
L 110.399504 -71.817368 
L 111.936694 -71.525636 
L 113.473884 -71.257014 
L 115.011074 -71.012516 
L 116.548264 -70.793067 
L 118.085455 -70.599499 
L 119.622645 -70.432533 
L 121.159835 -70.292784 
L 122.697025 -70.180754 
L 124.234215 -70.096834 
L 125.771405 -70.041307 
L 127.308595 -70.014347 
L 128.845785 -70.016019 
L 130.382975 -70.046285 
L 131.920165 -70.104998 
L 133.457355 -70.191905 
L 134.994545 -70.306645 
L 136.531736 -70.448753 
L 138.068926 -70.617651 
L 139.606116 -70.812658 
L 141.143306 -71.03299 
L 142.680496 -71.277766 
L 144.217686 -71.546018 
L 145.754876 -71.83671 
L 147.292066 -72.148749 
L 148.829256 -72.481019 
L 150.366446 -72.832401 
L 151.903636 -73.201811 
L 153.440826 -73.588224 
L 154.978017 -73.990709 
L 156.515207 -74.408451 
L 158.052397 -74.840774 
L 159.589587 -75.287144 
L 161.126777 -75.747181 
L 162.663967 -76.22065 
L 164.201157 -76.707449 
L 165.738347 -77.2076 
L 167.275537 -77.721225 
L 168.812727 -78.248531 
L 170.349917 -78.789793 
L 171.887107 -79.345333 
L 173.424298 -79.915512 
L 174.961488 -80.500714 
L 176.498678 -81.101337 
L 178.035868 -81.717784 
L 179.573058 -82.35046 
L 181.110248 -82.999768 
L 182.647438 -83.666104 
L 184.184628 -84.349854 
L 185.721818 -85.051397 
L 187.259008 -85.771101 
L 188.796198 -86.509327 
L 190.333388 -87.266422 
L 191.870579 -88.042729 
L 193.407769 -88.838578 
L 194.944959 -89.654293 
L 196.482149 -90.49019 
L 198.019339 -91.346579 
L 199.556529 -92.223763 
L 201.093719 -93.122038 
L 202.630909 -94.041697 
L 202.630909 -128.869151 
L 202.630909 -128.869151 
L 201.093719 -126.418834 
L 199.556529 -124.036389 
L 198.019339 -121.721416 
L 196.482149 -119.473462 
L 194.944959 -117.292033 
L 193.407769 -115.1766 
L 191.870579 -113.126605 
L 190.333388 -111.141464 
L 188.796198 -109.220579 
L 187.259008 -107.363337 
L 185.721818 -105.569122 
L 184.184628 -103.837312 
L 182.647438 -102.16729 
L 181.110248 -100.558444 
L 179.573058 -99.010172 
L 178.035868 -97.521883 
L 176.498678 -96.092999 
L 174.961488 -94.722955 
L 173.424298 -93.411196 
L 171.887107 -92.157176 
L 170.349917 -90.960352 
L 168.812727 -89.820175 
L 167.275537 -88.736082 
L 165.738347 -87.707481 
L 164.201157 -86.733739 
L 162.663967 -85.814164 
L 161.126777 -84.947987 
L 159.589587 -84.134346 
L 158.052397 -83.372275 
L 156.515207 -82.66069 
L 154.978017 -81.99839 
L 153.440826 -81.384056 
L 151.903636 -80.816268 
L 150.366446 -80.29352 
L 148.829256 -79.814248 
L 147.292066 -79.37686 
L 145.754876 -78.979765 
L 144.217686 -78.621408 
L 142.680496 -78.300296 
L 141.143306 -78.015023 
L 139.606116 -77.764292 
L 138.068926 -77.546924 
L 136.531736 -77.361876 
L 134.994545 -77.208241 
L 133.457355 -77.085258 
L 131.920165 -76.992306 
L 130.382975 -76.928912 
L 128.845785 -76.894743 
L 127.308595 -76.889611 
L 125.771405 -76.913472 
L 124.234215 -76.966423 
L 122.697025 -77.048705 
L 121.159835 -77.160705 
L 119.622645 -77.302954 
L 118.085455 -77.476133 
L 116.548264 -77.681068 
L 115.011074 -77.918731 
L 113.473884 -78.190238 
L 111.936694 -78.496836 
L 110.399504 -78.839897 
L 108.862314 -79.220895 
L 107.325124 -79.64139 
L 105.787934 -80.102997 
L 104.250744 -80.607351 
L 102.713554 -81.156082 
L 101.176364 -81.750773 
L 99.639174 -82.392935 
L 98.101983 -83.083977 
L 96.564793 -83.825194 
L 95.027603 -84.617752 
L 93.490413 -85.462691 
L 91.953223 -86.360931 
L 90.416033 -87.313286 
L 88.878843 -88.320477 
L 87.341653 -89.383156 
L 85.804463 -90.501918 
L 84.267273 -91.677324 
L 82.730083 -92.909911 
L 81.192893 -94.200209 
L 79.655702 -95.548743 
L 78.118512 -96.95605 
L 76.581322 -98.422674 
L 75.044132 -99.949175 
L 73.506942 -101.536126 
L 71.969752 -103.184113 
L 70.432562 -104.893734 
L 68.895372 -106.665596 
L 67.358182 -108.500311 
L 65.820992 -110.39849 
L 64.283802 -112.360742 
L 62.746612 -114.387667 
L 61.209421 -116.479848 
L 59.672231 -118.63785 
L 58.135041 -120.862211 
L 56.597851 -123.153435 
L 55.060661 -125.511988 
L 53.523471 -127.938288 
L 51.986281 -130.432702 
L 50.449091 -132.995535 
z
"/>
    </defs>
    <g clip-path="url(#p9b5bc29f9a)">
     <use xlink:href="#m7c5ec021d0" x="0" y="290.295965" style="fill: #2964d9; fill-opacity: 0.25"/>
    </g>
   </g>
   <g id="patch_6">
    <path d="M 42.84 245.52675 
L 42.84 139.68675 
" style="fill: none; stroke: #000000; stroke-linejoin: miter; stroke-linecap: square"/>
   </g>
   <g id="patch_7">
    <path d="M 42.84 245.52675 
L 210.24 245.52675 
" style="fill: none; stroke: #000000; stroke-linejoin: miter; stroke-linecap: square"/>
   </g>
   <g id="line2d_63">
    <path d="M 59.960455 179.398797 
L 59.960455 145.186949 
" clip-path="url(#p9b5bc29f9a)" style="fill: none; stroke: #4c4c4c; stroke-width: 2; stroke-linecap: round"/>
   </g>
   <g id="line2d_64">
    <path d="M 78.983182 201.972962 
L 78.983182 182.550933 
" clip-path="url(#p9b5bc29f9a)" style="fill: none; stroke: #4c4c4c; stroke-width: 2; stroke-linecap: round"/>
   </g>
   <g id="line2d_65">
    <path d="M 98.005909 211.039873 
L 98.005909 198.384858 
" clip-path="url(#p9b5bc29f9a)" style="fill: none; stroke: #4c4c4c; stroke-width: 2; stroke-linecap: round"/>
   </g>
   <g id="line2d_66">
    <path d="M 117.028636 215.306873 
L 117.028636 203.339996 
" clip-path="url(#p9b5bc29f9a)" style="fill: none; stroke: #4c4c4c; stroke-width: 2; stroke-linecap: round"/>
   </g>
   <g id="line2d_67">
    <path d="M 136.051364 221.752117 
L 136.051364 208.954445 
" clip-path="url(#p9b5bc29f9a)" style="fill: none; stroke: #4c4c4c; stroke-width: 2; stroke-linecap: round"/>
   </g>
   <g id="line2d_68">
    <path d="M 155.074091 220.604873 
L 155.074091 207.75798 
" clip-path="url(#p9b5bc29f9a)" style="fill: none; stroke: #4c4c4c; stroke-width: 2; stroke-linecap: round"/>
   </g>
   <g id="line2d_69">
    <path d="M 174.096818 219.363006 
L 174.096818 199.802833 
" clip-path="url(#p9b5bc29f9a)" style="fill: none; stroke: #4c4c4c; stroke-width: 2; stroke-linecap: round"/>
   </g>
   <g id="line2d_70">
    <path d="M 193.119545 196.867273 
L 193.119545 157.893328 
" clip-path="url(#p9b5bc29f9a)" style="fill: none; stroke: #4c4c4c; stroke-width: 2; stroke-linecap: round"/>
   </g>
   <g id="line2d_71">
    <path d="M 59.960455 163.770503 
" clip-path="url(#p9b5bc29f9a)" style="fill: none; stroke: #4c4c4c; stroke-width: 1.8; stroke-linecap: round"/>
    <g clip-path="url(#p9b5bc29f9a)">
     <use xlink:href="#mc0a974e2c3" x="59.960455" y="163.770503" style="fill: #4c4c4c"/>
    </g>
   </g>
   <g id="line2d_72">
    <path d="M 78.983182 192.61176 
" clip-path="url(#p9b5bc29f9a)" style="fill: none; stroke: #4c4c4c; stroke-width: 1.8; stroke-linecap: round"/>
    <g clip-path="url(#p9b5bc29f9a)">
     <use xlink:href="#mc0a974e2c3" x="78.983182" y="192.61176" style="fill: #4c4c4c"/>
    </g>
   </g>
   <g id="line2d_73">
    <path d="M 98.005909 204.377068 
" clip-path="url(#p9b5bc29f9a)" style="fill: none; stroke: #4c4c4c; stroke-width: 1.8; stroke-linecap: round"/>
    <g clip-path="url(#p9b5bc29f9a)">
     <use xlink:href="#mc0a974e2c3" x="98.005909" y="204.377068" style="fill: #4c4c4c"/>
    </g>
   </g>
   <g id="line2d_74">
    <path d="M 117.028636 209.200167 
" clip-path="url(#p9b5bc29f9a)" style="fill: none; stroke: #4c4c4c; stroke-width: 1.8; stroke-linecap: round"/>
    <g clip-path="url(#p9b5bc29f9a)">
     <use xlink:href="#mc0a974e2c3" x="117.028636" y="209.200167" style="fill: #4c4c4c"/>
    </g>
   </g>
   <g id="line2d_75">
    <path d="M 136.051364 215.859034 
" clip-path="url(#p9b5bc29f9a)" style="fill: none; stroke: #4c4c4c; stroke-width: 1.8; stroke-linecap: round"/>
    <g clip-path="url(#p9b5bc29f9a)">
     <use xlink:href="#mc0a974e2c3" x="136.051364" y="215.859034" style="fill: #4c4c4c"/>
    </g>
   </g>
   <g id="line2d_76">
    <path d="M 155.074091 213.996832 
" clip-path="url(#p9b5bc29f9a)" style="fill: none; stroke: #4c4c4c; stroke-width: 1.8; stroke-linecap: round"/>
    <g clip-path="url(#p9b5bc29f9a)">
     <use xlink:href="#mc0a974e2c3" x="155.074091" y="213.996832" style="fill: #4c4c4c"/>
    </g>
   </g>
   <g id="line2d_77">
    <path d="M 174.096818 209.682066 
" clip-path="url(#p9b5bc29f9a)" style="fill: none; stroke: #4c4c4c; stroke-width: 1.8; stroke-linecap: round"/>
    <g clip-path="url(#p9b5bc29f9a)">
     <use xlink:href="#mc0a974e2c3" x="174.096818" y="209.682066" style="fill: #4c4c4c"/>
    </g>
   </g>
   <g id="line2d_78">
    <path d="M 193.119545 179.966986 
" clip-path="url(#p9b5bc29f9a)" style="fill: none; stroke: #4c4c4c; stroke-width: 1.8; stroke-linecap: round"/>
    <g clip-path="url(#p9b5bc29f9a)">
     <use xlink:href="#mc0a974e2c3" x="193.119545" y="179.966986" style="fill: #4c4c4c"/>
    </g>
   </g>
  </g>
  <g id="text_26">
   <!-- a. -->
   <g style="fill: #262626" transform="translate(7.2 15.789375) scale(0.12 -0.12)">
    <defs>
     <path id="Arial-BoldMT-61" d="M 1116 2306 
L 319 2450 
Q 453 2931 781 3162 
Q 1109 3394 1756 3394 
Q 2344 3394 2631 3255 
Q 2919 3116 3036 2902 
Q 3153 2688 3153 2116 
L 3144 1091 
Q 3144 653 3186 445 
Q 3228 238 3344 0 
L 2475 0 
Q 2441 88 2391 259 
Q 2369 338 2359 363 
Q 2134 144 1878 34 
Q 1622 -75 1331 -75 
Q 819 -75 523 203 
Q 228 481 228 906 
Q 228 1188 362 1408 
Q 497 1628 739 1745 
Q 981 1863 1438 1950 
Q 2053 2066 2291 2166 
L 2291 2253 
Q 2291 2506 2166 2614 
Q 2041 2722 1694 2722 
Q 1459 2722 1328 2630 
Q 1197 2538 1116 2306 
z
M 2291 1594 
Q 2122 1538 1756 1459 
Q 1391 1381 1278 1306 
Q 1106 1184 1106 997 
Q 1106 813 1243 678 
Q 1381 544 1594 544 
Q 1831 544 2047 700 
Q 2206 819 2256 991 
Q 2291 1103 2291 1419 
L 2291 1594 
z
" transform="scale(0.015625)"/>
     <path id="Arial-BoldMT-2e" d="M 459 0 
L 459 878 
L 1338 878 
L 1338 0 
L 459 0 
z
" transform="scale(0.015625)"/>
    </defs>
    <use xlink:href="#Arial-BoldMT-61"/>
    <use xlink:href="#Arial-BoldMT-2e" transform="translate(55.615234 0)"/>
   </g>
  </g>
  <g id="text_27">
   <!-- b. -->
   <g style="fill: #262626" transform="translate(7.2 142.797375) scale(0.12 -0.12)">
    <defs>
     <path id="Arial-BoldMT-62" d="M 422 0 
L 422 4581 
L 1300 4581 
L 1300 2931 
Q 1706 3394 2263 3394 
Q 2869 3394 3266 2955 
Q 3663 2516 3663 1694 
Q 3663 844 3258 384 
Q 2853 -75 2275 -75 
Q 1991 -75 1714 67 
Q 1438 209 1238 488 
L 1238 0 
L 422 0 
z
M 1294 1731 
Q 1294 1216 1456 969 
Q 1684 619 2063 619 
Q 2353 619 2558 867 
Q 2763 1116 2763 1650 
Q 2763 2219 2556 2470 
Q 2350 2722 2028 2722 
Q 1713 2722 1503 2476 
Q 1294 2231 1294 1731 
z
" transform="scale(0.015625)"/>
    </defs>
    <use xlink:href="#Arial-BoldMT-62"/>
    <use xlink:href="#Arial-BoldMT-2e" transform="translate(61.083984 0)"/>
   </g>
  </g>
 </g>
 <defs>
  <clipPath id="p9383bb07ca">
   <rect x="42.84" y="12.67875" width="167.4" height="105.84"/>
  </clipPath>
  <clipPath id="p9b5bc29f9a">
   <rect x="42.84" y="139.68675" width="167.4" height="105.84"/>
  </clipPath>
 </defs>
</svg>
