<?xml version="1.0" encoding="utf-8" standalone="no"?>
<!DOCTYPE svg PUBLIC "-//W3C//DTD SVG 1.1//EN"
  "http://www.w3.org/Graphics/SVG/1.1/DTD/svg11.dtd">
<svg xmlns:xlink="http://www.w3.org/1999/xlink" width="399.96pt" height="302.135572pt" viewBox="0 0 399.96 302.135572" xmlns="http://www.w3.org/2000/svg" version="1.1">
 <metadata>
  <rdf:RDF xmlns:dc="http://purl.org/dc/elements/1.1/" xmlns:cc="http://creativecommons.org/ns#" xmlns:rdf="http://www.w3.org/1999/02/22-rdf-syntax-ns#">
   <cc:Work>
    <dc:type rdf:resource="http://purl.org/dc/dcmitype/StillImage"/>
    <dc:date>2026-05-06T15:58:48.772795</dc:date>
    <dc:format>image/svg+xml</dc:format>
    <dc:creator>
     <cc:Agent>
      <dc:title>Matplotlib v3.10.7, https://matplotlib.org/</dc:title>
     </cc:Agent>
    </dc:creator>
   </cc:Work>
  </rdf:RDF>
 </metadata>
 <defs>
  <style type="text/css">*{stroke-linejoin: round; stroke-linecap: butt}</style>
 </defs>
 <g id="figure_1">
  <g id="patch_1">
   <path d="M 0 302.135572 
L 399.96 302.135572 
L 399.96 0 
L 0 0 
z
" style="fill: #ffffff"/>
  </g>
  <g id="axes_1">
   <g id="patch_2">
    <path d="M 41.22 121.03875 
L 201.010909 121.03875 
L 201.010909 12.67875 
L 41.22 12.67875 
z
" style="fill: #ffffff"/>
   </g>
   <g id="matplotlib.axis_1">
    <g id="xtick_1">
     <g id="line2d_1">
      <path d="M 63.009669 121.03875 
L 63.009669 12.67875 
" clip-path="url(#pe85eb1a5f6)" style="fill: none"/>
     </g>
     <g id="line2d_2">
      <defs>
       <path id="m296ca71247" d="M 0 0 
L 0 2 
" style="stroke: #000000"/>
      </defs>
      <g>
       <use xlink:href="#m296ca71247" x="63.009669" y="121.03875" style="stroke: #000000"/>
      </g>
     </g>
    </g>
    <g id="xtick_2">
     <g id="line2d_3">
      <path d="M 92.062562 121.03875 
L 92.062562 12.67875 
" clip-path="url(#pe85eb1a5f6)" style="fill: none"/>
     </g>
     <g id="line2d_4">
      <g>
       <use xlink:href="#m296ca71247" x="92.062562" y="121.03875" style="stroke: #000000"/>
      </g>
     </g>
    </g>
    <g id="xtick_3">
     <g id="line2d_5">
      <path d="M 121.115455 121.03875 
L 121.115455 12.67875 
" clip-path="url(#pe85eb1a5f6)" style="fill: none"/>
     </g>
     <g id="line2d_6">
      <g>
       <use xlink:href="#m296ca71247" x="121.115455" y="121.03875" style="stroke: #000000"/>
      </g>
     </g>
    </g>
    <g id="xtick_4">
     <g id="line2d_7">
      <path d="M 150.168347 121.03875 
L 150.168347 12.67875 
" clip-path="url(#pe85eb1a5f6)" style="fill: none"/>
     </g>
     <g id="line2d_8">
      <g>
       <use xlink:href="#m296ca71247" x="150.168347" y="121.03875" style="stroke: #000000"/>
      </g>
     </g>
    </g>
    <g id="xtick_5">
     <g id="line2d_9">
      <path d="M 179.22124 121.03875 
L 179.22124 12.67875 
" clip-path="url(#pe85eb1a5f6)" style="fill: none"/>
     </g>
     <g id="line2d_10">
      <g>
       <use xlink:href="#m296ca71247" x="179.22124" y="121.03875" style="stroke: #000000"/>
      </g>
     </g>
    </g>
   </g>
   <g id="matplotlib.axis_2">
    <g id="ytick_1">
     <g id="line2d_11">
      <path d="M 41.22 112.00875 
L 201.010909 112.00875 
" clip-path="url(#pe85eb1a5f6)" style="fill: none; stroke: #cccccc; stroke-width: 0.5; stroke-linecap: round"/>
     </g>
     <g id="line2d_12">
      <defs>
       <path id="mfbcf3682a3" d="M 0 0 
L -2 0 
" style="stroke: #000000"/>
      </defs>
      <g>
       <use xlink:href="#mfbcf3682a3" x="41.22" y="112.00875" style="stroke: #000000"/>
      </g>
     </g>
     <g id="text_1">
      <!-- 26 -->
      <g style="fill: #262626" transform="translate(29.8225 114.871875) scale(0.08 -0.08)">
       <defs>
        <path id="ArialMT-32" d="M 3222 541 
L 3222 0 
L 194 0 
Q 188 203 259 391 
Q 375 700 629 1000 
Q 884 1300 1366 1694 
Q 2113 2306 2375 2664 
Q 2638 3022 2638 3341 
Q 2638 3675 2398 3904 
Q 2159 4134 1775 4134 
Q 1369 4134 1125 3890 
Q 881 3647 878 3216 
L 300 3275 
Q 359 3922 746 4261 
Q 1134 4600 1788 4600 
Q 2447 4600 2831 4234 
Q 3216 3869 3216 3328 
Q 3216 3053 3103 2787 
Q 2991 2522 2730 2228 
Q 2469 1934 1863 1422 
Q 1356 997 1212 845 
Q 1069 694 975 541 
L 3222 541 
z
" transform="scale(0.015625)"/>
        <path id="ArialMT-36" d="M 3184 3459 
L 2625 3416 
Q 2550 3747 2413 3897 
Q 2184 4138 1850 4138 
Q 1581 4138 1378 3988 
Q 1113 3794 959 3422 
Q 806 3050 800 2363 
Q 1003 2672 1297 2822 
Q 1591 2972 1913 2972 
Q 2475 2972 2870 2558 
Q 3266 2144 3266 1488 
Q 3266 1056 3080 686 
Q 2894 316 2569 119 
Q 2244 -78 1831 -78 
Q 1128 -78 684 439 
Q 241 956 241 2144 
Q 241 3472 731 4075 
Q 1159 4600 1884 4600 
Q 2425 4600 2770 4297 
Q 3116 3994 3184 3459 
z
M 888 1484 
Q 888 1194 1011 928 
Q 1134 663 1356 523 
Q 1578 384 1822 384 
Q 2178 384 2434 671 
Q 2691 959 2691 1453 
Q 2691 1928 2437 2201 
Q 2184 2475 1800 2475 
Q 1419 2475 1153 2201 
Q 888 1928 888 1484 
z
" transform="scale(0.015625)"/>
       </defs>
       <use xlink:href="#ArialMT-32"/>
       <use xlink:href="#ArialMT-36" transform="translate(55.615234 0)"/>
      </g>
     </g>
    </g>
    <g id="ytick_2">
     <g id="line2d_13">
      <path d="M 41.22 66.85875 
L 201.010909 66.85875 
" clip-path="url(#pe85eb1a5f6)" style="fill: none; stroke: #cccccc; stroke-width: 0.5; stroke-linecap: round"/>
     </g>
     <g id="line2d_14">
      <g>
       <use xlink:href="#mfbcf3682a3" x="41.22" y="66.85875" style="stroke: #000000"/>
      </g>
     </g>
     <g id="text_2">
      <!-- 28 -->
      <g style="fill: #262626" transform="translate(29.8225 69.721875) scale(0.08 -0.08)">
       <defs>
        <path id="ArialMT-38" d="M 1131 2484 
Q 781 2613 612 2850 
Q 444 3088 444 3419 
Q 444 3919 803 4259 
Q 1163 4600 1759 4600 
Q 2359 4600 2725 4251 
Q 3091 3903 3091 3403 
Q 3091 3084 2923 2848 
Q 2756 2613 2416 2484 
Q 2838 2347 3058 2040 
Q 3278 1734 3278 1309 
Q 3278 722 2862 322 
Q 2447 -78 1769 -78 
Q 1091 -78 675 323 
Q 259 725 259 1325 
Q 259 1772 486 2073 
Q 713 2375 1131 2484 
z
M 1019 3438 
Q 1019 3113 1228 2906 
Q 1438 2700 1772 2700 
Q 2097 2700 2305 2904 
Q 2513 3109 2513 3406 
Q 2513 3716 2298 3927 
Q 2084 4138 1766 4138 
Q 1444 4138 1231 3931 
Q 1019 3725 1019 3438 
z
M 838 1322 
Q 838 1081 952 856 
Q 1066 631 1291 507 
Q 1516 384 1775 384 
Q 2178 384 2440 643 
Q 2703 903 2703 1303 
Q 2703 1709 2433 1975 
Q 2163 2241 1756 2241 
Q 1359 2241 1098 1978 
Q 838 1716 838 1322 
z
" transform="scale(0.015625)"/>
       </defs>
       <use xlink:href="#ArialMT-32"/>
       <use xlink:href="#ArialMT-38" transform="translate(55.615234 0)"/>
      </g>
     </g>
    </g>
    <g id="ytick_3">
     <g id="line2d_15">
      <path d="M 41.22 21.70875 
L 201.010909 21.70875 
" clip-path="url(#pe85eb1a5f6)" style="fill: none; stroke: #cccccc; stroke-width: 0.5; stroke-linecap: round"/>
     </g>
     <g id="line2d_16">
      <g>
       <use xlink:href="#mfbcf3682a3" x="41.22" y="21.70875" style="stroke: #000000"/>
      </g>
     </g>
     <g id="text_3">
      <!-- 30 -->
      <g style="fill: #262626" transform="translate(29.8225 24.571875) scale(0.08 -0.08)">
       <defs>
        <path id="ArialMT-33" d="M 269 1209 
L 831 1284 
Q 928 806 1161 595 
Q 1394 384 1728 384 
Q 2125 384 2398 659 
Q 2672 934 2672 1341 
Q 2672 1728 2419 1979 
Q 2166 2231 1775 2231 
Q 1616 2231 1378 2169 
L 1441 2663 
Q 1497 2656 1531 2656 
Q 1891 2656 2178 2843 
Q 2466 3031 2466 3422 
Q 2466 3731 2256 3934 
Q 2047 4138 1716 4138 
Q 1388 4138 1169 3931 
Q 950 3725 888 3313 
L 325 3413 
Q 428 3978 793 4289 
Q 1159 4600 1703 4600 
Q 2078 4600 2393 4439 
Q 2709 4278 2876 4000 
Q 3044 3722 3044 3409 
Q 3044 3113 2884 2869 
Q 2725 2625 2413 2481 
Q 2819 2388 3044 2092 
Q 3269 1797 3269 1353 
Q 3269 753 2831 336 
Q 2394 -81 1725 -81 
Q 1122 -81 723 278 
Q 325 638 269 1209 
z
" transform="scale(0.015625)"/>
        <path id="ArialMT-30" d="M 266 2259 
Q 266 3072 433 3567 
Q 600 4063 929 4331 
Q 1259 4600 1759 4600 
Q 2128 4600 2406 4451 
Q 2684 4303 2865 4023 
Q 3047 3744 3150 3342 
Q 3253 2941 3253 2259 
Q 3253 1453 3087 958 
Q 2922 463 2592 192 
Q 2263 -78 1759 -78 
Q 1097 -78 719 397 
Q 266 969 266 2259 
z
M 844 2259 
Q 844 1131 1108 757 
Q 1372 384 1759 384 
Q 2147 384 2411 759 
Q 2675 1134 2675 2259 
Q 2675 3391 2411 3762 
Q 2147 4134 1753 4134 
Q 1366 4134 1134 3806 
Q 844 3388 844 2259 
z
" transform="scale(0.015625)"/>
       </defs>
       <use xlink:href="#ArialMT-33"/>
       <use xlink:href="#ArialMT-30" transform="translate(55.615234 0)"/>
      </g>
     </g>
    </g>
    <g id="text_4">
     <!-- Cycle Length  -->
     <g style="fill: #262626" transform="translate(16.5596 93.762) rotate(-90) scale(0.088 -0.088)">
      <defs>
       <path id="ArialMT-43" d="M 3763 1606 
L 4369 1453 
Q 4178 706 3683 314 
Q 3188 -78 2472 -78 
Q 1731 -78 1267 223 
Q 803 525 561 1097 
Q 319 1669 319 2325 
Q 319 3041 592 3573 
Q 866 4106 1370 4382 
Q 1875 4659 2481 4659 
Q 3169 4659 3637 4309 
Q 4106 3959 4291 3325 
L 3694 3184 
Q 3534 3684 3231 3912 
Q 2928 4141 2469 4141 
Q 1941 4141 1586 3887 
Q 1231 3634 1087 3207 
Q 944 2781 944 2328 
Q 944 1744 1114 1308 
Q 1284 872 1643 656 
Q 2003 441 2422 441 
Q 2931 441 3284 734 
Q 3638 1028 3763 1606 
z
" transform="scale(0.015625)"/>
       <path id="ArialMT-79" d="M 397 -1278 
L 334 -750 
Q 519 -800 656 -800 
Q 844 -800 956 -737 
Q 1069 -675 1141 -563 
Q 1194 -478 1313 -144 
Q 1328 -97 1363 -6 
L 103 3319 
L 709 3319 
L 1400 1397 
Q 1534 1031 1641 628 
Q 1738 1016 1872 1384 
L 2581 3319 
L 3144 3319 
L 1881 -56 
Q 1678 -603 1566 -809 
Q 1416 -1088 1222 -1217 
Q 1028 -1347 759 -1347 
Q 597 -1347 397 -1278 
z
" transform="scale(0.015625)"/>
       <path id="ArialMT-63" d="M 2588 1216 
L 3141 1144 
Q 3050 572 2676 248 
Q 2303 -75 1759 -75 
Q 1078 -75 664 370 
Q 250 816 250 1647 
Q 250 2184 428 2587 
Q 606 2991 970 3192 
Q 1334 3394 1763 3394 
Q 2303 3394 2647 3120 
Q 2991 2847 3088 2344 
L 2541 2259 
Q 2463 2594 2264 2762 
Q 2066 2931 1784 2931 
Q 1359 2931 1093 2626 
Q 828 2322 828 1663 
Q 828 994 1084 691 
Q 1341 388 1753 388 
Q 2084 388 2306 591 
Q 2528 794 2588 1216 
z
" transform="scale(0.015625)"/>
       <path id="ArialMT-6c" d="M 409 0 
L 409 4581 
L 972 4581 
L 972 0 
L 409 0 
z
" transform="scale(0.015625)"/>
       <path id="ArialMT-65" d="M 2694 1069 
L 3275 997 
Q 3138 488 2766 206 
Q 2394 -75 1816 -75 
Q 1088 -75 661 373 
Q 234 822 234 1631 
Q 234 2469 665 2931 
Q 1097 3394 1784 3394 
Q 2450 3394 2872 2941 
Q 3294 2488 3294 1666 
Q 3294 1616 3291 1516 
L 816 1516 
Q 847 969 1125 678 
Q 1403 388 1819 388 
Q 2128 388 2347 550 
Q 2566 713 2694 1069 
z
M 847 1978 
L 2700 1978 
Q 2663 2397 2488 2606 
Q 2219 2931 1791 2931 
Q 1403 2931 1139 2672 
Q 875 2413 847 1978 
z
" transform="scale(0.015625)"/>
       <path id="ArialMT-20" transform="scale(0.015625)"/>
       <path id="ArialMT-4c" d="M 469 0 
L 469 4581 
L 1075 4581 
L 1075 541 
L 3331 541 
L 3331 0 
L 469 0 
z
" transform="scale(0.015625)"/>
       <path id="ArialMT-6e" d="M 422 0 
L 422 3319 
L 928 3319 
L 928 2847 
Q 1294 3394 1984 3394 
Q 2284 3394 2536 3286 
Q 2788 3178 2913 3003 
Q 3038 2828 3088 2588 
Q 3119 2431 3119 2041 
L 3119 0 
L 2556 0 
L 2556 2019 
Q 2556 2363 2490 2533 
Q 2425 2703 2258 2804 
Q 2091 2906 1866 2906 
Q 1506 2906 1245 2678 
Q 984 2450 984 1813 
L 984 0 
L 422 0 
z
" transform="scale(0.015625)"/>
       <path id="ArialMT-67" d="M 319 -275 
L 866 -356 
Q 900 -609 1056 -725 
Q 1266 -881 1628 -881 
Q 2019 -881 2231 -725 
Q 2444 -569 2519 -288 
Q 2563 -116 2559 434 
Q 2191 0 1641 0 
Q 956 0 581 494 
Q 206 988 206 1678 
Q 206 2153 378 2554 
Q 550 2956 876 3175 
Q 1203 3394 1644 3394 
Q 2231 3394 2613 2919 
L 2613 3319 
L 3131 3319 
L 3131 450 
Q 3131 -325 2973 -648 
Q 2816 -972 2473 -1159 
Q 2131 -1347 1631 -1347 
Q 1038 -1347 672 -1080 
Q 306 -813 319 -275 
z
M 784 1719 
Q 784 1066 1043 766 
Q 1303 466 1694 466 
Q 2081 466 2343 764 
Q 2606 1063 2606 1700 
Q 2606 2309 2336 2618 
Q 2066 2928 1684 2928 
Q 1309 2928 1046 2623 
Q 784 2319 784 1719 
z
" transform="scale(0.015625)"/>
       <path id="ArialMT-74" d="M 1650 503 
L 1731 6 
Q 1494 -44 1306 -44 
Q 1000 -44 831 53 
Q 663 150 594 308 
Q 525 466 525 972 
L 525 2881 
L 113 2881 
L 113 3319 
L 525 3319 
L 525 4141 
L 1084 4478 
L 1084 3319 
L 1650 3319 
L 1650 2881 
L 1084 2881 
L 1084 941 
Q 1084 700 1114 631 
Q 1144 563 1211 522 
Q 1278 481 1403 481 
Q 1497 481 1650 503 
z
" transform="scale(0.015625)"/>
       <path id="ArialMT-68" d="M 422 0 
L 422 4581 
L 984 4581 
L 984 2938 
Q 1378 3394 1978 3394 
Q 2347 3394 2619 3248 
Q 2891 3103 3008 2847 
Q 3125 2591 3125 2103 
L 3125 0 
L 2563 0 
L 2563 2103 
Q 2563 2525 2380 2717 
Q 2197 2909 1863 2909 
Q 1613 2909 1392 2779 
Q 1172 2650 1078 2428 
Q 984 2206 984 1816 
L 984 0 
L 422 0 
z
" transform="scale(0.015625)"/>
      </defs>
      <use xlink:href="#ArialMT-43"/>
      <use xlink:href="#ArialMT-79" transform="translate(72.216797 0)"/>
      <use xlink:href="#ArialMT-63" transform="translate(122.216797 0)"/>
      <use xlink:href="#ArialMT-6c" transform="translate(172.216797 0)"/>
      <use xlink:href="#ArialMT-65" transform="translate(194.433594 0)"/>
      <use xlink:href="#ArialMT-20" transform="translate(250.048828 0)"/>
      <use xlink:href="#ArialMT-4c" transform="translate(277.832031 0)"/>
      <use xlink:href="#ArialMT-65" transform="translate(333.447266 0)"/>
      <use xlink:href="#ArialMT-6e" transform="translate(389.0625 0)"/>
      <use xlink:href="#ArialMT-67" transform="translate(444.677734 0)"/>
      <use xlink:href="#ArialMT-74" transform="translate(500.292969 0)"/>
      <use xlink:href="#ArialMT-68" transform="translate(528.076172 0)"/>
      <use xlink:href="#ArialMT-20" transform="translate(583.691406 0)"/>
     </g>
     <!-- [days] -->
     <g style="fill: #262626" transform="translate(25.970375 78.597125) rotate(-90) scale(0.088 -0.088)">
      <defs>
       <path id="ArialMT-5b" d="M 434 -1272 
L 434 4581 
L 1675 4581 
L 1675 4116 
L 997 4116 
L 997 -806 
L 1675 -806 
L 1675 -1272 
L 434 -1272 
z
" transform="scale(0.015625)"/>
       <path id="ArialMT-64" d="M 2575 0 
L 2575 419 
Q 2259 -75 1647 -75 
Q 1250 -75 917 144 
Q 584 363 401 755 
Q 219 1147 219 1656 
Q 219 2153 384 2558 
Q 550 2963 881 3178 
Q 1213 3394 1622 3394 
Q 1922 3394 2156 3267 
Q 2391 3141 2538 2938 
L 2538 4581 
L 3097 4581 
L 3097 0 
L 2575 0 
z
M 797 1656 
Q 797 1019 1065 703 
Q 1334 388 1700 388 
Q 2069 388 2326 689 
Q 2584 991 2584 1609 
Q 2584 2291 2321 2609 
Q 2059 2928 1675 2928 
Q 1300 2928 1048 2622 
Q 797 2316 797 1656 
z
" transform="scale(0.015625)"/>
       <path id="ArialMT-61" d="M 2588 409 
Q 2275 144 1986 34 
Q 1697 -75 1366 -75 
Q 819 -75 525 192 
Q 231 459 231 875 
Q 231 1119 342 1320 
Q 453 1522 633 1644 
Q 813 1766 1038 1828 
Q 1203 1872 1538 1913 
Q 2219 1994 2541 2106 
Q 2544 2222 2544 2253 
Q 2544 2597 2384 2738 
Q 2169 2928 1744 2928 
Q 1347 2928 1158 2789 
Q 969 2650 878 2297 
L 328 2372 
Q 403 2725 575 2942 
Q 747 3159 1072 3276 
Q 1397 3394 1825 3394 
Q 2250 3394 2515 3294 
Q 2781 3194 2906 3042 
Q 3031 2891 3081 2659 
Q 3109 2516 3109 2141 
L 3109 1391 
Q 3109 606 3145 398 
Q 3181 191 3288 0 
L 2700 0 
Q 2613 175 2588 409 
z
M 2541 1666 
Q 2234 1541 1622 1453 
Q 1275 1403 1131 1340 
Q 988 1278 909 1158 
Q 831 1038 831 891 
Q 831 666 1001 516 
Q 1172 366 1500 366 
Q 1825 366 2078 508 
Q 2331 650 2450 897 
Q 2541 1088 2541 1459 
L 2541 1666 
z
" transform="scale(0.015625)"/>
       <path id="ArialMT-73" d="M 197 991 
L 753 1078 
Q 800 744 1014 566 
Q 1228 388 1613 388 
Q 2000 388 2187 545 
Q 2375 703 2375 916 
Q 2375 1106 2209 1216 
Q 2094 1291 1634 1406 
Q 1016 1563 777 1677 
Q 538 1791 414 1992 
Q 291 2194 291 2438 
Q 291 2659 392 2848 
Q 494 3038 669 3163 
Q 800 3259 1026 3326 
Q 1253 3394 1513 3394 
Q 1903 3394 2198 3281 
Q 2494 3169 2634 2976 
Q 2775 2784 2828 2463 
L 2278 2388 
Q 2241 2644 2061 2787 
Q 1881 2931 1553 2931 
Q 1166 2931 1000 2803 
Q 834 2675 834 2503 
Q 834 2394 903 2306 
Q 972 2216 1119 2156 
Q 1203 2125 1616 2013 
Q 2213 1853 2448 1751 
Q 2684 1650 2818 1456 
Q 2953 1263 2953 975 
Q 2953 694 2789 445 
Q 2625 197 2315 61 
Q 2006 -75 1616 -75 
Q 969 -75 630 194 
Q 291 463 197 991 
z
" transform="scale(0.015625)"/>
       <path id="ArialMT-5d" d="M 1363 -1272 
L 122 -1272 
L 122 -806 
L 800 -806 
L 800 4116 
L 122 4116 
L 122 4581 
L 1363 4581 
L 1363 -1272 
z
" transform="scale(0.015625)"/>
      </defs>
      <use xlink:href="#ArialMT-5b"/>
      <use xlink:href="#ArialMT-64" transform="translate(27.783203 0)"/>
      <use xlink:href="#ArialMT-61" transform="translate(83.398438 0)"/>
      <use xlink:href="#ArialMT-79" transform="translate(139.013672 0)"/>
      <use xlink:href="#ArialMT-73" transform="translate(189.013672 0)"/>
      <use xlink:href="#ArialMT-5d" transform="translate(239.013672 0)"/>
     </g>
    </g>
   </g>
   <g id="line2d_17">
    <path d="M 48.483223 83.765382 
L 49.950541 83.270075 
L 51.417859 82.780638 
L 52.885177 82.297071 
L 54.352494 81.819375 
L 55.819812 81.347549 
L 57.28713 80.881594 
L 58.754448 80.421509 
L 60.221766 79.967294 
L 61.689083 79.51895 
L 63.156401 79.076476 
L 64.623719 78.639872 
L 66.091037 78.209139 
L 67.558355 77.784276 
L 69.025672 77.365283 
L 70.49299 76.952161 
L 71.960308 76.544909 
L 73.427626 76.143527 
L 74.894944 75.748016 
L 76.362261 75.358375 
L 77.829579 74.974604 
L 79.296897 74.596704 
L 80.764215 74.224674 
L 82.231533 73.858515 
L 83.69885 73.498226 
L 85.166168 73.143807 
L 86.633486 72.795258 
L 88.100804 72.45258 
L 89.568122 72.115773 
L 91.03544 71.784835 
L 92.502757 71.459768 
L 93.970075 71.140571 
L 95.437393 70.827245 
L 96.904711 70.519789 
L 98.372029 70.218203 
L 99.839346 69.922488 
L 101.306664 69.632643 
L 102.773982 69.348669 
L 104.2413 69.070564 
L 105.708618 68.79833 
L 107.175935 68.531967 
L 108.643253 68.271474 
L 110.110571 68.016851 
L 111.577889 67.768098 
L 113.045207 67.525216 
L 114.512524 67.288204 
L 115.979842 67.057063 
L 117.44716 66.831792 
L 118.914478 66.612391 
L 120.381796 66.398861 
L 121.849113 66.191201 
L 123.316431 65.989411 
L 124.783749 65.793492 
L 126.251067 65.603443 
L 127.718385 65.419264 
L 129.185702 65.240956 
L 130.65302 65.068518 
L 132.120338 64.90195 
L 133.587656 64.741253 
L 135.054974 64.586426 
L 136.522292 64.437469 
L 137.989609 64.294383 
L 139.456927 64.157167 
L 140.924245 64.025822 
L 142.391563 63.900347 
L 143.858881 63.780742 
L 145.326198 63.667007 
L 146.793516 63.559143 
L 148.260834 63.45715 
L 149.728152 63.361026 
L 151.19547 63.270773 
L 152.662787 63.18639 
L 154.130105 63.107878 
L 155.597423 63.035236 
L 157.064741 62.968464 
L 158.532059 62.907563 
L 159.999376 62.852532 
L 161.466694 62.803372 
L 162.934012 62.760081 
L 164.40133 62.722661 
L 165.868648 62.691112 
L 167.335965 62.665433 
L 168.803283 62.645624 
L 170.270601 62.631685 
L 171.737919 62.623617 
L 173.205237 62.621419 
L 174.672554 62.625092 
L 176.139872 62.634635 
L 177.60719 62.650048 
L 179.074508 62.671332 
L 180.541826 62.698486 
L 182.009144 62.73151 
L 183.476461 62.770405 
L 184.943779 62.81517 
L 186.411097 62.865805 
L 187.878415 62.922311 
L 189.345733 62.984687 
L 190.81305 63.052933 
L 192.280368 63.12705 
L 193.747686 63.207037 
" clip-path="url(#pe85eb1a5f6)" style="fill: none; stroke: #2964d9; stroke-opacity: 0.5; stroke-width: 2; stroke-linecap: round"/>
   </g>
   <g id="FillBetweenPolyCollection_1">
    <defs>
     <path id="m715fbd2093" d="M 48.483223 -231.647859 
L 48.483223 -205.092522 
L 49.950541 -206.029505 
L 51.417859 -206.952007 
L 52.885177 -207.860012 
L 54.352494 -208.753502 
L 55.819812 -209.632458 
L 57.28713 -210.496863 
L 58.754448 -211.346693 
L 60.221766 -212.181927 
L 61.689083 -213.00254 
L 63.156401 -213.808506 
L 64.623719 -214.599796 
L 66.091037 -215.37638 
L 67.558355 -216.138227 
L 69.025672 -216.8853 
L 70.49299 -217.617564 
L 71.960308 -218.334979 
L 73.427626 -219.037502 
L 74.894944 -219.725088 
L 76.362261 -220.397692 
L 77.829579 -221.055263 
L 79.296897 -221.697749 
L 80.764215 -222.325098 
L 82.231533 -222.937253 
L 83.69885 -223.534158 
L 85.166168 -224.115759 
L 86.633486 -224.682 
L 88.100804 -225.232829 
L 89.568122 -225.768199 
L 91.03544 -226.288069 
L 92.502757 -226.792407 
L 93.970075 -227.281196 
L 95.437393 -227.754433 
L 96.904711 -228.212137 
L 98.372029 -228.654351 
L 99.839346 -229.08115 
L 101.306664 -229.492641 
L 102.773982 -229.888971 
L 104.2413 -230.270329 
L 105.708618 -230.636948 
L 107.175935 -230.989108 
L 108.643253 -231.327131 
L 110.110571 -231.651381 
L 111.577889 -231.962259 
L 113.045207 -232.26019 
L 114.512524 -232.54562 
L 115.979842 -232.818999 
L 117.44716 -233.080773 
L 118.914478 -233.331368 
L 120.381796 -233.57118 
L 121.849113 -233.800562 
L 123.316431 -234.019813 
L 124.783749 -234.22917 
L 126.251067 -234.428801 
L 127.718385 -234.618798 
L 129.185702 -234.799177 
L 130.65302 -234.969871 
L 132.120338 -235.130736 
L 133.587656 -235.281551 
L 135.054974 -235.422026 
L 136.522292 -235.551805 
L 137.989609 -235.670483 
L 139.456927 -235.777608 
L 140.924245 -235.872703 
L 142.391563 -235.955277 
L 143.858881 -236.024837 
L 145.326198 -236.080908 
L 146.793516 -236.123039 
L 148.260834 -236.15082 
L 149.728152 -236.163887 
L 151.19547 -236.161925 
L 152.662787 -236.144677 
L 154.130105 -236.111938 
L 155.597423 -236.063554 
L 157.064741 -235.999417 
L 158.532059 -235.919463 
L 159.999376 -235.823661 
L 161.466694 -235.712011 
L 162.934012 -235.584535 
L 164.40133 -235.441276 
L 165.868648 -235.282287 
L 167.335965 -235.107633 
L 168.803283 -234.917384 
L 170.270601 -234.711614 
L 171.737919 -234.490398 
L 173.205237 -234.253811 
L 174.672554 -234.001925 
L 176.139872 -233.734812 
L 177.60719 -233.452538 
L 179.074508 -233.155169 
L 180.541826 -232.842764 
L 182.009144 -232.515379 
L 183.476461 -232.17307 
L 184.943779 -231.815884 
L 186.411097 -231.443868 
L 187.878415 -231.057064 
L 189.345733 -230.655512 
L 190.81305 -230.239249 
L 192.280368 -229.808308 
L 193.747686 -229.362721 
L 193.747686 -248.49435 
L 193.747686 -248.49435 
L 192.280368 -248.208737 
L 190.81305 -247.926029 
L 189.345733 -247.646259 
L 187.878415 -247.369459 
L 186.411097 -247.095667 
L 184.943779 -246.824921 
L 183.476461 -246.557265 
L 182.009144 -246.292745 
L 180.541826 -246.03141 
L 179.074508 -245.773312 
L 177.60719 -245.51851 
L 176.139872 -245.267063 
L 174.672554 -245.019035 
L 173.205237 -244.774495 
L 171.737919 -244.533512 
L 170.270601 -244.29616 
L 168.803283 -244.062513 
L 167.335965 -243.832646 
L 165.868648 -243.606634 
L 164.40133 -243.384546 
L 162.934012 -243.166447 
L 161.466694 -242.952391 
L 159.999376 -242.742419 
L 158.532059 -242.536556 
L 157.064741 -242.334799 
L 155.597423 -242.137119 
L 154.130105 -241.94345 
L 152.662787 -241.753686 
L 151.19547 -241.567673 
L 149.728152 -241.385206 
L 148.260834 -241.206025 
L 146.793516 -241.029819 
L 145.326198 -240.856222 
L 143.858881 -240.684823 
L 142.391563 -240.515174 
L 140.924245 -240.346798 
L 139.456927 -240.179202 
L 137.989609 -240.011896 
L 136.522292 -239.844401 
L 135.054974 -239.676267 
L 133.587656 -239.507088 
L 132.120338 -239.336509 
L 130.65302 -239.164238 
L 129.185702 -238.990057 
L 127.718385 -238.813819 
L 126.251067 -238.635459 
L 124.783749 -238.454992 
L 123.316431 -238.27251 
L 121.849113 -238.088181 
L 120.381796 -237.902243 
L 118.914478 -237.714994 
L 117.44716 -237.526788 
L 115.979842 -237.33802 
L 114.512524 -237.149116 
L 113.045207 -236.960522 
L 111.577889 -236.772689 
L 110.110571 -236.586062 
L 108.643253 -236.401067 
L 107.175935 -236.218103 
L 105.708618 -236.037536 
L 104.2413 -235.859687 
L 102.773982 -235.684836 
L 101.306664 -235.513217 
L 99.839346 -235.345018 
L 98.372029 -235.180386 
L 96.904711 -235.019429 
L 95.437393 -234.862221 
L 93.970075 -234.708806 
L 92.502757 -234.559201 
L 91.03544 -234.413405 
L 89.568122 -234.2714 
L 88.100804 -234.133155 
L 86.633486 -233.998628 
L 85.166168 -233.867772 
L 83.69885 -233.740535 
L 82.231533 -233.616862 
L 80.764215 -233.496698 
L 79.296897 -233.379987 
L 77.829579 -233.266673 
L 76.362261 -233.156703 
L 74.894944 -233.050024 
L 73.427626 -232.946589 
L 71.960308 -232.846348 
L 70.49299 -232.749259 
L 69.025672 -232.655278 
L 67.558355 -232.564366 
L 66.091037 -232.476487 
L 64.623719 -232.391605 
L 63.156401 -232.309688 
L 61.689083 -232.230705 
L 60.221766 -232.154629 
L 58.754448 -232.081434 
L 57.28713 -232.011094 
L 55.819812 -231.943587 
L 54.352494 -231.878892 
L 52.885177 -231.81699 
L 51.417859 -231.757861 
L 49.950541 -231.701489 
L 48.483223 -231.647859 
z
"/>
    </defs>
    <g clip-path="url(#pe85eb1a5f6)">
     <use xlink:href="#m715fbd2093" x="0" y="302.135572" style="fill: #2964d9; fill-opacity: 0.25"/>
    </g>
   </g>
   <g id="patch_3">
    <path d="M 41.22 121.03875 
L 41.22 12.67875 
" style="fill: none; stroke: #000000; stroke-linejoin: miter; stroke-linecap: square"/>
   </g>
   <g id="patch_4">
    <path d="M 41.22 121.03875 
L 201.010909 121.03875 
" style="fill: none; stroke: #000000; stroke-linejoin: miter; stroke-linecap: square"/>
   </g>
   <g id="text_5">
    <!-- 122 -->
    <g style="fill: #262626" transform="translate(56.336544 71.078413) scale(0.08 -0.08)">
     <defs>
      <path id="ArialMT-31" d="M 2384 0 
L 1822 0 
L 1822 3584 
Q 1619 3391 1289 3197 
Q 959 3003 697 2906 
L 697 3450 
Q 1169 3672 1522 3987 
Q 1875 4303 2022 4600 
L 2384 4600 
L 2384 0 
z
" transform="scale(0.015625)"/>
     </defs>
     <use xlink:href="#ArialMT-31"/>
     <use xlink:href="#ArialMT-32" transform="translate(55.615234 0)"/>
     <use xlink:href="#ArialMT-32" transform="translate(111.230469 0)"/>
    </g>
   </g>
   <g id="text_6">
    <!-- 916 -->
    <g style="fill: #262626" transform="translate(85.389437 62.501498) scale(0.08 -0.08)">
     <defs>
      <path id="ArialMT-39" d="M 350 1059 
L 891 1109 
Q 959 728 1153 556 
Q 1347 384 1650 384 
Q 1909 384 2104 503 
Q 2300 622 2425 820 
Q 2550 1019 2634 1356 
Q 2719 1694 2719 2044 
Q 2719 2081 2716 2156 
Q 2547 1888 2255 1720 
Q 1963 1553 1622 1553 
Q 1053 1553 659 1965 
Q 266 2378 266 3053 
Q 266 3750 677 4175 
Q 1088 4600 1706 4600 
Q 2153 4600 2523 4359 
Q 2894 4119 3086 3673 
Q 3278 3228 3278 2384 
Q 3278 1506 3087 986 
Q 2897 466 2520 194 
Q 2144 -78 1638 -78 
Q 1100 -78 759 220 
Q 419 519 350 1059 
z
M 2653 3081 
Q 2653 3566 2395 3850 
Q 2138 4134 1775 4134 
Q 1400 4134 1122 3828 
Q 844 3522 844 3034 
Q 844 2597 1108 2323 
Q 1372 2050 1759 2050 
Q 2150 2050 2401 2323 
Q 2653 2597 2653 3081 
z
" transform="scale(0.015625)"/>
     </defs>
     <use xlink:href="#ArialMT-39"/>
     <use xlink:href="#ArialMT-31" transform="translate(55.615234 0)"/>
     <use xlink:href="#ArialMT-36" transform="translate(111.230469 0)"/>
    </g>
   </g>
   <g id="text_7">
    <!-- 2283 -->
    <g style="fill: #262626" transform="translate(112.217955 61.941034) scale(0.08 -0.08)">
     <use xlink:href="#ArialMT-32"/>
     <use xlink:href="#ArialMT-32" transform="translate(55.615234 0)"/>
     <use xlink:href="#ArialMT-38" transform="translate(111.230469 0)"/>
     <use xlink:href="#ArialMT-33" transform="translate(166.845703 0)"/>
    </g>
   </g>
   <g id="text_8">
    <!-- 1793 -->
    <g style="fill: #262626" transform="translate(141.270847 61.099431) scale(0.08 -0.08)">
     <defs>
      <path id="ArialMT-37" d="M 303 3981 
L 303 4522 
L 3269 4522 
L 3269 4084 
Q 2831 3619 2401 2847 
Q 1972 2075 1738 1259 
Q 1569 684 1522 0 
L 944 0 
Q 953 541 1156 1306 
Q 1359 2072 1739 2783 
Q 2119 3494 2547 3981 
L 303 3981 
z
" transform="scale(0.015625)"/>
     </defs>
     <use xlink:href="#ArialMT-31"/>
     <use xlink:href="#ArialMT-37" transform="translate(55.615234 0)"/>
     <use xlink:href="#ArialMT-39" transform="translate(111.230469 0)"/>
     <use xlink:href="#ArialMT-33" transform="translate(166.845703 0)"/>
    </g>
   </g>
   <g id="text_9">
    <!-- 270 -->
    <g style="fill: #262626" transform="translate(172.548115 60.804024) scale(0.08 -0.08)">
     <use xlink:href="#ArialMT-32"/>
     <use xlink:href="#ArialMT-37" transform="translate(55.615234 0)"/>
     <use xlink:href="#ArialMT-30" transform="translate(111.230469 0)"/>
    </g>
   </g>
   <g id="line2d_18">
    <path d="M 63.009669 89.905098 
L 63.009669 72.894163 
" clip-path="url(#pe85eb1a5f6)" style="fill: none; stroke: #4c4c4c; stroke-width: 2; stroke-linecap: round"/>
   </g>
   <g id="line2d_19">
    <path d="M 92.062562 71.195365 
L 92.062562 64.317248 
" clip-path="url(#pe85eb1a5f6)" style="fill: none; stroke: #4c4c4c; stroke-width: 2; stroke-linecap: round"/>
   </g>
   <g id="line2d_20">
    <path d="M 121.115455 68.26183 
L 121.115455 63.756784 
" clip-path="url(#pe85eb1a5f6)" style="fill: none; stroke: #4c4c4c; stroke-width: 2; stroke-linecap: round"/>
   </g>
   <g id="line2d_21">
    <path d="M 150.168347 67.844814 
L 150.168347 62.915181 
" clip-path="url(#pe85eb1a5f6)" style="fill: none; stroke: #4c4c4c; stroke-width: 2; stroke-linecap: round"/>
   </g>
   <g id="line2d_22">
    <path d="M 179.22124 74.923838 
L 179.22124 62.619774 
" clip-path="url(#pe85eb1a5f6)" style="fill: none; stroke: #4c4c4c; stroke-width: 2; stroke-linecap: round"/>
   </g>
   <g id="line2d_23">
    <path d="M 63.009669 81.745609 
" clip-path="url(#pe85eb1a5f6)" style="fill: none; stroke: #4c4c4c; stroke-width: 1.8; stroke-linecap: round"/>
    <defs>
     <path id="m315d504c6b" d="M 0 2 
C 0.530406 2 1.03916 1.789267 1.414214 1.414214 
C 1.789267 1.03916 2 0.530406 2 0 
C 2 -0.530406 1.789267 -1.03916 1.414214 -1.414214 
C 1.03916 -1.789267 0.530406 -2 0 -2 
C -0.530406 -2 -1.03916 -1.789267 -1.414214 -1.414214 
C -1.789267 -1.03916 -2 -0.530406 -2 0 
C -2 0.530406 -1.789267 1.03916 -1.414214 1.414214 
C -1.03916 1.789267 -0.530406 2 0 2 
z
"/>
    </defs>
    <g clip-path="url(#pe85eb1a5f6)">
     <use xlink:href="#m315d504c6b" x="63.009669" y="81.745609" style="fill: #4c4c4c"/>
    </g>
   </g>
   <g id="line2d_24">
    <path d="M 92.062562 68.027343 
" clip-path="url(#pe85eb1a5f6)" style="fill: none; stroke: #4c4c4c; stroke-width: 1.8; stroke-linecap: round"/>
    <g clip-path="url(#pe85eb1a5f6)">
     <use xlink:href="#m315d504c6b" x="92.062562" y="68.027343" style="fill: #4c4c4c"/>
    </g>
   </g>
   <g id="line2d_25">
    <path d="M 121.115455 66.076179 
" clip-path="url(#pe85eb1a5f6)" style="fill: none; stroke: #4c4c4c; stroke-width: 1.8; stroke-linecap: round"/>
    <g clip-path="url(#pe85eb1a5f6)">
     <use xlink:href="#m315d504c6b" x="121.115455" y="66.076179" style="fill: #4c4c4c"/>
    </g>
   </g>
   <g id="line2d_26">
    <path d="M 150.168347 65.227076 
" clip-path="url(#pe85eb1a5f6)" style="fill: none; stroke: #4c4c4c; stroke-width: 1.8; stroke-linecap: round"/>
    <g clip-path="url(#pe85eb1a5f6)">
     <use xlink:href="#m315d504c6b" x="150.168347" y="65.227076" style="fill: #4c4c4c"/>
    </g>
   </g>
   <g id="line2d_27">
    <path d="M 179.22124 68.803095 
" clip-path="url(#pe85eb1a5f6)" style="fill: none; stroke: #4c4c4c; stroke-width: 1.8; stroke-linecap: round"/>
    <g clip-path="url(#pe85eb1a5f6)">
     <use xlink:href="#m315d504c6b" x="179.22124" y="68.803095" style="fill: #4c4c4c"/>
    </g>
   </g>
  </g>
  <g id="axes_2">
   <g id="patch_5">
    <path d="M 232.969091 121.03875 
L 392.76 121.03875 
L 392.76 12.67875 
L 232.969091 12.67875 
z
" style="fill: #ffffff"/>
   </g>
   <g id="matplotlib.axis_3">
    <g id="xtick_6">
     <g id="line2d_28">
      <path d="M 258.390372 121.03875 
L 258.390372 12.67875 
" clip-path="url(#pb64f96df58)" style="fill: none"/>
     </g>
     <g id="line2d_29">
      <g>
       <use xlink:href="#m296ca71247" x="258.390372" y="121.03875" style="stroke: #000000"/>
      </g>
     </g>
    </g>
    <g id="xtick_7">
     <g id="line2d_30">
      <path d="M 294.706488 121.03875 
L 294.706488 12.67875 
" clip-path="url(#pb64f96df58)" style="fill: none"/>
     </g>
     <g id="line2d_31">
      <g>
       <use xlink:href="#m296ca71247" x="294.706488" y="121.03875" style="stroke: #000000"/>
      </g>
     </g>
    </g>
    <g id="xtick_8">
     <g id="line2d_32">
      <path d="M 331.022603 121.03875 
L 331.022603 12.67875 
" clip-path="url(#pb64f96df58)" style="fill: none"/>
     </g>
     <g id="line2d_33">
      <g>
       <use xlink:href="#m296ca71247" x="331.022603" y="121.03875" style="stroke: #000000"/>
      </g>
     </g>
    </g>
    <g id="xtick_9">
     <g id="line2d_34">
      <path d="M 367.338719 121.03875 
L 367.338719 12.67875 
" clip-path="url(#pb64f96df58)" style="fill: none"/>
     </g>
     <g id="line2d_35">
      <g>
       <use xlink:href="#m296ca71247" x="367.338719" y="121.03875" style="stroke: #000000"/>
      </g>
     </g>
    </g>
   </g>
   <g id="matplotlib.axis_4">
    <g id="ytick_4">
     <g id="line2d_36">
      <path d="M 232.969091 112.00875 
L 392.76 112.00875 
" clip-path="url(#pb64f96df58)" style="fill: none; stroke: #cccccc; stroke-width: 0.5; stroke-linecap: round"/>
     </g>
     <g id="line2d_37">
      <g>
       <use xlink:href="#mfbcf3682a3" x="232.969091" y="112.00875" style="stroke: #000000"/>
      </g>
     </g>
     <g id="text_10">
      <!-- 26 -->
      <g style="fill: #262626" transform="translate(221.571591 114.871875) scale(0.08 -0.08)">
       <use xlink:href="#ArialMT-32"/>
       <use xlink:href="#ArialMT-36" transform="translate(55.615234 0)"/>
      </g>
     </g>
    </g>
    <g id="ytick_5">
     <g id="line2d_38">
      <path d="M 232.969091 66.85875 
L 392.76 66.85875 
" clip-path="url(#pb64f96df58)" style="fill: none; stroke: #cccccc; stroke-width: 0.5; stroke-linecap: round"/>
     </g>
     <g id="line2d_39">
      <g>
       <use xlink:href="#mfbcf3682a3" x="232.969091" y="66.85875" style="stroke: #000000"/>
      </g>
     </g>
     <g id="text_11">
      <!-- 28 -->
      <g style="fill: #262626" transform="translate(221.571591 69.721875) scale(0.08 -0.08)">
       <use xlink:href="#ArialMT-32"/>
       <use xlink:href="#ArialMT-38" transform="translate(55.615234 0)"/>
      </g>
     </g>
    </g>
    <g id="ytick_6">
     <g id="line2d_40">
      <path d="M 232.969091 21.70875 
L 392.76 21.70875 
" clip-path="url(#pb64f96df58)" style="fill: none; stroke: #cccccc; stroke-width: 0.5; stroke-linecap: round"/>
     </g>
     <g id="line2d_41">
      <g>
       <use xlink:href="#mfbcf3682a3" x="232.969091" y="21.70875" style="stroke: #000000"/>
      </g>
     </g>
     <g id="text_12">
      <!-- 30 -->
      <g style="fill: #262626" transform="translate(221.571591 24.571875) scale(0.08 -0.08)">
       <use xlink:href="#ArialMT-33"/>
       <use xlink:href="#ArialMT-30" transform="translate(55.615234 0)"/>
      </g>
     </g>
    </g>
   </g>
   <g id="line2d_42">
    <path d="M 240.232314 72.421137 
L 241.699632 72.283193 
L 243.16695 72.145646 
L 244.634267 72.008494 
L 246.101585 71.871738 
L 247.568903 71.735379 
L 249.036221 71.599415 
L 250.503539 71.463848 
L 251.970856 71.328677 
L 253.438174 71.193901 
L 254.905492 71.059522 
L 256.37281 70.925539 
L 257.840128 70.791952 
L 259.307446 70.658761 
L 260.774763 70.525965 
L 262.242081 70.393566 
L 263.709399 70.261563 
L 265.176717 70.129957 
L 266.644035 69.998746 
L 268.111352 69.867931 
L 269.57867 69.737512 
L 271.045988 69.607489 
L 272.513306 69.477863 
L 273.980624 69.348632 
L 275.447941 69.219797 
L 276.915259 69.091359 
L 278.382577 68.963316 
L 279.849895 68.83567 
L 281.317213 68.70842 
L 282.78453 68.581565 
L 284.251848 68.455107 
L 285.719166 68.329045 
L 287.186484 68.203379 
L 288.653802 68.078108 
L 290.121119 67.953234 
L 291.588437 67.828756 
L 293.055755 67.704674 
L 294.523073 67.580988 
L 295.990391 67.457699 
L 297.457708 67.334805 
L 298.925026 67.212307 
L 300.392344 67.090205 
L 301.859662 66.968499 
L 303.32698 66.84719 
L 304.794298 66.726276 
L 306.261615 66.605759 
L 307.728933 66.485637 
L 309.196251 66.365912 
L 310.663569 66.246582 
L 312.130887 66.127649 
L 313.598204 66.009112 
L 315.065522 65.89097 
L 316.53284 65.773225 
L 318.000158 65.655876 
L 319.467476 65.538923 
L 320.934793 65.422366 
L 322.402111 65.306205 
L 323.869429 65.19044 
L 325.336747 65.075071 
L 326.804065 64.960098 
L 328.271382 64.845521 
L 329.7387 64.731341 
L 331.206018 64.617556 
L 332.673336 64.504167 
L 334.140654 64.391175 
L 335.607971 64.278578 
L 337.075289 64.166378 
L 338.542607 64.054573 
L 340.009925 63.943165 
L 341.477243 63.832152 
L 342.94456 63.721536 
L 344.411878 63.611316 
L 345.879196 63.501492 
L 347.346514 63.392064 
L 348.813832 63.283031 
L 350.28115 63.174395 
L 351.748467 63.066155 
L 353.215785 62.958311 
L 354.683103 62.850863 
L 356.150421 62.743812 
L 357.617739 62.637156 
L 359.085056 62.530896 
L 360.552374 62.425032 
L 362.019692 62.319565 
L 363.48701 62.214493 
L 364.954328 62.109817 
L 366.421645 62.005538 
L 367.888963 61.901655 
L 369.356281 61.798167 
L 370.823599 61.695076 
L 372.290917 61.59238 
L 373.758234 61.490081 
L 375.225552 61.388178 
L 376.69287 61.286671 
L 378.160188 61.18556 
L 379.627506 61.084845 
L 381.094823 60.984526 
L 382.562141 60.884603 
L 384.029459 60.785076 
L 385.496777 60.685945 
" clip-path="url(#pb64f96df58)" style="fill: none; stroke: #2964d9; stroke-opacity: 0.5; stroke-width: 2; stroke-linecap: round"/>
   </g>
   <g id="FillBetweenPolyCollection_2">
    <defs>
     <path id="m8ecccaf04f" d="M 240.232314 -236.822359 
L 240.232314 -222.606511 
L 241.699632 -222.991843 
L 243.16695 -223.370152 
L 244.634267 -223.741402 
L 246.101585 -224.105559 
L 247.568903 -224.462584 
L 249.036221 -224.812444 
L 250.503539 -225.1551 
L 251.970856 -225.490518 
L 253.438174 -225.818664 
L 254.905492 -226.139506 
L 256.37281 -226.453016 
L 257.840128 -226.75917 
L 259.307446 -227.057949 
L 260.774763 -227.349342 
L 262.242081 -227.633343 
L 263.709399 -227.909961 
L 265.176717 -228.179214 
L 266.644035 -228.441135 
L 268.111352 -228.695772 
L 269.57867 -228.943195 
L 271.045988 -229.183489 
L 272.513306 -229.416765 
L 273.980624 -229.643155 
L 275.447941 -229.862819 
L 276.915259 -230.075939 
L 278.382577 -230.282725 
L 279.849895 -230.48341 
L 281.317213 -230.678252 
L 282.78453 -230.86753 
L 284.251848 -231.051539 
L 285.719166 -231.230593 
L 287.186484 -231.405014 
L 288.653802 -231.575131 
L 290.121119 -231.741274 
L 291.588437 -231.90377 
L 293.055755 -232.062937 
L 294.523073 -232.219078 
L 295.990391 -232.372481 
L 297.457708 -232.523408 
L 298.925026 -232.672095 
L 300.392344 -232.818748 
L 301.859662 -232.963539 
L 303.32698 -233.106601 
L 304.794298 -233.248029 
L 306.261615 -233.387874 
L 307.728933 -233.526142 
L 309.196251 -233.662791 
L 310.663569 -233.797731 
L 312.130887 -233.930822 
L 313.598204 -234.061871 
L 315.065522 -234.190634 
L 316.53284 -234.316816 
L 318.000158 -234.440072 
L 319.467476 -234.560012 
L 320.934793 -234.676201 
L 322.402111 -234.788171 
L 323.869429 -234.895426 
L 325.336747 -234.997453 
L 326.804065 -235.093733 
L 328.271382 -235.183755 
L 329.7387 -235.267027 
L 331.206018 -235.343092 
L 332.673336 -235.411535 
L 334.140654 -235.471996 
L 335.607971 -235.524173 
L 337.075289 -235.567828 
L 338.542607 -235.602784 
L 340.009925 -235.628927 
L 341.477243 -235.646196 
L 342.94456 -235.654577 
L 344.411878 -235.654099 
L 345.879196 -235.644823 
L 347.346514 -235.626836 
L 348.813832 -235.600243 
L 350.28115 -235.565162 
L 351.748467 -235.521718 
L 353.215785 -235.47004 
L 354.683103 -235.410256 
L 356.150421 -235.342492 
L 357.617739 -235.266871 
L 359.085056 -235.183509 
L 360.552374 -235.092515 
L 362.019692 -234.993995 
L 363.48701 -234.888043 
L 364.954328 -234.77475 
L 366.421645 -234.654198 
L 367.888963 -234.526466 
L 369.356281 -234.391622 
L 370.823599 -234.249733 
L 372.290917 -234.100858 
L 373.758234 -233.94505 
L 375.225552 -233.782362 
L 376.69287 -233.612837 
L 378.160188 -233.436519 
L 379.627506 -233.253446 
L 381.094823 -233.063654 
L 382.562141 -232.867173 
L 384.029459 -232.664035 
L 385.496777 -232.454267 
L 385.496777 -250.444988 
L 385.496777 -250.444988 
L 384.029459 -250.036958 
L 382.562141 -249.634766 
L 381.094823 -249.23844 
L 379.627506 -248.848009 
L 378.160188 -248.463506 
L 376.69287 -248.084966 
L 375.225552 -247.712427 
L 373.758234 -247.345932 
L 372.290917 -246.985526 
L 370.823599 -246.63126 
L 369.356281 -246.283188 
L 367.888963 -245.94137 
L 366.421645 -245.60587 
L 364.954328 -245.27676 
L 363.48701 -244.954116 
L 362.019692 -244.638021 
L 360.552374 -244.328564 
L 359.085056 -244.025844 
L 357.617739 -243.729962 
L 356.150421 -243.441029 
L 354.683103 -243.159162 
L 353.215785 -242.884482 
L 351.748467 -242.617116 
L 350.28115 -242.357192 
L 348.813832 -242.104839 
L 347.346514 -241.860181 
L 345.879196 -241.623338 
L 344.411878 -241.394414 
L 342.94456 -241.173495 
L 341.477243 -240.960644 
L 340.009925 -240.755887 
L 338.542607 -240.559214 
L 337.075289 -240.370561 
L 335.607971 -240.189815 
L 334.140654 -240.016799 
L 332.673336 -239.851274 
L 331.206018 -239.69294 
L 329.7387 -239.541436 
L 328.271382 -239.396347 
L 326.804065 -239.257215 
L 325.336747 -239.123549 
L 323.869429 -238.994838 
L 322.402111 -238.870564 
L 320.934793 -238.750212 
L 319.467476 -238.633287 
L 318.000158 -238.51932 
L 316.53284 -238.407878 
L 315.065522 -238.29857 
L 313.598204 -238.19105 
L 312.130887 -238.085025 
L 310.663569 -237.980249 
L 309.196251 -237.87653 
L 307.728933 -237.773729 
L 306.261615 -237.671753 
L 304.794298 -237.570563 
L 303.32698 -237.470163 
L 301.859662 -237.370607 
L 300.392344 -237.271986 
L 298.925026 -237.174436 
L 297.457708 -237.078127 
L 295.990391 -236.983266 
L 294.523073 -236.890089 
L 293.055755 -236.798859 
L 291.588437 -236.709862 
L 290.121119 -236.623402 
L 288.653802 -236.539797 
L 287.186484 -236.459373 
L 285.719166 -236.382462 
L 284.251848 -236.309391 
L 282.78453 -236.240484 
L 281.317213 -236.176053 
L 279.849895 -236.116394 
L 278.382577 -236.061786 
L 276.915259 -236.012487 
L 275.447941 -235.968731 
L 273.980624 -235.930725 
L 272.513306 -235.898655 
L 271.045988 -235.872677 
L 269.57867 -235.852926 
L 268.111352 -235.83951 
L 266.644035 -235.832519 
L 265.176717 -235.832018 
L 263.709399 -235.838057 
L 262.242081 -235.850669 
L 260.774763 -235.869872 
L 259.307446 -235.895674 
L 257.840128 -235.928071 
L 256.37281 -235.96705 
L 254.905492 -236.012594 
L 253.438174 -236.064678 
L 251.970856 -236.123273 
L 250.503539 -236.188349 
L 249.036221 -236.25987 
L 247.568903 -236.337802 
L 246.101585 -236.422109 
L 244.634267 -236.512754 
L 243.16695 -236.609702 
L 241.699632 -236.712915 
L 240.232314 -236.822359 
z
"/>
    </defs>
    <g clip-path="url(#pb64f96df58)">
     <use xlink:href="#m8ecccaf04f" x="0" y="302.135572" style="fill: #2964d9; fill-opacity: 0.25"/>
    </g>
   </g>
   <g id="patch_6">
    <path d="M 232.969091 121.03875 
L 232.969091 12.67875 
" style="fill: none; stroke: #000000; stroke-linejoin: miter; stroke-linecap: square"/>
   </g>
   <g id="patch_7">
    <path d="M 232.969091 121.03875 
L 392.76 121.03875 
" style="fill: none; stroke: #000000; stroke-linejoin: miter; stroke-linecap: square"/>
   </g>
   <g id="text_13">
    <!-- 494 -->
    <g style="fill: #262626" transform="translate(251.717247 67.071451) scale(0.08 -0.08)">
     <defs>
      <path id="ArialMT-34" d="M 2069 0 
L 2069 1097 
L 81 1097 
L 81 1613 
L 2172 4581 
L 2631 4581 
L 2631 1613 
L 3250 1613 
L 3250 1097 
L 2631 1097 
L 2631 0 
L 2069 0 
z
M 2069 1613 
L 2069 3678 
L 634 1613 
L 2069 1613 
z
" transform="scale(0.015625)"/>
     </defs>
     <use xlink:href="#ArialMT-34"/>
     <use xlink:href="#ArialMT-39" transform="translate(55.615234 0)"/>
     <use xlink:href="#ArialMT-34" transform="translate(111.230469 0)"/>
    </g>
   </g>
   <g id="text_14">
    <!-- 2326 -->
    <g style="fill: #262626" transform="translate(285.808988 62.518256) scale(0.08 -0.08)">
     <use xlink:href="#ArialMT-32"/>
     <use xlink:href="#ArialMT-33" transform="translate(55.615234 0)"/>
     <use xlink:href="#ArialMT-32" transform="translate(111.230469 0)"/>
     <use xlink:href="#ArialMT-36" transform="translate(166.845703 0)"/>
    </g>
   </g>
   <g id="text_15">
    <!-- 2477 -->
    <g style="fill: #262626" transform="translate(322.125103 62.123234) scale(0.08 -0.08)">
     <use xlink:href="#ArialMT-32"/>
     <use xlink:href="#ArialMT-34" transform="translate(55.615234 0)"/>
     <use xlink:href="#ArialMT-37" transform="translate(111.230469 0)"/>
     <use xlink:href="#ArialMT-37" transform="translate(166.845703 0)"/>
    </g>
   </g>
   <g id="text_16">
    <!-- 523 -->
    <g style="fill: #262626" transform="translate(360.665594 65.763264) scale(0.08 -0.08)">
     <defs>
      <path id="ArialMT-35" d="M 266 1200 
L 856 1250 
Q 922 819 1161 601 
Q 1400 384 1738 384 
Q 2144 384 2425 690 
Q 2706 997 2706 1503 
Q 2706 1984 2436 2262 
Q 2166 2541 1728 2541 
Q 1456 2541 1237 2417 
Q 1019 2294 894 2097 
L 366 2166 
L 809 4519 
L 3088 4519 
L 3088 3981 
L 1259 3981 
L 1013 2750 
Q 1425 3038 1878 3038 
Q 2478 3038 2890 2622 
Q 3303 2206 3303 1553 
Q 3303 931 2941 478 
Q 2500 -78 1738 -78 
Q 1113 -78 717 272 
Q 322 622 266 1200 
z
" transform="scale(0.015625)"/>
     </defs>
     <use xlink:href="#ArialMT-35"/>
     <use xlink:href="#ArialMT-32" transform="translate(55.615234 0)"/>
     <use xlink:href="#ArialMT-33" transform="translate(111.230469 0)"/>
    </g>
   </g>
   <g id="line2d_43">
    <path d="M 258.390372 78.391582 
L 258.390372 68.887201 
" clip-path="url(#pb64f96df58)" style="fill: none; stroke: #4c4c4c; stroke-width: 2; stroke-linecap: round"/>
   </g>
   <g id="line2d_44">
    <path d="M 294.706488 68.690214 
L 294.706488 64.334006 
" clip-path="url(#pb64f96df58)" style="fill: none; stroke: #4c4c4c; stroke-width: 2; stroke-linecap: round"/>
   </g>
   <g id="line2d_45">
    <path d="M 331.022603 67.969055 
L 331.022603 63.938984 
" clip-path="url(#pb64f96df58)" style="fill: none; stroke: #4c4c4c; stroke-width: 2; stroke-linecap: round"/>
   </g>
   <g id="line2d_46">
    <path d="M 367.338719 75.705977 
L 367.338719 67.579014 
" clip-path="url(#pb64f96df58)" style="fill: none; stroke: #4c4c4c; stroke-width: 2; stroke-linecap: round"/>
   </g>
   <g id="line2d_47">
    <path d="M 258.390372 73.680399 
" clip-path="url(#pb64f96df58)" style="fill: none; stroke: #4c4c4c; stroke-width: 1.8; stroke-linecap: round"/>
    <g clip-path="url(#pb64f96df58)">
     <use xlink:href="#m315d504c6b" x="258.390372" y="73.680399" style="fill: #4c4c4c"/>
    </g>
   </g>
   <g id="line2d_48">
    <path d="M 294.706488 66.664895 
" clip-path="url(#pb64f96df58)" style="fill: none; stroke: #4c4c4c; stroke-width: 1.8; stroke-linecap: round"/>
    <g clip-path="url(#pb64f96df58)">
     <use xlink:href="#m315d504c6b" x="294.706488" y="66.664895" style="fill: #4c4c4c"/>
    </g>
   </g>
   <g id="line2d_49">
    <path d="M 331.022603 65.875873 
" clip-path="url(#pb64f96df58)" style="fill: none; stroke: #4c4c4c; stroke-width: 1.8; stroke-linecap: round"/>
    <g clip-path="url(#pb64f96df58)">
     <use xlink:href="#m315d504c6b" x="331.022603" y="65.875873" style="fill: #4c4c4c"/>
    </g>
   </g>
   <g id="line2d_50">
    <path d="M 367.338719 71.598172 
" clip-path="url(#pb64f96df58)" style="fill: none; stroke: #4c4c4c; stroke-width: 1.8; stroke-linecap: round"/>
    <g clip-path="url(#pb64f96df58)">
     <use xlink:href="#m315d504c6b" x="367.338719" y="71.598172" style="fill: #4c4c4c"/>
    </g>
   </g>
  </g>
  <g id="axes_3">
   <g id="patch_8">
    <path d="M 41.22 251.07075 
L 201.010909 251.07075 
L 201.010909 142.71075 
L 41.22 142.71075 
z
" style="fill: #ffffff"/>
   </g>
   <g id="matplotlib.axis_5">
    <g id="xtick_10">
     <g id="line2d_51">
      <path d="M 63.009669 251.07075 
L 63.009669 142.71075 
" clip-path="url(#pfa9caa3fe9)" style="fill: none"/>
     </g>
     <g id="line2d_52">
      <g>
       <use xlink:href="#m296ca71247" x="63.009669" y="251.07075" style="stroke: #000000"/>
      </g>
     </g>
     <g id="text_17">
      <!-- [4.5,5.5] -->
      <g style="fill: #262626" transform="translate(54.25171 278.060509) rotate(-45) scale(0.08 -0.08)">
       <defs>
        <path id="ArialMT-2e" d="M 581 0 
L 581 641 
L 1222 641 
L 1222 0 
L 581 0 
z
" transform="scale(0.015625)"/>
        <path id="ArialMT-2c" d="M 569 0 
L 569 641 
L 1209 641 
L 1209 0 
Q 1209 -353 1084 -570 
Q 959 -788 688 -906 
L 531 -666 
Q 709 -588 793 -436 
Q 878 -284 888 0 
L 569 0 
z
" transform="scale(0.015625)"/>
       </defs>
       <use xlink:href="#ArialMT-5b"/>
       <use xlink:href="#ArialMT-34" transform="translate(27.783203 0)"/>
       <use xlink:href="#ArialMT-2e" transform="translate(83.398438 0)"/>
       <use xlink:href="#ArialMT-35" transform="translate(111.181641 0)"/>
       <use xlink:href="#ArialMT-2c" transform="translate(166.796875 0)"/>
       <use xlink:href="#ArialMT-35" transform="translate(194.580078 0)"/>
       <use xlink:href="#ArialMT-2e" transform="translate(250.195312 0)"/>
       <use xlink:href="#ArialMT-35" transform="translate(277.978516 0)"/>
       <use xlink:href="#ArialMT-5d" transform="translate(333.59375 0)"/>
      </g>
     </g>
    </g>
    <g id="xtick_11">
     <g id="line2d_53">
      <path d="M 92.062562 251.07075 
L 92.062562 142.71075 
" clip-path="url(#pfa9caa3fe9)" style="fill: none"/>
     </g>
     <g id="line2d_54">
      <g>
       <use xlink:href="#m296ca71247" x="92.062562" y="251.07075" style="stroke: #000000"/>
      </g>
     </g>
     <g id="text_18">
      <!-- (5.5,6.5] -->
      <g style="fill: #262626" transform="translate(83.149923 278.441463) rotate(-45) scale(0.08 -0.08)">
       <defs>
        <path id="ArialMT-28" d="M 1497 -1347 
Q 1031 -759 709 28 
Q 388 816 388 1659 
Q 388 2403 628 3084 
Q 909 3875 1497 4659 
L 1900 4659 
Q 1522 4009 1400 3731 
Q 1209 3300 1100 2831 
Q 966 2247 966 1656 
Q 966 153 1900 -1347 
L 1497 -1347 
z
" transform="scale(0.015625)"/>
       </defs>
       <use xlink:href="#ArialMT-28"/>
       <use xlink:href="#ArialMT-35" transform="translate(33.300781 0)"/>
       <use xlink:href="#ArialMT-2e" transform="translate(88.916016 0)"/>
       <use xlink:href="#ArialMT-35" transform="translate(116.699219 0)"/>
       <use xlink:href="#ArialMT-2c" transform="translate(172.314453 0)"/>
       <use xlink:href="#ArialMT-36" transform="translate(200.097656 0)"/>
       <use xlink:href="#ArialMT-2e" transform="translate(255.712891 0)"/>
       <use xlink:href="#ArialMT-35" transform="translate(283.496094 0)"/>
       <use xlink:href="#ArialMT-5d" transform="translate(339.111328 0)"/>
      </g>
     </g>
    </g>
    <g id="xtick_12">
     <g id="line2d_55">
      <path d="M 121.115455 251.07075 
L 121.115455 142.71075 
" clip-path="url(#pfa9caa3fe9)" style="fill: none"/>
     </g>
     <g id="line2d_56">
      <g>
       <use xlink:href="#m296ca71247" x="121.115455" y="251.07075" style="stroke: #000000"/>
      </g>
     </g>
     <g id="text_19">
      <!-- (6.5,7.5] -->
      <g style="fill: #262626" transform="translate(112.202816 278.441463) rotate(-45) scale(0.08 -0.08)">
       <use xlink:href="#ArialMT-28"/>
       <use xlink:href="#ArialMT-36" transform="translate(33.300781 0)"/>
       <use xlink:href="#ArialMT-2e" transform="translate(88.916016 0)"/>
       <use xlink:href="#ArialMT-35" transform="translate(116.699219 0)"/>
       <use xlink:href="#ArialMT-2c" transform="translate(172.314453 0)"/>
       <use xlink:href="#ArialMT-37" transform="translate(200.097656 0)"/>
       <use xlink:href="#ArialMT-2e" transform="translate(255.712891 0)"/>
       <use xlink:href="#ArialMT-35" transform="translate(283.496094 0)"/>
       <use xlink:href="#ArialMT-5d" transform="translate(339.111328 0)"/>
      </g>
     </g>
    </g>
    <g id="xtick_13">
     <g id="line2d_57">
      <path d="M 150.168347 251.07075 
L 150.168347 142.71075 
" clip-path="url(#pfa9caa3fe9)" style="fill: none"/>
     </g>
     <g id="line2d_58">
      <g>
       <use xlink:href="#m296ca71247" x="150.168347" y="251.07075" style="stroke: #000000"/>
      </g>
     </g>
     <g id="text_20">
      <!-- (7.5,8.5] -->
      <g style="fill: #262626" transform="translate(141.255708 278.441463) rotate(-45) scale(0.08 -0.08)">
       <use xlink:href="#ArialMT-28"/>
       <use xlink:href="#ArialMT-37" transform="translate(33.300781 0)"/>
       <use xlink:href="#ArialMT-2e" transform="translate(88.916016 0)"/>
       <use xlink:href="#ArialMT-35" transform="translate(116.699219 0)"/>
       <use xlink:href="#ArialMT-2c" transform="translate(172.314453 0)"/>
       <use xlink:href="#ArialMT-38" transform="translate(200.097656 0)"/>
       <use xlink:href="#ArialMT-2e" transform="translate(255.712891 0)"/>
       <use xlink:href="#ArialMT-35" transform="translate(283.496094 0)"/>
       <use xlink:href="#ArialMT-5d" transform="translate(339.111328 0)"/>
      </g>
     </g>
    </g>
    <g id="xtick_14">
     <g id="line2d_59">
      <path d="M 179.22124 251.07075 
L 179.22124 142.71075 
" clip-path="url(#pfa9caa3fe9)" style="fill: none"/>
     </g>
     <g id="line2d_60">
      <g>
       <use xlink:href="#m296ca71247" x="179.22124" y="251.07075" style="stroke: #000000"/>
      </g>
     </g>
     <g id="text_21">
      <!-- (8.5,9.5] -->
      <g style="fill: #262626" transform="translate(170.308601 278.441463) rotate(-45) scale(0.08 -0.08)">
       <use xlink:href="#ArialMT-28"/>
       <use xlink:href="#ArialMT-38" transform="translate(33.300781 0)"/>
       <use xlink:href="#ArialMT-2e" transform="translate(88.916016 0)"/>
       <use xlink:href="#ArialMT-35" transform="translate(116.699219 0)"/>
       <use xlink:href="#ArialMT-2c" transform="translate(172.314453 0)"/>
       <use xlink:href="#ArialMT-39" transform="translate(200.097656 0)"/>
       <use xlink:href="#ArialMT-2e" transform="translate(255.712891 0)"/>
       <use xlink:href="#ArialMT-35" transform="translate(283.496094 0)"/>
       <use xlink:href="#ArialMT-5d" transform="translate(339.111328 0)"/>
      </g>
     </g>
    </g>
    <g id="text_22">
     <!-- Mean Sleep Duration [hours] -->
     <g style="fill: #262626" transform="translate(65.109642 290.038179) scale(0.088 -0.088)">
      <defs>
       <path id="ArialMT-4d" d="M 475 0 
L 475 4581 
L 1388 4581 
L 2472 1338 
Q 2622 884 2691 659 
Q 2769 909 2934 1394 
L 4031 4581 
L 4847 4581 
L 4847 0 
L 4263 0 
L 4263 3834 
L 2931 0 
L 2384 0 
L 1059 3900 
L 1059 0 
L 475 0 
z
" transform="scale(0.015625)"/>
       <path id="ArialMT-53" d="M 288 1472 
L 859 1522 
Q 900 1178 1048 958 
Q 1197 738 1509 602 
Q 1822 466 2213 466 
Q 2559 466 2825 569 
Q 3091 672 3220 851 
Q 3350 1031 3350 1244 
Q 3350 1459 3225 1620 
Q 3100 1781 2813 1891 
Q 2628 1963 1997 2114 
Q 1366 2266 1113 2400 
Q 784 2572 623 2826 
Q 463 3081 463 3397 
Q 463 3744 659 4045 
Q 856 4347 1234 4503 
Q 1613 4659 2075 4659 
Q 2584 4659 2973 4495 
Q 3363 4331 3572 4012 
Q 3781 3694 3797 3291 
L 3216 3247 
Q 3169 3681 2898 3903 
Q 2628 4125 2100 4125 
Q 1550 4125 1298 3923 
Q 1047 3722 1047 3438 
Q 1047 3191 1225 3031 
Q 1400 2872 2139 2705 
Q 2878 2538 3153 2413 
Q 3553 2228 3743 1945 
Q 3934 1663 3934 1294 
Q 3934 928 3725 604 
Q 3516 281 3123 101 
Q 2731 -78 2241 -78 
Q 1619 -78 1198 103 
Q 778 284 539 648 
Q 300 1013 288 1472 
z
" transform="scale(0.015625)"/>
       <path id="ArialMT-70" d="M 422 -1272 
L 422 3319 
L 934 3319 
L 934 2888 
Q 1116 3141 1344 3267 
Q 1572 3394 1897 3394 
Q 2322 3394 2647 3175 
Q 2972 2956 3137 2557 
Q 3303 2159 3303 1684 
Q 3303 1175 3120 767 
Q 2938 359 2589 142 
Q 2241 -75 1856 -75 
Q 1575 -75 1351 44 
Q 1128 163 984 344 
L 984 -1272 
L 422 -1272 
z
M 931 1641 
Q 931 1000 1190 694 
Q 1450 388 1819 388 
Q 2194 388 2461 705 
Q 2728 1022 2728 1688 
Q 2728 2322 2467 2637 
Q 2206 2953 1844 2953 
Q 1484 2953 1207 2617 
Q 931 2281 931 1641 
z
" transform="scale(0.015625)"/>
       <path id="ArialMT-44" d="M 494 0 
L 494 4581 
L 2072 4581 
Q 2606 4581 2888 4516 
Q 3281 4425 3559 4188 
Q 3922 3881 4101 3404 
Q 4281 2928 4281 2316 
Q 4281 1794 4159 1391 
Q 4038 988 3847 723 
Q 3656 459 3429 307 
Q 3203 156 2883 78 
Q 2563 0 2147 0 
L 494 0 
z
M 1100 541 
L 2078 541 
Q 2531 541 2789 625 
Q 3047 709 3200 863 
Q 3416 1078 3536 1442 
Q 3656 1806 3656 2325 
Q 3656 3044 3420 3430 
Q 3184 3816 2847 3947 
Q 2603 4041 2063 4041 
L 1100 4041 
L 1100 541 
z
" transform="scale(0.015625)"/>
       <path id="ArialMT-75" d="M 2597 0 
L 2597 488 
Q 2209 -75 1544 -75 
Q 1250 -75 995 37 
Q 741 150 617 320 
Q 494 491 444 738 
Q 409 903 409 1263 
L 409 3319 
L 972 3319 
L 972 1478 
Q 972 1038 1006 884 
Q 1059 663 1231 536 
Q 1403 409 1656 409 
Q 1909 409 2131 539 
Q 2353 669 2445 892 
Q 2538 1116 2538 1541 
L 2538 3319 
L 3100 3319 
L 3100 0 
L 2597 0 
z
" transform="scale(0.015625)"/>
       <path id="ArialMT-72" d="M 416 0 
L 416 3319 
L 922 3319 
L 922 2816 
Q 1116 3169 1280 3281 
Q 1444 3394 1641 3394 
Q 1925 3394 2219 3213 
L 2025 2691 
Q 1819 2813 1613 2813 
Q 1428 2813 1281 2702 
Q 1134 2591 1072 2394 
Q 978 2094 978 1738 
L 978 0 
L 416 0 
z
" transform="scale(0.015625)"/>
       <path id="ArialMT-69" d="M 425 3934 
L 425 4581 
L 988 4581 
L 988 3934 
L 425 3934 
z
M 425 0 
L 425 3319 
L 988 3319 
L 988 0 
L 425 0 
z
" transform="scale(0.015625)"/>
       <path id="ArialMT-6f" d="M 213 1659 
Q 213 2581 725 3025 
Q 1153 3394 1769 3394 
Q 2453 3394 2887 2945 
Q 3322 2497 3322 1706 
Q 3322 1066 3130 698 
Q 2938 331 2570 128 
Q 2203 -75 1769 -75 
Q 1072 -75 642 372 
Q 213 819 213 1659 
z
M 791 1659 
Q 791 1022 1069 705 
Q 1347 388 1769 388 
Q 2188 388 2466 706 
Q 2744 1025 2744 1678 
Q 2744 2294 2464 2611 
Q 2184 2928 1769 2928 
Q 1347 2928 1069 2612 
Q 791 2297 791 1659 
z
" transform="scale(0.015625)"/>
      </defs>
      <use xlink:href="#ArialMT-4d"/>
      <use xlink:href="#ArialMT-65" transform="translate(83.300781 0)"/>
      <use xlink:href="#ArialMT-61" transform="translate(138.916016 0)"/>
      <use xlink:href="#ArialMT-6e" transform="translate(194.53125 0)"/>
      <use xlink:href="#ArialMT-20" transform="translate(250.146484 0)"/>
      <use xlink:href="#ArialMT-53" transform="translate(277.929688 0)"/>
      <use xlink:href="#ArialMT-6c" transform="translate(344.628906 0)"/>
      <use xlink:href="#ArialMT-65" transform="translate(366.845703 0)"/>
      <use xlink:href="#ArialMT-65" transform="translate(422.460938 0)"/>
      <use xlink:href="#ArialMT-70" transform="translate(478.076172 0)"/>
      <use xlink:href="#ArialMT-20" transform="translate(533.691406 0)"/>
      <use xlink:href="#ArialMT-44" transform="translate(561.474609 0)"/>
      <use xlink:href="#ArialMT-75" transform="translate(633.691406 0)"/>
      <use xlink:href="#ArialMT-72" transform="translate(689.306641 0)"/>
      <use xlink:href="#ArialMT-61" transform="translate(722.607422 0)"/>
      <use xlink:href="#ArialMT-74" transform="translate(778.222656 0)"/>
      <use xlink:href="#ArialMT-69" transform="translate(806.005859 0)"/>
      <use xlink:href="#ArialMT-6f" transform="translate(828.222656 0)"/>
      <use xlink:href="#ArialMT-6e" transform="translate(883.837891 0)"/>
      <use xlink:href="#ArialMT-20" transform="translate(939.453125 0)"/>
      <use xlink:href="#ArialMT-5b" transform="translate(967.236328 0)"/>
      <use xlink:href="#ArialMT-68" transform="translate(995.019531 0)"/>
      <use xlink:href="#ArialMT-6f" transform="translate(1050.634766 0)"/>
      <use xlink:href="#ArialMT-75" transform="translate(1106.25 0)"/>
      <use xlink:href="#ArialMT-72" transform="translate(1161.865234 0)"/>
      <use xlink:href="#ArialMT-73" transform="translate(1195.166016 0)"/>
      <use xlink:href="#ArialMT-5d" transform="translate(1245.166016 0)"/>
     </g>
    </g>
   </g>
   <g id="matplotlib.axis_6">
    <g id="ytick_7">
     <g id="line2d_61">
      <path d="M 41.22 242.04075 
L 201.010909 242.04075 
" clip-path="url(#pfa9caa3fe9)" style="fill: none; stroke: #cccccc; stroke-width: 0.5; stroke-linecap: round"/>
     </g>
     <g id="line2d_62">
      <g>
       <use xlink:href="#mfbcf3682a3" x="41.22" y="242.04075" style="stroke: #000000"/>
      </g>
     </g>
     <g id="text_23">
      <!-- 0.2 -->
      <g style="fill: #262626" transform="translate(27.6 244.903875) scale(0.08 -0.08)">
       <use xlink:href="#ArialMT-30"/>
       <use xlink:href="#ArialMT-2e" transform="translate(55.615234 0)"/>
       <use xlink:href="#ArialMT-32" transform="translate(83.398438 0)"/>
      </g>
     </g>
    </g>
    <g id="ytick_8">
     <g id="line2d_63">
      <path d="M 41.22 211.94075 
L 201.010909 211.94075 
" clip-path="url(#pfa9caa3fe9)" style="fill: none; stroke: #cccccc; stroke-width: 0.5; stroke-linecap: round"/>
     </g>
     <g id="line2d_64">
      <g>
       <use xlink:href="#mfbcf3682a3" x="41.22" y="211.94075" style="stroke: #000000"/>
      </g>
     </g>
     <g id="text_24">
      <!-- 0.3 -->
      <g style="fill: #262626" transform="translate(27.6 214.803875) scale(0.08 -0.08)">
       <use xlink:href="#ArialMT-30"/>
       <use xlink:href="#ArialMT-2e" transform="translate(55.615234 0)"/>
       <use xlink:href="#ArialMT-33" transform="translate(83.398438 0)"/>
      </g>
     </g>
    </g>
    <g id="ytick_9">
     <g id="line2d_65">
      <path d="M 41.22 181.84075 
L 201.010909 181.84075 
" clip-path="url(#pfa9caa3fe9)" style="fill: none; stroke: #cccccc; stroke-width: 0.5; stroke-linecap: round"/>
     </g>
     <g id="line2d_66">
      <g>
       <use xlink:href="#mfbcf3682a3" x="41.22" y="181.84075" style="stroke: #000000"/>
      </g>
     </g>
     <g id="text_25">
      <!-- 0.4 -->
      <g style="fill: #262626" transform="translate(27.6 184.703875) scale(0.08 -0.08)">
       <use xlink:href="#ArialMT-30"/>
       <use xlink:href="#ArialMT-2e" transform="translate(55.615234 0)"/>
       <use xlink:href="#ArialMT-34" transform="translate(83.398438 0)"/>
      </g>
     </g>
    </g>
    <g id="ytick_10">
     <g id="line2d_67">
      <path d="M 41.22 151.74075 
L 201.010909 151.74075 
" clip-path="url(#pfa9caa3fe9)" style="fill: none; stroke: #cccccc; stroke-width: 0.5; stroke-linecap: round"/>
     </g>
     <g id="line2d_68">
      <g>
       <use xlink:href="#mfbcf3682a3" x="41.22" y="151.74075" style="stroke: #000000"/>
      </g>
     </g>
     <g id="text_26">
      <!-- 0.5 -->
      <g style="fill: #262626" transform="translate(27.6 154.603875) scale(0.08 -0.08)">
       <use xlink:href="#ArialMT-30"/>
       <use xlink:href="#ArialMT-2e" transform="translate(55.615234 0)"/>
       <use xlink:href="#ArialMT-35" transform="translate(83.398438 0)"/>
      </g>
     </g>
    </g>
    <g id="text_27">
     <!-- Cycle Length Deviation  -->
     <g style="fill: #262626" transform="translate(14.30575 243.358875) rotate(-90) scale(0.088 -0.088)">
      <defs>
       <path id="ArialMT-76" d="M 1344 0 
L 81 3319 
L 675 3319 
L 1388 1331 
Q 1503 1009 1600 663 
Q 1675 925 1809 1294 
L 2547 3319 
L 3125 3319 
L 1869 0 
L 1344 0 
z
" transform="scale(0.015625)"/>
      </defs>
      <use xlink:href="#ArialMT-43"/>
      <use xlink:href="#ArialMT-79" transform="translate(72.216797 0)"/>
      <use xlink:href="#ArialMT-63" transform="translate(122.216797 0)"/>
      <use xlink:href="#ArialMT-6c" transform="translate(172.216797 0)"/>
      <use xlink:href="#ArialMT-65" transform="translate(194.433594 0)"/>
      <use xlink:href="#ArialMT-20" transform="translate(250.048828 0)"/>
      <use xlink:href="#ArialMT-4c" transform="translate(277.832031 0)"/>
      <use xlink:href="#ArialMT-65" transform="translate(333.447266 0)"/>
      <use xlink:href="#ArialMT-6e" transform="translate(389.0625 0)"/>
      <use xlink:href="#ArialMT-67" transform="translate(444.677734 0)"/>
      <use xlink:href="#ArialMT-74" transform="translate(500.292969 0)"/>
      <use xlink:href="#ArialMT-68" transform="translate(528.076172 0)"/>
      <use xlink:href="#ArialMT-20" transform="translate(583.691406 0)"/>
      <use xlink:href="#ArialMT-44" transform="translate(611.474609 0)"/>
      <use xlink:href="#ArialMT-65" transform="translate(683.691406 0)"/>
      <use xlink:href="#ArialMT-76" transform="translate(739.306641 0)"/>
      <use xlink:href="#ArialMT-69" transform="translate(789.306641 0)"/>
      <use xlink:href="#ArialMT-61" transform="translate(811.523438 0)"/>
      <use xlink:href="#ArialMT-74" transform="translate(867.138672 0)"/>
      <use xlink:href="#ArialMT-69" transform="translate(894.921875 0)"/>
      <use xlink:href="#ArialMT-6f" transform="translate(917.138672 0)"/>
      <use xlink:href="#ArialMT-6e" transform="translate(972.753906 0)"/>
      <use xlink:href="#ArialMT-20" transform="translate(1028.369141 0)"/>
     </g>
     <!-- [proportion ≥ 3 days] -->
     <g style="fill: #262626" transform="translate(23.747875 236.96925) rotate(-90) scale(0.088 -0.088)">
      <defs>
       <path id="ArialMT-2265" d="M 3275 2381 
L 241 1084 
L 241 1644 
L 2644 2641 
L 241 3625 
L 241 4188 
L 3275 2906 
L 3275 2381 
z
M 3269 331 
L 244 331 
L 244 853 
L 3269 853 
L 3269 331 
z
" transform="scale(0.015625)"/>
      </defs>
      <use xlink:href="#ArialMT-5b"/>
      <use xlink:href="#ArialMT-70" transform="translate(27.783203 0)"/>
      <use xlink:href="#ArialMT-72" transform="translate(83.398438 0)"/>
      <use xlink:href="#ArialMT-6f" transform="translate(116.699219 0)"/>
      <use xlink:href="#ArialMT-70" transform="translate(172.314453 0)"/>
      <use xlink:href="#ArialMT-6f" transform="translate(227.929688 0)"/>
      <use xlink:href="#ArialMT-72" transform="translate(283.544922 0)"/>
      <use xlink:href="#ArialMT-74" transform="translate(316.845703 0)"/>
      <use xlink:href="#ArialMT-69" transform="translate(344.628906 0)"/>
      <use xlink:href="#ArialMT-6f" transform="translate(366.845703 0)"/>
      <use xlink:href="#ArialMT-6e" transform="translate(422.460938 0)"/>
      <use xlink:href="#ArialMT-20" transform="translate(478.076172 0)"/>
      <use xlink:href="#ArialMT-2265" transform="translate(505.859375 0)"/>
      <use xlink:href="#ArialMT-20" transform="translate(560.742188 0)"/>
      <use xlink:href="#ArialMT-33" transform="translate(588.525391 0)"/>
      <use xlink:href="#ArialMT-20" transform="translate(644.140625 0)"/>
      <use xlink:href="#ArialMT-64" transform="translate(671.923828 0)"/>
      <use xlink:href="#ArialMT-61" transform="translate(727.539062 0)"/>
      <use xlink:href="#ArialMT-79" transform="translate(783.154297 0)"/>
      <use xlink:href="#ArialMT-73" transform="translate(833.154297 0)"/>
      <use xlink:href="#ArialMT-5d" transform="translate(883.154297 0)"/>
     </g>
    </g>
   </g>
   <g id="line2d_69">
    <path d="M 48.483223 188.925745 
L 49.950541 190.078944 
L 51.417859 191.211582 
L 52.885177 192.32374 
L 54.352494 193.415506 
L 55.819812 194.486976 
L 57.28713 195.538258 
L 58.754448 196.569461 
L 60.221766 197.580706 
L 61.689083 198.572118 
L 63.156401 199.543828 
L 64.623719 200.495971 
L 66.091037 201.428689 
L 67.558355 202.342125 
L 69.025672 203.236429 
L 70.49299 204.111753 
L 71.960308 204.968251 
L 73.427626 205.806081 
L 74.894944 206.625401 
L 76.362261 207.426374 
L 77.829579 208.209162 
L 79.296897 208.973927 
L 80.764215 209.720835 
L 82.231533 210.45005 
L 83.69885 211.161737 
L 85.166168 211.85606 
L 86.633486 212.533184 
L 88.100804 213.193271 
L 89.568122 213.836486 
L 91.03544 214.462988 
L 92.502757 215.072937 
L 93.970075 215.666494 
L 95.437393 216.243813 
L 96.904711 216.80505 
L 98.372029 217.350357 
L 99.839346 217.879885 
L 101.306664 218.393781 
L 102.773982 218.892192 
L 104.2413 219.375259 
L 105.708618 219.843122 
L 107.175935 220.295918 
L 108.643253 220.733782 
L 110.110571 221.156843 
L 111.577889 221.565229 
L 113.045207 221.959064 
L 114.512524 222.338468 
L 115.979842 222.70356 
L 117.44716 223.054451 
L 118.914478 223.391252 
L 120.381796 223.71407 
L 121.849113 224.023006 
L 123.316431 224.31816 
L 124.783749 224.599625 
L 126.251067 224.867493 
L 127.718385 225.12185 
L 129.185702 225.36278 
L 130.65302 225.590361 
L 132.120338 225.804668 
L 133.587656 226.005771 
L 135.054974 226.193738 
L 136.522292 226.36863 
L 137.989609 226.530506 
L 139.456927 226.679419 
L 140.924245 226.815421 
L 142.391563 226.938556 
L 143.858881 227.048865 
L 145.326198 227.146387 
L 146.793516 227.231153 
L 148.260834 227.303193 
L 149.728152 227.362531 
L 151.19547 227.409187 
L 152.662787 227.443177 
L 154.130105 227.464512 
L 155.597423 227.4732 
L 157.064741 227.469243 
L 158.532059 227.452641 
L 159.999376 227.423387 
L 161.466694 227.381472 
L 162.934012 227.326882 
L 164.40133 227.259597 
L 165.868648 227.179596 
L 167.335965 227.08685 
L 168.803283 226.98133 
L 170.270601 226.862999 
L 171.737919 226.731817 
L 173.205237 226.58774 
L 174.672554 226.43072 
L 176.139872 226.260705 
L 177.60719 226.077638 
L 179.074508 225.881457 
L 180.541826 225.672099 
L 182.009144 225.449493 
L 183.476461 225.213567 
L 184.943779 224.964244 
L 186.411097 224.701441 
L 187.878415 224.425074 
L 189.345733 224.135053 
L 190.81305 223.831285 
L 192.280368 223.513673 
L 193.747686 223.182117 
" clip-path="url(#pfa9caa3fe9)" style="fill: none; stroke: #2964d9; stroke-opacity: 0.5; stroke-width: 2; stroke-linecap: round"/>
   </g>
   <g id="FillBetweenPolyCollection_3">
    <defs>
     <path id="m1c5af18a12" d="M 48.483223 -132.529314 
L 48.483223 -95.112929 
L 49.950541 -94.619527 
L 51.417859 -94.131186 
L 52.885177 -93.647873 
L 54.352494 -93.169552 
L 55.819812 -92.696189 
L 57.28713 -92.227748 
L 58.754448 -91.764191 
L 60.221766 -91.30548 
L 61.689083 -90.851575 
L 63.156401 -90.402435 
L 64.623719 -89.958019 
L 66.091037 -89.518282 
L 67.558355 -89.083181 
L 69.025672 -88.652669 
L 70.49299 -88.226698 
L 71.960308 -87.80522 
L 73.427626 -87.388182 
L 74.894944 -86.975534 
L 76.362261 -86.567219 
L 77.829579 -86.163184 
L 79.296897 -85.763369 
L 80.764215 -85.367718 
L 82.231533 -84.976169 
L 83.69885 -84.588661 
L 85.166168 -84.205133 
L 86.633486 -83.825523 
L 88.100804 -83.449769 
L 89.568122 -83.077812 
L 91.03544 -82.709595 
L 92.502757 -82.345065 
L 93.970075 -81.984173 
L 95.437393 -81.626881 
L 96.904711 -81.273158 
L 98.372029 -80.922988 
L 99.839346 -80.576371 
L 101.306664 -80.233325 
L 102.773982 -79.893892 
L 104.2413 -79.558141 
L 105.708618 -79.226169 
L 107.175935 -78.898106 
L 108.643253 -78.574113 
L 110.110571 -78.254387 
L 111.577889 -77.939155 
L 113.045207 -77.628673 
L 114.512524 -77.32322 
L 115.979842 -77.023088 
L 117.44716 -76.728576 
L 118.914478 -76.439976 
L 120.381796 -76.157566 
L 121.849113 -75.881592 
L 123.316431 -75.612263 
L 124.783749 -75.349738 
L 126.251067 -75.094119 
L 127.718385 -74.845447 
L 129.185702 -74.603696 
L 130.65302 -74.368777 
L 132.120338 -74.140538 
L 133.587656 -73.91877 
L 135.054974 -73.703219 
L 136.522292 -73.493587 
L 137.989609 -73.289553 
L 139.456927 -73.090776 
L 140.924245 -72.896911 
L 142.391563 -72.707621 
L 143.858881 -72.522583 
L 145.326198 -72.341494 
L 146.793516 -72.164085 
L 148.260834 -71.990116 
L 149.728152 -71.819381 
L 151.19547 -71.651709 
L 152.662787 -71.486961 
L 154.130105 -71.325029 
L 155.597423 -71.165831 
L 157.064741 -71.009308 
L 158.532059 -70.855423 
L 159.999376 -70.704154 
L 161.466694 -70.555493 
L 162.934012 -70.409441 
L 164.40133 -70.26601 
L 165.868648 -70.125214 
L 167.335965 -69.987075 
L 168.803283 -69.851615 
L 170.270601 -69.718859 
L 171.737919 -69.58883 
L 173.205237 -69.461555 
L 174.672554 -69.337058 
L 176.139872 -69.215361 
L 177.60719 -69.096487 
L 179.074508 -68.980458 
L 180.541826 -68.867291 
L 182.009144 -68.757006 
L 183.476461 -68.649618 
L 184.943779 -68.545143 
L 186.411097 -68.443594 
L 187.878415 -68.344984 
L 189.345733 -68.249323 
L 190.81305 -68.156622 
L 192.280368 -68.066889 
L 193.747686 -67.980132 
L 193.747686 -91.003543 
L 193.747686 -91.003543 
L 192.280368 -90.177435 
L 190.81305 -89.380467 
L 189.345733 -88.612311 
L 187.878415 -87.872643 
L 186.411097 -87.161148 
L 184.943779 -86.477519 
L 183.476461 -85.821455 
L 182.009144 -85.192666 
L 180.541826 -84.590871 
L 179.074508 -84.015801 
L 177.60719 -83.467194 
L 176.139872 -82.944804 
L 174.672554 -82.448392 
L 173.205237 -81.977732 
L 171.737919 -81.532613 
L 170.270601 -81.112831 
L 168.803283 -80.718198 
L 167.335965 -80.348534 
L 165.868648 -80.003673 
L 164.40133 -79.683457 
L 162.934012 -79.38774 
L 161.466694 -79.116382 
L 159.999376 -78.869249 
L 158.532059 -78.646214 
L 157.064741 -78.44715 
L 155.597423 -78.271929 
L 154.130105 -78.120422 
L 152.662787 -77.99249 
L 151.19547 -77.887985 
L 149.728152 -77.806743 
L 148.260834 -77.748585 
L 146.793516 -77.71331 
L 145.326198 -77.7007 
L 143.858881 -77.710512 
L 142.391563 -77.742486 
L 140.924245 -77.796345 
L 139.456927 -77.871804 
L 137.989609 -77.968574 
L 136.522292 -78.086373 
L 135.054974 -78.224938 
L 133.587656 -78.384036 
L 132.120338 -78.563472 
L 130.65302 -78.763105 
L 129.185702 -78.982855 
L 127.718385 -79.222711 
L 126.251067 -79.482735 
L 124.783749 -79.763069 
L 123.316431 -80.06393 
L 121.849113 -80.385611 
L 120.381796 -80.728473 
L 118.914478 -81.092939 
L 117.44716 -81.479483 
L 115.979842 -81.888619 
L 114.512524 -82.320889 
L 113.045207 -82.776852 
L 111.577889 -83.257072 
L 110.110571 -83.76211 
L 108.643253 -84.292514 
L 107.175935 -84.848813 
L 105.708618 -85.431515 
L 104.2413 -86.041104 
L 102.773982 -86.678039 
L 101.306664 -87.342755 
L 99.839346 -88.035666 
L 98.372029 -88.757168 
L 96.904711 -89.507638 
L 95.437393 -90.28744 
L 93.970075 -91.09693 
L 92.502757 -91.936452 
L 91.03544 -92.806345 
L 89.568122 -93.706941 
L 88.100804 -94.638571 
L 86.633486 -95.60156 
L 85.166168 -96.59623 
L 83.69885 -97.622903 
L 82.231533 -98.681894 
L 80.764215 -99.773516 
L 79.296897 -100.898076 
L 77.829579 -102.055874 
L 76.362261 -103.247206 
L 74.894944 -104.472356 
L 73.427626 -105.731598 
L 71.960308 -107.025196 
L 70.49299 -108.353398 
L 69.025672 -109.716435 
L 67.558355 -111.114523 
L 66.091037 -112.547855 
L 64.623719 -114.016602 
L 63.156401 -115.520912 
L 61.689083 -117.060903 
L 60.221766 -118.636664 
L 58.754448 -120.248253 
L 57.28713 -121.895691 
L 55.819812 -123.578962 
L 54.352494 -125.298012 
L 52.885177 -127.052741 
L 51.417859 -128.843004 
L 49.950541 -130.66861 
L 48.483223 -132.529314 
z
"/>
    </defs>
    <g clip-path="url(#pfa9caa3fe9)">
     <use xlink:href="#m1c5af18a12" x="0" y="302.135572" style="fill: #2964d9; fill-opacity: 0.25"/>
    </g>
   </g>
   <g id="patch_9">
    <path d="M 41.22 251.07075 
L 41.22 142.71075 
" style="fill: none; stroke: #000000; stroke-linejoin: miter; stroke-linecap: square"/>
   </g>
   <g id="patch_10">
    <path d="M 41.22 251.07075 
L 201.010909 251.07075 
" style="fill: none; stroke: #000000; stroke-linejoin: miter; stroke-linecap: square"/>
   </g>
   <g id="line2d_70">
    <path d="M 63.009669 204.345808 
L 63.009669 158.72622 
" clip-path="url(#pfa9caa3fe9)" style="fill: none; stroke: #4c4c4c; stroke-width: 2; stroke-linecap: round"/>
   </g>
   <g id="line2d_71">
    <path d="M 92.062562 218.468507 
L 92.062562 206.191988 
" clip-path="url(#pfa9caa3fe9)" style="fill: none; stroke: #4c4c4c; stroke-width: 2; stroke-linecap: round"/>
   </g>
   <g id="line2d_72">
    <path d="M 121.115455 222.396753 
L 121.115455 216.49449 
" clip-path="url(#pfa9caa3fe9)" style="fill: none; stroke: #4c4c4c; stroke-width: 2; stroke-linecap: round"/>
   </g>
   <g id="line2d_73">
    <path d="M 150.168347 227.972076 
L 150.168347 220.838178 
" clip-path="url(#pfa9caa3fe9)" style="fill: none; stroke: #4c4c4c; stroke-width: 2; stroke-linecap: round"/>
   </g>
   <g id="line2d_74">
    <path d="M 179.22124 224.333343 
L 179.22124 195.382691 
" clip-path="url(#pfa9caa3fe9)" style="fill: none; stroke: #4c4c4c; stroke-width: 2; stroke-linecap: round"/>
   </g>
   <g id="line2d_75">
    <path d="M 63.009669 181.617451 
" clip-path="url(#pfa9caa3fe9)" style="fill: none; stroke: #4c4c4c; stroke-width: 1.8; stroke-linecap: round"/>
    <g clip-path="url(#pfa9caa3fe9)">
     <use xlink:href="#m315d504c6b" x="63.009669" y="181.617451" style="fill: #4c4c4c"/>
    </g>
   </g>
   <g id="line2d_76">
    <path d="M 92.062562 212.553645 
" clip-path="url(#pfa9caa3fe9)" style="fill: none; stroke: #4c4c4c; stroke-width: 1.8; stroke-linecap: round"/>
    <g clip-path="url(#pfa9caa3fe9)">
     <use xlink:href="#m315d504c6b" x="92.062562" y="212.553645" style="fill: #4c4c4c"/>
    </g>
   </g>
   <g id="line2d_77">
    <path d="M 121.115455 219.593922 
" clip-path="url(#pfa9caa3fe9)" style="fill: none; stroke: #4c4c4c; stroke-width: 1.8; stroke-linecap: round"/>
    <g clip-path="url(#pfa9caa3fe9)">
     <use xlink:href="#m315d504c6b" x="121.115455" y="219.593922" style="fill: #4c4c4c"/>
    </g>
   </g>
   <g id="line2d_78">
    <path d="M 150.168347 224.248843 
" clip-path="url(#pfa9caa3fe9)" style="fill: none; stroke: #4c4c4c; stroke-width: 1.8; stroke-linecap: round"/>
    <g clip-path="url(#pfa9caa3fe9)">
     <use xlink:href="#m315d504c6b" x="150.168347" y="224.248843" style="fill: #4c4c4c"/>
    </g>
   </g>
   <g id="line2d_79">
    <path d="M 179.22124 210.460697 
" clip-path="url(#pfa9caa3fe9)" style="fill: none; stroke: #4c4c4c; stroke-width: 1.8; stroke-linecap: round"/>
    <g clip-path="url(#pfa9caa3fe9)">
     <use xlink:href="#m315d504c6b" x="179.22124" y="210.460697" style="fill: #4c4c4c"/>
    </g>
   </g>
  </g>
  <g id="axes_4">
   <g id="patch_11">
    <path d="M 232.969091 251.07075 
L 392.76 251.07075 
L 392.76 142.71075 
L 232.969091 142.71075 
z
" style="fill: #ffffff"/>
   </g>
   <g id="matplotlib.axis_7">
    <g id="xtick_15">
     <g id="line2d_80">
      <path d="M 258.390372 251.07075 
L 258.390372 142.71075 
" clip-path="url(#p1d9e5df4fe)" style="fill: none"/>
     </g>
     <g id="line2d_81">
      <g>
       <use xlink:href="#m296ca71247" x="258.390372" y="251.07075" style="stroke: #000000"/>
      </g>
     </g>
     <g id="text_28">
      <!-- [15,30] -->
      <g style="fill: #262626" transform="translate(251.212354 274.934214) rotate(-45) scale(0.08 -0.08)">
       <use xlink:href="#ArialMT-5b"/>
       <use xlink:href="#ArialMT-31" transform="translate(27.783203 0)"/>
       <use xlink:href="#ArialMT-35" transform="translate(83.398438 0)"/>
       <use xlink:href="#ArialMT-2c" transform="translate(139.013672 0)"/>
       <use xlink:href="#ArialMT-33" transform="translate(166.796875 0)"/>
       <use xlink:href="#ArialMT-30" transform="translate(222.412109 0)"/>
       <use xlink:href="#ArialMT-5d" transform="translate(278.027344 0)"/>
      </g>
     </g>
    </g>
    <g id="xtick_16">
     <g id="line2d_82">
      <path d="M 294.706488 251.07075 
L 294.706488 142.71075 
" clip-path="url(#p1d9e5df4fe)" style="fill: none"/>
     </g>
     <g id="line2d_83">
      <g>
       <use xlink:href="#m296ca71247" x="294.706488" y="251.07075" style="stroke: #000000"/>
      </g>
     </g>
     <g id="text_29">
      <!-- (30,60] -->
      <g style="fill: #262626" transform="translate(287.365393 275.298374) rotate(-45) scale(0.08 -0.08)">
       <use xlink:href="#ArialMT-28"/>
       <use xlink:href="#ArialMT-33" transform="translate(33.300781 0)"/>
       <use xlink:href="#ArialMT-30" transform="translate(88.916016 0)"/>
       <use xlink:href="#ArialMT-2c" transform="translate(144.53125 0)"/>
       <use xlink:href="#ArialMT-36" transform="translate(172.314453 0)"/>
       <use xlink:href="#ArialMT-30" transform="translate(227.929688 0)"/>
       <use xlink:href="#ArialMT-5d" transform="translate(283.544922 0)"/>
      </g>
     </g>
    </g>
    <g id="xtick_17">
     <g id="line2d_84">
      <path d="M 331.022603 251.07075 
L 331.022603 142.71075 
" clip-path="url(#p1d9e5df4fe)" style="fill: none"/>
     </g>
     <g id="line2d_85">
      <g>
       <use xlink:href="#m296ca71247" x="331.022603" y="251.07075" style="stroke: #000000"/>
      </g>
     </g>
     <g id="text_30">
      <!-- (60,120] -->
      <g style="fill: #262626" transform="translate(322.108638 278.444115) rotate(-45) scale(0.08 -0.08)">
       <use xlink:href="#ArialMT-28"/>
       <use xlink:href="#ArialMT-36" transform="translate(33.300781 0)"/>
       <use xlink:href="#ArialMT-30" transform="translate(88.916016 0)"/>
       <use xlink:href="#ArialMT-2c" transform="translate(144.53125 0)"/>
       <use xlink:href="#ArialMT-31" transform="translate(172.314453 0)"/>
       <use xlink:href="#ArialMT-32" transform="translate(227.929688 0)"/>
       <use xlink:href="#ArialMT-30" transform="translate(283.544922 0)"/>
       <use xlink:href="#ArialMT-5d" transform="translate(339.160156 0)"/>
      </g>
     </g>
    </g>
    <g id="xtick_18">
     <g id="line2d_86">
      <path d="M 367.338719 251.07075 
L 367.338719 142.71075 
" clip-path="url(#p1d9e5df4fe)" style="fill: none"/>
     </g>
     <g id="line2d_87">
      <g>
       <use xlink:href="#m296ca71247" x="367.338719" y="251.07075" style="stroke: #000000"/>
      </g>
     </g>
     <g id="text_31">
      <!-- (120,240] -->
      <g style="fill: #262626" transform="translate(356.851884 281.589856) rotate(-45) scale(0.08 -0.08)">
       <use xlink:href="#ArialMT-28"/>
       <use xlink:href="#ArialMT-31" transform="translate(33.300781 0)"/>
       <use xlink:href="#ArialMT-32" transform="translate(88.916016 0)"/>
       <use xlink:href="#ArialMT-30" transform="translate(144.53125 0)"/>
       <use xlink:href="#ArialMT-2c" transform="translate(200.146484 0)"/>
       <use xlink:href="#ArialMT-32" transform="translate(227.929688 0)"/>
       <use xlink:href="#ArialMT-34" transform="translate(283.544922 0)"/>
       <use xlink:href="#ArialMT-30" transform="translate(339.160156 0)"/>
       <use xlink:href="#ArialMT-5d" transform="translate(394.775391 0)"/>
      </g>
     </g>
    </g>
    <g id="text_32">
     <!-- Sleep Duration S.D. [mins] -->
     <g style="fill: #262626" transform="translate(261.02292 293.186572) scale(0.088 -0.088)">
      <defs>
       <path id="ArialMT-6d" d="M 422 0 
L 422 3319 
L 925 3319 
L 925 2853 
Q 1081 3097 1340 3245 
Q 1600 3394 1931 3394 
Q 2300 3394 2536 3241 
Q 2772 3088 2869 2813 
Q 3263 3394 3894 3394 
Q 4388 3394 4653 3120 
Q 4919 2847 4919 2278 
L 4919 0 
L 4359 0 
L 4359 2091 
Q 4359 2428 4304 2576 
Q 4250 2725 4106 2815 
Q 3963 2906 3769 2906 
Q 3419 2906 3187 2673 
Q 2956 2441 2956 1928 
L 2956 0 
L 2394 0 
L 2394 2156 
Q 2394 2531 2256 2718 
Q 2119 2906 1806 2906 
Q 1569 2906 1367 2781 
Q 1166 2656 1075 2415 
Q 984 2175 984 1722 
L 984 0 
L 422 0 
z
" transform="scale(0.015625)"/>
      </defs>
      <use xlink:href="#ArialMT-53"/>
      <use xlink:href="#ArialMT-6c" transform="translate(66.699219 0)"/>
      <use xlink:href="#ArialMT-65" transform="translate(88.916016 0)"/>
      <use xlink:href="#ArialMT-65" transform="translate(144.53125 0)"/>
      <use xlink:href="#ArialMT-70" transform="translate(200.146484 0)"/>
      <use xlink:href="#ArialMT-20" transform="translate(255.761719 0)"/>
      <use xlink:href="#ArialMT-44" transform="translate(283.544922 0)"/>
      <use xlink:href="#ArialMT-75" transform="translate(355.761719 0)"/>
      <use xlink:href="#ArialMT-72" transform="translate(411.376953 0)"/>
      <use xlink:href="#ArialMT-61" transform="translate(444.677734 0)"/>
      <use xlink:href="#ArialMT-74" transform="translate(500.292969 0)"/>
      <use xlink:href="#ArialMT-69" transform="translate(528.076172 0)"/>
      <use xlink:href="#ArialMT-6f" transform="translate(550.292969 0)"/>
      <use xlink:href="#ArialMT-6e" transform="translate(605.908203 0)"/>
      <use xlink:href="#ArialMT-20" transform="translate(661.523438 0)"/>
      <use xlink:href="#ArialMT-53" transform="translate(689.306641 0)"/>
      <use xlink:href="#ArialMT-2e" transform="translate(756.005859 0)"/>
      <use xlink:href="#ArialMT-44" transform="translate(783.789062 0)"/>
      <use xlink:href="#ArialMT-2e" transform="translate(856.005859 0)"/>
      <use xlink:href="#ArialMT-20" transform="translate(883.789062 0)"/>
      <use xlink:href="#ArialMT-5b" transform="translate(911.572266 0)"/>
      <use xlink:href="#ArialMT-6d" transform="translate(939.355469 0)"/>
      <use xlink:href="#ArialMT-69" transform="translate(1022.65625 0)"/>
      <use xlink:href="#ArialMT-6e" transform="translate(1044.873047 0)"/>
      <use xlink:href="#ArialMT-73" transform="translate(1100.488281 0)"/>
      <use xlink:href="#ArialMT-5d" transform="translate(1150.488281 0)"/>
     </g>
    </g>
   </g>
   <g id="matplotlib.axis_8">
    <g id="ytick_11">
     <g id="line2d_88">
      <path d="M 232.969091 242.04075 
L 392.76 242.04075 
" clip-path="url(#p1d9e5df4fe)" style="fill: none; stroke: #cccccc; stroke-width: 0.5; stroke-linecap: round"/>
     </g>
     <g id="line2d_89">
      <g>
       <use xlink:href="#mfbcf3682a3" x="232.969091" y="242.04075" style="stroke: #000000"/>
      </g>
     </g>
     <g id="text_33">
      <!-- 0.2 -->
      <g style="fill: #262626" transform="translate(219.349091 244.903875) scale(0.08 -0.08)">
       <use xlink:href="#ArialMT-30"/>
       <use xlink:href="#ArialMT-2e" transform="translate(55.615234 0)"/>
       <use xlink:href="#ArialMT-32" transform="translate(83.398438 0)"/>
      </g>
     </g>
    </g>
    <g id="ytick_12">
     <g id="line2d_90">
      <path d="M 232.969091 211.94075 
L 392.76 211.94075 
" clip-path="url(#p1d9e5df4fe)" style="fill: none; stroke: #cccccc; stroke-width: 0.5; stroke-linecap: round"/>
     </g>
     <g id="line2d_91">
      <g>
       <use xlink:href="#mfbcf3682a3" x="232.969091" y="211.94075" style="stroke: #000000"/>
      </g>
     </g>
     <g id="text_34">
      <!-- 0.3 -->
      <g style="fill: #262626" transform="translate(219.349091 214.803875) scale(0.08 -0.08)">
       <use xlink:href="#ArialMT-30"/>
       <use xlink:href="#ArialMT-2e" transform="translate(55.615234 0)"/>
       <use xlink:href="#ArialMT-33" transform="translate(83.398438 0)"/>
      </g>
     </g>
    </g>
    <g id="ytick_13">
     <g id="line2d_92">
      <path d="M 232.969091 181.84075 
L 392.76 181.84075 
" clip-path="url(#p1d9e5df4fe)" style="fill: none; stroke: #cccccc; stroke-width: 0.5; stroke-linecap: round"/>
     </g>
     <g id="line2d_93">
      <g>
       <use xlink:href="#mfbcf3682a3" x="232.969091" y="181.84075" style="stroke: #000000"/>
      </g>
     </g>
     <g id="text_35">
      <!-- 0.4 -->
      <g style="fill: #262626" transform="translate(219.349091 184.703875) scale(0.08 -0.08)">
       <use xlink:href="#ArialMT-30"/>
       <use xlink:href="#ArialMT-2e" transform="translate(55.615234 0)"/>
       <use xlink:href="#ArialMT-34" transform="translate(83.398438 0)"/>
      </g>
     </g>
    </g>
    <g id="ytick_14">
     <g id="line2d_94">
      <path d="M 232.969091 151.74075 
L 392.76 151.74075 
" clip-path="url(#p1d9e5df4fe)" style="fill: none; stroke: #cccccc; stroke-width: 0.5; stroke-linecap: round"/>
     </g>
     <g id="line2d_95">
      <g>
       <use xlink:href="#mfbcf3682a3" x="232.969091" y="151.74075" style="stroke: #000000"/>
      </g>
     </g>
     <g id="text_36">
      <!-- 0.5 -->
      <g style="fill: #262626" transform="translate(219.349091 154.603875) scale(0.08 -0.08)">
       <use xlink:href="#ArialMT-30"/>
       <use xlink:href="#ArialMT-2e" transform="translate(55.615234 0)"/>
       <use xlink:href="#ArialMT-35" transform="translate(83.398438 0)"/>
      </g>
     </g>
    </g>
   </g>
   <g id="line2d_96">
    <path d="M 240.232314 224.895001 
L 241.699632 225.112083 
L 243.16695 225.320389 
L 244.634267 225.519962 
L 246.101585 225.710846 
L 247.568903 225.893082 
L 249.036221 226.066708 
L 250.503539 226.231762 
L 251.970856 226.38828 
L 253.438174 226.536295 
L 254.905492 226.67584 
L 256.37281 226.806944 
L 257.840128 226.929637 
L 259.307446 227.043945 
L 260.774763 227.149893 
L 262.242081 227.247505 
L 263.709399 227.336802 
L 265.176717 227.417803 
L 266.644035 227.490527 
L 268.111352 227.554989 
L 269.57867 227.611204 
L 271.045988 227.659185 
L 272.513306 227.698941 
L 273.980624 227.730481 
L 275.447941 227.753813 
L 276.915259 227.768942 
L 278.382577 227.775871 
L 279.849895 227.774601 
L 281.317213 227.765133 
L 282.78453 227.747464 
L 284.251848 227.72159 
L 285.719166 227.687506 
L 287.186484 227.645203 
L 288.653802 227.594674 
L 290.121119 227.535906 
L 291.588437 227.468886 
L 293.055755 227.3936 
L 294.523073 227.310032 
L 295.990391 227.218162 
L 297.457708 227.11797 
L 298.925026 227.009435 
L 300.392344 226.892533 
L 301.859662 226.767238 
L 303.32698 226.633522 
L 304.794298 226.491358 
L 306.261615 226.340713 
L 307.728933 226.181555 
L 309.196251 226.013849 
L 310.663569 225.837561 
L 312.130887 225.652651 
L 313.598204 225.45908 
L 315.065522 225.256806 
L 316.53284 225.045787 
L 318.000158 224.825978 
L 319.467476 224.597332 
L 320.934793 224.359801 
L 322.402111 224.113336 
L 323.869429 223.857885 
L 325.336747 223.593395 
L 326.804065 223.319811 
L 328.271382 223.037077 
L 329.7387 222.745136 
L 331.206018 222.443927 
L 332.673336 222.13339 
L 334.140654 221.813463 
L 335.607971 221.484082 
L 337.075289 221.145181 
L 338.542607 220.796694 
L 340.009925 220.438552 
L 341.477243 220.070686 
L 342.94456 219.693026 
L 344.411878 219.305498 
L 345.879196 218.90803 
L 347.346514 218.500547 
L 348.813832 218.082973 
L 350.28115 217.655231 
L 351.748467 217.217244 
L 353.215785 216.768932 
L 354.683103 216.310215 
L 356.150421 215.841012 
L 357.617739 215.361241 
L 359.085056 214.870821 
L 360.552374 214.369666 
L 362.019692 213.857694 
L 363.48701 213.334819 
L 364.954328 212.800956 
L 366.421645 212.25602 
L 367.888963 211.699924 
L 369.356281 211.132581 
L 370.823599 210.553906 
L 372.290917 209.96381 
L 373.758234 209.362208 
L 375.225552 208.749012 
L 376.69287 208.124136 
L 378.160188 207.487493 
L 379.627506 206.838997 
L 381.094823 206.178562 
L 382.562141 205.506103 
L 384.029459 204.821536 
L 385.496777 204.124778 
" clip-path="url(#p1d9e5df4fe)" style="fill: none; stroke: #2964d9; stroke-opacity: 0.5; stroke-width: 2; stroke-linecap: round"/>
   </g>
   <g id="FillBetweenPolyCollection_4">
    <defs>
     <path id="me5c261ece3" d="M 240.232314 -85.975973 
L 240.232314 -69.106156 
L 241.699632 -69.143765 
L 243.16695 -69.183241 
L 244.634267 -69.224601 
L 246.101585 -69.267861 
L 247.568903 -69.313043 
L 249.036221 -69.360169 
L 250.503539 -69.409266 
L 251.970856 -69.460366 
L 253.438174 -69.513502 
L 254.905492 -69.568716 
L 256.37281 -69.62605 
L 257.840128 -69.685555 
L 259.307446 -69.747286 
L 260.774763 -69.811304 
L 262.242081 -69.877678 
L 263.709399 -69.946483 
L 265.176717 -70.0178 
L 266.644035 -70.091721 
L 268.111352 -70.168342 
L 269.57867 -70.247769 
L 271.045988 -70.330115 
L 272.513306 -70.415503 
L 273.980624 -70.50406 
L 275.447941 -70.595925 
L 276.915259 -70.691239 
L 278.382577 -70.790153 
L 279.849895 -70.892821 
L 281.317213 -70.999402 
L 282.78453 -71.110059 
L 284.251848 -71.224953 
L 285.719166 -71.344246 
L 287.186484 -71.468099 
L 288.653802 -71.596665 
L 290.121119 -71.730089 
L 291.588437 -71.868508 
L 293.055755 -72.012043 
L 294.523073 -72.160797 
L 295.990391 -72.314855 
L 297.457708 -72.474273 
L 298.925026 -72.639082 
L 300.392344 -72.809279 
L 301.859662 -72.984822 
L 303.32698 -73.16563 
L 304.794298 -73.351577 
L 306.261615 -73.542487 
L 307.728933 -73.738134 
L 309.196251 -73.938242 
L 310.663569 -74.14248 
L 312.130887 -74.350469 
L 313.598204 -74.561786 
L 315.065522 -74.775968 
L 316.53284 -74.99253 
L 318.000158 -75.210969 
L 319.467476 -75.430788 
L 320.934793 -75.651509 
L 322.402111 -75.872689 
L 323.869429 -76.09394 
L 325.336747 -76.31494 
L 326.804065 -76.535438 
L 328.271382 -76.755264 
L 329.7387 -76.974324 
L 331.206018 -77.192598 
L 332.673336 -77.410128 
L 334.140654 -77.62701 
L 335.607971 -77.843383 
L 337.075289 -78.059416 
L 338.542607 -78.275297 
L 340.009925 -78.491228 
L 341.477243 -78.707414 
L 342.94456 -78.924058 
L 344.411878 -79.141358 
L 345.879196 -79.359503 
L 347.346514 -79.578671 
L 348.813832 -79.799028 
L 350.28115 -80.020728 
L 351.748467 -80.243913 
L 353.215785 -80.468713 
L 354.683103 -80.695247 
L 356.150421 -80.923624 
L 357.617739 -81.153941 
L 359.085056 -81.386289 
L 360.552374 -81.620749 
L 362.019692 -81.857396 
L 363.48701 -82.096297 
L 364.954328 -82.337514 
L 366.421645 -82.581103 
L 367.888963 -82.827117 
L 369.356281 -83.075601 
L 370.823599 -83.3266 
L 372.290917 -83.580154 
L 373.758234 -83.8363 
L 375.225552 -84.095071 
L 376.69287 -84.356501 
L 378.160188 -84.620619 
L 379.627506 -84.887453 
L 381.094823 -85.15703 
L 382.562141 -85.429373 
L 384.029459 -85.704507 
L 385.496777 -85.982453 
L 385.496777 -110.852071 
L 385.496777 -110.852071 
L 384.029459 -109.692836 
L 382.562141 -108.556526 
L 381.094823 -107.44303 
L 379.627506 -106.35223 
L 378.160188 -105.284003 
L 376.69287 -104.238215 
L 375.225552 -103.214731 
L 373.758234 -102.213409 
L 372.290917 -101.234105 
L 370.823599 -100.276671 
L 369.356281 -99.340958 
L 367.888963 -98.426816 
L 366.421645 -97.534093 
L 364.954328 -96.662643 
L 363.48701 -95.812315 
L 362.019692 -94.982968 
L 360.552374 -94.174459 
L 359.085056 -93.386655 
L 357.617739 -92.619424 
L 356.150421 -91.872646 
L 354.683103 -91.146206 
L 353.215785 -90.440001 
L 351.748467 -89.753937 
L 350.28115 -89.087933 
L 348.813832 -88.441918 
L 347.346514 -87.815839 
L 345.879196 -87.209654 
L 344.411878 -86.623338 
L 342.94456 -86.056877 
L 341.477243 -85.510275 
L 340.009925 -84.983544 
L 338.542607 -84.476708 
L 337.075289 -83.989794 
L 335.607971 -83.522831 
L 334.140654 -83.075837 
L 332.673336 -82.648817 
L 331.206018 -82.241746 
L 329.7387 -81.854563 
L 328.271382 -81.487159 
L 326.804065 -81.139364 
L 325.336747 -80.81094 
L 323.869429 -80.501577 
L 322.402111 -80.210892 
L 320.934793 -79.938431 
L 319.467476 -79.683683 
L 318.000158 -79.446084 
L 316.53284 -79.225043 
L 315.065522 -79.019951 
L 313.598204 -78.830204 
L 312.130887 -78.655215 
L 310.663569 -78.49443 
L 309.196251 -78.347335 
L 307.728933 -78.213469 
L 306.261615 -78.092424 
L 304.794298 -77.983851 
L 303.32698 -77.887457 
L 301.859662 -77.803005 
L 300.392344 -77.730313 
L 298.925026 -77.669249 
L 297.457708 -77.619728 
L 295.990391 -77.581707 
L 294.523073 -77.555182 
L 293.055755 -77.540183 
L 291.588437 -77.536771 
L 290.121119 -77.545032 
L 288.653802 -77.565077 
L 287.186484 -77.597036 
L 285.719166 -77.641053 
L 284.251848 -77.697289 
L 282.78453 -77.765914 
L 281.317213 -77.847105 
L 279.849895 -77.941049 
L 278.382577 -78.047934 
L 276.915259 -78.167952 
L 275.447941 -78.301297 
L 273.980624 -78.448162 
L 272.513306 -78.608741 
L 271.045988 -78.783225 
L 269.57867 -78.971803 
L 268.111352 -79.174664 
L 266.644035 -79.391991 
L 265.176717 -79.623967 
L 263.709399 -79.870772 
L 262.242081 -80.132582 
L 260.774763 -80.409573 
L 259.307446 -80.701915 
L 257.840128 -81.009781 
L 256.37281 -81.333339 
L 254.905492 -81.672758 
L 253.438174 -82.028204 
L 251.970856 -82.399843 
L 250.503539 -82.787843 
L 249.036221 -83.192369 
L 247.568903 -83.613588 
L 246.101585 -84.051668 
L 244.634267 -84.506777 
L 243.16695 -84.979083 
L 241.699632 -85.468758 
L 240.232314 -85.975973 
z
"/>
    </defs>
    <g clip-path="url(#p1d9e5df4fe)">
     <use xlink:href="#me5c261ece3" x="0" y="302.135572" style="fill: #2964d9; fill-opacity: 0.25"/>
    </g>
   </g>
   <g id="patch_12">
    <path d="M 232.969091 251.07075 
L 232.969091 142.71075 
" style="fill: none; stroke: #000000; stroke-linejoin: miter; stroke-linecap: square"/>
   </g>
   <g id="patch_13">
    <path d="M 232.969091 251.07075 
L 392.76 251.07075 
" style="fill: none; stroke: #000000; stroke-linejoin: miter; stroke-linecap: square"/>
   </g>
   <g id="line2d_97">
    <path d="M 258.390372 232.109526 
L 258.390372 211.739556 
" clip-path="url(#p1d9e5df4fe)" style="fill: none; stroke: #4c4c4c; stroke-width: 2; stroke-linecap: round"/>
   </g>
   <g id="line2d_98">
    <path d="M 294.706488 227.646825 
L 294.706488 221.4287 
" clip-path="url(#p1d9e5df4fe)" style="fill: none; stroke: #4c4c4c; stroke-width: 2; stroke-linecap: round"/>
   </g>
   <g id="line2d_99">
    <path d="M 331.022603 222.196685 
L 331.022603 216.737054 
" clip-path="url(#p1d9e5df4fe)" style="fill: none; stroke: #4c4c4c; stroke-width: 2; stroke-linecap: round"/>
   </g>
   <g id="line2d_100">
    <path d="M 367.338719 223.308413 
L 367.338719 202.877135 
" clip-path="url(#p1d9e5df4fe)" style="fill: none; stroke: #4c4c4c; stroke-width: 2; stroke-linecap: round"/>
   </g>
   <g id="line2d_101">
    <path d="M 258.390372 222.355968 
" clip-path="url(#p1d9e5df4fe)" style="fill: none; stroke: #4c4c4c; stroke-width: 1.8; stroke-linecap: round"/>
    <g clip-path="url(#p1d9e5df4fe)">
     <use xlink:href="#m315d504c6b" x="258.390372" y="222.355968" style="fill: #4c4c4c"/>
    </g>
   </g>
   <g id="line2d_102">
    <path d="M 294.706488 224.789683 
" clip-path="url(#p1d9e5df4fe)" style="fill: none; stroke: #4c4c4c; stroke-width: 1.8; stroke-linecap: round"/>
    <g clip-path="url(#p1d9e5df4fe)">
     <use xlink:href="#m315d504c6b" x="294.706488" y="224.789683" style="fill: #4c4c4c"/>
    </g>
   </g>
   <g id="line2d_103">
    <path d="M 331.022603 219.578094 
" clip-path="url(#p1d9e5df4fe)" style="fill: none; stroke: #4c4c4c; stroke-width: 1.8; stroke-linecap: round"/>
    <g clip-path="url(#p1d9e5df4fe)">
     <use xlink:href="#m315d504c6b" x="331.022603" y="219.578094" style="fill: #4c4c4c"/>
    </g>
   </g>
   <g id="line2d_104">
    <path d="M 367.338719 213.656783 
" clip-path="url(#p1d9e5df4fe)" style="fill: none; stroke: #4c4c4c; stroke-width: 1.8; stroke-linecap: round"/>
    <g clip-path="url(#p1d9e5df4fe)">
     <use xlink:href="#m315d504c6b" x="367.338719" y="213.656783" style="fill: #4c4c4c"/>
    </g>
   </g>
  </g>
  <g id="text_37">
   <!-- a. -->
   <g style="fill: #262626" transform="translate(7.2 15.789375) scale(0.12 -0.12)">
    <defs>
     <path id="Arial-BoldMT-61" d="M 1116 2306 
L 319 2450 
Q 453 2931 781 3162 
Q 1109 3394 1756 3394 
Q 2344 3394 2631 3255 
Q 2919 3116 3036 2902 
Q 3153 2688 3153 2116 
L 3144 1091 
Q 3144 653 3186 445 
Q 3228 238 3344 0 
L 2475 0 
Q 2441 88 2391 259 
Q 2369 338 2359 363 
Q 2134 144 1878 34 
Q 1622 -75 1331 -75 
Q 819 -75 523 203 
Q 228 481 228 906 
Q 228 1188 362 1408 
Q 497 1628 739 1745 
Q 981 1863 1438 1950 
Q 2053 2066 2291 2166 
L 2291 2253 
Q 2291 2506 2166 2614 
Q 2041 2722 1694 2722 
Q 1459 2722 1328 2630 
Q 1197 2538 1116 2306 
z
M 2291 1594 
Q 2122 1538 1756 1459 
Q 1391 1381 1278 1306 
Q 1106 1184 1106 997 
Q 1106 813 1243 678 
Q 1381 544 1594 544 
Q 1831 544 2047 700 
Q 2206 819 2256 991 
Q 2291 1103 2291 1419 
L 2291 1594 
z
" transform="scale(0.015625)"/>
     <path id="Arial-BoldMT-2e" d="M 459 0 
L 459 878 
L 1338 878 
L 1338 0 
L 459 0 
z
" transform="scale(0.015625)"/>
    </defs>
    <use xlink:href="#Arial-BoldMT-61"/>
    <use xlink:href="#Arial-BoldMT-2e" transform="translate(55.615234 0)"/>
   </g>
  </g>
  <g id="text_38">
   <!-- b. -->
   <g style="fill: #262626" transform="translate(7.2 145.821375) scale(0.12 -0.12)">
    <defs>
     <path id="Arial-BoldMT-62" d="M 422 0 
L 422 4581 
L 1300 4581 
L 1300 2931 
Q 1706 3394 2263 3394 
Q 2869 3394 3266 2955 
Q 3663 2516 3663 1694 
Q 3663 844 3258 384 
Q 2853 -75 2275 -75 
Q 1991 -75 1714 67 
Q 1438 209 1238 488 
L 1238 0 
L 422 0 
z
M 1294 1731 
Q 1294 1216 1456 969 
Q 1684 619 2063 619 
Q 2353 619 2558 867 
Q 2763 1116 2763 1650 
Q 2763 2219 2556 2470 
Q 2350 2722 2028 2722 
Q 1713 2722 1503 2476 
Q 1294 2231 1294 1731 
z
" transform="scale(0.015625)"/>
    </defs>
    <use xlink:href="#Arial-BoldMT-62"/>
    <use xlink:href="#Arial-BoldMT-2e" transform="translate(61.083984 0)"/>
   </g>
  </g>
 </g>
 <defs>
  <clipPath id="pe85eb1a5f6">
   <rect x="41.22" y="12.67875" width="159.790909" height="108.36"/>
  </clipPath>
  <clipPath id="pb64f96df58">
   <rect x="232.969091" y="12.67875" width="159.790909" height="108.36"/>
  </clipPath>
  <clipPath id="pfa9caa3fe9">
   <rect x="41.22" y="142.71075" width="159.790909" height="108.36"/>
  </clipPath>
  <clipPath id="p1d9e5df4fe">
   <rect x="232.969091" y="142.71075" width="159.790909" height="108.36"/>
  </clipPath>
 </defs>
</svg>
