<?xml version="1.0" encoding="utf-8" standalone="no"?>
<!DOCTYPE svg PUBLIC "-//W3C//DTD SVG 1.1//EN"
  "http://www.w3.org/Graphics/SVG/1.1/DTD/svg11.dtd">
<svg xmlns:xlink="http://www.w3.org/1999/xlink" width="446.263125pt" height="109.9145pt" viewBox="0 0 446.263125 109.9145" xmlns="http://www.w3.org/2000/svg" version="1.1">
 <metadata>
  <rdf:RDF xmlns:dc="http://purl.org/dc/elements/1.1/" xmlns:cc="http://creativecommons.org/ns#" xmlns:rdf="http://www.w3.org/1999/02/22-rdf-syntax-ns#">
   <cc:Work>
    <dc:type rdf:resource="http://purl.org/dc/dcmitype/StillImage"/>
    <dc:date>2026-05-07T10:41:58.141416</dc:date>
    <dc:format>image/svg+xml</dc:format>
    <dc:creator>
     <cc:Agent>
      <dc:title>Matplotlib v3.10.7, https://matplotlib.org/</dc:title>
     </cc:Agent>
    </dc:creator>
   </cc:Work>
  </rdf:RDF>
 </metadata>
 <defs>
  <style type="text/css">*{stroke-linejoin: round; stroke-linecap: butt}</style>
 </defs>
 <g id="figure_1">
  <g id="patch_1">
   <path d="M 0 109.9145 
L 446.263125 109.9145 
L 446.263125 0 
L 0 0 
z
" style="fill: #ffffff"/>
  </g>
  <g id="axes_1">
   <g id="patch_2">
    <path d="M 37.303125 80.64 
L 162.583125 80.64 
L 162.583125 11.52 
L 37.303125 11.52 
z
" style="fill: #ffffff"/>
   </g>
   <g id="patch_3">
    <path d="M 68.306761 80.64 
L 90.452216 80.64 
L 90.452216 11.52 
L 68.306761 11.52 
z
" clip-path="url(#p61615a991a)" style="fill: #ffc861; opacity: 0.1"/>
   </g>
   <g id="matplotlib.axis_1">
    <g id="xtick_1">
     <g id="line2d_1">
      <defs>
       <path id="mf7e9c018b9" d="M 0 0 
L 0 2 
" style="stroke: #000000"/>
      </defs>
      <g>
       <use xlink:href="#mf7e9c018b9" x="46.161307" y="80.64" style="stroke: #000000"/>
      </g>
     </g>
     <g id="text_1">
      <!-- −14 -->
      <g style="fill: #262626" transform="translate(39.376307 88.86625) scale(0.08 -0.08)">
       <defs>
        <path id="ArialMT-2212" d="M 3381 1997 
L 356 1997 
L 356 2522 
L 3381 2522 
L 3381 1997 
z
" transform="scale(0.015625)"/>
        <path id="ArialMT-31" d="M 2384 0 
L 1822 0 
L 1822 3584 
Q 1619 3391 1289 3197 
Q 959 3003 697 2906 
L 697 3450 
Q 1169 3672 1522 3987 
Q 1875 4303 2022 4600 
L 2384 4600 
L 2384 0 
z
" transform="scale(0.015625)"/>
        <path id="ArialMT-34" d="M 2069 0 
L 2069 1097 
L 81 1097 
L 81 1613 
L 2172 4581 
L 2631 4581 
L 2631 1613 
L 3250 1613 
L 3250 1097 
L 2631 1097 
L 2631 0 
L 2069 0 
z
M 2069 1613 
L 2069 3678 
L 634 1613 
L 2069 1613 
z
" transform="scale(0.015625)"/>
       </defs>
       <use xlink:href="#ArialMT-2212"/>
       <use xlink:href="#ArialMT-31" transform="translate(58.398438 0)"/>
       <use xlink:href="#ArialMT-34" transform="translate(114.013672 0)"/>
      </g>
     </g>
    </g>
    <g id="xtick_2">
     <g id="line2d_2">
      <g>
       <use xlink:href="#mf7e9c018b9" x="68.306761" y="80.64" style="stroke: #000000"/>
      </g>
     </g>
     <g id="text_2">
      <!-- −7 -->
      <g style="fill: #262626" transform="translate(63.746136 88.86625) scale(0.08 -0.08)">
       <defs>
        <path id="ArialMT-37" d="M 303 3981 
L 303 4522 
L 3269 4522 
L 3269 4084 
Q 2831 3619 2401 2847 
Q 1972 2075 1738 1259 
Q 1569 684 1522 0 
L 944 0 
Q 953 541 1156 1306 
Q 1359 2072 1739 2783 
Q 2119 3494 2547 3981 
L 303 3981 
z
" transform="scale(0.015625)"/>
       </defs>
       <use xlink:href="#ArialMT-2212"/>
       <use xlink:href="#ArialMT-37" transform="translate(58.398438 0)"/>
      </g>
     </g>
    </g>
    <g id="xtick_3">
     <g id="line2d_3">
      <path d="M 90.452216 80.64 
L 90.452216 11.52 
" clip-path="url(#p61615a991a)" style="fill: none; stroke: #cccccc; stroke-width: 1.1; stroke-linecap: round"/>
     </g>
     <g id="line2d_4">
      <g>
       <use xlink:href="#mf7e9c018b9" x="90.452216" y="80.64" style="stroke: #000000"/>
      </g>
     </g>
     <g id="text_3">
      <!-- 0 -->
      <g style="fill: #262626" transform="translate(88.227841 88.86625) scale(0.08 -0.08)">
       <defs>
        <path id="ArialMT-30" d="M 266 2259 
Q 266 3072 433 3567 
Q 600 4063 929 4331 
Q 1259 4600 1759 4600 
Q 2128 4600 2406 4451 
Q 2684 4303 2865 4023 
Q 3047 3744 3150 3342 
Q 3253 2941 3253 2259 
Q 3253 1453 3087 958 
Q 2922 463 2592 192 
Q 2263 -78 1759 -78 
Q 1097 -78 719 397 
Q 266 969 266 2259 
z
M 844 2259 
Q 844 1131 1108 757 
Q 1372 384 1759 384 
Q 2147 384 2411 759 
Q 2675 1134 2675 2259 
Q 2675 3391 2411 3762 
Q 2147 4134 1753 4134 
Q 1366 4134 1134 3806 
Q 844 3388 844 2259 
z
" transform="scale(0.015625)"/>
       </defs>
       <use xlink:href="#ArialMT-30"/>
      </g>
     </g>
    </g>
    <g id="xtick_4">
     <g id="line2d_5">
      <g>
       <use xlink:href="#mf7e9c018b9" x="112.59767" y="80.64" style="stroke: #000000"/>
      </g>
     </g>
     <g id="text_4">
      <!-- 7 -->
      <g style="fill: #262626" transform="translate(110.373295 88.86625) scale(0.08 -0.08)">
       <use xlink:href="#ArialMT-37"/>
      </g>
     </g>
    </g>
    <g id="xtick_5">
     <g id="line2d_6">
      <g>
       <use xlink:href="#mf7e9c018b9" x="134.743125" y="80.64" style="stroke: #000000"/>
      </g>
     </g>
     <g id="text_5">
      <!-- 14 -->
      <g style="fill: #262626" transform="translate(130.294375 88.86625) scale(0.08 -0.08)">
       <use xlink:href="#ArialMT-31"/>
       <use xlink:href="#ArialMT-34" transform="translate(55.615234 0)"/>
      </g>
     </g>
    </g>
    <g id="xtick_6">
     <g id="line2d_7">
      <g>
       <use xlink:href="#mf7e9c018b9" x="156.88858" y="80.64" style="stroke: #000000"/>
      </g>
     </g>
     <g id="text_6">
      <!-- 21 -->
      <g style="fill: #262626" transform="translate(152.43983 88.86625) scale(0.08 -0.08)">
       <defs>
        <path id="ArialMT-32" d="M 3222 541 
L 3222 0 
L 194 0 
Q 188 203 259 391 
Q 375 700 629 1000 
Q 884 1300 1366 1694 
Q 2113 2306 2375 2664 
Q 2638 3022 2638 3341 
Q 2638 3675 2398 3904 
Q 2159 4134 1775 4134 
Q 1369 4134 1125 3890 
Q 881 3647 878 3216 
L 300 3275 
Q 359 3922 746 4261 
Q 1134 4600 1788 4600 
Q 2447 4600 2831 4234 
Q 3216 3869 3216 3328 
Q 3216 3053 3103 2787 
Q 2991 2522 2730 2228 
Q 2469 1934 1863 1422 
Q 1356 997 1212 845 
Q 1069 694 975 541 
L 3222 541 
z
" transform="scale(0.015625)"/>
       </defs>
       <use xlink:href="#ArialMT-32"/>
       <use xlink:href="#ArialMT-31" transform="translate(55.615234 0)"/>
      </g>
     </g>
    </g>
    <g id="text_7">
     <!-- Cycle Day -->
     <g style="fill: #262626" transform="translate(79.89425 100.862375) scale(0.088 -0.088)">
      <defs>
       <path id="ArialMT-43" d="M 3763 1606 
L 4369 1453 
Q 4178 706 3683 314 
Q 3188 -78 2472 -78 
Q 1731 -78 1267 223 
Q 803 525 561 1097 
Q 319 1669 319 2325 
Q 319 3041 592 3573 
Q 866 4106 1370 4382 
Q 1875 4659 2481 4659 
Q 3169 4659 3637 4309 
Q 4106 3959 4291 3325 
L 3694 3184 
Q 3534 3684 3231 3912 
Q 2928 4141 2469 4141 
Q 1941 4141 1586 3887 
Q 1231 3634 1087 3207 
Q 944 2781 944 2328 
Q 944 1744 1114 1308 
Q 1284 872 1643 656 
Q 2003 441 2422 441 
Q 2931 441 3284 734 
Q 3638 1028 3763 1606 
z
" transform="scale(0.015625)"/>
       <path id="ArialMT-79" d="M 397 -1278 
L 334 -750 
Q 519 -800 656 -800 
Q 844 -800 956 -737 
Q 1069 -675 1141 -563 
Q 1194 -478 1313 -144 
Q 1328 -97 1363 -6 
L 103 3319 
L 709 3319 
L 1400 1397 
Q 1534 1031 1641 628 
Q 1738 1016 1872 1384 
L 2581 3319 
L 3144 3319 
L 1881 -56 
Q 1678 -603 1566 -809 
Q 1416 -1088 1222 -1217 
Q 1028 -1347 759 -1347 
Q 597 -1347 397 -1278 
z
" transform="scale(0.015625)"/>
       <path id="ArialMT-63" d="M 2588 1216 
L 3141 1144 
Q 3050 572 2676 248 
Q 2303 -75 1759 -75 
Q 1078 -75 664 370 
Q 250 816 250 1647 
Q 250 2184 428 2587 
Q 606 2991 970 3192 
Q 1334 3394 1763 3394 
Q 2303 3394 2647 3120 
Q 2991 2847 3088 2344 
L 2541 2259 
Q 2463 2594 2264 2762 
Q 2066 2931 1784 2931 
Q 1359 2931 1093 2626 
Q 828 2322 828 1663 
Q 828 994 1084 691 
Q 1341 388 1753 388 
Q 2084 388 2306 591 
Q 2528 794 2588 1216 
z
" transform="scale(0.015625)"/>
       <path id="ArialMT-6c" d="M 409 0 
L 409 4581 
L 972 4581 
L 972 0 
L 409 0 
z
" transform="scale(0.015625)"/>
       <path id="ArialMT-65" d="M 2694 1069 
L 3275 997 
Q 3138 488 2766 206 
Q 2394 -75 1816 -75 
Q 1088 -75 661 373 
Q 234 822 234 1631 
Q 234 2469 665 2931 
Q 1097 3394 1784 3394 
Q 2450 3394 2872 2941 
Q 3294 2488 3294 1666 
Q 3294 1616 3291 1516 
L 816 1516 
Q 847 969 1125 678 
Q 1403 388 1819 388 
Q 2128 388 2347 550 
Q 2566 713 2694 1069 
z
M 847 1978 
L 2700 1978 
Q 2663 2397 2488 2606 
Q 2219 2931 1791 2931 
Q 1403 2931 1139 2672 
Q 875 2413 847 1978 
z
" transform="scale(0.015625)"/>
       <path id="ArialMT-20" transform="scale(0.015625)"/>
       <path id="ArialMT-44" d="M 494 0 
L 494 4581 
L 2072 4581 
Q 2606 4581 2888 4516 
Q 3281 4425 3559 4188 
Q 3922 3881 4101 3404 
Q 4281 2928 4281 2316 
Q 4281 1794 4159 1391 
Q 4038 988 3847 723 
Q 3656 459 3429 307 
Q 3203 156 2883 78 
Q 2563 0 2147 0 
L 494 0 
z
M 1100 541 
L 2078 541 
Q 2531 541 2789 625 
Q 3047 709 3200 863 
Q 3416 1078 3536 1442 
Q 3656 1806 3656 2325 
Q 3656 3044 3420 3430 
Q 3184 3816 2847 3947 
Q 2603 4041 2063 4041 
L 1100 4041 
L 1100 541 
z
" transform="scale(0.015625)"/>
       <path id="ArialMT-61" d="M 2588 409 
Q 2275 144 1986 34 
Q 1697 -75 1366 -75 
Q 819 -75 525 192 
Q 231 459 231 875 
Q 231 1119 342 1320 
Q 453 1522 633 1644 
Q 813 1766 1038 1828 
Q 1203 1872 1538 1913 
Q 2219 1994 2541 2106 
Q 2544 2222 2544 2253 
Q 2544 2597 2384 2738 
Q 2169 2928 1744 2928 
Q 1347 2928 1158 2789 
Q 969 2650 878 2297 
L 328 2372 
Q 403 2725 575 2942 
Q 747 3159 1072 3276 
Q 1397 3394 1825 3394 
Q 2250 3394 2515 3294 
Q 2781 3194 2906 3042 
Q 3031 2891 3081 2659 
Q 3109 2516 3109 2141 
L 3109 1391 
Q 3109 606 3145 398 
Q 3181 191 3288 0 
L 2700 0 
Q 2613 175 2588 409 
z
M 2541 1666 
Q 2234 1541 1622 1453 
Q 1275 1403 1131 1340 
Q 988 1278 909 1158 
Q 831 1038 831 891 
Q 831 666 1001 516 
Q 1172 366 1500 366 
Q 1825 366 2078 508 
Q 2331 650 2450 897 
Q 2541 1088 2541 1459 
L 2541 1666 
z
" transform="scale(0.015625)"/>
      </defs>
      <use xlink:href="#ArialMT-43"/>
      <use xlink:href="#ArialMT-79" transform="translate(72.216797 0)"/>
      <use xlink:href="#ArialMT-63" transform="translate(122.216797 0)"/>
      <use xlink:href="#ArialMT-6c" transform="translate(172.216797 0)"/>
      <use xlink:href="#ArialMT-65" transform="translate(194.433594 0)"/>
      <use xlink:href="#ArialMT-20" transform="translate(250.048828 0)"/>
      <use xlink:href="#ArialMT-44" transform="translate(277.832031 0)"/>
      <use xlink:href="#ArialMT-61" transform="translate(350.048828 0)"/>
      <use xlink:href="#ArialMT-79" transform="translate(405.664062 0)"/>
     </g>
    </g>
   </g>
   <g id="matplotlib.axis_2">
    <g id="ytick_1">
     <g id="line2d_8">
      <path d="M 37.303125 50.786875 
L 162.583125 50.786875 
" clip-path="url(#p61615a991a)" style="fill: none; stroke: #cccccc; stroke-width: 0.5; stroke-linecap: round"/>
     </g>
     <g id="line2d_9">
      <defs>
       <path id="md1d50ee7a5" d="M 0 0 
L -2 0 
" style="stroke: #000000"/>
      </defs>
      <g>
       <use xlink:href="#md1d50ee7a5" x="37.303125" y="50.786875" style="stroke: #000000"/>
      </g>
     </g>
     <g id="text_8">
      <!-- 0.0 -->
      <g style="fill: #262626" transform="translate(23.683125 53.65) scale(0.08 -0.08)">
       <defs>
        <path id="ArialMT-2e" d="M 581 0 
L 581 641 
L 1222 641 
L 1222 0 
L 581 0 
z
" transform="scale(0.015625)"/>
       </defs>
       <use xlink:href="#ArialMT-30"/>
       <use xlink:href="#ArialMT-2e" transform="translate(55.615234 0)"/>
       <use xlink:href="#ArialMT-30" transform="translate(83.398438 0)"/>
      </g>
     </g>
    </g>
    <g id="ytick_2">
     <g id="line2d_10">
      <path d="M 37.303125 17.298896 
L 162.583125 17.298896 
" clip-path="url(#p61615a991a)" style="fill: none; stroke: #cccccc; stroke-width: 0.5; stroke-linecap: round"/>
     </g>
     <g id="line2d_11">
      <g>
       <use xlink:href="#md1d50ee7a5" x="37.303125" y="17.298896" style="stroke: #000000"/>
      </g>
     </g>
     <g id="text_9">
      <!-- 5.0 -->
      <g style="fill: #262626" transform="translate(23.683125 20.162021) scale(0.08 -0.08)">
       <defs>
        <path id="ArialMT-35" d="M 266 1200 
L 856 1250 
Q 922 819 1161 601 
Q 1400 384 1738 384 
Q 2144 384 2425 690 
Q 2706 997 2706 1503 
Q 2706 1984 2436 2262 
Q 2166 2541 1728 2541 
Q 1456 2541 1237 2417 
Q 1019 2294 894 2097 
L 366 2166 
L 809 4519 
L 3088 4519 
L 3088 3981 
L 1259 3981 
L 1013 2750 
Q 1425 3038 1878 3038 
Q 2478 3038 2890 2622 
Q 3303 2206 3303 1553 
Q 3303 931 2941 478 
Q 2500 -78 1738 -78 
Q 1113 -78 717 272 
Q 322 622 266 1200 
z
" transform="scale(0.015625)"/>
       </defs>
       <use xlink:href="#ArialMT-35"/>
       <use xlink:href="#ArialMT-2e" transform="translate(55.615234 0)"/>
       <use xlink:href="#ArialMT-30" transform="translate(83.398438 0)"/>
      </g>
     </g>
    </g>
    <g id="text_10">
     <!-- RHR [%] -->
     <g style="fill: #262626" transform="translate(17.934125 63.192562) rotate(-90) scale(0.088 -0.088)">
      <defs>
       <path id="ArialMT-52" d="M 503 0 
L 503 4581 
L 2534 4581 
Q 3147 4581 3465 4457 
Q 3784 4334 3975 4021 
Q 4166 3709 4166 3331 
Q 4166 2844 3850 2509 
Q 3534 2175 2875 2084 
Q 3116 1969 3241 1856 
Q 3506 1613 3744 1247 
L 4541 0 
L 3778 0 
L 3172 953 
Q 2906 1366 2734 1584 
Q 2563 1803 2427 1890 
Q 2291 1978 2150 2013 
Q 2047 2034 1813 2034 
L 1109 2034 
L 1109 0 
L 503 0 
z
M 1109 2559 
L 2413 2559 
Q 2828 2559 3062 2645 
Q 3297 2731 3419 2920 
Q 3541 3109 3541 3331 
Q 3541 3656 3305 3865 
Q 3069 4075 2559 4075 
L 1109 4075 
L 1109 2559 
z
" transform="scale(0.015625)"/>
       <path id="ArialMT-48" d="M 513 0 
L 513 4581 
L 1119 4581 
L 1119 2700 
L 3500 2700 
L 3500 4581 
L 4106 4581 
L 4106 0 
L 3500 0 
L 3500 2159 
L 1119 2159 
L 1119 0 
L 513 0 
z
" transform="scale(0.015625)"/>
       <path id="ArialMT-5b" d="M 434 -1272 
L 434 4581 
L 1675 4581 
L 1675 4116 
L 997 4116 
L 997 -806 
L 1675 -806 
L 1675 -1272 
L 434 -1272 
z
" transform="scale(0.015625)"/>
       <path id="ArialMT-25" d="M 372 3481 
Q 372 3972 619 4315 
Q 866 4659 1334 4659 
Q 1766 4659 2048 4351 
Q 2331 4044 2331 3447 
Q 2331 2866 2045 2552 
Q 1759 2238 1341 2238 
Q 925 2238 648 2547 
Q 372 2856 372 3481 
z
M 1350 4272 
Q 1141 4272 1002 4090 
Q 863 3909 863 3425 
Q 863 2984 1003 2804 
Q 1144 2625 1350 2625 
Q 1563 2625 1702 2806 
Q 1841 2988 1841 3469 
Q 1841 3913 1700 4092 
Q 1559 4272 1350 4272 
z
M 1353 -169 
L 3859 4659 
L 4316 4659 
L 1819 -169 
L 1353 -169 
z
M 3334 1075 
Q 3334 1569 3581 1911 
Q 3828 2253 4300 2253 
Q 4731 2253 5014 1945 
Q 5297 1638 5297 1041 
Q 5297 459 5011 145 
Q 4725 -169 4303 -169 
Q 3888 -169 3611 142 
Q 3334 453 3334 1075 
z
M 4316 1866 
Q 4103 1866 3964 1684 
Q 3825 1503 3825 1019 
Q 3825 581 3965 400 
Q 4106 219 4313 219 
Q 4528 219 4667 400 
Q 4806 581 4806 1063 
Q 4806 1506 4665 1686 
Q 4525 1866 4316 1866 
z
" transform="scale(0.015625)"/>
       <path id="ArialMT-5d" d="M 1363 -1272 
L 122 -1272 
L 122 -806 
L 800 -806 
L 800 4116 
L 122 4116 
L 122 4581 
L 1363 4581 
L 1363 -1272 
z
" transform="scale(0.015625)"/>
      </defs>
      <use xlink:href="#ArialMT-52"/>
      <use xlink:href="#ArialMT-48" transform="translate(72.216797 0)"/>
      <use xlink:href="#ArialMT-52" transform="translate(144.433594 0)"/>
      <use xlink:href="#ArialMT-20" transform="translate(216.650391 0)"/>
      <use xlink:href="#ArialMT-5b" transform="translate(244.433594 0)"/>
      <use xlink:href="#ArialMT-25" transform="translate(272.216797 0)"/>
      <use xlink:href="#ArialMT-5d" transform="translate(361.132812 0)"/>
     </g>
    </g>
   </g>
   <g id="FillBetweenPolyCollection_1">
    <defs>
     <path id="mf0f8a9c194" d="M 42.99767 -58.011488 
L 42.99767 -51.661951 
L 46.161307 -53.269198 
L 49.324943 -56.314015 
L 52.48858 -60.313473 
L 55.652216 -64.018388 
L 58.815852 -66.813849 
L 61.979489 -70.062545 
L 65.143125 -74.62464 
L 68.306761 -80.761722 
L 71.470398 -85.743438 
L 74.634034 -87.985884 
L 77.79767 -87.050754 
L 80.961307 -83.205142 
L 84.124943 -78.646887 
L 87.28858 -69.652297 
L 90.452216 -57.547917 
L 93.615852 -46.706458 
L 96.779489 -41.482892 
L 99.943125 -39.645317 
L 103.106761 -38.95211 
L 106.270398 -38.819943 
L 109.434034 -39.363342 
L 112.59767 -41.16129 
L 115.761307 -43.886399 
L 118.924943 -47.340854 
L 122.08858 -50.896986 
L 125.252216 -53.083858 
L 128.415852 -54.837409 
L 131.579489 -56.215725 
L 134.743125 -58.163528 
L 137.906761 -60.292409 
L 141.070398 -62.626994 
L 144.234034 -64.859991 
L 147.39767 -67.789924 
L 150.561307 -71.393189 
L 153.724943 -74.536598 
L 156.88858 -76.290154 
L 156.88858 -82.503107 
L 156.88858 -82.503107 
L 153.724943 -80.607234 
L 150.561307 -78.181692 
L 147.39767 -74.919505 
L 144.234034 -71.831348 
L 141.070398 -69.276806 
L 137.906761 -66.821328 
L 134.743125 -64.292059 
L 131.579489 -62.829297 
L 128.415852 -61.560556 
L 125.252216 -60.359781 
L 122.08858 -57.769468 
L 118.924943 -54.285757 
L 115.761307 -50.43343 
L 112.59767 -47.803429 
L 109.434034 -46.557876 
L 106.270398 -46.408048 
L 103.106761 -45.987011 
L 99.943125 -46.602483 
L 96.779489 -48.594891 
L 93.615852 -53.756779 
L 90.452216 -64.422478 
L 87.28858 -78.25041 
L 84.124943 -87.353215 
L 80.961307 -91.299739 
L 77.79767 -94.049121 
L 74.634034 -95.252682 
L 71.470398 -93.195532 
L 68.306761 -87.95748 
L 65.143125 -81.780355 
L 61.979489 -76.959292 
L 58.815852 -73.687968 
L 55.652216 -70.606908 
L 52.48858 -66.811565 
L 49.324943 -62.549192 
L 46.161307 -59.668956 
L 42.99767 -58.011488 
z
"/>
    </defs>
    <g clip-path="url(#p61615a991a)">
     <use xlink:href="#mf0f8a9c194" x="0" y="109.9145" style="fill: #7865db; fill-opacity: 0.2"/>
    </g>
   </g>
   <g id="FillBetweenPolyCollection_2">
    <defs>
     <path id="ma1461f427c" d="M 42.99767 -57.139065 
L 42.99767 -54.157372 
L 46.161307 -56.485943 
L 49.324943 -58.55651 
L 52.48858 -61.148199 
L 55.652216 -63.721019 
L 58.815852 -66.784559 
L 61.979489 -70.50255 
L 65.143125 -74.645295 
L 68.306761 -78.769425 
L 71.470398 -81.679382 
L 74.634034 -82.822835 
L 77.79767 -82.328763 
L 80.961307 -79.204473 
L 84.124943 -73.062938 
L 87.28858 -63.898375 
L 90.452216 -54.504375 
L 93.615852 -47.10308 
L 96.779489 -42.855142 
L 99.943125 -40.811476 
L 103.106761 -40.636957 
L 106.270398 -41.652856 
L 109.434034 -43.110911 
L 112.59767 -44.453398 
L 115.761307 -45.747862 
L 118.924943 -47.365348 
L 122.08858 -49.679855 
L 125.252216 -52.411147 
L 128.415852 -55.702654 
L 131.579489 -58.652775 
L 134.743125 -61.437189 
L 137.906761 -63.659887 
L 141.070398 -65.364014 
L 144.234034 -67.555389 
L 147.39767 -69.929586 
L 150.561307 -71.847082 
L 153.724943 -73.744376 
L 156.88858 -74.87876 
L 156.88858 -78.228642 
L 156.88858 -78.228642 
L 153.724943 -77.112013 
L 150.561307 -75.600452 
L 147.39767 -73.383625 
L 144.234034 -70.927754 
L 141.070398 -68.799863 
L 137.906761 -67.227052 
L 134.743125 -64.9146 
L 131.579489 -62.046718 
L 128.415852 -58.986636 
L 125.252216 -55.766655 
L 122.08858 -53.077792 
L 118.924943 -50.536897 
L 115.761307 -49.017083 
L 112.59767 -47.671366 
L 109.434034 -46.439752 
L 106.270398 -44.887707 
L 103.106761 -43.994881 
L 99.943125 -44.008037 
L 96.779489 -45.8269 
L 93.615852 -50.327373 
L 90.452216 -57.745899 
L 87.28858 -67.229415 
L 84.124943 -76.353511 
L 80.961307 -82.572943 
L 77.79767 -85.418522 
L 74.634034 -86.025367 
L 71.470398 -84.781994 
L 68.306761 -82.116869 
L 65.143125 -78.047168 
L 61.979489 -73.574585 
L 58.815852 -69.666267 
L 55.652216 -66.537799 
L 52.48858 -64.169291 
L 49.324943 -61.742084 
L 46.161307 -59.287402 
L 42.99767 -57.139065 
z
"/>
    </defs>
    <g clip-path="url(#p61615a991a)">
     <use xlink:href="#ma1461f427c" x="0" y="109.9145" style="fill: #b5ace7; fill-opacity: 0.2"/>
    </g>
   </g>
   <g id="FillBetweenPolyCollection_3">
    <defs>
     <path id="mbf603848d0" d="M 42.99767 -59.780806 
L 42.99767 -58.576988 
L 46.161307 -61.503723 
L 49.324943 -63.762625 
L 52.48858 -65.649556 
L 55.652216 -67.515889 
L 58.815852 -69.825856 
L 61.979489 -72.456313 
L 65.143125 -75.373346 
L 68.306761 -78.045993 
L 71.470398 -79.662682 
L 74.634034 -79.658371 
L 77.79767 -77.831563 
L 80.961307 -73.851951 
L 84.124943 -66.790279 
L 87.28858 -57.466602 
L 90.452216 -48.95277 
L 93.615852 -43.201756 
L 96.779489 -39.909693 
L 99.943125 -38.432717 
L 103.106761 -38.288022 
L 106.270398 -39.020884 
L 109.434034 -40.270926 
L 112.59767 -41.929424 
L 115.761307 -44.089531 
L 118.924943 -46.722188 
L 122.08858 -49.556857 
L 125.252216 -52.617997 
L 128.415852 -55.550077 
L 131.579489 -58.208591 
L 134.743125 -60.715223 
L 137.906761 -63.317097 
L 141.070398 -65.60373 
L 144.234034 -67.7821 
L 147.39767 -70.146788 
L 150.561307 -72.540343 
L 153.724943 -74.804026 
L 156.88858 -76.246185 
L 156.88858 -77.691443 
L 156.88858 -77.691443 
L 153.724943 -76.165058 
L 150.561307 -73.940935 
L 147.39767 -71.514074 
L 144.234034 -69.185125 
L 141.070398 -66.95451 
L 137.906761 -64.613677 
L 134.743125 -61.994971 
L 131.579489 -59.446278 
L 128.415852 -56.796396 
L 125.252216 -53.807253 
L 122.08858 -50.735548 
L 118.924943 -47.95116 
L 115.761307 -45.328368 
L 112.59767 -43.187557 
L 109.434034 -41.555602 
L 106.270398 -40.230597 
L 103.106761 -39.511595 
L 99.943125 -39.662953 
L 96.779489 -41.234546 
L 93.615852 -44.42964 
L 90.452216 -50.14354 
L 87.28858 -58.607167 
L 84.124943 -67.996139 
L 80.961307 -75.038231 
L 77.79767 -79.088546 
L 74.634034 -80.865029 
L 71.470398 -80.920859 
L 68.306761 -79.264593 
L 65.143125 -76.625669 
L 61.979489 -73.753389 
L 58.815852 -71.042303 
L 55.652216 -68.75726 
L 52.48858 -66.895132 
L 49.324943 -65.042516 
L 46.161307 -62.689241 
L 42.99767 -59.780806 
z
"/>
    </defs>
    <g clip-path="url(#p61615a991a)">
     <use xlink:href="#mbf603848d0" x="0" y="109.9145" style="fill: #a8aaa7; fill-opacity: 0.2"/>
    </g>
   </g>
   <g id="FillBetweenPolyCollection_4">
    <defs>
     <path id="m3b938e56c7" d="M 42.99767 -65.779196 
L 42.99767 -61.334311 
L 46.161307 -63.594671 
L 49.324943 -65.461655 
L 52.48858 -67.88368 
L 55.652216 -70.291231 
L 58.815852 -73.312539 
L 61.979489 -75.99678 
L 65.143125 -77.068863 
L 68.306761 -76.656794 
L 71.470398 -75.863896 
L 74.634034 -75.395957 
L 77.79767 -74.327927 
L 80.961307 -70.986897 
L 84.124943 -63.788564 
L 87.28858 -53.857802 
L 90.452216 -44.987286 
L 93.615852 -39.609494 
L 96.779489 -36.547863 
L 99.943125 -34.839192 
L 103.106761 -34.692004 
L 106.270398 -35.905581 
L 109.434034 -38.028175 
L 112.59767 -40.173398 
L 115.761307 -42.581574 
L 118.924943 -44.779959 
L 122.08858 -47.274586 
L 125.252216 -50.701853 
L 128.415852 -53.537136 
L 131.579489 -56.23881 
L 134.743125 -59.26214 
L 137.906761 -62.330603 
L 141.070398 -64.893438 
L 144.234034 -67.664527 
L 147.39767 -70.465981 
L 150.561307 -72.28512 
L 153.724943 -73.483239 
L 156.88858 -74.065509 
L 156.88858 -78.480076 
L 156.88858 -78.480076 
L 153.724943 -77.733633 
L 150.561307 -76.776968 
L 147.39767 -75.239124 
L 144.234034 -72.610739 
L 141.070398 -69.579718 
L 137.906761 -66.753221 
L 134.743125 -63.788374 
L 131.579489 -60.456143 
L 128.415852 -57.774733 
L 125.252216 -54.582912 
L 122.08858 -51.543794 
L 118.924943 -48.785043 
L 115.761307 -46.539773 
L 112.59767 -44.3232 
L 109.434034 -41.916541 
L 106.270398 -39.830221 
L 103.106761 -38.914856 
L 99.943125 -38.920458 
L 96.779489 -40.741495 
L 93.615852 -43.520595 
L 90.452216 -49.039616 
L 87.28858 -58.081849 
L 84.124943 -68.051641 
L 80.961307 -75.273209 
L 77.79767 -78.449554 
L 74.634034 -79.53695 
L 71.470398 -80.076298 
L 68.306761 -81.056816 
L 65.143125 -81.524509 
L 61.979489 -80.150257 
L 58.815852 -77.228238 
L 55.652216 -74.565478 
L 52.48858 -72.115925 
L 49.324943 -69.749162 
L 46.161307 -67.82046 
L 42.99767 -65.779196 
z
"/>
    </defs>
    <g clip-path="url(#p61615a991a)">
     <use xlink:href="#m3b938e56c7" x="0" y="109.9145" style="fill: #9dbb91; fill-opacity: 0.2"/>
    </g>
   </g>
   <g id="FillBetweenPolyCollection_5">
    <defs>
     <path id="m6575cc5ae6" d="M 42.99767 -70.964809 
L 42.99767 -58.280514 
L 46.161307 -61.268162 
L 49.324943 -65.949183 
L 52.48858 -69.558231 
L 55.652216 -73.71692 
L 58.815852 -78.252836 
L 61.979489 -80.838835 
L 65.143125 -78.997499 
L 68.306761 -74.706563 
L 71.470398 -71.436251 
L 74.634034 -67.237274 
L 77.79767 -64.220729 
L 80.961307 -61.301801 
L 84.124943 -57.866744 
L 87.28858 -49.372343 
L 90.452216 -39.959978 
L 93.615852 -34.600047 
L 96.779489 -32.75071 
L 99.943125 -32.416318 
L 103.106761 -34.124588 
L 106.270398 -37.760078 
L 109.434034 -41.495561 
L 112.59767 -44.031802 
L 115.761307 -44.156692 
L 118.924943 -42.872986 
L 122.08858 -43.81423 
L 125.252216 -48.169244 
L 128.415852 -52.875176 
L 131.579489 -54.280444 
L 134.743125 -54.608197 
L 137.906761 -55.579529 
L 141.070398 -58.48313 
L 144.234034 -61.32276 
L 147.39767 -63.098413 
L 150.561307 -64.919074 
L 153.724943 -65.974974 
L 156.88858 -67.436626 
L 156.88858 -77.983803 
L 156.88858 -77.983803 
L 153.724943 -76.273506 
L 150.561307 -75.208716 
L 147.39767 -74.348897 
L 144.234034 -73.152624 
L 141.070398 -69.226032 
L 137.906761 -66.995334 
L 134.743125 -64.498477 
L 131.579489 -65.070707 
L 128.415852 -63.648353 
L 125.252216 -59.224599 
L 122.08858 -54.738574 
L 118.924943 -53.719453 
L 115.761307 -55.350528 
L 112.59767 -54.901401 
L 109.434034 -52.530895 
L 106.270398 -48.638162 
L 103.106761 -44.993351 
L 99.943125 -44.292323 
L 96.779489 -44.101341 
L 93.615852 -44.723407 
L 90.452216 -51.235931 
L 87.28858 -64.731719 
L 84.124943 -72.289499 
L 80.961307 -74.326301 
L 77.79767 -75.353108 
L 74.634034 -78.638555 
L 71.470398 -82.925407 
L 68.306761 -86.528153 
L 65.143125 -91.560117 
L 61.979489 -93.792945 
L 58.815852 -90.498317 
L 55.652216 -86.395696 
L 52.48858 -81.467716 
L 49.324943 -77.333301 
L 46.161307 -72.245904 
L 42.99767 -70.964809 
z
"/>
    </defs>
    <g clip-path="url(#p61615a991a)">
     <use xlink:href="#m6575cc5ae6" x="0" y="109.9145" style="fill: #4f8438; fill-opacity: 0.2"/>
    </g>
   </g>
   <g id="line2d_12">
    <path d="M 42.99767 55.244459 
L 46.161307 53.581781 
L 49.324943 50.498473 
L 52.48858 46.237721 
L 55.652216 42.510332 
L 58.815852 39.612807 
L 61.979489 36.390442 
L 65.143125 31.615433 
L 68.306761 25.584206 
L 71.470398 20.433008 
L 74.634034 18.332664 
L 77.79767 19.570982 
L 80.961307 22.505604 
L 84.124943 26.902378 
L 87.28858 36.064179 
L 90.452216 49.08041 
L 93.615852 59.653581 
L 96.779489 64.896826 
L 99.943125 66.779294 
L 103.106761 67.299375 
L 106.270398 67.298894 
L 109.434034 66.817746 
L 112.59767 65.444362 
L 115.761307 62.698003 
L 118.924943 59.109964 
L 122.08858 55.682749 
L 125.252216 53.356062 
L 128.415852 51.724915 
L 131.579489 50.419956 
L 134.743125 48.726994 
L 137.906761 46.414324 
L 141.070398 43.969524 
L 144.234034 41.662659 
L 147.39767 38.734589 
L 150.561307 35.151848 
L 153.724943 32.434849 
L 156.88858 30.660831 
" clip-path="url(#p61615a991a)" style="fill: none; stroke: #7865db; stroke-width: 1.5; stroke-linecap: round"/>
   </g>
   <g id="line2d_13">
    <path d="M 42.99767 54.357771 
L 46.161307 51.978578 
L 49.324943 49.661081 
L 52.48858 47.279517 
L 55.652216 44.764023 
L 58.815852 41.674368 
L 61.979489 37.937048 
L 65.143125 33.561025 
L 68.306761 29.43481 
L 71.470398 26.64841 
L 74.634034 25.494603 
L 77.79767 25.95804 
L 80.961307 28.979508 
L 84.124943 35.2734 
L 87.28858 44.352882 
L 90.452216 53.748022 
L 93.615852 61.158376 
L 96.779489 65.608905 
L 99.943125 67.50607 
L 103.106761 67.670488 
L 106.270398 66.634979 
L 109.434034 65.129672 
L 112.59767 63.770254 
L 115.761307 62.541532 
L 118.924943 60.985097 
L 122.08858 58.617204 
L 125.252216 55.670249 
L 128.415852 52.667695 
L 131.579489 49.617784 
L 134.743125 46.769993 
L 137.906761 44.501056 
L 141.070398 42.841849 
L 144.234034 40.624647 
L 147.39767 38.28576 
L 150.561307 36.256369 
L 153.724943 34.568677 
L 156.88858 33.342494 
" clip-path="url(#p61615a991a)" style="fill: none; stroke: #b5ace7; stroke-width: 1.5; stroke-linecap: round"/>
   </g>
   <g id="line2d_14">
    <path d="M 42.99767 50.732614 
L 46.161307 47.814849 
L 49.324943 45.520348 
L 52.48858 43.634949 
L 55.652216 41.74938 
L 58.815852 39.498195 
L 61.979489 36.794127 
L 65.143125 33.891967 
L 68.306761 31.273517 
L 71.470398 29.648048 
L 74.634034 29.65624 
L 77.79767 31.480654 
L 80.961307 35.456734 
L 84.124943 42.532501 
L 87.28858 51.88062 
L 90.452216 60.390763 
L 93.615852 66.095359 
L 96.779489 69.366201 
L 99.943125 70.853285 
L 103.106761 70.977949 
L 106.270398 70.250172 
L 109.434034 68.987122 
L 112.59767 67.32733 
L 115.761307 65.200869 
L 118.924943 62.603895 
L 122.08858 59.753684 
L 125.252216 56.71534 
L 128.415852 53.748691 
L 131.579489 51.103566 
L 134.743125 48.571886 
L 137.906761 45.972437 
L 141.070398 43.643393 
L 144.234034 41.42702 
L 147.39767 39.060634 
L 150.561307 36.615541 
L 153.724943 34.424585 
L 156.88858 32.95509 
" clip-path="url(#p61615a991a)" style="fill: none; stroke: #a8aaa7; stroke-width: 1.5; stroke-linecap: round"/>
   </g>
   <g id="line2d_15">
    <path d="M 42.99767 46.412473 
L 46.161307 44.264023 
L 49.324943 42.233422 
L 52.48858 39.966426 
L 55.652216 37.503042 
L 58.815852 34.639122 
L 61.979489 31.805094 
L 65.143125 30.534785 
L 68.306761 31.017805 
L 71.470398 31.938492 
L 74.634034 32.49692 
L 77.79767 33.573648 
L 80.961307 36.790657 
L 84.124943 43.969111 
L 87.28858 54.017612 
L 90.452216 62.904632 
L 93.615852 68.29811 
L 96.779489 71.407496 
L 99.943125 73.071138 
L 103.106761 73.178557 
L 106.270398 71.95856 
L 109.434034 69.968706 
L 112.59767 67.63495 
L 115.761307 65.350516 
L 118.924943 63.180479 
L 122.08858 60.438754 
L 125.252216 57.215041 
L 128.415852 54.270595 
L 131.579489 51.581277 
L 134.743125 48.45847 
L 137.906761 45.358133 
L 141.070398 42.675367 
L 144.234034 39.856539 
L 147.39767 37.138108 
L 150.561307 35.309611 
L 153.724943 34.397899 
L 156.88858 33.692032 
" clip-path="url(#p61615a991a)" style="fill: none; stroke: #9dbb91; stroke-width: 1.5; stroke-linecap: round"/>
   </g>
   <g id="line2d_16">
    <path d="M 42.99767 45.393235 
L 46.161307 43.25557 
L 49.324943 38.774927 
L 52.48858 34.310968 
L 55.652216 30.180211 
L 58.815852 25.596906 
L 61.979489 22.793668 
L 65.143125 24.782272 
L 68.306761 29.235466 
L 71.470398 33.070126 
L 74.634034 36.75883 
L 77.79767 40.117158 
L 80.961307 41.820678 
L 84.124943 45.086402 
L 87.28858 53.729445 
L 90.452216 64.405222 
L 93.615852 70.349995 
L 96.779489 71.710059 
L 99.943125 71.708138 
L 103.106761 70.14534 
L 106.270398 66.798058 
L 109.434034 63.081767 
L 112.59767 60.66701 
L 115.761307 60.364987 
L 118.924943 61.570664 
L 122.08858 60.72858 
L 125.252216 56.349473 
L 128.415852 51.687655 
L 131.579489 50.5054 
L 134.743125 50.422509 
L 137.906761 48.960869 
L 141.070398 45.943391 
L 144.234034 43.095927 
L 147.39767 41.064175 
L 150.561307 39.785535 
L 153.724943 39.057238 
L 156.88858 37.046157 
" clip-path="url(#p61615a991a)" style="fill: none; stroke: #4f8438; stroke-width: 1.5; stroke-linecap: round"/>
   </g>
   <g id="patch_4">
    <path d="M 37.303125 80.64 
L 37.303125 11.52 
" style="fill: none; stroke: #000000; stroke-linejoin: miter; stroke-linecap: square"/>
   </g>
   <g id="patch_5">
    <path d="M 37.303125 80.64 
L 162.583125 80.64 
" style="fill: none; stroke: #000000; stroke-linejoin: miter; stroke-linecap: square"/>
   </g>
   <g id="PathCollection_1">
    <defs>
     <path id="m990858d889" d="M 0 2.236068 
C 0.593012 2.236068 1.161816 2.000462 1.581139 1.581139 
C 2.000462 1.161816 2.236068 0.593012 2.236068 0 
C 2.236068 -0.593012 2.000462 -1.161816 1.581139 -1.581139 
C 1.161816 -2.000462 0.593012 -2.236068 0 -2.236068 
C -0.593012 -2.236068 -1.161816 -2.000462 -1.581139 -1.581139 
C -2.000462 -1.161816 -2.236068 -0.593012 -2.236068 0 
C -2.236068 0.593012 -2.000462 1.161816 -1.581139 1.581139 
C -1.161816 2.000462 -0.593012 2.236068 0 2.236068 
z
" style="stroke: #7865db"/>
    </defs>
    <g clip-path="url(#p61615a991a)">
     <use xlink:href="#m990858d889" x="87.28858" y="36.064179" style="fill: #7865db; stroke: #7865db"/>
    </g>
   </g>
   <g id="PathCollection_2">
    <defs>
     <path id="mba0d6a899b" d="M 0 2.236068 
C 0.593012 2.236068 1.161816 2.000462 1.581139 1.581139 
C 2.000462 1.161816 2.236068 0.593012 2.236068 0 
C 2.236068 -0.593012 2.000462 -1.161816 1.581139 -1.581139 
C 1.161816 -2.000462 0.593012 -2.236068 0 -2.236068 
C -0.593012 -2.236068 -1.161816 -2.000462 -1.581139 -1.581139 
C -2.000462 -1.161816 -2.236068 -0.593012 -2.236068 0 
C -2.236068 0.593012 -2.000462 1.161816 -1.581139 1.581139 
C -1.161816 2.000462 -0.593012 2.236068 0 2.236068 
z
" style="stroke: #b5ace7"/>
    </defs>
    <g clip-path="url(#p61615a991a)">
     <use xlink:href="#mba0d6a899b" x="87.28858" y="44.352882" style="fill: #b5ace7; stroke: #b5ace7"/>
    </g>
   </g>
   <g id="PathCollection_3">
    <defs>
     <path id="m2ef31d2e55" d="M 0 2.236068 
C 0.593012 2.236068 1.161816 2.000462 1.581139 1.581139 
C 2.000462 1.161816 2.236068 0.593012 2.236068 0 
C 2.236068 -0.593012 2.000462 -1.161816 1.581139 -1.581139 
C 1.161816 -2.000462 0.593012 -2.236068 0 -2.236068 
C -0.593012 -2.236068 -1.161816 -2.000462 -1.581139 -1.581139 
C -2.000462 -1.161816 -2.236068 -0.593012 -2.236068 0 
C -2.236068 0.593012 -2.000462 1.161816 -1.581139 1.581139 
C -1.161816 2.000462 -0.593012 2.236068 0 2.236068 
z
" style="stroke: #a8aaa7"/>
    </defs>
    <g clip-path="url(#p61615a991a)">
     <use xlink:href="#m2ef31d2e55" x="87.28858" y="51.88062" style="fill: #a8aaa7; stroke: #a8aaa7"/>
    </g>
   </g>
   <g id="PathCollection_4">
    <defs>
     <path id="m0dc5f44548" d="M 0 2.236068 
C 0.593012 2.236068 1.161816 2.000462 1.581139 1.581139 
C 2.000462 1.161816 2.236068 0.593012 2.236068 0 
C 2.236068 -0.593012 2.000462 -1.161816 1.581139 -1.581139 
C 1.161816 -2.000462 0.593012 -2.236068 0 -2.236068 
C -0.593012 -2.236068 -1.161816 -2.000462 -1.581139 -1.581139 
C -2.000462 -1.161816 -2.236068 -0.593012 -2.236068 0 
C -2.236068 0.593012 -2.000462 1.161816 -1.581139 1.581139 
C -1.161816 2.000462 -0.593012 2.236068 0 2.236068 
z
" style="stroke: #9dbb91"/>
    </defs>
    <g clip-path="url(#p61615a991a)">
     <use xlink:href="#m0dc5f44548" x="87.28858" y="54.017612" style="fill: #9dbb91; stroke: #9dbb91"/>
    </g>
   </g>
   <g id="PathCollection_5">
    <defs>
     <path id="m1cc38e16d3" d="M 0 2.236068 
C 0.593012 2.236068 1.161816 2.000462 1.581139 1.581139 
C 2.000462 1.161816 2.236068 0.593012 2.236068 0 
C 2.236068 -0.593012 2.000462 -1.161816 1.581139 -1.581139 
C 1.161816 -2.000462 0.593012 -2.236068 0 -2.236068 
C -0.593012 -2.236068 -1.161816 -2.000462 -1.581139 -1.581139 
C -2.000462 -1.161816 -2.236068 -0.593012 -2.236068 0 
C -2.236068 0.593012 -2.000462 1.161816 -1.581139 1.581139 
C -1.161816 2.000462 -0.593012 2.236068 0 2.236068 
z
" style="stroke: #4f8438"/>
    </defs>
    <g clip-path="url(#p61615a991a)">
     <use xlink:href="#m1cc38e16d3" x="87.28858" y="53.729445" style="fill: #4f8438; stroke: #4f8438"/>
    </g>
   </g>
  </g>
  <g id="axes_2">
   <g id="patch_6">
    <path d="M 175.543125 80.64 
L 300.823125 80.64 
L 300.823125 11.52 
L 175.543125 11.52 
z
" style="fill: #ffffff"/>
   </g>
   <g id="patch_7">
    <path d="M 228.692216 80.64 
L 250.83767 80.64 
L 250.83767 11.52 
L 228.692216 11.52 
z
" clip-path="url(#p27c2397fa6)" style="fill: #ffc861; opacity: 0.1"/>
   </g>
   <g id="matplotlib.axis_3">
    <g id="xtick_7">
     <g id="line2d_17">
      <g>
       <use xlink:href="#mf7e9c018b9" x="184.401307" y="80.64" style="stroke: #000000"/>
      </g>
     </g>
     <g id="text_11">
      <!-- −14 -->
      <g style="fill: #262626" transform="translate(177.616307 88.86625) scale(0.08 -0.08)">
       <use xlink:href="#ArialMT-2212"/>
       <use xlink:href="#ArialMT-31" transform="translate(58.398438 0)"/>
       <use xlink:href="#ArialMT-34" transform="translate(114.013672 0)"/>
      </g>
     </g>
    </g>
    <g id="xtick_8">
     <g id="line2d_18">
      <g>
       <use xlink:href="#mf7e9c018b9" x="206.546761" y="80.64" style="stroke: #000000"/>
      </g>
     </g>
     <g id="text_12">
      <!-- −7 -->
      <g style="fill: #262626" transform="translate(201.986136 88.86625) scale(0.08 -0.08)">
       <use xlink:href="#ArialMT-2212"/>
       <use xlink:href="#ArialMT-37" transform="translate(58.398438 0)"/>
      </g>
     </g>
    </g>
    <g id="xtick_9">
     <g id="line2d_19">
      <path d="M 228.692216 80.64 
L 228.692216 11.52 
" clip-path="url(#p27c2397fa6)" style="fill: none; stroke: #cccccc; stroke-width: 1.1; stroke-linecap: round"/>
     </g>
     <g id="line2d_20">
      <g>
       <use xlink:href="#mf7e9c018b9" x="228.692216" y="80.64" style="stroke: #000000"/>
      </g>
     </g>
     <g id="text_13">
      <!-- 0 -->
      <g style="fill: #262626" transform="translate(226.467841 88.86625) scale(0.08 -0.08)">
       <use xlink:href="#ArialMT-30"/>
      </g>
     </g>
    </g>
    <g id="xtick_10">
     <g id="line2d_21">
      <g>
       <use xlink:href="#mf7e9c018b9" x="250.83767" y="80.64" style="stroke: #000000"/>
      </g>
     </g>
     <g id="text_14">
      <!-- 7 -->
      <g style="fill: #262626" transform="translate(248.613295 88.86625) scale(0.08 -0.08)">
       <use xlink:href="#ArialMT-37"/>
      </g>
     </g>
    </g>
    <g id="xtick_11">
     <g id="line2d_22">
      <g>
       <use xlink:href="#mf7e9c018b9" x="272.983125" y="80.64" style="stroke: #000000"/>
      </g>
     </g>
     <g id="text_15">
      <!-- 14 -->
      <g style="fill: #262626" transform="translate(268.534375 88.86625) scale(0.08 -0.08)">
       <use xlink:href="#ArialMT-31"/>
       <use xlink:href="#ArialMT-34" transform="translate(55.615234 0)"/>
      </g>
     </g>
    </g>
    <g id="xtick_12">
     <g id="line2d_23">
      <g>
       <use xlink:href="#mf7e9c018b9" x="295.12858" y="80.64" style="stroke: #000000"/>
      </g>
     </g>
     <g id="text_16">
      <!-- 21 -->
      <g style="fill: #262626" transform="translate(290.67983 88.86625) scale(0.08 -0.08)">
       <use xlink:href="#ArialMT-32"/>
       <use xlink:href="#ArialMT-31" transform="translate(55.615234 0)"/>
      </g>
     </g>
    </g>
    <g id="text_17">
     <!-- Cycle Day -->
     <g style="fill: #262626" transform="translate(218.13425 100.862375) scale(0.088 -0.088)">
      <use xlink:href="#ArialMT-43"/>
      <use xlink:href="#ArialMT-79" transform="translate(72.216797 0)"/>
      <use xlink:href="#ArialMT-63" transform="translate(122.216797 0)"/>
      <use xlink:href="#ArialMT-6c" transform="translate(172.216797 0)"/>
      <use xlink:href="#ArialMT-65" transform="translate(194.433594 0)"/>
      <use xlink:href="#ArialMT-20" transform="translate(250.048828 0)"/>
      <use xlink:href="#ArialMT-44" transform="translate(277.832031 0)"/>
      <use xlink:href="#ArialMT-61" transform="translate(350.048828 0)"/>
      <use xlink:href="#ArialMT-79" transform="translate(405.664062 0)"/>
     </g>
    </g>
   </g>
   <g id="matplotlib.axis_4">
    <g id="ytick_3">
     <g id="line2d_24">
      <path d="M 175.543125 50.184287 
L 300.823125 50.184287 
" clip-path="url(#p27c2397fa6)" style="fill: none; stroke: #cccccc; stroke-width: 0.5; stroke-linecap: round"/>
     </g>
     <g id="line2d_25">
      <g>
       <use xlink:href="#md1d50ee7a5" x="175.543125" y="50.184287" style="stroke: #000000"/>
      </g>
     </g>
    </g>
    <g id="ytick_4">
     <g id="line2d_26">
      <path d="M 175.543125 17.130971 
L 300.823125 17.130971 
" clip-path="url(#p27c2397fa6)" style="fill: none; stroke: #cccccc; stroke-width: 0.5; stroke-linecap: round"/>
     </g>
     <g id="line2d_27">
      <g>
       <use xlink:href="#md1d50ee7a5" x="175.543125" y="17.130971" style="stroke: #000000"/>
      </g>
     </g>
    </g>
   </g>
   <g id="FillBetweenPolyCollection_6">
    <defs>
     <path id="md3b7f608bf" d="M 181.23767 -58.419196 
L 181.23767 -51.575742 
L 184.401307 -55.339441 
L 187.564943 -58.388788 
L 190.72858 -61.162165 
L 193.892216 -62.700399 
L 197.055852 -63.081654 
L 200.219489 -63.579895 
L 203.383125 -65.739679 
L 206.546761 -68.464393 
L 209.710398 -71.543687 
L 212.874034 -71.999171 
L 216.03767 -69.608546 
L 219.201307 -66.090594 
L 222.364943 -62.543024 
L 225.52858 -58.24968 
L 228.692216 -54.417026 
L 231.855852 -52.257359 
L 235.019489 -50.667615 
L 238.183125 -48.5568 
L 241.346761 -46.234387 
L 244.510398 -46.025774 
L 247.674034 -46.066604 
L 250.83767 -45.016921 
L 254.001307 -44.54066 
L 257.164943 -44.982206 
L 260.32858 -46.327588 
L 263.492216 -48.102752 
L 266.655852 -50.388115 
L 269.819489 -54.513567 
L 272.983125 -57.796564 
L 276.146761 -60.166606 
L 279.310398 -62.201831 
L 282.474034 -63.846123 
L 285.63767 -65.628437 
L 288.801307 -67.021422 
L 291.964943 -68.888978 
L 295.12858 -70.405742 
L 295.12858 -77.569476 
L 295.12858 -77.569476 
L 291.964943 -76.085304 
L 288.801307 -75.221434 
L 285.63767 -73.70604 
L 282.474034 -72.015395 
L 279.310398 -70.129537 
L 276.146761 -67.791103 
L 272.983125 -65.224174 
L 269.819489 -61.677005 
L 266.655852 -58.321843 
L 263.492216 -55.376248 
L 260.32858 -54.169447 
L 257.164943 -52.739062 
L 254.001307 -52.372996 
L 250.83767 -53.094502 
L 247.674034 -53.668794 
L 244.510398 -54.236635 
L 241.346761 -53.925719 
L 238.183125 -55.928677 
L 235.019489 -58.376541 
L 231.855852 -59.48082 
L 228.692216 -61.622547 
L 225.52858 -65.298871 
L 222.364943 -69.434334 
L 219.201307 -72.828847 
L 216.03767 -76.368162 
L 212.874034 -79.329917 
L 209.710398 -78.715038 
L 206.546761 -75.881843 
L 203.383125 -72.870338 
L 200.219489 -70.649344 
L 197.055852 -70.185431 
L 193.892216 -70.557745 
L 190.72858 -68.670001 
L 187.564943 -65.46358 
L 184.401307 -62.58008 
L 181.23767 -58.419196 
z
"/>
    </defs>
    <g clip-path="url(#p27c2397fa6)">
     <use xlink:href="#md3b7f608bf" x="0" y="109.9145" style="fill: #7865db; fill-opacity: 0.2"/>
    </g>
   </g>
   <g id="FillBetweenPolyCollection_7">
    <defs>
     <path id="m48102795e6" d="M 181.23767 -59.842489 
L 181.23767 -56.267407 
L 184.401307 -58.076087 
L 187.564943 -59.924816 
L 190.72858 -61.84619 
L 193.892216 -63.575127 
L 197.055852 -65.810042 
L 200.219489 -68.753597 
L 203.383125 -71.853008 
L 206.546761 -74.039238 
L 209.710398 -75.275888 
L 212.874034 -75.317664 
L 216.03767 -73.517174 
L 219.201307 -70.054945 
L 222.364943 -64.238289 
L 225.52858 -56.413184 
L 228.692216 -49.610141 
L 231.855852 -45.053911 
L 235.019489 -42.21525 
L 238.183125 -41.792538 
L 241.346761 -42.711332 
L 244.510398 -44.603152 
L 247.674034 -46.03733 
L 250.83767 -46.230925 
L 254.001307 -46.293456 
L 257.164943 -47.590836 
L 260.32858 -49.451146 
L 263.492216 -51.675958 
L 266.655852 -54.345084 
L 269.819489 -57.246816 
L 272.983125 -60.028586 
L 276.146761 -62.697992 
L 279.310398 -64.890189 
L 282.474034 -67.313292 
L 285.63767 -69.661733 
L 288.801307 -72.232838 
L 291.964943 -73.889534 
L 295.12858 -75.135851 
L 295.12858 -78.974159 
L 295.12858 -78.974159 
L 291.964943 -77.922071 
L 288.801307 -76.023031 
L 285.63767 -73.870043 
L 282.474034 -71.235532 
L 279.310398 -68.74809 
L 276.146761 -66.706793 
L 272.983125 -63.924238 
L 269.819489 -61.071393 
L 266.655852 -58.028202 
L 263.492216 -55.322565 
L 260.32858 -52.974805 
L 257.164943 -51.195703 
L 254.001307 -50.037269 
L 250.83767 -50.168804 
L 247.674034 -49.807649 
L 244.510398 -48.208342 
L 241.346761 -46.258796 
L 238.183125 -45.162212 
L 235.019489 -45.905609 
L 231.855852 -48.536266 
L 228.692216 -52.888801 
L 225.52858 -59.974417 
L 222.364943 -67.779404 
L 219.201307 -73.633772 
L 216.03767 -76.920979 
L 212.874034 -78.513019 
L 209.710398 -78.740128 
L 206.546761 -77.510813 
L 203.383125 -75.272746 
L 200.219489 -72.080101 
L 197.055852 -69.047494 
L 193.892216 -66.883506 
L 190.72858 -65.120643 
L 187.564943 -63.508378 
L 184.401307 -61.461668 
L 181.23767 -59.842489 
z
"/>
    </defs>
    <g clip-path="url(#p27c2397fa6)">
     <use xlink:href="#m48102795e6" x="0" y="109.9145" style="fill: #b5ace7; fill-opacity: 0.2"/>
    </g>
   </g>
   <g id="FillBetweenPolyCollection_8">
    <defs>
     <path id="mfe7e99044d" d="M 181.23767 -60.674189 
L 181.23767 -59.499398 
L 184.401307 -62.3021 
L 187.564943 -64.480382 
L 190.72858 -66.251499 
L 193.892216 -68.117894 
L 197.055852 -70.47023 
L 200.219489 -73.277454 
L 203.383125 -76.23314 
L 206.546761 -78.848605 
L 209.710398 -80.389282 
L 212.874034 -80.357901 
L 216.03767 -78.645645 
L 219.201307 -74.79901 
L 222.364943 -67.713419 
L 225.52858 -58.306069 
L 228.692216 -49.707784 
L 231.855852 -43.824266 
L 235.019489 -40.268819 
L 238.183125 -38.720701 
L 241.346761 -38.660974 
L 244.510398 -39.668879 
L 247.674034 -41.071825 
L 250.83767 -42.852589 
L 254.001307 -45.047614 
L 257.164943 -47.541066 
L 260.32858 -50.391007 
L 263.492216 -53.509887 
L 266.655852 -56.466974 
L 269.819489 -59.011983 
L 272.983125 -61.484993 
L 276.146761 -63.850095 
L 279.310398 -65.960897 
L 282.474034 -68.144745 
L 285.63767 -70.730216 
L 288.801307 -73.220561 
L 291.964943 -75.413247 
L 295.12858 -76.709898 
L 295.12858 -77.967653 
L 295.12858 -77.967653 
L 291.964943 -76.642073 
L 288.801307 -74.552721 
L 285.63767 -72.03061 
L 282.474034 -69.464747 
L 279.310398 -67.212924 
L 276.146761 -65.115206 
L 272.983125 -62.743139 
L 269.819489 -60.236301 
L 266.655852 -57.66172 
L 263.492216 -54.709651 
L 260.32858 -51.612842 
L 257.164943 -48.757221 
L 254.001307 -46.22099 
L 250.83767 -44.009663 
L 247.674034 -42.242422 
L 244.510398 -40.780308 
L 241.346761 -39.860497 
L 238.183125 -39.836306 
L 235.019489 -41.472105 
L 231.855852 -45.047848 
L 228.692216 -50.931586 
L 225.52858 -59.508003 
L 222.364943 -68.843123 
L 219.201307 -75.999787 
L 216.03767 -79.808683 
L 212.874034 -81.562046 
L 209.710398 -81.559593 
L 206.546761 -80.013345 
L 203.383125 -77.395649 
L 200.219489 -74.423082 
L 197.055852 -71.68454 
L 193.892216 -69.297551 
L 190.72858 -67.463874 
L 187.564943 -65.652044 
L 184.401307 -63.525275 
L 181.23767 -60.674189 
z
"/>
    </defs>
    <g clip-path="url(#p27c2397fa6)">
     <use xlink:href="#mfe7e99044d" x="0" y="109.9145" style="fill: #a8aaa7; fill-opacity: 0.2"/>
    </g>
   </g>
   <g id="FillBetweenPolyCollection_9">
    <defs>
     <path id="m91b4689fed" d="M 181.23767 -61.916164 
L 181.23767 -58.096856 
L 184.401307 -61.802044 
L 187.564943 -65.089229 
L 190.72858 -68.556502 
L 193.892216 -71.469324 
L 197.055852 -74.486856 
L 200.219489 -77.583682 
L 203.383125 -80.776588 
L 206.546761 -82.975416 
L 209.710398 -84.594794 
L 212.874034 -85.41871 
L 216.03767 -83.765516 
L 219.201307 -78.897414 
L 222.364943 -70.5469 
L 225.52858 -59.38553 
L 228.692216 -48.699967 
L 231.855852 -41.648401 
L 235.019489 -38.251862 
L 238.183125 -37.210746 
L 241.346761 -36.846417 
L 244.510398 -36.464891 
L 247.674034 -37.156794 
L 250.83767 -39.590647 
L 254.001307 -43.108018 
L 257.164943 -46.998045 
L 260.32858 -50.412311 
L 263.492216 -53.67285 
L 266.655852 -56.598672 
L 269.819489 -59.386126 
L 272.983125 -61.528272 
L 276.146761 -63.469039 
L 279.310398 -65.737786 
L 282.474034 -68.232401 
L 285.63767 -70.579372 
L 288.801307 -72.412185 
L 291.964943 -74.520073 
L 295.12858 -76.180519 
L 295.12858 -80.132528 
L 295.12858 -80.132528 
L 291.964943 -78.27293 
L 288.801307 -76.449934 
L 285.63767 -74.322799 
L 282.474034 -71.924398 
L 279.310398 -69.454281 
L 276.146761 -67.474677 
L 272.983125 -65.370586 
L 269.819489 -63.089871 
L 266.655852 -60.40297 
L 263.492216 -57.34219 
L 260.32858 -54.474512 
L 257.164943 -50.91779 
L 254.001307 -46.898536 
L 250.83767 -43.296005 
L 247.674034 -40.955487 
L 244.510398 -40.113158 
L 241.346761 -40.548333 
L 238.183125 -40.987048 
L 235.019489 -42.115193 
L 231.855852 -45.309085 
L 228.692216 -52.413681 
L 225.52858 -63.608391 
L 222.364943 -74.786107 
L 219.201307 -82.932289 
L 216.03767 -87.600902 
L 212.874034 -89.127163 
L 209.710398 -88.706537 
L 206.546761 -87.110688 
L 203.383125 -84.887035 
L 200.219489 -81.517954 
L 197.055852 -78.449385 
L 193.892216 -75.651021 
L 190.72858 -72.467804 
L 187.564943 -69.029485 
L 184.401307 -65.460751 
L 181.23767 -61.916164 
z
"/>
    </defs>
    <g clip-path="url(#p27c2397fa6)">
     <use xlink:href="#m91b4689fed" x="0" y="109.9145" style="fill: #9dbb91; fill-opacity: 0.2"/>
    </g>
   </g>
   <g id="FillBetweenPolyCollection_10">
    <defs>
     <path id="m6044d301bb" d="M 181.23767 -66.163462 
L 181.23767 -57.228897 
L 184.401307 -59.955836 
L 187.564943 -61.854641 
L 190.72858 -64.525551 
L 193.892216 -68.362863 
L 197.055852 -73.084878 
L 200.219489 -79.234962 
L 203.383125 -82.555259 
L 206.546761 -82.165759 
L 209.710398 -83.314419 
L 212.874034 -84.703243 
L 216.03767 -85.722644 
L 219.201307 -84.214206 
L 222.364943 -77.52973 
L 225.52858 -65.47456 
L 228.692216 -51.734694 
L 231.855852 -41.08853 
L 235.019489 -35.624708 
L 238.183125 -33.412973 
L 241.346761 -33.70544 
L 244.510398 -32.416318 
L 247.674034 -32.568673 
L 250.83767 -34.852659 
L 254.001307 -38.982909 
L 257.164943 -43.035165 
L 260.32858 -47.105762 
L 263.492216 -50.50405 
L 266.655852 -51.946641 
L 269.819489 -52.019555 
L 272.983125 -55.300869 
L 276.146761 -59.438418 
L 279.310398 -63.331851 
L 282.474034 -64.942558 
L 285.63767 -67.41084 
L 288.801307 -71.23427 
L 291.964943 -72.58195 
L 295.12858 -71.892748 
L 295.12858 -81.390372 
L 295.12858 -81.390372 
L 291.964943 -82.197222 
L 288.801307 -81.319693 
L 285.63767 -77.222435 
L 282.474034 -74.216613 
L 279.310398 -72.973489 
L 276.146761 -69.177711 
L 272.983125 -64.386001 
L 269.819489 -61.173938 
L 266.655852 -60.532117 
L 263.492216 -59.243516 
L 260.32858 -56.154355 
L 257.164943 -52.032599 
L 254.001307 -47.705096 
L 250.83767 -44.160935 
L 247.674034 -41.859988 
L 244.510398 -41.153907 
L 241.346761 -42.43633 
L 238.183125 -42.668319 
L 235.019489 -44.835982 
L 231.855852 -50.449337 
L 228.692216 -61.821575 
L 225.52858 -74.974364 
L 222.364943 -87.162506 
L 219.201307 -94.265612 
L 216.03767 -95.252682 
L 212.874034 -93.746609 
L 209.710398 -91.681972 
L 206.546761 -91.990227 
L 203.383125 -92.59079 
L 200.219489 -89.41262 
L 197.055852 -82.867098 
L 193.892216 -77.641596 
L 190.72858 -73.837734 
L 187.564943 -71.232767 
L 184.401307 -69.284883 
L 181.23767 -66.163462 
z
"/>
    </defs>
    <g clip-path="url(#p27c2397fa6)">
     <use xlink:href="#m6044d301bb" x="0" y="109.9145" style="fill: #4f8438; fill-opacity: 0.2"/>
    </g>
   </g>
   <g id="line2d_28">
    <path d="M 181.23767 54.89438 
L 184.401307 51.086087 
L 187.564943 48.014929 
L 190.72858 45.048836 
L 193.892216 43.288991 
L 197.055852 43.119027 
L 200.219489 42.764636 
L 203.383125 40.795802 
L 206.546761 37.696956 
L 209.710398 34.725452 
L 212.874034 34.285599 
L 216.03767 36.887004 
L 219.201307 40.367645 
L 222.364943 43.923747 
L 225.52858 48.154911 
L 228.692216 51.954302 
L 231.855852 54.078816 
L 235.019489 55.531417 
L 238.183125 57.845753 
L 241.346761 59.863845 
L 244.510398 59.937796 
L 247.674034 59.784024 
L 250.83767 60.86476 
L 254.001307 61.765863 
L 257.164943 61.221155 
L 260.32858 59.794268 
L 263.492216 58.095128 
L 266.655852 55.569044 
L 269.819489 51.754902 
L 272.983125 48.214901 
L 276.146761 46.006394 
L 279.310398 43.982255 
L 282.474034 41.704693 
L 285.63767 40.091948 
L 288.801307 38.666143 
L 291.964943 37.405016 
L 295.12858 35.994049 
" clip-path="url(#p27c2397fa6)" style="fill: none; stroke: #7865db; stroke-width: 1.5; stroke-linecap: round"/>
   </g>
   <g id="line2d_29">
    <path d="M 181.23767 51.893565 
L 184.401307 50.067183 
L 187.564943 48.214869 
L 190.72858 46.417158 
L 193.892216 44.7251 
L 197.055852 42.503004 
L 200.219489 39.422221 
L 203.383125 36.310418 
L 206.546761 34.093016 
L 209.710398 32.924155 
L 212.874034 33.023345 
L 216.03767 34.697038 
L 219.201307 38.095665 
L 222.364943 43.973591 
L 225.52858 51.748934 
L 228.692216 58.686438 
L 231.855852 63.243353 
L 235.019489 65.811925 
L 238.183125 66.441242 
L 241.346761 65.404411 
L 244.510398 63.473493 
L 247.674034 62.024175 
L 250.83767 61.723017 
L 254.001307 61.717849 
L 257.164943 60.605836 
L 260.32858 58.767922 
L 263.492216 56.469475 
L 266.655852 53.648544 
L 269.819489 50.728396 
L 272.983125 47.93051 
L 276.146761 45.245056 
L 279.310398 43.049156 
L 282.474034 40.678233 
L 285.63767 38.174587 
L 288.801307 35.859646 
L 291.964943 34.043465 
L 295.12858 32.855644 
" clip-path="url(#p27c2397fa6)" style="fill: none; stroke: #b5ace7; stroke-width: 1.5; stroke-linecap: round"/>
   </g>
   <g id="line2d_30">
    <path d="M 181.23767 49.781745 
L 184.401307 47.009383 
L 187.564943 44.828194 
L 190.72858 43.049327 
L 193.892216 41.209508 
L 197.055852 38.850958 
L 200.219489 36.049547 
L 203.383125 33.108017 
L 206.546761 30.506052 
L 209.710398 28.946955 
L 212.874034 28.965084 
L 216.03767 30.664737 
L 219.201307 34.549125 
L 222.364943 41.625374 
L 225.52858 50.99063 
L 228.692216 59.572309 
L 231.855852 65.488173 
L 235.019489 69.030273 
L 238.183125 70.625334 
L 241.346761 70.633766 
L 244.510398 69.688521 
L 247.674034 68.267789 
L 250.83767 66.471117 
L 254.001307 64.295981 
L 257.164943 61.792921 
L 260.32858 58.926604 
L 263.492216 55.786201 
L 266.655852 52.840851 
L 269.819489 50.268258 
L 272.983125 47.812815 
L 276.146761 45.406494 
L 279.310398 43.323818 
L 282.474034 41.121249 
L 285.63767 38.555506 
L 288.801307 36.005563 
L 291.964943 33.904532 
L 295.12858 32.580335 
" clip-path="url(#p27c2397fa6)" style="fill: none; stroke: #a8aaa7; stroke-width: 1.5; stroke-linecap: round"/>
   </g>
   <g id="line2d_31">
    <path d="M 181.23767 49.918684 
L 184.401307 46.253859 
L 187.564943 42.854859 
L 190.72858 39.420153 
L 193.892216 36.254519 
L 197.055852 33.377155 
L 200.219489 30.262377 
L 203.383125 27.181764 
L 206.546761 24.831725 
L 209.710398 23.257375 
L 212.874034 22.715015 
L 216.03767 24.341596 
L 219.201307 29.016853 
L 222.364943 37.318956 
L 225.52858 48.509952 
L 228.692216 59.336917 
L 231.855852 66.395969 
L 235.019489 69.715731 
L 238.183125 70.920988 
L 241.346761 71.328621 
L 244.510398 71.561613 
L 247.674034 70.908503 
L 250.83767 68.489896 
L 254.001307 64.876994 
L 257.164943 61.050654 
L 260.32858 57.490815 
L 263.492216 54.389707 
L 266.655852 51.410793 
L 269.819489 48.631726 
L 272.983125 46.360554 
L 276.146761 44.450972 
L 279.310398 42.268582 
L 282.474034 39.81515 
L 285.63767 37.559492 
L 288.801307 35.478503 
L 291.964943 33.466412 
L 295.12858 31.719188 
" clip-path="url(#p27c2397fa6)" style="fill: none; stroke: #9dbb91; stroke-width: 1.5; stroke-linecap: round"/>
   </g>
   <g id="line2d_32">
    <path d="M 181.23767 48.307846 
L 184.401307 45.396538 
L 187.564943 43.381152 
L 190.72858 40.656437 
L 193.892216 37.058153 
L 197.055852 31.660385 
L 200.219489 25.468029 
L 203.383125 22.570247 
L 206.546761 22.745557 
L 209.710398 22.378658 
L 212.874034 20.661087 
L 216.03767 19.317597 
L 219.201307 20.767281 
L 222.364943 27.610993 
L 225.52858 39.754077 
L 228.692216 53.3557 
L 231.855852 64.112195 
L 235.019489 69.869521 
L 238.183125 71.735835 
L 241.346761 72.318128 
L 244.510398 72.949511 
L 247.674034 72.759063 
L 250.83767 70.504773 
L 254.001307 66.702719 
L 257.164943 62.484052 
L 260.32858 58.293619 
L 263.492216 55.076221 
L 266.655852 53.790673 
L 269.819489 53.100347 
L 272.983125 50.241868 
L 276.146761 45.454908 
L 279.310398 41.867082 
L 282.474034 40.495131 
L 285.63767 37.352447 
L 288.801307 33.501224 
L 291.964943 32.341655 
L 295.12858 32.887235 
" clip-path="url(#p27c2397fa6)" style="fill: none; stroke: #4f8438; stroke-width: 1.5; stroke-linecap: round"/>
   </g>
   <g id="patch_8">
    <path d="M 175.543125 80.64 
L 175.543125 11.52 
" style="fill: none; stroke: #000000; stroke-linejoin: miter; stroke-linecap: square"/>
   </g>
   <g id="patch_9">
    <path d="M 175.543125 80.64 
L 300.823125 80.64 
" style="fill: none; stroke: #000000; stroke-linejoin: miter; stroke-linecap: square"/>
   </g>
   <g id="PathCollection_6">
    <g clip-path="url(#p27c2397fa6)">
     <use xlink:href="#m990858d889" x="247.674034" y="59.784024" style="fill: #7865db; stroke: #7865db"/>
    </g>
   </g>
   <g id="PathCollection_7">
    <g clip-path="url(#p27c2397fa6)">
     <use xlink:href="#mba0d6a899b" x="247.674034" y="62.024175" style="fill: #b5ace7; stroke: #b5ace7"/>
    </g>
   </g>
   <g id="PathCollection_8">
    <g clip-path="url(#p27c2397fa6)">
     <use xlink:href="#m2ef31d2e55" x="247.674034" y="68.267789" style="fill: #a8aaa7; stroke: #a8aaa7"/>
    </g>
   </g>
   <g id="PathCollection_9">
    <g clip-path="url(#p27c2397fa6)">
     <use xlink:href="#m0dc5f44548" x="247.674034" y="70.908503" style="fill: #9dbb91; stroke: #9dbb91"/>
    </g>
   </g>
   <g id="PathCollection_10">
    <g clip-path="url(#p27c2397fa6)">
     <use xlink:href="#m1cc38e16d3" x="247.674034" y="72.759063" style="fill: #4f8438; stroke: #4f8438"/>
    </g>
   </g>
  </g>
  <g id="axes_3">
   <g id="patch_10">
    <path d="M 313.783125 80.64 
L 439.063125 80.64 
L 439.063125 11.52 
L 313.783125 11.52 
z
" style="fill: #ffffff"/>
   </g>
   <g id="patch_11">
    <path d="M 389.07767 80.64 
L 411.223125 80.64 
L 411.223125 11.52 
L 389.07767 11.52 
z
" clip-path="url(#p861d6e2c9a)" style="fill: #ffc861; opacity: 0.1"/>
   </g>
   <g id="matplotlib.axis_5">
    <g id="xtick_13">
     <g id="line2d_33">
      <g>
       <use xlink:href="#mf7e9c018b9" x="322.641307" y="80.64" style="stroke: #000000"/>
      </g>
     </g>
     <g id="text_18">
      <!-- −14 -->
      <g style="fill: #262626" transform="translate(315.856307 88.86625) scale(0.08 -0.08)">
       <use xlink:href="#ArialMT-2212"/>
       <use xlink:href="#ArialMT-31" transform="translate(58.398438 0)"/>
       <use xlink:href="#ArialMT-34" transform="translate(114.013672 0)"/>
      </g>
     </g>
    </g>
    <g id="xtick_14">
     <g id="line2d_34">
      <g>
       <use xlink:href="#mf7e9c018b9" x="344.786761" y="80.64" style="stroke: #000000"/>
      </g>
     </g>
     <g id="text_19">
      <!-- −7 -->
      <g style="fill: #262626" transform="translate(340.226136 88.86625) scale(0.08 -0.08)">
       <use xlink:href="#ArialMT-2212"/>
       <use xlink:href="#ArialMT-37" transform="translate(58.398438 0)"/>
      </g>
     </g>
    </g>
    <g id="xtick_15">
     <g id="line2d_35">
      <path d="M 366.932216 80.64 
L 366.932216 11.52 
" clip-path="url(#p861d6e2c9a)" style="fill: none; stroke: #cccccc; stroke-width: 1.1; stroke-linecap: round"/>
     </g>
     <g id="line2d_36">
      <g>
       <use xlink:href="#mf7e9c018b9" x="366.932216" y="80.64" style="stroke: #000000"/>
      </g>
     </g>
     <g id="text_20">
      <!-- 0 -->
      <g style="fill: #262626" transform="translate(364.707841 88.86625) scale(0.08 -0.08)">
       <use xlink:href="#ArialMT-30"/>
      </g>
     </g>
    </g>
    <g id="xtick_16">
     <g id="line2d_37">
      <g>
       <use xlink:href="#mf7e9c018b9" x="389.07767" y="80.64" style="stroke: #000000"/>
      </g>
     </g>
     <g id="text_21">
      <!-- 7 -->
      <g style="fill: #262626" transform="translate(386.853295 88.86625) scale(0.08 -0.08)">
       <use xlink:href="#ArialMT-37"/>
      </g>
     </g>
    </g>
    <g id="xtick_17">
     <g id="line2d_38">
      <g>
       <use xlink:href="#mf7e9c018b9" x="411.223125" y="80.64" style="stroke: #000000"/>
      </g>
     </g>
     <g id="text_22">
      <!-- 14 -->
      <g style="fill: #262626" transform="translate(406.774375 88.86625) scale(0.08 -0.08)">
       <use xlink:href="#ArialMT-31"/>
       <use xlink:href="#ArialMT-34" transform="translate(55.615234 0)"/>
      </g>
     </g>
    </g>
    <g id="xtick_18">
     <g id="line2d_39">
      <g>
       <use xlink:href="#mf7e9c018b9" x="433.36858" y="80.64" style="stroke: #000000"/>
      </g>
     </g>
     <g id="text_23">
      <!-- 21 -->
      <g style="fill: #262626" transform="translate(428.91983 88.86625) scale(0.08 -0.08)">
       <use xlink:href="#ArialMT-32"/>
       <use xlink:href="#ArialMT-31" transform="translate(55.615234 0)"/>
      </g>
     </g>
    </g>
    <g id="text_24">
     <!-- Cycle Day -->
     <g style="fill: #262626" transform="translate(356.37425 100.862375) scale(0.088 -0.088)">
      <use xlink:href="#ArialMT-43"/>
      <use xlink:href="#ArialMT-79" transform="translate(72.216797 0)"/>
      <use xlink:href="#ArialMT-63" transform="translate(122.216797 0)"/>
      <use xlink:href="#ArialMT-6c" transform="translate(172.216797 0)"/>
      <use xlink:href="#ArialMT-65" transform="translate(194.433594 0)"/>
      <use xlink:href="#ArialMT-20" transform="translate(250.048828 0)"/>
      <use xlink:href="#ArialMT-44" transform="translate(277.832031 0)"/>
      <use xlink:href="#ArialMT-61" transform="translate(350.048828 0)"/>
      <use xlink:href="#ArialMT-79" transform="translate(405.664062 0)"/>
     </g>
    </g>
   </g>
   <g id="matplotlib.axis_6">
    <g id="ytick_5">
     <g id="line2d_40">
      <path d="M 313.783125 68.720646 
L 439.063125 68.720646 
" clip-path="url(#p861d6e2c9a)" style="fill: none; stroke: #cccccc; stroke-width: 0.5; stroke-linecap: round"/>
     </g>
     <g id="line2d_41">
      <g>
       <use xlink:href="#md1d50ee7a5" x="313.783125" y="68.720646" style="stroke: #000000"/>
      </g>
     </g>
    </g>
    <g id="ytick_6">
     <g id="line2d_42">
      <path d="M 313.783125 50.318566 
L 439.063125 50.318566 
" clip-path="url(#p861d6e2c9a)" style="fill: none; stroke: #cccccc; stroke-width: 0.5; stroke-linecap: round"/>
     </g>
     <g id="line2d_43">
      <g>
       <use xlink:href="#md1d50ee7a5" x="313.783125" y="50.318566" style="stroke: #000000"/>
      </g>
     </g>
    </g>
    <g id="ytick_7">
     <g id="line2d_44">
      <path d="M 313.783125 31.916486 
L 439.063125 31.916486 
" clip-path="url(#p861d6e2c9a)" style="fill: none; stroke: #cccccc; stroke-width: 0.5; stroke-linecap: round"/>
     </g>
     <g id="line2d_45">
      <g>
       <use xlink:href="#md1d50ee7a5" x="313.783125" y="31.916486" style="stroke: #000000"/>
      </g>
     </g>
    </g>
    <g id="ytick_8">
     <g id="line2d_46">
      <path d="M 313.783125 13.514405 
L 439.063125 13.514405 
" clip-path="url(#p861d6e2c9a)" style="fill: none; stroke: #cccccc; stroke-width: 0.5; stroke-linecap: round"/>
     </g>
     <g id="line2d_47">
      <g>
       <use xlink:href="#md1d50ee7a5" x="313.783125" y="13.514405" style="stroke: #000000"/>
      </g>
     </g>
    </g>
   </g>
   <g id="FillBetweenPolyCollection_11">
    <defs>
     <path id="m168428a286" d="M 319.47767 -66.530182 
L 319.47767 -58.178169 
L 322.641307 -59.873528 
L 325.804943 -61.010964 
L 328.96858 -63.418343 
L 332.132216 -66.525374 
L 335.295852 -70.582146 
L 338.459489 -74.461421 
L 341.623125 -77.434592 
L 344.786761 -78.799955 
L 347.950398 -79.319478 
L 351.114034 -78.287985 
L 354.27767 -76.247358 
L 357.441307 -73.117144 
L 360.604943 -65.904343 
L 363.76858 -54.382905 
L 366.932216 -43.26371 
L 370.095852 -36.643828 
L 373.259489 -33.4234 
L 376.423125 -33.69417 
L 379.586761 -33.984954 
L 382.750398 -34.003272 
L 385.914034 -35.951899 
L 389.07767 -43.006638 
L 392.241307 -50.637271 
L 395.404943 -55.709868 
L 398.56858 -59.194279 
L 401.732216 -63.335591 
L 404.895852 -67.767658 
L 408.059489 -69.862606 
L 411.223125 -69.157646 
L 414.386761 -67.831909 
L 417.550398 -68.749251 
L 420.714034 -69.631444 
L 423.87767 -70.376539 
L 427.041307 -72.388282 
L 430.204943 -75.514763 
L 433.36858 -78.507316 
L 433.36858 -88.250769 
L 433.36858 -88.250769 
L 430.204943 -84.840239 
L 427.041307 -80.607821 
L 423.87767 -78.317757 
L 420.714034 -78.415493 
L 417.550398 -76.680599 
L 414.386761 -76.27497 
L 411.223125 -77.879097 
L 408.059489 -79.678993 
L 404.895852 -77.063581 
L 401.732216 -72.577767 
L 398.56858 -68.28735 
L 395.404943 -64.180681 
L 392.241307 -58.725218 
L 389.07767 -50.737645 
L 385.914034 -43.400364 
L 382.750398 -40.821558 
L 379.586761 -41.760023 
L 376.423125 -41.755101 
L 373.259489 -41.090551 
L 370.095852 -44.025138 
L 366.932216 -51.5615 
L 363.76858 -62.169131 
L 360.604943 -73.296638 
L 357.441307 -80.516642 
L 354.27767 -84.235457 
L 351.114034 -86.532422 
L 347.950398 -87.422896 
L 344.786761 -87.546921 
L 341.623125 -85.46108 
L 338.459489 -82.25978 
L 335.295852 -77.841446 
L 332.132216 -73.837998 
L 328.96858 -70.945533 
L 325.804943 -68.68018 
L 322.641307 -67.416873 
L 319.47767 -66.530182 
z
"/>
    </defs>
    <g clip-path="url(#p861d6e2c9a)">
     <use xlink:href="#m168428a286" x="0" y="109.9145" style="fill: #7865db; fill-opacity: 0.2"/>
    </g>
   </g>
   <g id="FillBetweenPolyCollection_12">
    <defs>
     <path id="m1a0e0845aa" d="M 319.47767 -62.997808 
L 319.47767 -59.070994 
L 322.641307 -61.868072 
L 325.804943 -63.798788 
L 328.96858 -65.452223 
L 332.132216 -67.28104 
L 335.295852 -69.686394 
L 338.459489 -73.036657 
L 341.623125 -76.087005 
L 344.786761 -78.234962 
L 347.950398 -79.295796 
L 351.114034 -78.948667 
L 354.27767 -77.056434 
L 357.441307 -72.383273 
L 360.604943 -64.155791 
L 363.76858 -53.445263 
L 366.932216 -43.428089 
L 370.095852 -37.200192 
L 373.259489 -33.86612 
L 376.423125 -32.416318 
L 379.586761 -32.916478 
L 382.750398 -34.746688 
L 385.914034 -37.490331 
L 389.07767 -40.708419 
L 392.241307 -44.720412 
L 395.404943 -49.313399 
L 398.56858 -54.17885 
L 401.732216 -58.858127 
L 404.895852 -62.191624 
L 408.059489 -64.283267 
L 411.223125 -65.188039 
L 414.386761 -66.497095 
L 417.550398 -67.656927 
L 420.714034 -69.474985 
L 423.87767 -71.694111 
L 427.041307 -74.541613 
L 430.204943 -76.69265 
L 433.36858 -78.273063 
L 433.36858 -82.356813 
L 433.36858 -82.356813 
L 430.204943 -80.603267 
L 427.041307 -78.481991 
L 423.87767 -75.746208 
L 420.714034 -73.369858 
L 417.550398 -71.679438 
L 414.386761 -70.515889 
L 411.223125 -69.561918 
L 408.059489 -68.63987 
L 404.895852 -66.618611 
L 401.732216 -62.947149 
L 398.56858 -58.562181 
L 395.404943 -53.094513 
L 392.241307 -48.454612 
L 389.07767 -44.291528 
L 385.914034 -41.094982 
L 382.750398 -38.37494 
L 379.586761 -36.415422 
L 376.423125 -35.955899 
L 373.259489 -37.287312 
L 370.095852 -40.678081 
L 366.932216 -46.941555 
L 363.76858 -57.08791 
L 360.604943 -67.74674 
L 357.441307 -76.210886 
L 354.27767 -80.989837 
L 351.114034 -82.839508 
L 347.950398 -83.111708 
L 344.786761 -82.17371 
L 341.623125 -80.000633 
L 338.459489 -76.893189 
L 335.295852 -73.607536 
L 332.132216 -71.096704 
L 328.96858 -69.415334 
L 325.804943 -67.880149 
L 322.641307 -65.683761 
L 319.47767 -62.997808 
z
"/>
    </defs>
    <g clip-path="url(#p861d6e2c9a)">
     <use xlink:href="#m1a0e0845aa" x="0" y="109.9145" style="fill: #b5ace7; fill-opacity: 0.2"/>
    </g>
   </g>
   <g id="FillBetweenPolyCollection_13">
    <defs>
     <path id="me30f6f36cf" d="M 319.47767 -61.002918 
L 319.47767 -59.675298 
L 322.641307 -62.819162 
L 325.804943 -65.317196 
L 328.96858 -67.288403 
L 332.132216 -69.39167 
L 335.295852 -72.036144 
L 338.459489 -75.103914 
L 341.623125 -78.305291 
L 344.786761 -81.127313 
L 347.950398 -82.804977 
L 351.114034 -82.748838 
L 354.27767 -80.697759 
L 357.441307 -76.203497 
L 360.604943 -68.27207 
L 363.76858 -57.847603 
L 366.932216 -48.30377 
L 370.095852 -41.670591 
L 373.259489 -37.597129 
L 376.423125 -35.741757 
L 379.586761 -35.725439 
L 382.750398 -36.70814 
L 385.914034 -38.280055 
L 389.07767 -40.169932 
L 392.241307 -42.492027 
L 395.404943 -45.262209 
L 398.56858 -48.299533 
L 401.732216 -51.60656 
L 404.895852 -54.973054 
L 408.059489 -58.221833 
L 411.223125 -61.453727 
L 414.386761 -64.422129 
L 417.550398 -66.72001 
L 420.714034 -69.101952 
L 423.87767 -71.810559 
L 427.041307 -74.604224 
L 430.204943 -76.837355 
L 433.36858 -78.25593 
L 433.36858 -79.660837 
L 433.36858 -79.660837 
L 430.204943 -78.291544 
L 427.041307 -76.028685 
L 423.87767 -73.289406 
L 420.714034 -70.482047 
L 417.550398 -68.177916 
L 414.386761 -65.786218 
L 411.223125 -62.776223 
L 408.059489 -59.633803 
L 404.895852 -56.327845 
L 401.732216 -52.953412 
L 398.56858 -49.550703 
L 395.404943 -46.510434 
L 392.241307 -43.885128 
L 389.07767 -41.485764 
L 385.914034 -39.60175 
L 382.750398 -38.037161 
L 379.586761 -37.021735 
L 376.423125 -37.036367 
L 373.259489 -38.988893 
L 370.095852 -42.956312 
L 366.932216 -49.618358 
L 363.76858 -59.182487 
L 360.604943 -69.620164 
L 357.441307 -77.58326 
L 354.27767 -82.10802 
L 351.114034 -84.105257 
L 347.950398 -84.199167 
L 344.786761 -82.549013 
L 341.623125 -79.677931 
L 338.459489 -76.511405 
L 335.295852 -73.318373 
L 332.132216 -70.70364 
L 328.96858 -68.667119 
L 325.804943 -66.679866 
L 322.641307 -64.194586 
L 319.47767 -61.002918 
z
"/>
    </defs>
    <g clip-path="url(#p861d6e2c9a)">
     <use xlink:href="#me30f6f36cf" x="0" y="109.9145" style="fill: #a8aaa7; fill-opacity: 0.2"/>
    </g>
   </g>
   <g id="FillBetweenPolyCollection_14">
    <defs>
     <path id="m36e358516e" d="M 319.47767 -59.958163 
L 319.47767 -56.330069 
L 322.641307 -59.344334 
L 325.804943 -62.924495 
L 328.96858 -65.956835 
L 332.132216 -68.424316 
L 335.295852 -70.905085 
L 338.459489 -74.579358 
L 341.623125 -78.904742 
L 344.786761 -82.096821 
L 347.950398 -84.231387 
L 351.114034 -85.187403 
L 354.27767 -84.243547 
L 357.441307 -80.198021 
L 360.604943 -72.700781 
L 363.76858 -62.562878 
L 366.932216 -53.666777 
L 370.095852 -48.101736 
L 373.259489 -44.825814 
L 376.423125 -43.316816 
L 379.586761 -42.947207 
L 382.750398 -43.245148 
L 385.914034 -42.605049 
L 389.07767 -41.29204 
L 392.241307 -41.257967 
L 395.404943 -43.367765 
L 398.56858 -46.514905 
L 401.732216 -49.73172 
L 404.895852 -52.355118 
L 408.059489 -54.616544 
L 411.223125 -57.009586 
L 414.386761 -60.10125 
L 417.550398 -63.678689 
L 420.714034 -66.928234 
L 423.87767 -70.610903 
L 427.041307 -73.683211 
L 430.204943 -76.152292 
L 433.36858 -77.488371 
L 433.36858 -81.327444 
L 433.36858 -81.327444 
L 430.204943 -80.076248 
L 427.041307 -77.691382 
L 423.87767 -74.31655 
L 420.714034 -70.865556 
L 417.550398 -67.446034 
L 414.386761 -64.023879 
L 411.223125 -60.941998 
L 408.059489 -58.573039 
L 404.895852 -56.241531 
L 401.732216 -53.249549 
L 398.56858 -50.039287 
L 395.404943 -47.172534 
L 392.241307 -44.894438 
L 389.07767 -45.206922 
L 385.914034 -46.589468 
L 382.750398 -47.186238 
L 379.586761 -47.003766 
L 376.423125 -47.340957 
L 373.259489 -48.885029 
L 370.095852 -51.972153 
L 366.932216 -57.764948 
L 363.76858 -66.467718 
L 360.604943 -76.503994 
L 357.441307 -84.12006 
L 354.27767 -88.04299 
L 351.114034 -88.842138 
L 347.950398 -88.188565 
L 344.786761 -85.944398 
L 341.623125 -82.827289 
L 338.459489 -78.606229 
L 335.295852 -74.930739 
L 332.132216 -72.562774 
L 328.96858 -70.12448 
L 325.804943 -66.606253 
L 322.641307 -63.060751 
L 319.47767 -59.958163 
z
"/>
    </defs>
    <g clip-path="url(#p861d6e2c9a)">
     <use xlink:href="#m36e358516e" x="0" y="109.9145" style="fill: #9dbb91; fill-opacity: 0.2"/>
    </g>
   </g>
   <g id="FillBetweenPolyCollection_15">
    <defs>
     <path id="m2cdd1d12e8" d="M 319.47767 -64.354286 
L 319.47767 -55.591093 
L 322.641307 -58.592669 
L 325.804943 -59.350517 
L 328.96858 -61.074277 
L 332.132216 -63.001828 
L 335.295852 -66.194509 
L 338.459489 -71.550302 
L 341.623125 -77.39035 
L 344.786761 -82.531332 
L 347.950398 -83.713362 
L 351.114034 -83.910845 
L 354.27767 -83.435586 
L 357.441307 -81.293885 
L 360.604943 -75.254456 
L 363.76858 -63.875923 
L 366.932216 -52.836105 
L 370.095852 -46.188275 
L 373.259489 -43.386471 
L 376.423125 -42.053523 
L 379.586761 -41.005727 
L 382.750398 -41.940581 
L 385.914034 -41.880066 
L 389.07767 -40.336764 
L 392.241307 -37.654301 
L 395.404943 -36.718407 
L 398.56858 -38.646548 
L 401.732216 -39.915131 
L 404.895852 -41.721066 
L 408.059489 -42.33705 
L 411.223125 -44.125404 
L 414.386761 -47.105301 
L 417.550398 -51.656057 
L 420.714034 -57.199614 
L 423.87767 -62.621406 
L 427.041307 -66.454856 
L 430.204943 -69.53524 
L 433.36858 -69.858336 
L 433.36858 -80.181069 
L 433.36858 -80.181069 
L 430.204943 -79.076456 
L 427.041307 -76.473948 
L 423.87767 -72.322772 
L 420.714034 -66.587286 
L 417.550398 -61.082697 
L 414.386761 -56.457634 
L 411.223125 -52.847854 
L 408.059489 -52.016742 
L 404.895852 -51.778753 
L 401.732216 -52.847789 
L 398.56858 -54.275238 
L 395.404943 -52.505845 
L 392.241307 -50.438286 
L 389.07767 -51.265235 
L 385.914034 -53.899934 
L 382.750398 -54.55182 
L 379.586761 -54.072782 
L 376.423125 -53.594407 
L 373.259489 -54.549965 
L 370.095852 -55.993501 
L 366.932216 -63.180565 
L 363.76858 -74.681785 
L 360.604943 -86.318819 
L 357.441307 -92.388689 
L 354.27767 -94.166111 
L 351.114034 -94.10615 
L 347.950398 -95.252682 
L 344.786761 -93.441929 
L 341.623125 -87.60054 
L 338.459489 -81.28642 
L 335.295852 -75.644071 
L 332.132216 -72.501269 
L 328.96858 -69.861393 
L 325.804943 -69.016189 
L 322.641307 -67.823053 
L 319.47767 -64.354286 
z
"/>
    </defs>
    <g clip-path="url(#p861d6e2c9a)">
     <use xlink:href="#m2cdd1d12e8" x="0" y="109.9145" style="fill: #4f8438; fill-opacity: 0.2"/>
    </g>
   </g>
   <g id="line2d_48">
    <path d="M 319.47767 47.675938 
L 322.641307 46.380957 
L 325.804943 45.076509 
L 328.96858 42.771081 
L 332.132216 39.704272 
L 335.295852 35.590329 
L 338.459489 31.482759 
L 341.623125 28.533874 
L 344.786761 26.972642 
L 347.950398 26.663391 
L 351.114034 27.597563 
L 354.27767 29.587293 
L 357.441307 33.21957 
L 360.604943 40.566155 
L 363.76858 51.68977 
L 366.932216 62.441643 
L 370.095852 69.631645 
L 373.259489 72.5957 
L 376.423125 72.293195 
L 379.586761 72.081448 
L 382.750398 72.645561 
L 385.914034 70.109742 
L 389.07767 63.040421 
L 392.241307 55.345619 
L 395.404943 49.820585 
L 398.56858 45.940652 
L 401.732216 41.897924 
L 404.895852 37.433075 
L 408.059489 35.200078 
L 411.223125 36.449868 
L 414.386761 37.74249 
L 417.550398 37.061237 
L 420.714034 35.920888 
L 423.87767 35.381221 
L 427.041307 33.483863 
L 430.204943 29.965251 
L 433.36858 26.912866 
" clip-path="url(#p861d6e2c9a)" style="fill: none; stroke: #7865db; stroke-width: 1.5; stroke-linecap: round"/>
   </g>
   <g id="line2d_49">
    <path d="M 319.47767 48.953231 
L 322.641307 46.186965 
L 325.804943 44.056277 
L 328.96858 42.456134 
L 332.132216 40.803321 
L 335.295852 38.271415 
L 338.459489 35.036554 
L 341.623125 31.888935 
L 344.786761 29.676147 
L 347.950398 28.715813 
L 351.114034 29.027265 
L 354.27767 30.966711 
L 357.441307 35.638665 
L 360.604943 43.915854 
L 363.76858 54.725649 
L 366.932216 64.655858 
L 370.095852 70.986673 
L 373.259489 74.266881 
L 376.423125 75.661871 
L 379.586761 75.2579 
L 382.750398 73.394308 
L 385.914034 70.598457 
L 389.07767 67.247568 
L 392.241307 63.349191 
L 395.404943 58.664874 
L 398.56858 53.581152 
L 401.732216 49.027043 
L 404.895852 45.486539 
L 408.059489 43.529501 
L 411.223125 42.617136 
L 414.386761 41.528488 
L 417.550398 40.208361 
L 420.714034 38.535207 
L 423.87767 36.160195 
L 427.041307 33.453117 
L 430.204943 31.267389 
L 433.36858 29.593705 
" clip-path="url(#p861d6e2c9a)" style="fill: none; stroke: #b5ace7; stroke-width: 1.5; stroke-linecap: round"/>
   </g>
   <g id="line2d_50">
    <path d="M 319.47767 49.560982 
L 322.641307 46.433756 
L 325.804943 43.938437 
L 328.96858 41.912939 
L 332.132216 39.873948 
L 335.295852 37.256389 
L 338.459489 34.095688 
L 341.623125 30.876972 
L 344.786761 28.107862 
L 347.950398 26.423565 
L 351.114034 26.476918 
L 354.27767 28.523507 
L 357.441307 33.016731 
L 360.604943 40.956585 
L 363.76858 51.409574 
L 366.932216 60.985345 
L 370.095852 67.593153 
L 373.259489 71.606443 
L 376.423125 73.477731 
L 379.586761 73.554557 
L 382.750398 72.530898 
L 385.914034 70.991649 
L 389.07767 69.061013 
L 392.241307 66.727733 
L 395.404943 64.047668 
L 398.56858 60.980548 
L 401.732216 57.603644 
L 404.895852 54.257261 
L 408.059489 51.006727 
L 411.223125 47.77908 
L 414.386761 44.818634 
L 417.550398 42.458967 
L 420.714034 40.124533 
L 423.87767 37.368785 
L 427.041307 34.590024 
L 430.204943 32.334427 
L 433.36858 30.976146 
" clip-path="url(#p861d6e2c9a)" style="fill: none; stroke: #a8aaa7; stroke-width: 1.5; stroke-linecap: round"/>
   </g>
   <g id="line2d_51">
    <path d="M 319.47767 51.772328 
L 322.641307 48.702866 
L 325.804943 45.193444 
L 328.96858 41.880343 
L 332.132216 39.472925 
L 335.295852 37.000671 
L 338.459489 33.336891 
L 341.623125 29.105576 
L 344.786761 25.852734 
L 347.950398 23.816305 
L 351.114034 22.91628 
L 354.27767 23.923845 
L 357.441307 27.724877 
L 360.604943 35.30294 
L 363.76858 45.3645 
L 366.932216 54.225528 
L 370.095852 59.858037 
L 373.259489 63.060576 
L 376.423125 64.638517 
L 379.586761 64.937452 
L 382.750398 64.661015 
L 385.914034 65.245554 
L 389.07767 66.666575 
L 392.241307 66.76395 
L 395.404943 64.623126 
L 398.56858 61.528051 
L 401.732216 58.468188 
L 404.895852 55.636784 
L 408.059489 53.22105 
L 411.223125 50.887581 
L 414.386761 47.866842 
L 417.550398 44.378339 
L 420.714034 40.928175 
L 423.87767 37.478243 
L 427.041307 34.28265 
L 430.204943 31.814472 
L 433.36858 30.548967 
" clip-path="url(#p861d6e2c9a)" style="fill: none; stroke: #9dbb91; stroke-width: 1.5; stroke-linecap: round"/>
   </g>
   <g id="line2d_52">
    <path d="M 319.47767 49.928023 
L 322.641307 46.853617 
L 325.804943 45.600854 
L 328.96858 44.423359 
L 332.132216 42.239426 
L 335.295852 38.762938 
L 338.459489 33.601977 
L 341.623125 27.14662 
L 344.786761 21.96339 
L 347.950398 20.437303 
L 351.114034 20.928322 
L 354.27767 21.363357 
L 357.441307 23.128979 
L 360.604943 29.357027 
L 363.76858 40.456199 
L 366.932216 52.083858 
L 370.095852 59.000225 
L 373.259489 61.21701 
L 376.423125 62.076529 
L 379.586761 62.486984 
L 382.750398 61.637109 
L 385.914034 61.871847 
L 389.07767 64.424288 
L 392.241307 66.191529 
L 395.404943 65.65565 
L 398.56858 64.449166 
L 401.732216 63.49605 
L 404.895852 62.992661 
L 408.059489 62.809536 
L 411.223125 61.509298 
L 414.386761 58.160362 
L 417.550398 53.447088 
L 420.714034 48.055787 
L 423.87767 42.444343 
L 427.041307 38.34653 
L 430.204943 35.52417 
L 433.36858 35.025968 
" clip-path="url(#p861d6e2c9a)" style="fill: none; stroke: #4f8438; stroke-width: 1.5; stroke-linecap: round"/>
   </g>
   <g id="patch_12">
    <path d="M 313.783125 80.64 
L 313.783125 11.52 
" style="fill: none; stroke: #000000; stroke-linejoin: miter; stroke-linecap: square"/>
   </g>
   <g id="patch_13">
    <path d="M 313.783125 80.64 
L 439.063125 80.64 
" style="fill: none; stroke: #000000; stroke-linejoin: miter; stroke-linecap: square"/>
   </g>
   <g id="PathCollection_11">
    <g clip-path="url(#p861d6e2c9a)">
     <use xlink:href="#m990858d889" x="408.059489" y="35.200078" style="fill: #7865db; stroke: #7865db"/>
    </g>
   </g>
   <g id="PathCollection_12">
    <g clip-path="url(#p861d6e2c9a)">
     <use xlink:href="#mba0d6a899b" x="408.059489" y="43.529501" style="fill: #b5ace7; stroke: #b5ace7"/>
    </g>
   </g>
   <g id="PathCollection_13">
    <g clip-path="url(#p861d6e2c9a)">
     <use xlink:href="#m2ef31d2e55" x="408.059489" y="51.006727" style="fill: #a8aaa7; stroke: #a8aaa7"/>
    </g>
   </g>
   <g id="PathCollection_14">
    <g clip-path="url(#p861d6e2c9a)">
     <use xlink:href="#m0dc5f44548" x="408.059489" y="53.22105" style="fill: #9dbb91; stroke: #9dbb91"/>
    </g>
   </g>
   <g id="PathCollection_15">
    <g clip-path="url(#p861d6e2c9a)">
     <use xlink:href="#m1cc38e16d3" x="408.059489" y="62.809536" style="fill: #4f8438; stroke: #4f8438"/>
    </g>
   </g>
  </g>
  <g id="text_25">
   <!-- b. -->
   <g style="fill: #262626" transform="translate(7.2 15.789375) scale(0.12 -0.12)">
    <defs>
     <path id="Arial-BoldMT-62" d="M 422 0 
L 422 4581 
L 1300 4581 
L 1300 2931 
Q 1706 3394 2263 3394 
Q 2869 3394 3266 2955 
Q 3663 2516 3663 1694 
Q 3663 844 3258 384 
Q 2853 -75 2275 -75 
Q 1991 -75 1714 67 
Q 1438 209 1238 488 
L 1238 0 
L 422 0 
z
M 1294 1731 
Q 1294 1216 1456 969 
Q 1684 619 2063 619 
Q 2353 619 2558 867 
Q 2763 1116 2763 1650 
Q 2763 2219 2556 2470 
Q 2350 2722 2028 2722 
Q 1713 2722 1503 2476 
Q 1294 2231 1294 1731 
z
" transform="scale(0.015625)"/>
     <path id="Arial-BoldMT-2e" d="M 459 0 
L 459 878 
L 1338 878 
L 1338 0 
L 459 0 
z
" transform="scale(0.015625)"/>
    </defs>
    <use xlink:href="#Arial-BoldMT-62"/>
    <use xlink:href="#Arial-BoldMT-2e" transform="translate(61.083984 0)"/>
   </g>
  </g>
 </g>
 <defs>
  <clipPath id="p61615a991a">
   <rect x="37.303125" y="11.52" width="125.28" height="69.12"/>
  </clipPath>
  <clipPath id="p27c2397fa6">
   <rect x="175.543125" y="11.52" width="125.28" height="69.12"/>
  </clipPath>
  <clipPath id="p861d6e2c9a">
   <rect x="313.783125" y="11.52" width="125.28" height="69.12"/>
  </clipPath>
 </defs>
</svg>
