<?xml version="1.0" encoding="utf-8" standalone="no"?>
<!DOCTYPE svg PUBLIC "-//W3C//DTD SVG 1.1//EN"
  "http://www.w3.org/Graphics/SVG/1.1/DTD/svg11.dtd">
<svg xmlns:xlink="http://www.w3.org/1999/xlink" width="446.263125pt" height="109.9145pt" viewBox="0 0 446.263125 109.9145" xmlns="http://www.w3.org/2000/svg" version="1.1">
 <metadata>
  <rdf:RDF xmlns:dc="http://purl.org/dc/elements/1.1/" xmlns:cc="http://creativecommons.org/ns#" xmlns:rdf="http://www.w3.org/1999/02/22-rdf-syntax-ns#">
   <cc:Work>
    <dc:type rdf:resource="http://purl.org/dc/dcmitype/StillImage"/>
    <dc:date>2026-05-07T10:29:18.443715</dc:date>
    <dc:format>image/svg+xml</dc:format>
    <dc:creator>
     <cc:Agent>
      <dc:title>Matplotlib v3.10.7, https://matplotlib.org/</dc:title>
     </cc:Agent>
    </dc:creator>
   </cc:Work>
  </rdf:RDF>
 </metadata>
 <defs>
  <style type="text/css">*{stroke-linejoin: round; stroke-linecap: butt}</style>
 </defs>
 <g id="figure_1">
  <g id="patch_1">
   <path d="M 0 109.9145 
L 446.263125 109.9145 
L 446.263125 0 
L 0 0 
z
" style="fill: #ffffff"/>
  </g>
  <g id="axes_1">
   <g id="patch_2">
    <path d="M 37.303125 80.64 
L 162.583125 80.64 
L 162.583125 11.52 
L 37.303125 11.52 
z
" style="fill: #ffffff"/>
   </g>
   <g id="patch_3">
    <path d="M 68.306761 80.64 
L 90.452216 80.64 
L 90.452216 11.52 
L 68.306761 11.52 
z
" clip-path="url(#p9340c87a22)" style="fill: #ffc861; opacity: 0.1"/>
   </g>
   <g id="matplotlib.axis_1">
    <g id="xtick_1">
     <g id="line2d_1">
      <defs>
       <path id="m8b2bf4f099" d="M 0 0 
L 0 2 
" style="stroke: #000000"/>
      </defs>
      <g>
       <use xlink:href="#m8b2bf4f099" x="46.161307" y="80.64" style="stroke: #000000"/>
      </g>
     </g>
     <g id="text_1">
      <!-- −14 -->
      <g style="fill: #262626" transform="translate(39.376307 88.86625) scale(0.08 -0.08)">
       <defs>
        <path id="ArialMT-2212" d="M 3381 1997 
L 356 1997 
L 356 2522 
L 3381 2522 
L 3381 1997 
z
" transform="scale(0.015625)"/>
        <path id="ArialMT-31" d="M 2384 0 
L 1822 0 
L 1822 3584 
Q 1619 3391 1289 3197 
Q 959 3003 697 2906 
L 697 3450 
Q 1169 3672 1522 3987 
Q 1875 4303 2022 4600 
L 2384 4600 
L 2384 0 
z
" transform="scale(0.015625)"/>
        <path id="ArialMT-34" d="M 2069 0 
L 2069 1097 
L 81 1097 
L 81 1613 
L 2172 4581 
L 2631 4581 
L 2631 1613 
L 3250 1613 
L 3250 1097 
L 2631 1097 
L 2631 0 
L 2069 0 
z
M 2069 1613 
L 2069 3678 
L 634 1613 
L 2069 1613 
z
" transform="scale(0.015625)"/>
       </defs>
       <use xlink:href="#ArialMT-2212"/>
       <use xlink:href="#ArialMT-31" transform="translate(58.398438 0)"/>
       <use xlink:href="#ArialMT-34" transform="translate(114.013672 0)"/>
      </g>
     </g>
    </g>
    <g id="xtick_2">
     <g id="line2d_2">
      <g>
       <use xlink:href="#m8b2bf4f099" x="68.306761" y="80.64" style="stroke: #000000"/>
      </g>
     </g>
     <g id="text_2">
      <!-- −7 -->
      <g style="fill: #262626" transform="translate(63.746136 88.86625) scale(0.08 -0.08)">
       <defs>
        <path id="ArialMT-37" d="M 303 3981 
L 303 4522 
L 3269 4522 
L 3269 4084 
Q 2831 3619 2401 2847 
Q 1972 2075 1738 1259 
Q 1569 684 1522 0 
L 944 0 
Q 953 541 1156 1306 
Q 1359 2072 1739 2783 
Q 2119 3494 2547 3981 
L 303 3981 
z
" transform="scale(0.015625)"/>
       </defs>
       <use xlink:href="#ArialMT-2212"/>
       <use xlink:href="#ArialMT-37" transform="translate(58.398438 0)"/>
      </g>
     </g>
    </g>
    <g id="xtick_3">
     <g id="line2d_3">
      <path d="M 90.452216 80.64 
L 90.452216 11.52 
" clip-path="url(#p9340c87a22)" style="fill: none; stroke: #cccccc; stroke-width: 1.1; stroke-linecap: round"/>
     </g>
     <g id="line2d_4">
      <g>
       <use xlink:href="#m8b2bf4f099" x="90.452216" y="80.64" style="stroke: #000000"/>
      </g>
     </g>
     <g id="text_3">
      <!-- 0 -->
      <g style="fill: #262626" transform="translate(88.227841 88.86625) scale(0.08 -0.08)">
       <defs>
        <path id="ArialMT-30" d="M 266 2259 
Q 266 3072 433 3567 
Q 600 4063 929 4331 
Q 1259 4600 1759 4600 
Q 2128 4600 2406 4451 
Q 2684 4303 2865 4023 
Q 3047 3744 3150 3342 
Q 3253 2941 3253 2259 
Q 3253 1453 3087 958 
Q 2922 463 2592 192 
Q 2263 -78 1759 -78 
Q 1097 -78 719 397 
Q 266 969 266 2259 
z
M 844 2259 
Q 844 1131 1108 757 
Q 1372 384 1759 384 
Q 2147 384 2411 759 
Q 2675 1134 2675 2259 
Q 2675 3391 2411 3762 
Q 2147 4134 1753 4134 
Q 1366 4134 1134 3806 
Q 844 3388 844 2259 
z
" transform="scale(0.015625)"/>
       </defs>
       <use xlink:href="#ArialMT-30"/>
      </g>
     </g>
    </g>
    <g id="xtick_4">
     <g id="line2d_5">
      <g>
       <use xlink:href="#m8b2bf4f099" x="112.59767" y="80.64" style="stroke: #000000"/>
      </g>
     </g>
     <g id="text_4">
      <!-- 7 -->
      <g style="fill: #262626" transform="translate(110.373295 88.86625) scale(0.08 -0.08)">
       <use xlink:href="#ArialMT-37"/>
      </g>
     </g>
    </g>
    <g id="xtick_5">
     <g id="line2d_6">
      <g>
       <use xlink:href="#m8b2bf4f099" x="134.743125" y="80.64" style="stroke: #000000"/>
      </g>
     </g>
     <g id="text_5">
      <!-- 14 -->
      <g style="fill: #262626" transform="translate(130.294375 88.86625) scale(0.08 -0.08)">
       <use xlink:href="#ArialMT-31"/>
       <use xlink:href="#ArialMT-34" transform="translate(55.615234 0)"/>
      </g>
     </g>
    </g>
    <g id="xtick_6">
     <g id="line2d_7">
      <g>
       <use xlink:href="#m8b2bf4f099" x="156.88858" y="80.64" style="stroke: #000000"/>
      </g>
     </g>
     <g id="text_6">
      <!-- 21 -->
      <g style="fill: #262626" transform="translate(152.43983 88.86625) scale(0.08 -0.08)">
       <defs>
        <path id="ArialMT-32" d="M 3222 541 
L 3222 0 
L 194 0 
Q 188 203 259 391 
Q 375 700 629 1000 
Q 884 1300 1366 1694 
Q 2113 2306 2375 2664 
Q 2638 3022 2638 3341 
Q 2638 3675 2398 3904 
Q 2159 4134 1775 4134 
Q 1369 4134 1125 3890 
Q 881 3647 878 3216 
L 300 3275 
Q 359 3922 746 4261 
Q 1134 4600 1788 4600 
Q 2447 4600 2831 4234 
Q 3216 3869 3216 3328 
Q 3216 3053 3103 2787 
Q 2991 2522 2730 2228 
Q 2469 1934 1863 1422 
Q 1356 997 1212 845 
Q 1069 694 975 541 
L 3222 541 
z
" transform="scale(0.015625)"/>
       </defs>
       <use xlink:href="#ArialMT-32"/>
       <use xlink:href="#ArialMT-31" transform="translate(55.615234 0)"/>
      </g>
     </g>
    </g>
    <g id="text_7">
     <!-- Cycle Day -->
     <g style="fill: #262626" transform="translate(79.89425 100.862375) scale(0.088 -0.088)">
      <defs>
       <path id="ArialMT-43" d="M 3763 1606 
L 4369 1453 
Q 4178 706 3683 314 
Q 3188 -78 2472 -78 
Q 1731 -78 1267 223 
Q 803 525 561 1097 
Q 319 1669 319 2325 
Q 319 3041 592 3573 
Q 866 4106 1370 4382 
Q 1875 4659 2481 4659 
Q 3169 4659 3637 4309 
Q 4106 3959 4291 3325 
L 3694 3184 
Q 3534 3684 3231 3912 
Q 2928 4141 2469 4141 
Q 1941 4141 1586 3887 
Q 1231 3634 1087 3207 
Q 944 2781 944 2328 
Q 944 1744 1114 1308 
Q 1284 872 1643 656 
Q 2003 441 2422 441 
Q 2931 441 3284 734 
Q 3638 1028 3763 1606 
z
" transform="scale(0.015625)"/>
       <path id="ArialMT-79" d="M 397 -1278 
L 334 -750 
Q 519 -800 656 -800 
Q 844 -800 956 -737 
Q 1069 -675 1141 -563 
Q 1194 -478 1313 -144 
Q 1328 -97 1363 -6 
L 103 3319 
L 709 3319 
L 1400 1397 
Q 1534 1031 1641 628 
Q 1738 1016 1872 1384 
L 2581 3319 
L 3144 3319 
L 1881 -56 
Q 1678 -603 1566 -809 
Q 1416 -1088 1222 -1217 
Q 1028 -1347 759 -1347 
Q 597 -1347 397 -1278 
z
" transform="scale(0.015625)"/>
       <path id="ArialMT-63" d="M 2588 1216 
L 3141 1144 
Q 3050 572 2676 248 
Q 2303 -75 1759 -75 
Q 1078 -75 664 370 
Q 250 816 250 1647 
Q 250 2184 428 2587 
Q 606 2991 970 3192 
Q 1334 3394 1763 3394 
Q 2303 3394 2647 3120 
Q 2991 2847 3088 2344 
L 2541 2259 
Q 2463 2594 2264 2762 
Q 2066 2931 1784 2931 
Q 1359 2931 1093 2626 
Q 828 2322 828 1663 
Q 828 994 1084 691 
Q 1341 388 1753 388 
Q 2084 388 2306 591 
Q 2528 794 2588 1216 
z
" transform="scale(0.015625)"/>
       <path id="ArialMT-6c" d="M 409 0 
L 409 4581 
L 972 4581 
L 972 0 
L 409 0 
z
" transform="scale(0.015625)"/>
       <path id="ArialMT-65" d="M 2694 1069 
L 3275 997 
Q 3138 488 2766 206 
Q 2394 -75 1816 -75 
Q 1088 -75 661 373 
Q 234 822 234 1631 
Q 234 2469 665 2931 
Q 1097 3394 1784 3394 
Q 2450 3394 2872 2941 
Q 3294 2488 3294 1666 
Q 3294 1616 3291 1516 
L 816 1516 
Q 847 969 1125 678 
Q 1403 388 1819 388 
Q 2128 388 2347 550 
Q 2566 713 2694 1069 
z
M 847 1978 
L 2700 1978 
Q 2663 2397 2488 2606 
Q 2219 2931 1791 2931 
Q 1403 2931 1139 2672 
Q 875 2413 847 1978 
z
" transform="scale(0.015625)"/>
       <path id="ArialMT-20" transform="scale(0.015625)"/>
       <path id="ArialMT-44" d="M 494 0 
L 494 4581 
L 2072 4581 
Q 2606 4581 2888 4516 
Q 3281 4425 3559 4188 
Q 3922 3881 4101 3404 
Q 4281 2928 4281 2316 
Q 4281 1794 4159 1391 
Q 4038 988 3847 723 
Q 3656 459 3429 307 
Q 3203 156 2883 78 
Q 2563 0 2147 0 
L 494 0 
z
M 1100 541 
L 2078 541 
Q 2531 541 2789 625 
Q 3047 709 3200 863 
Q 3416 1078 3536 1442 
Q 3656 1806 3656 2325 
Q 3656 3044 3420 3430 
Q 3184 3816 2847 3947 
Q 2603 4041 2063 4041 
L 1100 4041 
L 1100 541 
z
" transform="scale(0.015625)"/>
       <path id="ArialMT-61" d="M 2588 409 
Q 2275 144 1986 34 
Q 1697 -75 1366 -75 
Q 819 -75 525 192 
Q 231 459 231 875 
Q 231 1119 342 1320 
Q 453 1522 633 1644 
Q 813 1766 1038 1828 
Q 1203 1872 1538 1913 
Q 2219 1994 2541 2106 
Q 2544 2222 2544 2253 
Q 2544 2597 2384 2738 
Q 2169 2928 1744 2928 
Q 1347 2928 1158 2789 
Q 969 2650 878 2297 
L 328 2372 
Q 403 2725 575 2942 
Q 747 3159 1072 3276 
Q 1397 3394 1825 3394 
Q 2250 3394 2515 3294 
Q 2781 3194 2906 3042 
Q 3031 2891 3081 2659 
Q 3109 2516 3109 2141 
L 3109 1391 
Q 3109 606 3145 398 
Q 3181 191 3288 0 
L 2700 0 
Q 2613 175 2588 409 
z
M 2541 1666 
Q 2234 1541 1622 1453 
Q 1275 1403 1131 1340 
Q 988 1278 909 1158 
Q 831 1038 831 891 
Q 831 666 1001 516 
Q 1172 366 1500 366 
Q 1825 366 2078 508 
Q 2331 650 2450 897 
Q 2541 1088 2541 1459 
L 2541 1666 
z
" transform="scale(0.015625)"/>
      </defs>
      <use xlink:href="#ArialMT-43"/>
      <use xlink:href="#ArialMT-79" transform="translate(72.216797 0)"/>
      <use xlink:href="#ArialMT-63" transform="translate(122.216797 0)"/>
      <use xlink:href="#ArialMT-6c" transform="translate(172.216797 0)"/>
      <use xlink:href="#ArialMT-65" transform="translate(194.433594 0)"/>
      <use xlink:href="#ArialMT-20" transform="translate(250.048828 0)"/>
      <use xlink:href="#ArialMT-44" transform="translate(277.832031 0)"/>
      <use xlink:href="#ArialMT-61" transform="translate(350.048828 0)"/>
      <use xlink:href="#ArialMT-79" transform="translate(405.664062 0)"/>
     </g>
    </g>
   </g>
   <g id="matplotlib.axis_2">
    <g id="ytick_1">
     <g id="line2d_8">
      <path d="M 37.303125 50.845636 
L 162.583125 50.845636 
" clip-path="url(#p9340c87a22)" style="fill: none; stroke: #cccccc; stroke-width: 0.5; stroke-linecap: round"/>
     </g>
     <g id="line2d_9">
      <defs>
       <path id="m4dd9f25a8b" d="M 0 0 
L -2 0 
" style="stroke: #000000"/>
      </defs>
      <g>
       <use xlink:href="#m4dd9f25a8b" x="37.303125" y="50.845636" style="stroke: #000000"/>
      </g>
     </g>
     <g id="text_8">
      <!-- 0.0 -->
      <g style="fill: #262626" transform="translate(23.683125 53.708761) scale(0.08 -0.08)">
       <defs>
        <path id="ArialMT-2e" d="M 581 0 
L 581 641 
L 1222 641 
L 1222 0 
L 581 0 
z
" transform="scale(0.015625)"/>
       </defs>
       <use xlink:href="#ArialMT-30"/>
       <use xlink:href="#ArialMT-2e" transform="translate(55.615234 0)"/>
       <use xlink:href="#ArialMT-30" transform="translate(83.398438 0)"/>
      </g>
     </g>
    </g>
    <g id="ytick_2">
     <g id="line2d_10">
      <path d="M 37.303125 17.498812 
L 162.583125 17.498812 
" clip-path="url(#p9340c87a22)" style="fill: none; stroke: #cccccc; stroke-width: 0.5; stroke-linecap: round"/>
     </g>
     <g id="line2d_11">
      <g>
       <use xlink:href="#m4dd9f25a8b" x="37.303125" y="17.498812" style="stroke: #000000"/>
      </g>
     </g>
     <g id="text_9">
      <!-- 5.0 -->
      <g style="fill: #262626" transform="translate(23.683125 20.361937) scale(0.08 -0.08)">
       <defs>
        <path id="ArialMT-35" d="M 266 1200 
L 856 1250 
Q 922 819 1161 601 
Q 1400 384 1738 384 
Q 2144 384 2425 690 
Q 2706 997 2706 1503 
Q 2706 1984 2436 2262 
Q 2166 2541 1728 2541 
Q 1456 2541 1237 2417 
Q 1019 2294 894 2097 
L 366 2166 
L 809 4519 
L 3088 4519 
L 3088 3981 
L 1259 3981 
L 1013 2750 
Q 1425 3038 1878 3038 
Q 2478 3038 2890 2622 
Q 3303 2206 3303 1553 
Q 3303 931 2941 478 
Q 2500 -78 1738 -78 
Q 1113 -78 717 272 
Q 322 622 266 1200 
z
" transform="scale(0.015625)"/>
       </defs>
       <use xlink:href="#ArialMT-35"/>
       <use xlink:href="#ArialMT-2e" transform="translate(55.615234 0)"/>
       <use xlink:href="#ArialMT-30" transform="translate(83.398438 0)"/>
      </g>
     </g>
    </g>
    <g id="text_10">
     <!-- RHR [%] -->
     <g style="fill: #262626" transform="translate(17.934125 63.192562) rotate(-90) scale(0.088 -0.088)">
      <defs>
       <path id="ArialMT-52" d="M 503 0 
L 503 4581 
L 2534 4581 
Q 3147 4581 3465 4457 
Q 3784 4334 3975 4021 
Q 4166 3709 4166 3331 
Q 4166 2844 3850 2509 
Q 3534 2175 2875 2084 
Q 3116 1969 3241 1856 
Q 3506 1613 3744 1247 
L 4541 0 
L 3778 0 
L 3172 953 
Q 2906 1366 2734 1584 
Q 2563 1803 2427 1890 
Q 2291 1978 2150 2013 
Q 2047 2034 1813 2034 
L 1109 2034 
L 1109 0 
L 503 0 
z
M 1109 2559 
L 2413 2559 
Q 2828 2559 3062 2645 
Q 3297 2731 3419 2920 
Q 3541 3109 3541 3331 
Q 3541 3656 3305 3865 
Q 3069 4075 2559 4075 
L 1109 4075 
L 1109 2559 
z
" transform="scale(0.015625)"/>
       <path id="ArialMT-48" d="M 513 0 
L 513 4581 
L 1119 4581 
L 1119 2700 
L 3500 2700 
L 3500 4581 
L 4106 4581 
L 4106 0 
L 3500 0 
L 3500 2159 
L 1119 2159 
L 1119 0 
L 513 0 
z
" transform="scale(0.015625)"/>
       <path id="ArialMT-5b" d="M 434 -1272 
L 434 4581 
L 1675 4581 
L 1675 4116 
L 997 4116 
L 997 -806 
L 1675 -806 
L 1675 -1272 
L 434 -1272 
z
" transform="scale(0.015625)"/>
       <path id="ArialMT-25" d="M 372 3481 
Q 372 3972 619 4315 
Q 866 4659 1334 4659 
Q 1766 4659 2048 4351 
Q 2331 4044 2331 3447 
Q 2331 2866 2045 2552 
Q 1759 2238 1341 2238 
Q 925 2238 648 2547 
Q 372 2856 372 3481 
z
M 1350 4272 
Q 1141 4272 1002 4090 
Q 863 3909 863 3425 
Q 863 2984 1003 2804 
Q 1144 2625 1350 2625 
Q 1563 2625 1702 2806 
Q 1841 2988 1841 3469 
Q 1841 3913 1700 4092 
Q 1559 4272 1350 4272 
z
M 1353 -169 
L 3859 4659 
L 4316 4659 
L 1819 -169 
L 1353 -169 
z
M 3334 1075 
Q 3334 1569 3581 1911 
Q 3828 2253 4300 2253 
Q 4731 2253 5014 1945 
Q 5297 1638 5297 1041 
Q 5297 459 5011 145 
Q 4725 -169 4303 -169 
Q 3888 -169 3611 142 
Q 3334 453 3334 1075 
z
M 4316 1866 
Q 4103 1866 3964 1684 
Q 3825 1503 3825 1019 
Q 3825 581 3965 400 
Q 4106 219 4313 219 
Q 4528 219 4667 400 
Q 4806 581 4806 1063 
Q 4806 1506 4665 1686 
Q 4525 1866 4316 1866 
z
" transform="scale(0.015625)"/>
       <path id="ArialMT-5d" d="M 1363 -1272 
L 122 -1272 
L 122 -806 
L 800 -806 
L 800 4116 
L 122 4116 
L 122 4581 
L 1363 4581 
L 1363 -1272 
z
" transform="scale(0.015625)"/>
      </defs>
      <use xlink:href="#ArialMT-52"/>
      <use xlink:href="#ArialMT-48" transform="translate(72.216797 0)"/>
      <use xlink:href="#ArialMT-52" transform="translate(144.433594 0)"/>
      <use xlink:href="#ArialMT-20" transform="translate(216.650391 0)"/>
      <use xlink:href="#ArialMT-5b" transform="translate(244.433594 0)"/>
      <use xlink:href="#ArialMT-25" transform="translate(272.216797 0)"/>
      <use xlink:href="#ArialMT-5d" transform="translate(361.132812 0)"/>
     </g>
    </g>
   </g>
   <g id="FillBetweenPolyCollection_1">
    <defs>
     <path id="m43a750eb6f" d="M 42.99767 -58.053248 
L 42.99767 -51.217066 
L 46.161307 -52.974057 
L 49.324943 -55.993432 
L 52.48858 -60.067894 
L 55.652216 -64.174797 
L 58.815852 -67.043798 
L 61.979489 -70.113479 
L 65.143125 -74.503329 
L 68.306761 -80.730796 
L 71.470398 -85.793915 
L 74.634034 -87.887184 
L 77.79767 -86.754955 
L 80.961307 -83.347626 
L 84.124943 -78.602876 
L 87.28858 -69.190409 
L 90.452216 -57.263704 
L 93.615852 -46.802335 
L 96.779489 -41.614118 
L 99.943125 -39.596371 
L 103.106761 -38.726075 
L 106.270398 -39.258408 
L 109.434034 -39.546615 
L 112.59767 -40.972477 
L 115.761307 -43.656223 
L 118.924943 -47.48286 
L 122.08858 -50.882371 
L 125.252216 -53.034808 
L 128.415852 -54.983491 
L 131.579489 -56.086977 
L 134.743125 -58.013919 
L 137.906761 -60.221214 
L 141.070398 -62.272074 
L 144.234034 -64.726645 
L 147.39767 -67.854459 
L 150.561307 -71.621576 
L 153.724943 -74.371251 
L 156.88858 -76.062209 
L 156.88858 -82.125668 
L 156.88858 -82.125668 
L 153.724943 -80.463023 
L 150.561307 -78.091863 
L 147.39767 -74.671437 
L 144.234034 -71.401251 
L 141.070398 -69.148738 
L 137.906761 -66.587709 
L 134.743125 -64.358701 
L 131.579489 -62.620765 
L 128.415852 -61.137508 
L 125.252216 -59.815938 
L 122.08858 -57.682853 
L 118.924943 -54.283567 
L 115.761307 -50.652213 
L 112.59767 -47.659632 
L 109.434034 -46.866472 
L 106.270398 -46.40328 
L 103.106761 -45.962602 
L 99.943125 -46.924822 
L 96.779489 -48.635261 
L 93.615852 -53.820435 
L 90.452216 -64.651446 
L 87.28858 -78.217209 
L 84.124943 -87.224262 
L 80.961307 -91.252664 
L 77.79767 -93.918046 
L 74.634034 -95.252682 
L 71.470398 -92.846313 
L 68.306761 -87.803808 
L 65.143125 -81.654355 
L 61.979489 -77.033354 
L 58.815852 -73.612538 
L 55.652216 -70.762144 
L 52.48858 -66.967238 
L 49.324943 -62.669794 
L 46.161307 -59.685984 
L 42.99767 -58.053248 
z
"/>
    </defs>
    <g clip-path="url(#p9340c87a22)">
     <use xlink:href="#m43a750eb6f" x="0" y="109.9145" style="fill: #7865db; fill-opacity: 0.2"/>
    </g>
   </g>
   <g id="FillBetweenPolyCollection_2">
    <defs>
     <path id="m5a3e520c1d" d="M 42.99767 -56.964759 
L 42.99767 -54.093737 
L 46.161307 -56.398649 
L 49.324943 -58.62582 
L 52.48858 -61.155848 
L 55.652216 -63.612942 
L 58.815852 -66.626307 
L 61.979489 -70.472575 
L 65.143125 -74.780413 
L 68.306761 -78.681426 
L 71.470398 -81.446879 
L 74.634034 -82.719955 
L 77.79767 -82.131014 
L 80.961307 -79.152486 
L 84.124943 -72.964883 
L 87.28858 -63.890447 
L 90.452216 -54.478235 
L 93.615852 -47.169637 
L 96.779489 -42.739879 
L 99.943125 -40.928327 
L 103.106761 -40.548604 
L 106.270398 -41.629474 
L 109.434034 -43.235625 
L 112.59767 -44.534858 
L 115.761307 -45.768577 
L 118.924943 -47.327996 
L 122.08858 -49.677354 
L 125.252216 -52.614198 
L 128.415852 -55.5457 
L 131.579489 -58.625267 
L 134.743125 -61.217857 
L 137.906761 -63.616138 
L 141.070398 -65.407029 
L 144.234034 -67.485509 
L 147.39767 -69.89123 
L 150.561307 -71.9195 
L 153.724943 -73.628562 
L 156.88858 -74.48638 
L 156.88858 -78.221623 
L 156.88858 -78.221623 
L 153.724943 -77.003734 
L 150.561307 -75.287207 
L 147.39767 -73.185332 
L 144.234034 -70.850727 
L 141.070398 -68.886412 
L 137.906761 -67.029394 
L 134.743125 -64.711213 
L 131.579489 -61.776108 
L 128.415852 -58.844744 
L 125.252216 -55.792782 
L 122.08858 -52.830872 
L 118.924943 -50.525079 
L 115.761307 -49.00738 
L 112.59767 -47.950307 
L 109.434034 -46.31987 
L 106.270398 -44.822246 
L 103.106761 -43.86914 
L 99.943125 -43.946829 
L 96.779489 -45.790678 
L 93.615852 -50.293867 
L 90.452216 -57.893827 
L 87.28858 -67.059396 
L 84.124943 -76.139558 
L 80.961307 -82.36203 
L 77.79767 -85.413225 
L 74.634034 -85.755156 
L 71.470398 -84.662899 
L 68.306761 -82.026987 
L 65.143125 -77.81858 
L 61.979489 -73.347745 
L 58.815852 -69.642176 
L 55.652216 -66.642201 
L 52.48858 -64.026874 
L 49.324943 -61.793242 
L 46.161307 -59.383393 
L 42.99767 -56.964759 
z
"/>
    </defs>
    <g clip-path="url(#p9340c87a22)">
     <use xlink:href="#m5a3e520c1d" x="0" y="109.9145" style="fill: #b5ace7; fill-opacity: 0.2"/>
    </g>
   </g>
   <g id="FillBetweenPolyCollection_3">
    <defs>
     <path id="m897d931545" d="M 42.99767 -59.754057 
L 42.99767 -58.473729 
L 46.161307 -61.428269 
L 49.324943 -63.719743 
L 52.48858 -65.585238 
L 55.652216 -67.465169 
L 58.815852 -69.695099 
L 61.979489 -72.394308 
L 65.143125 -75.299374 
L 68.306761 -77.9295 
L 71.470398 -79.525335 
L 74.634034 -79.519732 
L 77.79767 -77.708385 
L 80.961307 -73.711481 
L 84.124943 -66.692548 
L 87.28858 -57.397742 
L 90.452216 -48.91869 
L 93.615852 -43.194575 
L 96.779489 -39.946196 
L 99.943125 -38.531428 
L 103.106761 -38.347906 
L 106.270398 -39.05619 
L 109.434034 -40.347014 
L 112.59767 -41.975455 
L 115.761307 -44.093717 
L 118.924943 -46.697564 
L 122.08858 -49.539455 
L 125.252216 -52.581516 
L 128.415852 -55.494837 
L 131.579489 -58.102583 
L 134.743125 -60.626638 
L 137.906761 -63.208936 
L 141.070398 -65.54132 
L 144.234034 -67.735224 
L 147.39767 -70.114559 
L 150.561307 -72.522578 
L 153.724943 -74.676473 
L 156.88858 -76.148625 
L 156.88858 -77.484579 
L 156.88858 -77.484579 
L 153.724943 -76.028944 
L 150.561307 -73.839066 
L 147.39767 -71.443327 
L 144.234034 -69.081101 
L 141.070398 -66.854524 
L 137.906761 -64.552349 
L 134.743125 -61.944605 
L 131.579489 -59.399297 
L 128.415852 -56.792053 
L 125.252216 -53.830354 
L 122.08858 -50.759923 
L 118.924943 -47.943004 
L 115.761307 -45.32538 
L 112.59767 -43.237064 
L 109.434034 -41.602271 
L 106.270398 -40.328465 
L 103.106761 -39.565838 
L 99.943125 -39.66327 
L 96.779489 -41.193211 
L 93.615852 -44.461993 
L 90.452216 -50.119215 
L 87.28858 -58.591868 
L 84.124943 -67.868627 
L 80.961307 -74.908678 
L 77.79767 -78.955484 
L 74.634034 -80.740006 
L 71.470398 -80.736388 
L 68.306761 -79.108699 
L 65.143125 -76.524737 
L 61.979489 -73.622898 
L 58.815852 -70.892163 
L 55.652216 -68.623424 
L 52.48858 -66.849073 
L 49.324943 -64.94322 
L 46.161307 -62.637142 
L 42.99767 -59.754057 
z
"/>
    </defs>
    <g clip-path="url(#p9340c87a22)">
     <use xlink:href="#m897d931545" x="0" y="109.9145" style="fill: #a8aaa7; fill-opacity: 0.2"/>
    </g>
   </g>
   <g id="FillBetweenPolyCollection_4">
    <defs>
     <path id="mdd8b7fc973" d="M 42.99767 -65.785292 
L 42.99767 -61.433067 
L 46.161307 -63.411041 
L 49.324943 -65.519073 
L 52.48858 -67.681186 
L 55.652216 -70.302939 
L 58.815852 -73.024667 
L 61.979489 -75.811915 
L 65.143125 -76.860871 
L 68.306761 -76.823461 
L 71.470398 -75.721011 
L 74.634034 -75.41358 
L 77.79767 -74.083373 
L 80.961307 -70.935989 
L 84.124943 -63.746269 
L 87.28858 -53.759132 
L 90.452216 -44.860391 
L 93.615852 -39.717807 
L 96.779489 -36.540162 
L 99.943125 -35.011025 
L 103.106761 -34.717529 
L 106.270398 -36.040879 
L 109.434034 -37.95939 
L 112.59767 -40.267717 
L 115.761307 -42.502088 
L 118.924943 -44.643592 
L 122.08858 -47.322195 
L 125.252216 -50.531719 
L 128.415852 -53.468135 
L 131.579489 -56.151814 
L 134.743125 -59.268075 
L 137.906761 -62.396193 
L 141.070398 -64.812667 
L 144.234034 -67.61831 
L 147.39767 -70.371624 
L 150.561307 -72.083179 
L 153.724943 -73.34305 
L 156.88858 -73.802448 
L 156.88858 -78.311168 
L 156.88858 -78.311168 
L 153.724943 -77.501991 
L 150.561307 -76.870238 
L 147.39767 -75.191157 
L 144.234034 -72.349931 
L 141.070398 -69.242215 
L 137.906761 -66.725039 
L 134.743125 -63.718628 
L 131.579489 -60.522221 
L 128.415852 -57.67168 
L 125.252216 -54.689397 
L 122.08858 -51.598072 
L 118.924943 -48.744516 
L 115.761307 -46.570536 
L 112.59767 -44.334559 
L 109.434034 -41.905676 
L 106.270398 -39.9754 
L 103.106761 -38.857827 
L 99.943125 -38.982387 
L 96.779489 -40.340917 
L 93.615852 -43.845999 
L 90.452216 -49.083414 
L 87.28858 -57.989012 
L 84.124943 -68.310739 
L 80.961307 -74.974259 
L 77.79767 -78.440608 
L 74.634034 -79.29009 
L 71.470398 -79.890662 
L 68.306761 -80.857271 
L 65.143125 -81.584499 
L 61.979489 -80.177405 
L 58.815852 -77.110635 
L 55.652216 -74.340691 
L 52.48858 -71.938193 
L 49.324943 -69.79306 
L 46.161307 -67.72338 
L 42.99767 -65.785292 
z
"/>
    </defs>
    <g clip-path="url(#p9340c87a22)">
     <use xlink:href="#mdd8b7fc973" x="0" y="109.9145" style="fill: #9dbb91; fill-opacity: 0.2"/>
    </g>
   </g>
   <g id="FillBetweenPolyCollection_5">
    <defs>
     <path id="m4c9bad8e0b" d="M 42.99767 -70.843793 
L 42.99767 -58.2055 
L 46.161307 -61.290799 
L 49.324943 -65.333658 
L 52.48858 -69.293285 
L 55.652216 -73.420008 
L 58.815852 -77.957626 
L 61.979489 -80.838555 
L 65.143125 -78.700199 
L 68.306761 -74.71104 
L 71.470398 -71.393627 
L 74.634034 -67.101605 
L 77.79767 -64.03617 
L 80.961307 -61.30511 
L 84.124943 -57.800602 
L 87.28858 -49.204967 
L 90.452216 -40.364689 
L 93.615852 -34.529316 
L 96.779489 -32.416318 
L 99.943125 -33.03873 
L 103.106761 -34.635122 
L 106.270398 -37.91275 
L 109.434034 -41.385052 
L 112.59767 -43.648721 
L 115.761307 -43.987836 
L 118.924943 -42.988911 
L 122.08858 -44.000564 
L 125.252216 -48.355672 
L 128.415852 -52.358984 
L 131.579489 -53.817966 
L 134.743125 -53.961809 
L 137.906761 -55.360387 
L 141.070398 -58.772825 
L 144.234034 -61.265438 
L 147.39767 -63.495285 
L 150.561307 -65.235087 
L 153.724943 -65.544128 
L 156.88858 -67.125064 
L 156.88858 -78.149981 
L 156.88858 -78.149981 
L 153.724943 -76.073061 
L 150.561307 -75.019695 
L 147.39767 -73.928558 
L 144.234034 -72.983346 
L 141.070398 -69.801681 
L 137.906761 -66.47292 
L 134.743125 -65.016807 
L 131.579489 -64.618206 
L 128.415852 -63.935668 
L 125.252216 -58.866099 
L 122.08858 -54.41114 
L 118.924943 -53.944973 
L 115.761307 -54.909334 
L 112.59767 -55.277668 
L 109.434034 -52.58367 
L 106.270398 -48.658366 
L 103.106761 -44.9846 
L 99.943125 -43.757144 
L 96.779489 -43.815123 
L 93.615852 -44.86836 
L 90.452216 -50.809115 
L 87.28858 -64.345083 
L 84.124943 -73.088371 
L 80.961307 -74.178568 
L 77.79767 -75.529381 
L 74.634034 -79.031034 
L 71.470398 -82.988354 
L 68.306761 -85.901086 
L 65.143125 -91.361552 
L 61.979489 -93.32139 
L 58.815852 -90.206855 
L 55.652216 -85.840965 
L 52.48858 -81.408225 
L 49.324943 -76.859136 
L 46.161307 -72.059442 
L 42.99767 -70.843793 
z
"/>
    </defs>
    <g clip-path="url(#p9340c87a22)">
     <use xlink:href="#m4c9bad8e0b" x="0" y="109.9145" style="fill: #4f8438; fill-opacity: 0.2"/>
    </g>
   </g>
   <g id="line2d_12">
    <path d="M 42.99767 55.284431 
L 46.161307 53.628761 
L 49.324943 50.55845 
L 52.48858 46.315657 
L 55.652216 42.603979 
L 58.815852 39.718668 
L 61.979489 36.509886 
L 65.143125 31.755003 
L 68.306761 25.749198 
L 71.470398 20.619713 
L 74.634034 18.528223 
L 77.79767 19.761321 
L 80.961307 22.683574 
L 84.124943 27.061814 
L 87.28858 36.184997 
L 90.452216 49.146364 
L 93.615852 59.674967 
L 96.779489 64.896112 
L 99.943125 66.770646 
L 103.106761 67.288534 
L 106.270398 67.288055 
L 109.434034 66.808935 
L 112.59767 65.44134 
L 115.761307 62.706557 
L 118.924943 59.133642 
L 122.08858 55.720873 
L 125.252216 53.403993 
L 128.415852 51.779722 
L 131.579489 50.480263 
L 134.743125 48.794438 
L 137.906761 46.491515 
L 141.070398 44.057021 
L 144.234034 41.759879 
L 147.39767 38.844151 
L 150.561307 35.276512 
L 153.724943 32.570965 
L 156.88858 30.804425 
" clip-path="url(#p9340c87a22)" style="fill: none; stroke: #7865db; stroke-width: 1.5; stroke-linecap: round"/>
   </g>
   <g id="line2d_13">
    <path d="M 42.99767 54.40148 
L 46.161307 52.032315 
L 49.324943 49.724587 
L 52.48858 47.353062 
L 55.652216 44.848171 
L 58.815852 41.771538 
L 61.979489 38.049973 
L 65.143125 33.692395 
L 68.306761 29.583572 
L 71.470398 26.808917 
L 74.634034 25.659973 
L 77.79767 26.121457 
L 80.961307 29.130189 
L 84.124943 35.397552 
L 87.28858 44.438763 
L 90.452216 53.794301 
L 93.615852 61.17342 
L 96.779489 65.60519 
L 99.943125 67.494357 
L 103.106761 67.658082 
L 106.270398 66.626938 
L 109.434034 65.127976 
L 112.59767 63.774288 
L 115.761307 62.550746 
L 118.924943 61.000871 
L 122.08858 58.642959 
L 125.252216 55.708426 
L 128.415852 52.718528 
L 131.579489 49.681472 
L 134.743125 46.845686 
L 137.906761 44.586312 
L 141.070398 42.934099 
L 144.234034 40.726243 
L 147.39767 38.397214 
L 150.561307 36.376377 
L 153.724943 34.695799 
L 156.88858 33.474785 
" clip-path="url(#p9340c87a22)" style="fill: none; stroke: #b5ace7; stroke-width: 1.5; stroke-linecap: round"/>
   </g>
   <g id="line2d_14">
    <path d="M 42.99767 50.791604 
L 46.161307 47.886137 
L 49.324943 45.601308 
L 52.48858 43.723856 
L 55.652216 41.846234 
L 58.815852 39.604538 
L 61.979489 36.911868 
L 65.143125 34.021941 
L 68.306761 31.414528 
L 71.470398 29.795911 
L 74.634034 29.804068 
L 77.79767 31.620792 
L 80.961307 35.580113 
L 84.124943 42.626055 
L 87.28858 51.93477 
L 90.452216 60.409042 
L 93.615852 66.089593 
L 96.779489 69.346648 
L 99.943125 70.827464 
L 103.106761 70.951602 
L 106.270398 70.226893 
L 109.434034 68.969167 
L 112.59767 67.316371 
L 115.761307 65.198873 
L 118.924943 62.612846 
L 122.08858 59.774649 
L 125.252216 56.749111 
L 128.415852 53.794967 
L 131.579489 51.160991 
L 134.743125 48.639984 
L 137.906761 46.051491 
L 141.070398 43.732265 
L 144.234034 41.525233 
L 147.39767 39.168822 
L 150.561307 36.734036 
L 153.724943 34.552315 
L 156.88858 33.089013 
" clip-path="url(#p9340c87a22)" style="fill: none; stroke: #a8aaa7; stroke-width: 1.5; stroke-linecap: round"/>
   </g>
   <g id="line2d_15">
    <path d="M 42.99767 46.489673 
L 46.161307 44.350278 
L 49.324943 42.328237 
L 52.48858 40.070796 
L 55.652216 37.617795 
L 58.815852 34.765947 
L 61.979489 31.943865 
L 65.143125 30.678911 
L 68.306761 31.159895 
L 71.470398 32.076701 
L 74.634034 32.632775 
L 77.79767 33.704965 
L 80.961307 36.908413 
L 84.124943 44.05661 
L 87.28858 54.062755 
L 90.452216 62.912315 
L 93.615852 68.283059 
L 96.779489 71.379339 
L 99.943125 73.035968 
L 103.106761 73.142935 
L 106.270398 71.92808 
L 109.434034 69.946614 
L 112.59767 67.622695 
L 115.761307 65.347889 
L 118.924943 63.187 
L 122.08858 60.456831 
L 125.252216 57.246706 
L 128.415852 54.314672 
L 131.579489 51.63669 
L 134.743125 48.527045 
L 137.906761 45.439776 
L 141.070398 42.768318 
L 144.234034 39.961372 
L 147.39767 37.254399 
L 150.561307 35.43361 
L 153.724943 34.52574 
L 156.88858 33.82285 
" clip-path="url(#p9340c87a22)" style="fill: none; stroke: #9dbb91; stroke-width: 1.5; stroke-linecap: round"/>
   </g>
   <g id="line2d_16">
    <path d="M 42.99767 45.47473 
L 46.161307 43.346076 
L 49.324943 38.88432 
L 52.48858 34.439177 
L 55.652216 30.325831 
L 58.815852 25.761845 
L 61.979489 22.970423 
L 65.143125 24.950645 
L 68.306761 29.385068 
L 71.470398 33.203565 
L 74.634034 36.87672 
L 77.79767 40.220892 
L 80.961307 41.917232 
L 84.124943 45.169191 
L 87.28858 53.775802 
L 90.452216 64.40658 
L 93.615852 70.326295 
L 96.779489 71.680626 
L 99.943125 71.678713 
L 103.106761 70.122503 
L 106.270398 66.78933 
L 109.434034 63.088703 
L 112.59767 60.684125 
L 115.761307 60.383375 
L 118.924943 61.58397 
L 122.08858 60.745436 
L 125.252216 56.384787 
L 128.415852 51.742619 
L 131.579489 50.565347 
L 134.743125 50.482805 
L 137.906761 49.027327 
L 141.070398 46.022567 
L 144.234034 43.187106 
L 147.39767 41.163918 
L 150.561307 39.890668 
L 153.724943 39.16544 
L 156.88858 37.162836 
" clip-path="url(#p9340c87a22)" style="fill: none; stroke: #4f8438; stroke-width: 1.5; stroke-linecap: round"/>
   </g>
   <g id="patch_4">
    <path d="M 37.303125 80.64 
L 37.303125 11.52 
" style="fill: none; stroke: #000000; stroke-linejoin: miter; stroke-linecap: square"/>
   </g>
   <g id="patch_5">
    <path d="M 37.303125 80.64 
L 162.583125 80.64 
" style="fill: none; stroke: #000000; stroke-linejoin: miter; stroke-linecap: square"/>
   </g>
   <g id="PathCollection_1">
    <defs>
     <path id="ma5e8b7667c" d="M 0 2.236068 
C 0.593012 2.236068 1.161816 2.000462 1.581139 1.581139 
C 2.000462 1.161816 2.236068 0.593012 2.236068 0 
C 2.236068 -0.593012 2.000462 -1.161816 1.581139 -1.581139 
C 1.161816 -2.000462 0.593012 -2.236068 0 -2.236068 
C -0.593012 -2.236068 -1.161816 -2.000462 -1.581139 -1.581139 
C -2.000462 -1.161816 -2.236068 -0.593012 -2.236068 0 
C -2.236068 0.593012 -2.000462 1.161816 -1.581139 1.581139 
C -1.161816 2.000462 -0.593012 2.236068 0 2.236068 
z
" style="stroke: #7865db"/>
    </defs>
    <g clip-path="url(#p9340c87a22)">
     <use xlink:href="#ma5e8b7667c" x="87.28858" y="36.184997" style="fill: #7865db; stroke: #7865db"/>
    </g>
   </g>
   <g id="PathCollection_2">
    <defs>
     <path id="m1e48aac872" d="M 0 2.236068 
C 0.593012 2.236068 1.161816 2.000462 1.581139 1.581139 
C 2.000462 1.161816 2.236068 0.593012 2.236068 0 
C 2.236068 -0.593012 2.000462 -1.161816 1.581139 -1.581139 
C 1.161816 -2.000462 0.593012 -2.236068 0 -2.236068 
C -0.593012 -2.236068 -1.161816 -2.000462 -1.581139 -1.581139 
C -2.000462 -1.161816 -2.236068 -0.593012 -2.236068 0 
C -2.236068 0.593012 -2.000462 1.161816 -1.581139 1.581139 
C -1.161816 2.000462 -0.593012 2.236068 0 2.236068 
z
" style="stroke: #b5ace7"/>
    </defs>
    <g clip-path="url(#p9340c87a22)">
     <use xlink:href="#m1e48aac872" x="87.28858" y="44.438763" style="fill: #b5ace7; stroke: #b5ace7"/>
    </g>
   </g>
   <g id="PathCollection_3">
    <defs>
     <path id="mbd0c20b250" d="M 0 2.236068 
C 0.593012 2.236068 1.161816 2.000462 1.581139 1.581139 
C 2.000462 1.161816 2.236068 0.593012 2.236068 0 
C 2.236068 -0.593012 2.000462 -1.161816 1.581139 -1.581139 
C 1.161816 -2.000462 0.593012 -2.236068 0 -2.236068 
C -0.593012 -2.236068 -1.161816 -2.000462 -1.581139 -1.581139 
C -2.000462 -1.161816 -2.236068 -0.593012 -2.236068 0 
C -2.236068 0.593012 -2.000462 1.161816 -1.581139 1.581139 
C -1.161816 2.000462 -0.593012 2.236068 0 2.236068 
z
" style="stroke: #a8aaa7"/>
    </defs>
    <g clip-path="url(#p9340c87a22)">
     <use xlink:href="#mbd0c20b250" x="87.28858" y="51.93477" style="fill: #a8aaa7; stroke: #a8aaa7"/>
    </g>
   </g>
   <g id="PathCollection_4">
    <defs>
     <path id="mbf899283c7" d="M 0 2.236068 
C 0.593012 2.236068 1.161816 2.000462 1.581139 1.581139 
C 2.000462 1.161816 2.236068 0.593012 2.236068 0 
C 2.236068 -0.593012 2.000462 -1.161816 1.581139 -1.581139 
C 1.161816 -2.000462 0.593012 -2.236068 0 -2.236068 
C -0.593012 -2.236068 -1.161816 -2.000462 -1.581139 -1.581139 
C -2.000462 -1.161816 -2.236068 -0.593012 -2.236068 0 
C -2.236068 0.593012 -2.000462 1.161816 -1.581139 1.581139 
C -1.161816 2.000462 -0.593012 2.236068 0 2.236068 
z
" style="stroke: #9dbb91"/>
    </defs>
    <g clip-path="url(#p9340c87a22)">
     <use xlink:href="#mbf899283c7" x="87.28858" y="54.062755" style="fill: #9dbb91; stroke: #9dbb91"/>
    </g>
   </g>
   <g id="PathCollection_5">
    <defs>
     <path id="m9484808722" d="M 0 2.236068 
C 0.593012 2.236068 1.161816 2.000462 1.581139 1.581139 
C 2.000462 1.161816 2.236068 0.593012 2.236068 0 
C 2.236068 -0.593012 2.000462 -1.161816 1.581139 -1.581139 
C 1.161816 -2.000462 0.593012 -2.236068 0 -2.236068 
C -0.593012 -2.236068 -1.161816 -2.000462 -1.581139 -1.581139 
C -2.000462 -1.161816 -2.236068 -0.593012 -2.236068 0 
C -2.236068 0.593012 -2.000462 1.161816 -1.581139 1.581139 
C -1.161816 2.000462 -0.593012 2.236068 0 2.236068 
z
" style="stroke: #4f8438"/>
    </defs>
    <g clip-path="url(#p9340c87a22)">
     <use xlink:href="#m9484808722" x="87.28858" y="53.775802" style="fill: #4f8438; stroke: #4f8438"/>
    </g>
   </g>
  </g>
  <g id="axes_2">
   <g id="patch_6">
    <path d="M 175.543125 80.64 
L 300.823125 80.64 
L 300.823125 11.52 
L 175.543125 11.52 
z
" style="fill: #ffffff"/>
   </g>
   <g id="patch_7">
    <path d="M 228.692216 80.64 
L 250.83767 80.64 
L 250.83767 11.52 
L 228.692216 11.52 
z
" clip-path="url(#pfb28649eea)" style="fill: #ffc861; opacity: 0.1"/>
   </g>
   <g id="matplotlib.axis_3">
    <g id="xtick_7">
     <g id="line2d_17">
      <g>
       <use xlink:href="#m8b2bf4f099" x="184.401307" y="80.64" style="stroke: #000000"/>
      </g>
     </g>
     <g id="text_11">
      <!-- −14 -->
      <g style="fill: #262626" transform="translate(177.616307 88.86625) scale(0.08 -0.08)">
       <use xlink:href="#ArialMT-2212"/>
       <use xlink:href="#ArialMT-31" transform="translate(58.398438 0)"/>
       <use xlink:href="#ArialMT-34" transform="translate(114.013672 0)"/>
      </g>
     </g>
    </g>
    <g id="xtick_8">
     <g id="line2d_18">
      <g>
       <use xlink:href="#m8b2bf4f099" x="206.546761" y="80.64" style="stroke: #000000"/>
      </g>
     </g>
     <g id="text_12">
      <!-- −7 -->
      <g style="fill: #262626" transform="translate(201.986136 88.86625) scale(0.08 -0.08)">
       <use xlink:href="#ArialMT-2212"/>
       <use xlink:href="#ArialMT-37" transform="translate(58.398438 0)"/>
      </g>
     </g>
    </g>
    <g id="xtick_9">
     <g id="line2d_19">
      <path d="M 228.692216 80.64 
L 228.692216 11.52 
" clip-path="url(#pfb28649eea)" style="fill: none; stroke: #cccccc; stroke-width: 1.1; stroke-linecap: round"/>
     </g>
     <g id="line2d_20">
      <g>
       <use xlink:href="#m8b2bf4f099" x="228.692216" y="80.64" style="stroke: #000000"/>
      </g>
     </g>
     <g id="text_13">
      <!-- 0 -->
      <g style="fill: #262626" transform="translate(226.467841 88.86625) scale(0.08 -0.08)">
       <use xlink:href="#ArialMT-30"/>
      </g>
     </g>
    </g>
    <g id="xtick_10">
     <g id="line2d_21">
      <g>
       <use xlink:href="#m8b2bf4f099" x="250.83767" y="80.64" style="stroke: #000000"/>
      </g>
     </g>
     <g id="text_14">
      <!-- 7 -->
      <g style="fill: #262626" transform="translate(248.613295 88.86625) scale(0.08 -0.08)">
       <use xlink:href="#ArialMT-37"/>
      </g>
     </g>
    </g>
    <g id="xtick_11">
     <g id="line2d_22">
      <g>
       <use xlink:href="#m8b2bf4f099" x="272.983125" y="80.64" style="stroke: #000000"/>
      </g>
     </g>
     <g id="text_15">
      <!-- 14 -->
      <g style="fill: #262626" transform="translate(268.534375 88.86625) scale(0.08 -0.08)">
       <use xlink:href="#ArialMT-31"/>
       <use xlink:href="#ArialMT-34" transform="translate(55.615234 0)"/>
      </g>
     </g>
    </g>
    <g id="xtick_12">
     <g id="line2d_23">
      <g>
       <use xlink:href="#m8b2bf4f099" x="295.12858" y="80.64" style="stroke: #000000"/>
      </g>
     </g>
     <g id="text_16">
      <!-- 21 -->
      <g style="fill: #262626" transform="translate(290.67983 88.86625) scale(0.08 -0.08)">
       <use xlink:href="#ArialMT-32"/>
       <use xlink:href="#ArialMT-31" transform="translate(55.615234 0)"/>
      </g>
     </g>
    </g>
    <g id="text_17">
     <!-- Cycle Day -->
     <g style="fill: #262626" transform="translate(218.13425 100.862375) scale(0.088 -0.088)">
      <use xlink:href="#ArialMT-43"/>
      <use xlink:href="#ArialMT-79" transform="translate(72.216797 0)"/>
      <use xlink:href="#ArialMT-63" transform="translate(122.216797 0)"/>
      <use xlink:href="#ArialMT-6c" transform="translate(172.216797 0)"/>
      <use xlink:href="#ArialMT-65" transform="translate(194.433594 0)"/>
      <use xlink:href="#ArialMT-20" transform="translate(250.048828 0)"/>
      <use xlink:href="#ArialMT-44" transform="translate(277.832031 0)"/>
      <use xlink:href="#ArialMT-61" transform="translate(350.048828 0)"/>
      <use xlink:href="#ArialMT-79" transform="translate(405.664062 0)"/>
     </g>
    </g>
   </g>
   <g id="matplotlib.axis_4">
    <g id="ytick_3">
     <g id="line2d_24">
      <path d="M 175.543125 50.040228 
L 300.823125 50.040228 
" clip-path="url(#pfb28649eea)" style="fill: none; stroke: #cccccc; stroke-width: 0.5; stroke-linecap: round"/>
     </g>
     <g id="line2d_25">
      <g>
       <use xlink:href="#m4dd9f25a8b" x="175.543125" y="50.040228" style="stroke: #000000"/>
      </g>
     </g>
    </g>
    <g id="ytick_4">
     <g id="line2d_26">
      <path d="M 175.543125 16.985946 
L 300.823125 16.985946 
" clip-path="url(#pfb28649eea)" style="fill: none; stroke: #cccccc; stroke-width: 0.5; stroke-linecap: round"/>
     </g>
     <g id="line2d_27">
      <g>
       <use xlink:href="#m4dd9f25a8b" x="175.543125" y="16.985946" style="stroke: #000000"/>
      </g>
     </g>
    </g>
   </g>
   <g id="FillBetweenPolyCollection_6">
    <defs>
     <path id="m9fc39ad79c" d="M 181.23767 -58.792028 
L 181.23767 -51.532004 
L 184.401307 -55.235884 
L 187.564943 -58.25429 
L 190.72858 -61.445156 
L 193.892216 -62.957003 
L 197.055852 -63.541253 
L 200.219489 -63.885294 
L 203.383125 -65.836933 
L 206.546761 -68.433029 
L 209.710398 -71.843407 
L 212.874034 -72.314302 
L 216.03767 -69.773076 
L 219.201307 -66.737833 
L 222.364943 -62.842542 
L 225.52858 -58.672081 
L 228.692216 -54.394225 
L 231.855852 -51.87373 
L 235.019489 -50.771972 
L 238.183125 -48.309493 
L 241.346761 -46.3328 
L 244.510398 -46.109233 
L 247.674034 -46.244772 
L 250.83767 -45.032699 
L 254.001307 -44.547901 
L 257.164943 -45.103544 
L 260.32858 -46.460177 
L 263.492216 -47.930979 
L 266.655852 -50.590919 
L 269.819489 -54.669547 
L 272.983125 -57.941428 
L 276.146761 -60.040318 
L 279.310398 -62.496555 
L 282.474034 -64.267403 
L 285.63767 -66.127442 
L 288.801307 -66.926588 
L 291.964943 -68.578566 
L 295.12858 -70.609955 
L 295.12858 -77.43619 
L 295.12858 -77.43619 
L 291.964943 -76.520587 
L 288.801307 -75.131412 
L 285.63767 -74.190126 
L 282.474034 -72.412547 
L 279.310398 -69.930815 
L 276.146761 -67.648732 
L 272.983125 -65.503997 
L 269.819489 -62.095618 
L 266.655852 -58.224106 
L 263.492216 -55.749267 
L 260.32858 -54.004604 
L 257.164943 -52.550836 
L 254.001307 -52.160115 
L 250.83767 -53.078874 
L 247.674034 -54.539076 
L 244.510398 -54.651111 
L 241.346761 -53.883285 
L 238.183125 -55.98945 
L 235.019489 -58.372601 
L 231.855852 -59.689371 
L 228.692216 -61.804206 
L 225.52858 -65.355826 
L 222.364943 -69.578457 
L 219.201307 -72.795778 
L 216.03767 -76.237925 
L 212.874034 -79.617074 
L 209.710398 -79.044479 
L 206.546761 -75.973077 
L 203.383125 -72.808696 
L 200.219489 -70.824982 
L 197.055852 -70.597361 
L 193.892216 -70.85339 
L 190.72858 -69.076738 
L 187.564943 -65.757661 
L 184.401307 -62.51448 
L 181.23767 -58.792028 
z
"/>
    </defs>
    <g clip-path="url(#pfb28649eea)">
     <use xlink:href="#m9fc39ad79c" x="0" y="109.9145" style="fill: #7865db; fill-opacity: 0.2"/>
    </g>
   </g>
   <g id="FillBetweenPolyCollection_7">
    <defs>
     <path id="ma06d1f69ef" d="M 181.23767 -59.925847 
L 181.23767 -56.489135 
L 184.401307 -58.329906 
L 187.564943 -60.093461 
L 190.72858 -61.914809 
L 193.892216 -63.778412 
L 197.055852 -65.756677 
L 200.219489 -68.869334 
L 203.383125 -72.090394 
L 206.546761 -74.186332 
L 209.710398 -75.427458 
L 212.874034 -75.281573 
L 216.03767 -73.687158 
L 219.201307 -70.211837 
L 222.364943 -64.473889 
L 225.52858 -56.557963 
L 228.692216 -49.549529 
L 231.855852 -45.080659 
L 235.019489 -42.513751 
L 238.183125 -41.803043 
L 241.346761 -42.721814 
L 244.510398 -44.72015 
L 247.674034 -46.188249 
L 250.83767 -46.366185 
L 254.001307 -46.329622 
L 257.164943 -47.648941 
L 260.32858 -49.457999 
L 263.492216 -51.763539 
L 266.655852 -54.595776 
L 269.819489 -57.532501 
L 272.983125 -60.047843 
L 276.146761 -62.851215 
L 279.310398 -65.08861 
L 282.474034 -67.566698 
L 285.63767 -69.919007 
L 288.801307 -72.120456 
L 291.964943 -74.158927 
L 295.12858 -75.151968 
L 295.12858 -79.338985 
L 295.12858 -79.338985 
L 291.964943 -78.071951 
L 288.801307 -76.286285 
L 285.63767 -73.878637 
L 282.474034 -71.541268 
L 279.310398 -68.978827 
L 276.146761 -66.578402 
L 272.983125 -63.995956 
L 269.819489 -61.242574 
L 266.655852 -58.189147 
L 263.492216 -55.369179 
L 260.32858 -53.258004 
L 257.164943 -51.375926 
L 254.001307 -50.325731 
L 250.83767 -50.302063 
L 247.674034 -49.854034 
L 244.510398 -48.418932 
L 241.346761 -46.491916 
L 238.183125 -45.31574 
L 235.019489 -45.949948 
L 231.855852 -48.654984 
L 228.692216 -53.048611 
L 225.52858 -60.028964 
L 222.364943 -67.929614 
L 219.201307 -73.718761 
L 216.03767 -77.091719 
L 212.874034 -78.845631 
L 209.710398 -78.719108 
L 206.546761 -77.572465 
L 203.383125 -75.519006 
L 200.219489 -72.152624 
L 197.055852 -69.086047 
L 193.892216 -66.983731 
L 190.72858 -65.301971 
L 187.564943 -63.552201 
L 184.401307 -61.698441 
L 181.23767 -59.925847 
z
"/>
    </defs>
    <g clip-path="url(#pfb28649eea)">
     <use xlink:href="#ma06d1f69ef" x="0" y="109.9145" style="fill: #b5ace7; fill-opacity: 0.2"/>
    </g>
   </g>
   <g id="FillBetweenPolyCollection_8">
    <defs>
     <path id="m782af589a0" d="M 181.23767 -60.864595 
L 181.23767 -59.673123 
L 184.401307 -62.440683 
L 187.564943 -64.63349 
L 190.72858 -66.397045 
L 193.892216 -68.278534 
L 197.055852 -70.645537 
L 200.219489 -73.38384 
L 203.383125 -76.372731 
L 206.546761 -78.985961 
L 209.710398 -80.535832 
L 212.874034 -80.537096 
L 216.03767 -78.816209 
L 219.201307 -74.890644 
L 222.364943 -67.828552 
L 225.52858 -58.448283 
L 228.692216 -49.894305 
L 231.855852 -43.969201 
L 235.019489 -40.461968 
L 238.183125 -38.868497 
L 241.346761 -38.819945 
L 244.510398 -39.768504 
L 247.674034 -41.219244 
L 250.83767 -42.960259 
L 254.001307 -45.16098 
L 257.164943 -47.666263 
L 260.32858 -50.550201 
L 263.492216 -53.632499 
L 266.655852 -56.614818 
L 269.819489 -59.1892 
L 272.983125 -61.691108 
L 276.146761 -64.028061 
L 279.310398 -66.145282 
L 282.474034 -68.318439 
L 285.63767 -70.92208 
L 288.801307 -73.429633 
L 291.964943 -75.535312 
L 295.12858 -76.811455 
L 295.12858 -78.122382 
L 295.12858 -78.122382 
L 291.964943 -76.834377 
L 288.801307 -74.702009 
L 285.63767 -72.116055 
L 282.474034 -69.603513 
L 279.310398 -67.393828 
L 276.146761 -65.247936 
L 272.983125 -62.899202 
L 269.819489 -60.439001 
L 266.655852 -57.802816 
L 263.492216 -54.896314 
L 260.32858 -51.723505 
L 257.164943 -48.847413 
L 254.001307 -46.35991 
L 250.83767 -44.162263 
L 247.674034 -42.403066 
L 244.510398 -40.986474 
L 241.346761 -39.997648 
L 238.183125 -39.973516 
L 235.019489 -41.570312 
L 231.855852 -45.197241 
L 228.692216 -51.083511 
L 225.52858 -59.636538 
L 222.364943 -69.02708 
L 219.201307 -76.101837 
L 216.03767 -80.003844 
L 212.874034 -81.703697 
L 209.710398 -81.716262 
L 206.546761 -80.167675 
L 203.383125 -77.548969 
L 200.219489 -74.618292 
L 197.055852 -71.7742 
L 193.892216 -69.425178 
L 190.72858 -67.598926 
L 187.564943 -65.810487 
L 184.401307 -63.671809 
L 181.23767 -60.864595 
z
"/>
    </defs>
    <g clip-path="url(#pfb28649eea)">
     <use xlink:href="#m782af589a0" x="0" y="109.9145" style="fill: #a8aaa7; fill-opacity: 0.2"/>
    </g>
   </g>
   <g id="FillBetweenPolyCollection_9">
    <defs>
     <path id="m7ca30025de" d="M 181.23767 -61.850663 
L 181.23767 -58.212228 
L 184.401307 -62.057494 
L 187.564943 -65.391437 
L 190.72858 -68.707031 
L 193.892216 -71.788648 
L 197.055852 -74.58743 
L 200.219489 -77.861107 
L 203.383125 -80.880183 
L 206.546761 -83.417413 
L 209.710398 -84.867303 
L 212.874034 -85.3928 
L 216.03767 -83.682462 
L 219.201307 -79.075693 
L 222.364943 -70.63601 
L 225.52858 -59.689258 
L 228.692216 -48.811324 
L 231.855852 -41.854245 
L 235.019489 -38.43117 
L 238.183125 -37.243516 
L 241.346761 -36.768238 
L 244.510398 -36.67216 
L 247.674034 -37.288758 
L 250.83767 -39.72261 
L 254.001307 -43.266267 
L 257.164943 -47.108893 
L 260.32858 -50.496493 
L 263.492216 -53.75003 
L 266.655852 -56.792521 
L 269.819489 -59.425387 
L 272.983125 -61.651754 
L 276.146761 -63.753583 
L 279.310398 -65.898327 
L 282.474034 -68.338967 
L 285.63767 -70.646106 
L 288.801307 -72.712103 
L 291.964943 -74.644812 
L 295.12858 -76.50971 
L 295.12858 -80.229254 
L 295.12858 -80.229254 
L 291.964943 -78.59792 
L 288.801307 -76.626199 
L 285.63767 -74.441494 
L 282.474034 -72.126406 
L 279.310398 -69.542837 
L 276.146761 -67.508409 
L 272.983125 -65.620441 
L 269.819489 -63.428211 
L 266.655852 -60.80795 
L 263.492216 -57.614974 
L 260.32858 -54.679903 
L 257.164943 -51.060185 
L 254.001307 -47.141635 
L 250.83767 -43.347479 
L 247.674034 -40.992433 
L 244.510398 -40.342982 
L 241.346761 -40.530282 
L 238.183125 -41.073925 
L 235.019489 -42.283592 
L 231.855852 -45.506853 
L 228.692216 -52.56589 
L 225.52858 -63.694831 
L 222.364943 -74.739171 
L 219.201307 -82.924054 
L 216.03767 -87.862951 
L 212.874034 -89.285164 
L 209.710398 -88.775053 
L 206.546761 -87.390831 
L 203.383125 -84.913548 
L 200.219489 -81.819335 
L 197.055852 -78.671632 
L 193.892216 -75.751058 
L 190.72858 -72.697116 
L 187.564943 -69.045691 
L 184.401307 -65.525362 
L 181.23767 -61.850663 
z
"/>
    </defs>
    <g clip-path="url(#pfb28649eea)">
     <use xlink:href="#m7ca30025de" x="0" y="109.9145" style="fill: #9dbb91; fill-opacity: 0.2"/>
    </g>
   </g>
   <g id="FillBetweenPolyCollection_10">
    <defs>
     <path id="maa17bff066" d="M 181.23767 -66.023571 
L 181.23767 -57.260148 
L 184.401307 -60.075662 
L 187.564943 -61.973555 
L 190.72858 -64.573684 
L 193.892216 -68.678663 
L 197.055852 -73.707752 
L 200.219489 -79.306013 
L 203.383125 -82.228474 
L 206.546761 -82.543801 
L 209.710398 -83.470353 
L 212.874034 -84.866591 
L 216.03767 -86.278943 
L 219.201307 -84.034694 
L 222.364943 -77.617908 
L 225.52858 -65.115655 
L 228.692216 -51.822133 
L 231.855852 -41.445089 
L 235.019489 -35.54821 
L 238.183125 -33.744529 
L 241.346761 -33.150074 
L 244.510398 -32.768567 
L 247.674034 -32.416318 
L 250.83767 -34.92377 
L 254.001307 -38.745844 
L 257.164943 -43.382457 
L 260.32858 -47.143955 
L 263.492216 -50.44725 
L 266.655852 -52.045046 
L 269.819489 -52.456648 
L 272.983125 -55.31517 
L 276.146761 -59.798806 
L 279.310398 -63.503987 
L 282.474034 -64.502941 
L 285.63767 -68.136705 
L 288.801307 -71.78264 
L 291.964943 -73.051584 
L 295.12858 -72.762934 
L 295.12858 -81.992307 
L 295.12858 -81.992307 
L 291.964943 -82.54729 
L 288.801307 -81.487456 
L 285.63767 -77.466937 
L 282.474034 -74.483351 
L 279.310398 -73.292435 
L 276.146761 -69.59331 
L 272.983125 -64.218403 
L 269.819489 -61.363837 
L 266.655852 -60.456423 
L 263.492216 -59.307924 
L 260.32858 -56.213303 
L 257.164943 -51.913992 
L 254.001307 -47.803625 
L 250.83767 -43.989858 
L 247.674034 -41.910187 
L 244.510398 -41.686793 
L 241.346761 -42.272848 
L 238.183125 -42.670974 
L 235.019489 -44.75399 
L 231.855852 -50.850126 
L 228.692216 -61.770186 
L 225.52858 -75.068861 
L 222.364943 -87.803786 
L 219.201307 -94.6436 
L 216.03767 -95.252682 
L 212.874034 -94.049331 
L 209.710398 -92.03741 
L 206.546761 -92.018753 
L 203.383125 -92.386921 
L 200.219489 -89.782754 
L 197.055852 -83.134073 
L 193.892216 -77.4185 
L 190.72858 -74.217318 
L 187.564943 -71.369212 
L 184.401307 -69.056585 
L 181.23767 -66.023571 
z
"/>
    </defs>
    <g clip-path="url(#pfb28649eea)">
     <use xlink:href="#maa17bff066" x="0" y="109.9145" style="fill: #4f8438; fill-opacity: 0.2"/>
    </g>
   </g>
   <g id="line2d_28">
    <path d="M 181.23767 54.750459 
L 184.401307 50.942054 
L 187.564943 47.870807 
L 190.72858 44.904627 
L 193.892216 43.14473 
L 197.055852 42.974762 
L 200.219489 42.620361 
L 203.383125 40.651468 
L 206.546761 37.552533 
L 209.710398 34.580941 
L 212.874034 34.141076 
L 216.03767 36.742556 
L 219.201307 40.223299 
L 222.364943 43.779506 
L 225.52858 48.010793 
L 228.692216 51.810296 
L 231.855852 53.934871 
L 235.019489 55.387515 
L 238.183125 57.701918 
L 241.346761 59.720069 
L 244.510398 59.794023 
L 247.674034 59.640246 
L 250.83767 60.721014 
L 254.001307 61.622143 
L 257.164943 61.077418 
L 260.32858 59.65049 
L 263.492216 57.951301 
L 266.655852 55.425143 
L 269.819489 51.610889 
L 272.983125 48.070784 
L 276.146761 45.862214 
L 279.310398 43.838015 
L 282.474034 41.560387 
L 285.63767 39.947594 
L 288.801307 38.521748 
L 291.964943 37.260583 
L 295.12858 35.849576 
" clip-path="url(#pfb28649eea)" style="fill: none; stroke: #7865db; stroke-width: 1.5; stroke-linecap: round"/>
   </g>
   <g id="line2d_29">
    <path d="M 181.23767 51.749556 
L 184.401307 49.92312 
L 187.564943 48.070753 
L 190.72858 46.27299 
L 193.892216 44.580882 
L 197.055852 42.35872 
L 200.219489 39.277847 
L 203.383125 36.165954 
L 206.546761 33.948486 
L 209.710398 32.779591 
L 212.874034 32.878785 
L 216.03767 34.552526 
L 219.201307 37.951253 
L 222.364943 43.82935 
L 225.52858 51.604921 
L 228.692216 58.542628 
L 231.855852 63.099676 
L 235.019489 65.668324 
L 238.183125 66.297659 
L 241.346761 65.260797 
L 244.510398 63.329822 
L 247.674034 61.880462 
L 250.83767 61.579296 
L 254.001307 61.574128 
L 257.164943 60.462082 
L 260.32858 58.624114 
L 263.492216 56.3256 
L 266.655852 53.504587 
L 269.819489 50.584353 
L 272.983125 47.786385 
L 276.146761 45.100852 
L 279.310398 42.904889 
L 282.474034 40.533896 
L 285.63767 38.030177 
L 288.801307 35.715168 
L 291.964943 33.898934 
L 295.12858 32.711079 
" clip-path="url(#pfb28649eea)" style="fill: none; stroke: #b5ace7; stroke-width: 1.5; stroke-linecap: round"/>
   </g>
   <g id="line2d_30">
    <path d="M 181.23767 49.637675 
L 184.401307 46.865231 
L 187.564943 44.683979 
L 190.72858 42.905059 
L 193.892216 41.065186 
L 197.055852 38.706567 
L 200.219489 35.905075 
L 203.383125 32.963459 
L 206.546761 30.361418 
L 209.710398 28.802275 
L 212.874034 28.820404 
L 216.03767 30.520107 
L 219.201307 34.40461 
L 222.364943 41.481065 
L 225.52858 50.846595 
L 228.692216 59.428525 
L 231.855852 65.344562 
L 235.019489 68.886765 
L 238.183125 70.481873 
L 241.346761 70.490306 
L 244.510398 69.545033 
L 247.674034 68.124259 
L 250.83767 66.327534 
L 254.001307 64.152334 
L 257.164943 61.649202 
L 260.32858 58.782801 
L 263.492216 55.642306 
L 266.655852 52.69687 
L 269.819489 50.124201 
L 272.983125 47.668687 
L 276.146761 45.262295 
L 279.310398 43.179559 
L 282.474034 40.976925 
L 285.63767 38.411107 
L 288.801307 35.86109 
L 291.964943 33.759997 
L 295.12858 32.435762 
" clip-path="url(#pfb28649eea)" style="fill: none; stroke: #a8aaa7; stroke-width: 1.5; stroke-linecap: round"/>
   </g>
   <g id="line2d_31">
    <path d="M 181.23767 49.774618 
L 184.401307 46.109686 
L 187.564943 42.710586 
L 190.72858 39.27578 
L 193.892216 36.110053 
L 197.055852 33.232605 
L 200.219489 30.117735 
L 203.383125 27.037033 
L 206.546761 24.686925 
L 209.710398 23.112529 
L 212.874034 22.570153 
L 216.03767 24.196782 
L 219.201307 28.872175 
L 222.364943 37.174522 
L 225.52858 48.365845 
L 228.692216 59.193126 
L 231.855852 66.252384 
L 235.019489 69.572243 
L 238.183125 70.777535 
L 241.346761 71.185181 
L 244.510398 71.418179 
L 247.674034 70.76505 
L 250.83767 68.346373 
L 254.001307 64.733365 
L 257.164943 60.906913 
L 260.32858 57.34697 
L 263.492216 54.245771 
L 266.655852 51.26677 
L 269.819489 48.487622 
L 272.983125 46.216383 
L 276.146761 44.306746 
L 279.310398 42.124292 
L 282.474034 39.670788 
L 285.63767 37.415064 
L 288.801307 35.334014 
L 291.964943 33.321864 
L 295.12858 31.574589 
" clip-path="url(#pfb28649eea)" style="fill: none; stroke: #9dbb91; stroke-width: 1.5; stroke-linecap: round"/>
   </g>
   <g id="line2d_32">
    <path d="M 181.23767 48.163732 
L 184.401307 45.252339 
L 187.564943 43.236895 
L 190.72858 40.5121 
L 193.892216 36.91371 
L 197.055852 31.515785 
L 200.219489 25.323248 
L 203.383125 22.425381 
L 206.546761 22.600696 
L 209.710398 22.233787 
L 212.874034 20.516165 
L 216.03767 19.172635 
L 219.201307 20.622362 
L 222.364943 27.466274 
L 225.52858 39.609713 
L 228.692216 53.211734 
L 231.855852 63.968543 
L 235.019489 69.726038 
L 238.183125 71.592407 
L 241.346761 72.174716 
L 244.510398 72.806118 
L 247.674034 72.615664 
L 250.83767 70.361309 
L 254.001307 66.559143 
L 257.164943 62.340353 
L 260.32858 58.149797 
L 263.492216 54.932305 
L 266.655852 53.646719 
L 269.819489 52.956373 
L 272.983125 50.097811 
L 276.146761 45.310711 
L 279.310398 41.72278 
L 282.474034 40.350789 
L 285.63767 37.208013 
L 288.801307 33.356677 
L 291.964943 32.197075 
L 295.12858 32.74267 
" clip-path="url(#pfb28649eea)" style="fill: none; stroke: #4f8438; stroke-width: 1.5; stroke-linecap: round"/>
   </g>
   <g id="patch_8">
    <path d="M 175.543125 80.64 
L 175.543125 11.52 
" style="fill: none; stroke: #000000; stroke-linejoin: miter; stroke-linecap: square"/>
   </g>
   <g id="patch_9">
    <path d="M 175.543125 80.64 
L 300.823125 80.64 
" style="fill: none; stroke: #000000; stroke-linejoin: miter; stroke-linecap: square"/>
   </g>
   <g id="PathCollection_6">
    <g clip-path="url(#pfb28649eea)">
     <use xlink:href="#ma5e8b7667c" x="247.674034" y="59.640246" style="fill: #7865db; stroke: #7865db"/>
    </g>
   </g>
   <g id="PathCollection_7">
    <g clip-path="url(#pfb28649eea)">
     <use xlink:href="#m1e48aac872" x="247.674034" y="61.880462" style="fill: #b5ace7; stroke: #b5ace7"/>
    </g>
   </g>
   <g id="PathCollection_8">
    <g clip-path="url(#pfb28649eea)">
     <use xlink:href="#mbd0c20b250" x="247.674034" y="68.124259" style="fill: #a8aaa7; stroke: #a8aaa7"/>
    </g>
   </g>
   <g id="PathCollection_9">
    <g clip-path="url(#pfb28649eea)">
     <use xlink:href="#mbf899283c7" x="247.674034" y="70.76505" style="fill: #9dbb91; stroke: #9dbb91"/>
    </g>
   </g>
   <g id="PathCollection_10">
    <g clip-path="url(#pfb28649eea)">
     <use xlink:href="#m9484808722" x="247.674034" y="72.615664" style="fill: #4f8438; stroke: #4f8438"/>
    </g>
   </g>
  </g>
  <g id="axes_3">
   <g id="patch_10">
    <path d="M 313.783125 80.64 
L 439.063125 80.64 
L 439.063125 11.52 
L 313.783125 11.52 
z
" style="fill: #ffffff"/>
   </g>
   <g id="patch_11">
    <path d="M 389.07767 80.64 
L 411.223125 80.64 
L 411.223125 11.52 
L 389.07767 11.52 
z
" clip-path="url(#p521d027b85)" style="fill: #ffc861; opacity: 0.1"/>
   </g>
   <g id="matplotlib.axis_5">
    <g id="xtick_13">
     <g id="line2d_33">
      <g>
       <use xlink:href="#m8b2bf4f099" x="322.641307" y="80.64" style="stroke: #000000"/>
      </g>
     </g>
     <g id="text_18">
      <!-- −14 -->
      <g style="fill: #262626" transform="translate(315.856307 88.86625) scale(0.08 -0.08)">
       <use xlink:href="#ArialMT-2212"/>
       <use xlink:href="#ArialMT-31" transform="translate(58.398438 0)"/>
       <use xlink:href="#ArialMT-34" transform="translate(114.013672 0)"/>
      </g>
     </g>
    </g>
    <g id="xtick_14">
     <g id="line2d_34">
      <g>
       <use xlink:href="#m8b2bf4f099" x="344.786761" y="80.64" style="stroke: #000000"/>
      </g>
     </g>
     <g id="text_19">
      <!-- −7 -->
      <g style="fill: #262626" transform="translate(340.226136 88.86625) scale(0.08 -0.08)">
       <use xlink:href="#ArialMT-2212"/>
       <use xlink:href="#ArialMT-37" transform="translate(58.398438 0)"/>
      </g>
     </g>
    </g>
    <g id="xtick_15">
     <g id="line2d_35">
      <path d="M 366.932216 80.64 
L 366.932216 11.52 
" clip-path="url(#p521d027b85)" style="fill: none; stroke: #cccccc; stroke-width: 1.1; stroke-linecap: round"/>
     </g>
     <g id="line2d_36">
      <g>
       <use xlink:href="#m8b2bf4f099" x="366.932216" y="80.64" style="stroke: #000000"/>
      </g>
     </g>
     <g id="text_20">
      <!-- 0 -->
      <g style="fill: #262626" transform="translate(364.707841 88.86625) scale(0.08 -0.08)">
       <use xlink:href="#ArialMT-30"/>
      </g>
     </g>
    </g>
    <g id="xtick_16">
     <g id="line2d_37">
      <g>
       <use xlink:href="#m8b2bf4f099" x="389.07767" y="80.64" style="stroke: #000000"/>
      </g>
     </g>
     <g id="text_21">
      <!-- 7 -->
      <g style="fill: #262626" transform="translate(386.853295 88.86625) scale(0.08 -0.08)">
       <use xlink:href="#ArialMT-37"/>
      </g>
     </g>
    </g>
    <g id="xtick_17">
     <g id="line2d_38">
      <g>
       <use xlink:href="#m8b2bf4f099" x="411.223125" y="80.64" style="stroke: #000000"/>
      </g>
     </g>
     <g id="text_22">
      <!-- 14 -->
      <g style="fill: #262626" transform="translate(406.774375 88.86625) scale(0.08 -0.08)">
       <use xlink:href="#ArialMT-31"/>
       <use xlink:href="#ArialMT-34" transform="translate(55.615234 0)"/>
      </g>
     </g>
    </g>
    <g id="xtick_18">
     <g id="line2d_39">
      <g>
       <use xlink:href="#m8b2bf4f099" x="433.36858" y="80.64" style="stroke: #000000"/>
      </g>
     </g>
     <g id="text_23">
      <!-- 21 -->
      <g style="fill: #262626" transform="translate(428.91983 88.86625) scale(0.08 -0.08)">
       <use xlink:href="#ArialMT-32"/>
       <use xlink:href="#ArialMT-31" transform="translate(55.615234 0)"/>
      </g>
     </g>
    </g>
    <g id="text_24">
     <!-- Cycle Day -->
     <g style="fill: #262626" transform="translate(356.37425 100.862375) scale(0.088 -0.088)">
      <use xlink:href="#ArialMT-43"/>
      <use xlink:href="#ArialMT-79" transform="translate(72.216797 0)"/>
      <use xlink:href="#ArialMT-63" transform="translate(122.216797 0)"/>
      <use xlink:href="#ArialMT-6c" transform="translate(172.216797 0)"/>
      <use xlink:href="#ArialMT-65" transform="translate(194.433594 0)"/>
      <use xlink:href="#ArialMT-20" transform="translate(250.048828 0)"/>
      <use xlink:href="#ArialMT-44" transform="translate(277.832031 0)"/>
      <use xlink:href="#ArialMT-61" transform="translate(350.048828 0)"/>
      <use xlink:href="#ArialMT-79" transform="translate(405.664062 0)"/>
     </g>
    </g>
   </g>
   <g id="matplotlib.axis_6">
    <g id="ytick_5">
     <g id="line2d_40">
      <path d="M 313.783125 68.891083 
L 439.063125 68.891083 
" clip-path="url(#p521d027b85)" style="fill: none; stroke: #cccccc; stroke-width: 0.5; stroke-linecap: round"/>
     </g>
     <g id="line2d_41">
      <g>
       <use xlink:href="#m4dd9f25a8b" x="313.783125" y="68.891083" style="stroke: #000000"/>
      </g>
     </g>
    </g>
    <g id="ytick_6">
     <g id="line2d_42">
      <path d="M 313.783125 50.341916 
L 439.063125 50.341916 
" clip-path="url(#p521d027b85)" style="fill: none; stroke: #cccccc; stroke-width: 0.5; stroke-linecap: round"/>
     </g>
     <g id="line2d_43">
      <g>
       <use xlink:href="#m4dd9f25a8b" x="313.783125" y="50.341916" style="stroke: #000000"/>
      </g>
     </g>
    </g>
    <g id="ytick_7">
     <g id="line2d_44">
      <path d="M 313.783125 31.792748 
L 439.063125 31.792748 
" clip-path="url(#p521d027b85)" style="fill: none; stroke: #cccccc; stroke-width: 0.5; stroke-linecap: round"/>
     </g>
     <g id="line2d_45">
      <g>
       <use xlink:href="#m4dd9f25a8b" x="313.783125" y="31.792748" style="stroke: #000000"/>
      </g>
     </g>
    </g>
    <g id="ytick_8">
     <g id="line2d_46">
      <path d="M 313.783125 13.24358 
L 439.063125 13.24358 
" clip-path="url(#p521d027b85)" style="fill: none; stroke: #cccccc; stroke-width: 0.5; stroke-linecap: round"/>
     </g>
     <g id="line2d_47">
      <g>
       <use xlink:href="#m4dd9f25a8b" x="313.783125" y="13.24358" style="stroke: #000000"/>
      </g>
     </g>
    </g>
   </g>
   <g id="FillBetweenPolyCollection_11">
    <defs>
     <path id="m3d7cab1b4d" d="M 319.47767 -66.26833 
L 319.47767 -57.91559 
L 322.641307 -60.091619 
L 325.804943 -61.048566 
L 328.96858 -63.683954 
L 332.132216 -66.42647 
L 335.295852 -70.778738 
L 338.459489 -74.531241 
L 341.623125 -77.20908 
L 344.786761 -78.658191 
L 347.950398 -79.45792 
L 351.114034 -78.804413 
L 354.27767 -76.759118 
L 357.441307 -73.29966 
L 360.604943 -65.657265 
L 363.76858 -54.4666 
L 366.932216 -43.407156 
L 370.095852 -36.184829 
L 373.259489 -33.343866 
L 376.423125 -33.311491 
L 379.586761 -33.87271 
L 382.750398 -33.576571 
L 385.914034 -35.896934 
L 389.07767 -42.621027 
L 392.241307 -50.118629 
L 395.404943 -55.875557 
L 398.56858 -59.770054 
L 401.732216 -63.345195 
L 404.895852 -67.505338 
L 408.059489 -69.869245 
L 411.223125 -68.880032 
L 414.386761 -67.981427 
L 417.550398 -68.832773 
L 420.714034 -69.858078 
L 423.87767 -70.535196 
L 427.041307 -71.956233 
L 430.204943 -75.532588 
L 433.36858 -78.543818 
L 433.36858 -88.244476 
L 433.36858 -88.244476 
L 430.204943 -85.322144 
L 427.041307 -80.967619 
L 423.87767 -78.672313 
L 420.714034 -78.611501 
L 417.550398 -77.048954 
L 414.386761 -76.027223 
L 411.223125 -78.121057 
L 408.059489 -79.938373 
L 404.895852 -77.688885 
L 401.732216 -72.623548 
L 398.56858 -68.736976 
L 395.404943 -64.537258 
L 392.241307 -58.787866 
L 389.07767 -50.665528 
L 385.914034 -43.415998 
L 382.750398 -40.873818 
L 379.586761 -41.779968 
L 376.423125 -41.605891 
L 373.259489 -41.004315 
L 370.095852 -44.1551 
L 366.932216 -51.395064 
L 363.76858 -62.206113 
L 360.604943 -73.118098 
L 357.441307 -80.711928 
L 354.27767 -84.44723 
L 351.114034 -86.780161 
L 347.950398 -87.564142 
L 344.786761 -87.502373 
L 341.623125 -85.804548 
L 338.459489 -82.460944 
L 335.295852 -78.083433 
L 332.132216 -73.961951 
L 328.96858 -70.816226 
L 325.804943 -68.93076 
L 322.641307 -67.208046 
L 319.47767 -66.26833 
z
"/>
    </defs>
    <g clip-path="url(#p521d027b85)">
     <use xlink:href="#m3d7cab1b4d" x="0" y="109.9145" style="fill: #7865db; fill-opacity: 0.2"/>
    </g>
   </g>
   <g id="FillBetweenPolyCollection_12">
    <defs>
     <path id="m2e5a1dd152" d="M 319.47767 -62.998151 
L 319.47767 -59.011855 
L 322.641307 -61.573552 
L 325.804943 -63.837321 
L 328.96858 -65.669663 
L 332.132216 -67.110648 
L 335.295852 -69.727029 
L 338.459489 -72.985758 
L 341.623125 -76.269468 
L 344.786761 -78.363446 
L 347.950398 -79.255812 
L 351.114034 -79.027532 
L 354.27767 -77.154921 
L 357.441307 -72.474213 
L 360.604943 -64.198993 
L 363.76858 -53.284179 
L 366.932216 -43.3369 
L 370.095852 -36.94202 
L 373.259489 -33.632044 
L 376.423125 -32.416318 
L 379.586761 -32.59395 
L 382.750398 -34.589361 
L 385.914034 -37.391436 
L 389.07767 -40.644437 
L 392.241307 -44.484803 
L 395.404943 -49.062162 
L 398.56858 -54.235115 
L 401.732216 -58.803237 
L 404.895852 -62.495351 
L 408.059489 -64.25295 
L 411.223125 -65.216117 
L 414.386761 -66.346825 
L 417.550398 -67.972756 
L 420.714034 -69.419751 
L 423.87767 -71.879055 
L 427.041307 -74.543784 
L 430.204943 -76.805994 
L 433.36858 -78.600192 
L 433.36858 -82.59787 
L 433.36858 -82.59787 
L 430.204943 -80.863706 
L 427.041307 -78.683347 
L 423.87767 -76.04643 
L 420.714034 -73.407087 
L 417.550398 -71.779323 
L 414.386761 -70.48468 
L 411.223125 -69.36692 
L 408.059489 -68.595703 
L 404.895852 -66.617064 
L 401.732216 -63.138722 
L 398.56858 -58.371516 
L 395.404943 -53.243746 
L 392.241307 -48.232891 
L 389.07767 -44.399398 
L 385.914034 -40.841811 
L 382.750398 -38.241359 
L 379.586761 -36.263299 
L 376.423125 -35.777968 
L 373.259489 -37.172167 
L 370.095852 -40.425368 
L 366.932216 -46.835593 
L 363.76858 -57.087003 
L 360.604943 -67.917087 
L 357.441307 -76.402411 
L 354.27767 -81.11113 
L 351.114034 -83.190672 
L 347.950398 -83.268799 
L 344.786761 -82.32873 
L 341.623125 -80.106382 
L 338.459489 -76.90502 
L 335.295852 -73.494562 
L 332.132216 -71.137171 
L 328.96858 -69.511487 
L 325.804943 -67.965134 
L 322.641307 -65.848611 
L 319.47767 -62.998151 
z
"/>
    </defs>
    <g clip-path="url(#p521d027b85)">
     <use xlink:href="#m2e5a1dd152" x="0" y="109.9145" style="fill: #b5ace7; fill-opacity: 0.2"/>
    </g>
   </g>
   <g id="FillBetweenPolyCollection_13">
    <defs>
     <path id="m9b7ec90067" d="M 319.47767 -60.935818 
L 319.47767 -59.611884 
L 322.641307 -62.818928 
L 325.804943 -65.315685 
L 328.96858 -67.404516 
L 332.132216 -69.451905 
L 335.295852 -71.997926 
L 338.459489 -75.193122 
L 341.623125 -78.471261 
L 344.786761 -81.269088 
L 347.950398 -82.973882 
L 351.114034 -82.881327 
L 354.27767 -80.826685 
L 357.441307 -76.305914 
L 360.604943 -68.333255 
L 363.76858 -57.827047 
L 366.932216 -48.135821 
L 370.095852 -41.527915 
L 373.259489 -37.478087 
L 376.423125 -35.573274 
L 379.586761 -35.502849 
L 382.750398 -36.498529 
L 385.914034 -38.057302 
L 389.07767 -40.000208 
L 392.241307 -42.381252 
L 395.404943 -45.055107 
L 398.56858 -48.18514 
L 401.732216 -51.545521 
L 404.895852 -54.91908 
L 408.059489 -58.178146 
L 411.223125 -61.448393 
L 414.386761 -64.363875 
L 417.550398 -66.807497 
L 420.714034 -69.221319 
L 423.87767 -71.958018 
L 427.041307 -74.695271 
L 430.204943 -76.978431 
L 433.36858 -78.289734 
L 433.36858 -79.8009 
L 433.36858 -79.8009 
L 430.204943 -78.45779 
L 427.041307 -76.157127 
L 423.87767 -73.306206 
L 420.714034 -70.57685 
L 417.550398 -68.16232 
L 414.386761 -65.803942 
L 411.223125 -62.817783 
L 408.059489 -59.564801 
L 404.895852 -56.240367 
L 401.732216 -52.867512 
L 398.56858 -49.515051 
L 395.404943 -46.406053 
L 392.241307 -43.698151 
L 389.07767 -41.350791 
L 385.914034 -39.405125 
L 382.750398 -37.849455 
L 379.586761 -36.798179 
L 376.423125 -36.902582 
L 373.259489 -38.81185 
L 370.095852 -42.821044 
L 366.932216 -49.527851 
L 363.76858 -59.186458 
L 360.604943 -69.645785 
L 357.441307 -77.690889 
L 354.27767 -82.213146 
L 351.114034 -84.294674 
L 347.950398 -84.334892 
L 344.786761 -82.636346 
L 341.623125 -79.887713 
L 338.459489 -76.564662 
L 335.295852 -73.397636 
L 332.132216 -70.724744 
L 328.96858 -68.764206 
L 325.804943 -66.667296 
L 322.641307 -64.114101 
L 319.47767 -60.935818 
z
"/>
    </defs>
    <g clip-path="url(#p521d027b85)">
     <use xlink:href="#m9b7ec90067" x="0" y="109.9145" style="fill: #a8aaa7; fill-opacity: 0.2"/>
    </g>
   </g>
   <g id="FillBetweenPolyCollection_14">
    <defs>
     <path id="maaa3d124a5" d="M 319.47767 -59.92786 
L 319.47767 -56.067327 
L 322.641307 -59.417654 
L 325.804943 -62.745358 
L 328.96858 -66.175492 
L 332.132216 -68.45555 
L 335.295852 -70.995204 
L 338.459489 -74.792334 
L 341.623125 -78.837627 
L 344.786761 -82.236772 
L 347.950398 -84.356504 
L 351.114034 -85.091984 
L 354.27767 -84.225786 
L 357.441307 -80.225691 
L 360.604943 -72.851198 
L 363.76858 -62.634403 
L 366.932216 -53.569344 
L 370.095852 -47.938182 
L 373.259489 -44.851263 
L 376.423125 -43.183756 
L 379.586761 -42.86328 
L 382.750398 -43.098472 
L 385.914034 -42.593447 
L 389.07767 -41.230223 
L 392.241307 -41.188008 
L 395.404943 -43.376902 
L 398.56858 -46.553905 
L 401.732216 -49.547476 
L 404.895852 -52.289142 
L 408.059489 -54.703585 
L 411.223125 -57.0194 
L 414.386761 -60.124105 
L 417.550398 -63.664542 
L 420.714034 -67.002291 
L 423.87767 -70.712838 
L 427.041307 -73.713279 
L 430.204943 -76.18066 
L 433.36858 -77.412065 
L 433.36858 -81.440189 
L 433.36858 -81.440189 
L 430.204943 -80.333087 
L 427.041307 -77.532568 
L 423.87767 -74.479142 
L 420.714034 -70.960119 
L 417.550398 -67.504662 
L 414.386761 -64.104112 
L 411.223125 -61.093804 
L 408.059489 -58.466087 
L 404.895852 -56.057468 
L 401.732216 -53.148265 
L 398.56858 -50.106707 
L 395.404943 -46.914891 
L 392.241307 -44.841795 
L 389.07767 -45.11804 
L 385.914034 -46.557693 
L 382.750398 -46.997376 
L 379.586761 -46.832272 
L 376.423125 -47.354009 
L 373.259489 -48.749845 
L 370.095852 -51.98487 
L 366.932216 -57.636032 
L 363.76858 -66.497093 
L 360.604943 -76.591839 
L 357.441307 -84.303048 
L 354.27767 -88.179931 
L 351.114034 -89.347068 
L 347.950398 -88.321007 
L 344.786761 -86.141709 
L 341.623125 -82.903242 
L 338.459489 -78.640849 
L 335.295852 -75.081173 
L 332.132216 -72.626503 
L 328.96858 -70.068618 
L 325.804943 -66.736724 
L 322.641307 -63.11061 
L 319.47767 -59.92786 
z
"/>
    </defs>
    <g clip-path="url(#p521d027b85)">
     <use xlink:href="#maaa3d124a5" x="0" y="109.9145" style="fill: #9dbb91; fill-opacity: 0.2"/>
    </g>
   </g>
   <g id="FillBetweenPolyCollection_15">
    <defs>
     <path id="m7a8ec68a2d" d="M 319.47767 -64.428619 
L 319.47767 -55.031365 
L 322.641307 -58.622327 
L 325.804943 -59.668253 
L 328.96858 -60.777892 
L 332.132216 -62.802304 
L 335.295852 -66.189986 
L 338.459489 -71.147577 
L 341.623125 -77.932595 
L 344.786761 -82.982526 
L 347.950398 -84.389653 
L 351.114034 -83.839966 
L 354.27767 -83.710025 
L 357.441307 -81.690498 
L 360.604943 -75.245314 
L 363.76858 -64.177169 
L 366.932216 -52.370378 
L 370.095852 -45.245995 
L 373.259489 -43.058793 
L 376.423125 -41.709202 
L 379.586761 -40.611285 
L 382.750398 -41.571478 
L 385.914034 -41.628395 
L 389.07767 -39.481959 
L 392.241307 -37.071111 
L 395.404943 -37.18294 
L 398.56858 -37.647384 
L 401.732216 -40.640306 
L 404.895852 -41.718249 
L 408.059489 -42.560142 
L 411.223125 -44.119795 
L 414.386761 -47.101959 
L 417.550398 -51.72744 
L 420.714034 -57.187992 
L 423.87767 -62.751905 
L 427.041307 -66.836445 
L 430.204943 -69.921252 
L 433.36858 -70.015279 
L 433.36858 -79.759948 
L 433.36858 -79.759948 
L 430.204943 -79.408693 
L 427.041307 -76.176555 
L 423.87767 -72.545958 
L 420.714034 -66.477943 
L 417.550398 -61.359755 
L 414.386761 -56.535287 
L 411.223125 -53.021322 
L 408.059489 -51.544342 
L 404.895852 -51.971798 
L 401.732216 -52.958129 
L 398.56858 -54.300515 
L 395.404943 -51.694387 
L 392.241307 -50.11861 
L 389.07767 -50.813349 
L 385.914034 -53.744104 
L 382.750398 -54.735951 
L 379.586761 -54.093569 
L 376.423125 -53.644581 
L 373.259489 -54.340315 
L 370.095852 -56.041387 
L 366.932216 -63.044253 
L 363.76858 -75.172032 
L 360.604943 -86.390537 
L 357.441307 -92.058196 
L 354.27767 -94.301754 
L 351.114034 -94.435327 
L 347.950398 -95.252682 
L 344.786761 -94.189226 
L 341.623125 -88.110124 
L 338.459489 -81.590717 
L 335.295852 -75.882958 
L 332.132216 -72.241961 
L 328.96858 -69.984608 
L 325.804943 -69.377354 
L 322.641307 -68.004132 
L 319.47767 -64.428619 
z
"/>
    </defs>
    <g clip-path="url(#p521d027b85)">
     <use xlink:href="#m7a8ec68a2d" x="0" y="109.9145" style="fill: #4f8438; fill-opacity: 0.2"/>
    </g>
   </g>
   <g id="line2d_48">
    <path d="M 319.47767 47.678166 
L 322.641307 46.372833 
L 325.804943 45.057959 
L 328.96858 42.734104 
L 332.132216 39.642782 
L 335.295852 35.495956 
L 338.459489 31.355555 
L 341.623125 28.383099 
L 344.786761 26.809389 
L 347.950398 26.497666 
L 351.114034 27.439304 
L 354.27767 29.444938 
L 357.441307 33.106248 
L 360.604943 40.511554 
L 363.76858 51.72408 
L 366.932216 62.561892 
L 370.095852 69.809364 
L 373.259489 72.797111 
L 376.423125 72.492187 
L 379.586761 72.278748 
L 382.750398 72.847369 
L 385.914034 70.291282 
L 389.07767 63.165456 
L 392.241307 55.40915 
L 395.404943 49.839955 
L 398.56858 45.929009 
L 401.732216 41.853968 
L 404.895852 37.353432 
L 408.059489 35.102586 
L 411.223125 36.362365 
L 414.386761 37.665319 
L 417.550398 36.978621 
L 420.714034 35.829157 
L 423.87767 35.285177 
L 427.041307 33.372653 
L 430.204943 29.825917 
L 433.36858 26.749135 
" clip-path="url(#p521d027b85)" style="fill: none; stroke: #7865db; stroke-width: 1.5; stroke-linecap: round"/>
   </g>
   <g id="line2d_49">
    <path d="M 319.47767 48.965667 
L 322.641307 46.177291 
L 325.804943 44.029573 
L 328.96858 42.416639 
L 332.132216 40.750616 
L 335.295852 38.198473 
L 338.459489 34.937755 
L 341.623125 31.764977 
L 344.786761 29.534503 
L 347.950398 28.566493 
L 351.114034 28.880434 
L 354.27767 30.835382 
L 357.441307 35.544678 
L 360.604943 43.888027 
L 363.76858 54.784224 
L 366.932216 64.793805 
L 370.095852 71.175222 
L 373.259489 74.481649 
L 376.423125 75.887789 
L 379.586761 75.48059 
L 382.750398 73.602102 
L 385.914034 70.783903 
L 389.07767 67.406231 
L 392.241307 63.476694 
L 395.404943 58.754936 
L 398.56858 53.630579 
L 401.732216 49.04007 
L 404.895852 45.471267 
L 408.059489 43.498586 
L 411.223125 42.578929 
L 414.386761 41.481579 
L 417.550398 40.1509 
L 420.714034 38.464372 
L 423.87767 36.070377 
L 427.041307 33.341662 
L 430.204943 31.138463 
L 433.36858 29.451401 
" clip-path="url(#p521d027b85)" style="fill: none; stroke: #b5ace7; stroke-width: 1.5; stroke-linecap: round"/>
   </g>
   <g id="line2d_50">
    <path d="M 319.47767 49.578276 
L 322.641307 46.426055 
L 325.804943 43.910791 
L 328.96858 41.869103 
L 332.132216 39.813814 
L 335.295852 37.175333 
L 338.459489 33.989369 
L 341.623125 30.744925 
L 344.786761 27.953682 
L 347.950398 26.255923 
L 351.114034 26.309702 
L 354.27767 28.37265 
L 357.441307 32.901788 
L 360.604943 40.905105 
L 363.76858 51.441644 
L 366.932216 61.093954 
L 370.095852 67.754578 
L 373.259489 71.799946 
L 376.423125 73.686191 
L 379.586761 73.763631 
L 382.750398 72.73179 
L 385.914034 71.180238 
L 389.07767 69.234171 
L 392.241307 66.882241 
L 395.404943 64.180754 
L 398.56858 61.089119 
L 401.732216 57.685223 
L 404.895852 54.312092 
L 408.059489 51.035577 
L 411.223125 47.782132 
L 414.386761 44.798023 
L 417.550398 42.419495 
L 420.714034 40.066402 
L 423.87767 37.288627 
L 427.041307 34.487656 
L 430.204943 32.21403 
L 433.36858 30.844892 
" clip-path="url(#p521d027b85)" style="fill: none; stroke: #a8aaa7; stroke-width: 1.5; stroke-linecap: round"/>
   </g>
   <g id="line2d_51">
    <path d="M 319.47767 51.807297 
L 322.641307 48.713301 
L 325.804943 45.175829 
L 328.96858 41.836246 
L 332.132216 39.409586 
L 335.295852 36.917571 
L 338.459489 33.224507 
L 341.623125 28.959371 
L 344.786761 25.680529 
L 347.950398 23.627823 
L 351.114034 22.720604 
L 354.27767 23.736223 
L 357.441307 27.567636 
L 360.604943 35.20627 
L 363.76858 45.348252 
L 366.932216 54.280106 
L 370.095852 59.957636 
L 373.259489 63.185773 
L 376.423125 64.776325 
L 379.586761 65.07765 
L 382.750398 64.799003 
L 385.914034 65.388215 
L 389.07767 66.820594 
L 392.241307 66.918747 
L 395.404943 64.760812 
L 398.56858 61.640998 
L 401.732216 58.556677 
L 404.895852 55.702642 
L 408.059489 53.267599 
L 411.223125 50.915479 
L 414.386761 47.870595 
L 417.550398 44.354209 
L 420.714034 40.876468 
L 423.87767 37.398961 
L 427.041307 34.177825 
L 430.204943 31.689919 
L 433.36858 30.414299 
" clip-path="url(#p521d027b85)" style="fill: none; stroke: #9dbb91; stroke-width: 1.5; stroke-linecap: round"/>
   </g>
   <g id="line2d_52">
    <path d="M 319.47767 49.948251 
L 322.641307 46.849271 
L 325.804943 45.586496 
L 328.96858 44.399589 
L 332.132216 42.1982 
L 335.295852 38.693924 
L 338.459489 33.491712 
L 341.623125 26.984757 
L 344.786761 21.760098 
L 347.950398 20.221813 
L 351.114034 20.716756 
L 354.27767 21.155269 
L 357.441307 22.935003 
L 360.604943 29.212831 
L 363.76858 40.400719 
L 366.932216 52.121317 
L 370.095852 59.092967 
L 373.259489 61.327471 
L 376.423125 62.193859 
L 379.586761 62.607595 
L 382.750398 61.750928 
L 385.914034 61.987541 
L 389.07767 64.560384 
L 392.241307 66.341751 
L 395.404943 65.801589 
L 398.56858 64.585461 
L 401.732216 63.624727 
L 404.895852 63.117314 
L 408.059489 62.932726 
L 411.223125 61.622095 
L 414.386761 58.246391 
L 417.550398 53.495444 
L 420.714034 48.061051 
L 423.87767 42.404754 
L 427.041307 38.274187 
L 430.204943 35.429269 
L 433.36858 34.927084 
" clip-path="url(#p521d027b85)" style="fill: none; stroke: #4f8438; stroke-width: 1.5; stroke-linecap: round"/>
   </g>
   <g id="patch_12">
    <path d="M 313.783125 80.64 
L 313.783125 11.52 
" style="fill: none; stroke: #000000; stroke-linejoin: miter; stroke-linecap: square"/>
   </g>
   <g id="patch_13">
    <path d="M 313.783125 80.64 
L 439.063125 80.64 
" style="fill: none; stroke: #000000; stroke-linejoin: miter; stroke-linecap: square"/>
   </g>
   <g id="PathCollection_11">
    <g clip-path="url(#p521d027b85)">
     <use xlink:href="#ma5e8b7667c" x="408.059489" y="35.102586" style="fill: #7865db; stroke: #7865db"/>
    </g>
   </g>
   <g id="PathCollection_12">
    <g clip-path="url(#p521d027b85)">
     <use xlink:href="#m1e48aac872" x="408.059489" y="43.498586" style="fill: #b5ace7; stroke: #b5ace7"/>
    </g>
   </g>
   <g id="PathCollection_13">
    <g clip-path="url(#p521d027b85)">
     <use xlink:href="#mbd0c20b250" x="408.059489" y="51.035577" style="fill: #a8aaa7; stroke: #a8aaa7"/>
    </g>
   </g>
   <g id="PathCollection_14">
    <g clip-path="url(#p521d027b85)">
     <use xlink:href="#mbf899283c7" x="408.059489" y="53.267599" style="fill: #9dbb91; stroke: #9dbb91"/>
    </g>
   </g>
   <g id="PathCollection_15">
    <g clip-path="url(#p521d027b85)">
     <use xlink:href="#m9484808722" x="408.059489" y="62.932726" style="fill: #4f8438; stroke: #4f8438"/>
    </g>
   </g>
  </g>
  <g id="text_25">
   <!-- b. -->
   <g style="fill: #262626" transform="translate(7.2 15.789375) scale(0.12 -0.12)">
    <defs>
     <path id="Arial-BoldMT-62" d="M 422 0 
L 422 4581 
L 1300 4581 
L 1300 2931 
Q 1706 3394 2263 3394 
Q 2869 3394 3266 2955 
Q 3663 2516 3663 1694 
Q 3663 844 3258 384 
Q 2853 -75 2275 -75 
Q 1991 -75 1714 67 
Q 1438 209 1238 488 
L 1238 0 
L 422 0 
z
M 1294 1731 
Q 1294 1216 1456 969 
Q 1684 619 2063 619 
Q 2353 619 2558 867 
Q 2763 1116 2763 1650 
Q 2763 2219 2556 2470 
Q 2350 2722 2028 2722 
Q 1713 2722 1503 2476 
Q 1294 2231 1294 1731 
z
" transform="scale(0.015625)"/>
     <path id="Arial-BoldMT-2e" d="M 459 0 
L 459 878 
L 1338 878 
L 1338 0 
L 459 0 
z
" transform="scale(0.015625)"/>
    </defs>
    <use xlink:href="#Arial-BoldMT-62"/>
    <use xlink:href="#Arial-BoldMT-2e" transform="translate(61.083984 0)"/>
   </g>
  </g>
 </g>
 <defs>
  <clipPath id="p9340c87a22">
   <rect x="37.303125" y="11.52" width="125.28" height="69.12"/>
  </clipPath>
  <clipPath id="pfb28649eea">
   <rect x="175.543125" y="11.52" width="125.28" height="69.12"/>
  </clipPath>
  <clipPath id="p521d027b85">
   <rect x="313.783125" y="11.52" width="125.28" height="69.12"/>
  </clipPath>
 </defs>
</svg>
