<?xml version="1.0" encoding="utf-8" standalone="no"?>
<!DOCTYPE svg PUBLIC "-//W3C//DTD SVG 1.1//EN"
  "http://www.w3.org/Graphics/SVG/1.1/DTD/svg11.dtd">
<svg xmlns:xlink="http://www.w3.org/1999/xlink" width="224.39952pt" height="152.39952pt" viewBox="0 0 224.39952 152.39952" xmlns="http://www.w3.org/2000/svg" version="1.1">
 <metadata>
  <rdf:RDF xmlns:dc="http://purl.org/dc/elements/1.1/" xmlns:cc="http://creativecommons.org/ns#" xmlns:rdf="http://www.w3.org/1999/02/22-rdf-syntax-ns#">
   <cc:Work>
    <dc:type rdf:resource="http://purl.org/dc/dcmitype/StillImage"/>
    <dc:date>2026-05-06T15:36:55.363632</dc:date>
    <dc:format>image/svg+xml</dc:format>
    <dc:creator>
     <cc:Agent>
      <dc:title>Matplotlib v3.10.7, https://matplotlib.org/</dc:title>
     </cc:Agent>
    </dc:creator>
   </cc:Work>
  </rdf:RDF>
 </metadata>
 <defs>
  <style type="text/css">*{stroke-linejoin: round; stroke-linecap: butt}</style>
 </defs>
 <g id="figure_1">
  <g id="patch_1">
   <path d="M 0 152.39952 
L 224.39952 152.39952 
L 224.39952 0 
L 0 0 
z
" style="fill: #ffffff"/>
  </g>
  <g id="axes_1">
   <g id="patch_2">
    <path d="M 42.617725 107.630305 
L 217.19952 107.630305 
L 217.19952 7.2 
L 42.617725 7.2 
z
" style="fill: #ffffff"/>
   </g>
   <g id="matplotlib.axis_1">
    <g id="xtick_1">
     <g id="line2d_1">
      <path d="M 60.472681 107.630305 
L 60.472681 7.2 
" clip-path="url(#p9019209552)" style="fill: none"/>
     </g>
     <g id="line2d_2">
      <defs>
       <path id="m03cb87c6ba" d="M 0 0 
L 0 2 
" style="stroke: #000000"/>
      </defs>
      <g>
       <use xlink:href="#m03cb87c6ba" x="60.472681" y="107.630305" style="stroke: #000000"/>
      </g>
     </g>
     <g id="text_1">
      <!-- [18,22] -->
      <g style="fill: #262626" transform="translate(53.294664 131.493769) rotate(-45) scale(0.08 -0.08)">
       <defs>
        <path id="ArialMT-5b" d="M 434 -1272 
L 434 4581 
L 1675 4581 
L 1675 4116 
L 997 4116 
L 997 -806 
L 1675 -806 
L 1675 -1272 
L 434 -1272 
z
" transform="scale(0.015625)"/>
        <path id="ArialMT-31" d="M 2384 0 
L 1822 0 
L 1822 3584 
Q 1619 3391 1289 3197 
Q 959 3003 697 2906 
L 697 3450 
Q 1169 3672 1522 3987 
Q 1875 4303 2022 4600 
L 2384 4600 
L 2384 0 
z
" transform="scale(0.015625)"/>
        <path id="ArialMT-38" d="M 1131 2484 
Q 781 2613 612 2850 
Q 444 3088 444 3419 
Q 444 3919 803 4259 
Q 1163 4600 1759 4600 
Q 2359 4600 2725 4251 
Q 3091 3903 3091 3403 
Q 3091 3084 2923 2848 
Q 2756 2613 2416 2484 
Q 2838 2347 3058 2040 
Q 3278 1734 3278 1309 
Q 3278 722 2862 322 
Q 2447 -78 1769 -78 
Q 1091 -78 675 323 
Q 259 725 259 1325 
Q 259 1772 486 2073 
Q 713 2375 1131 2484 
z
M 1019 3438 
Q 1019 3113 1228 2906 
Q 1438 2700 1772 2700 
Q 2097 2700 2305 2904 
Q 2513 3109 2513 3406 
Q 2513 3716 2298 3927 
Q 2084 4138 1766 4138 
Q 1444 4138 1231 3931 
Q 1019 3725 1019 3438 
z
M 838 1322 
Q 838 1081 952 856 
Q 1066 631 1291 507 
Q 1516 384 1775 384 
Q 2178 384 2440 643 
Q 2703 903 2703 1303 
Q 2703 1709 2433 1975 
Q 2163 2241 1756 2241 
Q 1359 2241 1098 1978 
Q 838 1716 838 1322 
z
" transform="scale(0.015625)"/>
        <path id="ArialMT-2c" d="M 569 0 
L 569 641 
L 1209 641 
L 1209 0 
Q 1209 -353 1084 -570 
Q 959 -788 688 -906 
L 531 -666 
Q 709 -588 793 -436 
Q 878 -284 888 0 
L 569 0 
z
" transform="scale(0.015625)"/>
        <path id="ArialMT-32" d="M 3222 541 
L 3222 0 
L 194 0 
Q 188 203 259 391 
Q 375 700 629 1000 
Q 884 1300 1366 1694 
Q 2113 2306 2375 2664 
Q 2638 3022 2638 3341 
Q 2638 3675 2398 3904 
Q 2159 4134 1775 4134 
Q 1369 4134 1125 3890 
Q 881 3647 878 3216 
L 300 3275 
Q 359 3922 746 4261 
Q 1134 4600 1788 4600 
Q 2447 4600 2831 4234 
Q 3216 3869 3216 3328 
Q 3216 3053 3103 2787 
Q 2991 2522 2730 2228 
Q 2469 1934 1863 1422 
Q 1356 997 1212 845 
Q 1069 694 975 541 
L 3222 541 
z
" transform="scale(0.015625)"/>
        <path id="ArialMT-5d" d="M 1363 -1272 
L 122 -1272 
L 122 -806 
L 800 -806 
L 800 4116 
L 122 4116 
L 122 4581 
L 1363 4581 
L 1363 -1272 
z
" transform="scale(0.015625)"/>
       </defs>
       <use xlink:href="#ArialMT-5b"/>
       <use xlink:href="#ArialMT-31" transform="translate(27.783203 0)"/>
       <use xlink:href="#ArialMT-38" transform="translate(83.398438 0)"/>
       <use xlink:href="#ArialMT-2c" transform="translate(139.013672 0)"/>
       <use xlink:href="#ArialMT-32" transform="translate(166.796875 0)"/>
       <use xlink:href="#ArialMT-32" transform="translate(222.412109 0)"/>
       <use xlink:href="#ArialMT-5d" transform="translate(278.027344 0)"/>
      </g>
     </g>
    </g>
    <g id="xtick_2">
     <g id="line2d_3">
      <path d="M 80.311522 107.630305 
L 80.311522 7.2 
" clip-path="url(#p9019209552)" style="fill: none"/>
     </g>
     <g id="line2d_4">
      <g>
       <use xlink:href="#m03cb87c6ba" x="80.311522" y="107.630305" style="stroke: #000000"/>
      </g>
     </g>
     <g id="text_2">
      <!-- (22,26] -->
      <g style="fill: #262626" transform="translate(72.970427 131.857929) rotate(-45) scale(0.08 -0.08)">
       <defs>
        <path id="ArialMT-28" d="M 1497 -1347 
Q 1031 -759 709 28 
Q 388 816 388 1659 
Q 388 2403 628 3084 
Q 909 3875 1497 4659 
L 1900 4659 
Q 1522 4009 1400 3731 
Q 1209 3300 1100 2831 
Q 966 2247 966 1656 
Q 966 153 1900 -1347 
L 1497 -1347 
z
" transform="scale(0.015625)"/>
        <path id="ArialMT-36" d="M 3184 3459 
L 2625 3416 
Q 2550 3747 2413 3897 
Q 2184 4138 1850 4138 
Q 1581 4138 1378 3988 
Q 1113 3794 959 3422 
Q 806 3050 800 2363 
Q 1003 2672 1297 2822 
Q 1591 2972 1913 2972 
Q 2475 2972 2870 2558 
Q 3266 2144 3266 1488 
Q 3266 1056 3080 686 
Q 2894 316 2569 119 
Q 2244 -78 1831 -78 
Q 1128 -78 684 439 
Q 241 956 241 2144 
Q 241 3472 731 4075 
Q 1159 4600 1884 4600 
Q 2425 4600 2770 4297 
Q 3116 3994 3184 3459 
z
M 888 1484 
Q 888 1194 1011 928 
Q 1134 663 1356 523 
Q 1578 384 1822 384 
Q 2178 384 2434 671 
Q 2691 959 2691 1453 
Q 2691 1928 2437 2201 
Q 2184 2475 1800 2475 
Q 1419 2475 1153 2201 
Q 888 1928 888 1484 
z
" transform="scale(0.015625)"/>
       </defs>
       <use xlink:href="#ArialMT-28"/>
       <use xlink:href="#ArialMT-32" transform="translate(33.300781 0)"/>
       <use xlink:href="#ArialMT-32" transform="translate(88.916016 0)"/>
       <use xlink:href="#ArialMT-2c" transform="translate(144.53125 0)"/>
       <use xlink:href="#ArialMT-32" transform="translate(172.314453 0)"/>
       <use xlink:href="#ArialMT-36" transform="translate(227.929688 0)"/>
       <use xlink:href="#ArialMT-5d" transform="translate(283.544922 0)"/>
      </g>
     </g>
    </g>
    <g id="xtick_3">
     <g id="line2d_5">
      <path d="M 100.150362 107.630305 
L 100.150362 7.2 
" clip-path="url(#p9019209552)" style="fill: none"/>
     </g>
     <g id="line2d_6">
      <g>
       <use xlink:href="#m03cb87c6ba" x="100.150362" y="107.630305" style="stroke: #000000"/>
      </g>
     </g>
     <g id="text_3">
      <!-- (26,30] -->
      <g style="fill: #262626" transform="translate(92.809268 131.857929) rotate(-45) scale(0.08 -0.08)">
       <defs>
        <path id="ArialMT-33" d="M 269 1209 
L 831 1284 
Q 928 806 1161 595 
Q 1394 384 1728 384 
Q 2125 384 2398 659 
Q 2672 934 2672 1341 
Q 2672 1728 2419 1979 
Q 2166 2231 1775 2231 
Q 1616 2231 1378 2169 
L 1441 2663 
Q 1497 2656 1531 2656 
Q 1891 2656 2178 2843 
Q 2466 3031 2466 3422 
Q 2466 3731 2256 3934 
Q 2047 4138 1716 4138 
Q 1388 4138 1169 3931 
Q 950 3725 888 3313 
L 325 3413 
Q 428 3978 793 4289 
Q 1159 4600 1703 4600 
Q 2078 4600 2393 4439 
Q 2709 4278 2876 4000 
Q 3044 3722 3044 3409 
Q 3044 3113 2884 2869 
Q 2725 2625 2413 2481 
Q 2819 2388 3044 2092 
Q 3269 1797 3269 1353 
Q 3269 753 2831 336 
Q 2394 -81 1725 -81 
Q 1122 -81 723 278 
Q 325 638 269 1209 
z
" transform="scale(0.015625)"/>
        <path id="ArialMT-30" d="M 266 2259 
Q 266 3072 433 3567 
Q 600 4063 929 4331 
Q 1259 4600 1759 4600 
Q 2128 4600 2406 4451 
Q 2684 4303 2865 4023 
Q 3047 3744 3150 3342 
Q 3253 2941 3253 2259 
Q 3253 1453 3087 958 
Q 2922 463 2592 192 
Q 2263 -78 1759 -78 
Q 1097 -78 719 397 
Q 266 969 266 2259 
z
M 844 2259 
Q 844 1131 1108 757 
Q 1372 384 1759 384 
Q 2147 384 2411 759 
Q 2675 1134 2675 2259 
Q 2675 3391 2411 3762 
Q 2147 4134 1753 4134 
Q 1366 4134 1134 3806 
Q 844 3388 844 2259 
z
" transform="scale(0.015625)"/>
       </defs>
       <use xlink:href="#ArialMT-28"/>
       <use xlink:href="#ArialMT-32" transform="translate(33.300781 0)"/>
       <use xlink:href="#ArialMT-36" transform="translate(88.916016 0)"/>
       <use xlink:href="#ArialMT-2c" transform="translate(144.53125 0)"/>
       <use xlink:href="#ArialMT-33" transform="translate(172.314453 0)"/>
       <use xlink:href="#ArialMT-30" transform="translate(227.929688 0)"/>
       <use xlink:href="#ArialMT-5d" transform="translate(283.544922 0)"/>
      </g>
     </g>
    </g>
    <g id="xtick_4">
     <g id="line2d_7">
      <path d="M 119.989202 107.630305 
L 119.989202 7.2 
" clip-path="url(#p9019209552)" style="fill: none"/>
     </g>
     <g id="line2d_8">
      <g>
       <use xlink:href="#m03cb87c6ba" x="119.989202" y="107.630305" style="stroke: #000000"/>
      </g>
     </g>
     <g id="text_4">
      <!-- (30,34] -->
      <g style="fill: #262626" transform="translate(112.648108 131.857929) rotate(-45) scale(0.08 -0.08)">
       <defs>
        <path id="ArialMT-34" d="M 2069 0 
L 2069 1097 
L 81 1097 
L 81 1613 
L 2172 4581 
L 2631 4581 
L 2631 1613 
L 3250 1613 
L 3250 1097 
L 2631 1097 
L 2631 0 
L 2069 0 
z
M 2069 1613 
L 2069 3678 
L 634 1613 
L 2069 1613 
z
" transform="scale(0.015625)"/>
       </defs>
       <use xlink:href="#ArialMT-28"/>
       <use xlink:href="#ArialMT-33" transform="translate(33.300781 0)"/>
       <use xlink:href="#ArialMT-30" transform="translate(88.916016 0)"/>
       <use xlink:href="#ArialMT-2c" transform="translate(144.53125 0)"/>
       <use xlink:href="#ArialMT-33" transform="translate(172.314453 0)"/>
       <use xlink:href="#ArialMT-34" transform="translate(227.929688 0)"/>
       <use xlink:href="#ArialMT-5d" transform="translate(283.544922 0)"/>
      </g>
     </g>
    </g>
    <g id="xtick_5">
     <g id="line2d_9">
      <path d="M 139.828043 107.630305 
L 139.828043 7.2 
" clip-path="url(#p9019209552)" style="fill: none"/>
     </g>
     <g id="line2d_10">
      <g>
       <use xlink:href="#m03cb87c6ba" x="139.828043" y="107.630305" style="stroke: #000000"/>
      </g>
     </g>
     <g id="text_5">
      <!-- (34,38] -->
      <g style="fill: #262626" transform="translate(132.486948 131.857929) rotate(-45) scale(0.08 -0.08)">
       <use xlink:href="#ArialMT-28"/>
       <use xlink:href="#ArialMT-33" transform="translate(33.300781 0)"/>
       <use xlink:href="#ArialMT-34" transform="translate(88.916016 0)"/>
       <use xlink:href="#ArialMT-2c" transform="translate(144.53125 0)"/>
       <use xlink:href="#ArialMT-33" transform="translate(172.314453 0)"/>
       <use xlink:href="#ArialMT-38" transform="translate(227.929688 0)"/>
       <use xlink:href="#ArialMT-5d" transform="translate(283.544922 0)"/>
      </g>
     </g>
    </g>
    <g id="xtick_6">
     <g id="line2d_11">
      <path d="M 159.666883 107.630305 
L 159.666883 7.2 
" clip-path="url(#p9019209552)" style="fill: none"/>
     </g>
     <g id="line2d_12">
      <g>
       <use xlink:href="#m03cb87c6ba" x="159.666883" y="107.630305" style="stroke: #000000"/>
      </g>
     </g>
     <g id="text_6">
      <!-- (38,42] -->
      <g style="fill: #262626" transform="translate(152.325789 131.857929) rotate(-45) scale(0.08 -0.08)">
       <use xlink:href="#ArialMT-28"/>
       <use xlink:href="#ArialMT-33" transform="translate(33.300781 0)"/>
       <use xlink:href="#ArialMT-38" transform="translate(88.916016 0)"/>
       <use xlink:href="#ArialMT-2c" transform="translate(144.53125 0)"/>
       <use xlink:href="#ArialMT-34" transform="translate(172.314453 0)"/>
       <use xlink:href="#ArialMT-32" transform="translate(227.929688 0)"/>
       <use xlink:href="#ArialMT-5d" transform="translate(283.544922 0)"/>
      </g>
     </g>
    </g>
    <g id="xtick_7">
     <g id="line2d_13">
      <path d="M 179.505723 107.630305 
L 179.505723 7.2 
" clip-path="url(#p9019209552)" style="fill: none"/>
     </g>
     <g id="line2d_14">
      <g>
       <use xlink:href="#m03cb87c6ba" x="179.505723" y="107.630305" style="stroke: #000000"/>
      </g>
     </g>
     <g id="text_7">
      <!-- (42,46] -->
      <g style="fill: #262626" transform="translate(172.164629 131.857929) rotate(-45) scale(0.08 -0.08)">
       <use xlink:href="#ArialMT-28"/>
       <use xlink:href="#ArialMT-34" transform="translate(33.300781 0)"/>
       <use xlink:href="#ArialMT-32" transform="translate(88.916016 0)"/>
       <use xlink:href="#ArialMT-2c" transform="translate(144.53125 0)"/>
       <use xlink:href="#ArialMT-34" transform="translate(172.314453 0)"/>
       <use xlink:href="#ArialMT-36" transform="translate(227.929688 0)"/>
       <use xlink:href="#ArialMT-5d" transform="translate(283.544922 0)"/>
      </g>
     </g>
    </g>
    <g id="xtick_8">
     <g id="line2d_15">
      <path d="M 199.344564 107.630305 
L 199.344564 7.2 
" clip-path="url(#p9019209552)" style="fill: none"/>
     </g>
     <g id="line2d_16">
      <g>
       <use xlink:href="#m03cb87c6ba" x="199.344564" y="107.630305" style="stroke: #000000"/>
      </g>
     </g>
     <g id="text_8">
      <!-- (46,50] -->
      <g style="fill: #262626" transform="translate(192.003469 131.857929) rotate(-45) scale(0.08 -0.08)">
       <defs>
        <path id="ArialMT-35" d="M 266 1200 
L 856 1250 
Q 922 819 1161 601 
Q 1400 384 1738 384 
Q 2144 384 2425 690 
Q 2706 997 2706 1503 
Q 2706 1984 2436 2262 
Q 2166 2541 1728 2541 
Q 1456 2541 1237 2417 
Q 1019 2294 894 2097 
L 366 2166 
L 809 4519 
L 3088 4519 
L 3088 3981 
L 1259 3981 
L 1013 2750 
Q 1425 3038 1878 3038 
Q 2478 3038 2890 2622 
Q 3303 2206 3303 1553 
Q 3303 931 2941 478 
Q 2500 -78 1738 -78 
Q 1113 -78 717 272 
Q 322 622 266 1200 
z
" transform="scale(0.015625)"/>
       </defs>
       <use xlink:href="#ArialMT-28"/>
       <use xlink:href="#ArialMT-34" transform="translate(33.300781 0)"/>
       <use xlink:href="#ArialMT-36" transform="translate(88.916016 0)"/>
       <use xlink:href="#ArialMT-2c" transform="translate(144.53125 0)"/>
       <use xlink:href="#ArialMT-35" transform="translate(172.314453 0)"/>
       <use xlink:href="#ArialMT-30" transform="translate(227.929688 0)"/>
       <use xlink:href="#ArialMT-5d" transform="translate(283.544922 0)"/>
      </g>
     </g>
    </g>
    <g id="text_9">
     <!-- Age -->
     <g style="fill: #262626" transform="translate(122.08006 143.347395) scale(0.088 -0.088)">
      <defs>
       <path id="ArialMT-41" d="M -9 0 
L 1750 4581 
L 2403 4581 
L 4278 0 
L 3588 0 
L 3053 1388 
L 1138 1388 
L 634 0 
L -9 0 
z
M 1313 1881 
L 2866 1881 
L 2388 3150 
Q 2169 3728 2063 4100 
Q 1975 3659 1816 3225 
L 1313 1881 
z
" transform="scale(0.015625)"/>
       <path id="ArialMT-67" d="M 319 -275 
L 866 -356 
Q 900 -609 1056 -725 
Q 1266 -881 1628 -881 
Q 2019 -881 2231 -725 
Q 2444 -569 2519 -288 
Q 2563 -116 2559 434 
Q 2191 0 1641 0 
Q 956 0 581 494 
Q 206 988 206 1678 
Q 206 2153 378 2554 
Q 550 2956 876 3175 
Q 1203 3394 1644 3394 
Q 2231 3394 2613 2919 
L 2613 3319 
L 3131 3319 
L 3131 450 
Q 3131 -325 2973 -648 
Q 2816 -972 2473 -1159 
Q 2131 -1347 1631 -1347 
Q 1038 -1347 672 -1080 
Q 306 -813 319 -275 
z
M 784 1719 
Q 784 1066 1043 766 
Q 1303 466 1694 466 
Q 2081 466 2343 764 
Q 2606 1063 2606 1700 
Q 2606 2309 2336 2618 
Q 2066 2928 1684 2928 
Q 1309 2928 1046 2623 
Q 784 2319 784 1719 
z
" transform="scale(0.015625)"/>
       <path id="ArialMT-65" d="M 2694 1069 
L 3275 997 
Q 3138 488 2766 206 
Q 2394 -75 1816 -75 
Q 1088 -75 661 373 
Q 234 822 234 1631 
Q 234 2469 665 2931 
Q 1097 3394 1784 3394 
Q 2450 3394 2872 2941 
Q 3294 2488 3294 1666 
Q 3294 1616 3291 1516 
L 816 1516 
Q 847 969 1125 678 
Q 1403 388 1819 388 
Q 2128 388 2347 550 
Q 2566 713 2694 1069 
z
M 847 1978 
L 2700 1978 
Q 2663 2397 2488 2606 
Q 2219 2931 1791 2931 
Q 1403 2931 1139 2672 
Q 875 2413 847 1978 
z
" transform="scale(0.015625)"/>
      </defs>
      <use xlink:href="#ArialMT-41"/>
      <use xlink:href="#ArialMT-67" transform="translate(66.699219 0)"/>
      <use xlink:href="#ArialMT-65" transform="translate(122.314453 0)"/>
     </g>
    </g>
   </g>
   <g id="matplotlib.axis_2">
    <g id="ytick_1">
     <g id="line2d_17">
      <path d="M 42.617725 99.261113 
L 217.19952 99.261113 
" clip-path="url(#p9019209552)" style="fill: none; stroke: #cccccc; stroke-width: 0.5; stroke-linecap: round"/>
     </g>
     <g id="line2d_18">
      <defs>
       <path id="m1208260952" d="M 0 0 
L -2 0 
" style="stroke: #000000"/>
      </defs>
      <g>
       <use xlink:href="#m1208260952" x="42.617725" y="99.261113" style="stroke: #000000"/>
      </g>
     </g>
     <g id="text_10">
      <!-- 2.5 -->
      <g style="fill: #262626" transform="translate(28.997725 102.124238) scale(0.08 -0.08)">
       <defs>
        <path id="ArialMT-2e" d="M 581 0 
L 581 641 
L 1222 641 
L 1222 0 
L 581 0 
z
" transform="scale(0.015625)"/>
       </defs>
       <use xlink:href="#ArialMT-32"/>
       <use xlink:href="#ArialMT-2e" transform="translate(55.615234 0)"/>
       <use xlink:href="#ArialMT-35" transform="translate(83.398438 0)"/>
      </g>
     </g>
    </g>
    <g id="ytick_2">
     <g id="line2d_19">
      <path d="M 42.617725 57.415153 
L 217.19952 57.415153 
" clip-path="url(#p9019209552)" style="fill: none; stroke: #cccccc; stroke-width: 0.5; stroke-linecap: round"/>
     </g>
     <g id="line2d_20">
      <g>
       <use xlink:href="#m1208260952" x="42.617725" y="57.415153" style="stroke: #000000"/>
      </g>
     </g>
     <g id="text_11">
      <!-- 3.5 -->
      <g style="fill: #262626" transform="translate(28.997725 60.278278) scale(0.08 -0.08)">
       <use xlink:href="#ArialMT-33"/>
       <use xlink:href="#ArialMT-2e" transform="translate(55.615234 0)"/>
       <use xlink:href="#ArialMT-35" transform="translate(83.398438 0)"/>
      </g>
     </g>
    </g>
    <g id="ytick_3">
     <g id="line2d_21">
      <path d="M 42.617725 15.569192 
L 217.19952 15.569192 
" clip-path="url(#p9019209552)" style="fill: none; stroke: #cccccc; stroke-width: 0.5; stroke-linecap: round"/>
     </g>
     <g id="line2d_22">
      <g>
       <use xlink:href="#m1208260952" x="42.617725" y="15.569192" style="stroke: #000000"/>
      </g>
     </g>
     <g id="text_12">
      <!-- 4.5 -->
      <g style="fill: #262626" transform="translate(28.997725 18.432317) scale(0.08 -0.08)">
       <use xlink:href="#ArialMT-34"/>
       <use xlink:href="#ArialMT-2e" transform="translate(55.615234 0)"/>
       <use xlink:href="#ArialMT-35" transform="translate(83.398438 0)"/>
      </g>
     </g>
    </g>
    <g id="text_13">
     <!-- Cycle Length  -->
     <g style="fill: #262626" transform="translate(13.606125 84.318403) rotate(-90) scale(0.088 -0.088)">
      <defs>
       <path id="ArialMT-43" d="M 3763 1606 
L 4369 1453 
Q 4178 706 3683 314 
Q 3188 -78 2472 -78 
Q 1731 -78 1267 223 
Q 803 525 561 1097 
Q 319 1669 319 2325 
Q 319 3041 592 3573 
Q 866 4106 1370 4382 
Q 1875 4659 2481 4659 
Q 3169 4659 3637 4309 
Q 4106 3959 4291 3325 
L 3694 3184 
Q 3534 3684 3231 3912 
Q 2928 4141 2469 4141 
Q 1941 4141 1586 3887 
Q 1231 3634 1087 3207 
Q 944 2781 944 2328 
Q 944 1744 1114 1308 
Q 1284 872 1643 656 
Q 2003 441 2422 441 
Q 2931 441 3284 734 
Q 3638 1028 3763 1606 
z
" transform="scale(0.015625)"/>
       <path id="ArialMT-79" d="M 397 -1278 
L 334 -750 
Q 519 -800 656 -800 
Q 844 -800 956 -737 
Q 1069 -675 1141 -563 
Q 1194 -478 1313 -144 
Q 1328 -97 1363 -6 
L 103 3319 
L 709 3319 
L 1400 1397 
Q 1534 1031 1641 628 
Q 1738 1016 1872 1384 
L 2581 3319 
L 3144 3319 
L 1881 -56 
Q 1678 -603 1566 -809 
Q 1416 -1088 1222 -1217 
Q 1028 -1347 759 -1347 
Q 597 -1347 397 -1278 
z
" transform="scale(0.015625)"/>
       <path id="ArialMT-63" d="M 2588 1216 
L 3141 1144 
Q 3050 572 2676 248 
Q 2303 -75 1759 -75 
Q 1078 -75 664 370 
Q 250 816 250 1647 
Q 250 2184 428 2587 
Q 606 2991 970 3192 
Q 1334 3394 1763 3394 
Q 2303 3394 2647 3120 
Q 2991 2847 3088 2344 
L 2541 2259 
Q 2463 2594 2264 2762 
Q 2066 2931 1784 2931 
Q 1359 2931 1093 2626 
Q 828 2322 828 1663 
Q 828 994 1084 691 
Q 1341 388 1753 388 
Q 2084 388 2306 591 
Q 2528 794 2588 1216 
z
" transform="scale(0.015625)"/>
       <path id="ArialMT-6c" d="M 409 0 
L 409 4581 
L 972 4581 
L 972 0 
L 409 0 
z
" transform="scale(0.015625)"/>
       <path id="ArialMT-20" transform="scale(0.015625)"/>
       <path id="ArialMT-4c" d="M 469 0 
L 469 4581 
L 1075 4581 
L 1075 541 
L 3331 541 
L 3331 0 
L 469 0 
z
" transform="scale(0.015625)"/>
       <path id="ArialMT-6e" d="M 422 0 
L 422 3319 
L 928 3319 
L 928 2847 
Q 1294 3394 1984 3394 
Q 2284 3394 2536 3286 
Q 2788 3178 2913 3003 
Q 3038 2828 3088 2588 
Q 3119 2431 3119 2041 
L 3119 0 
L 2556 0 
L 2556 2019 
Q 2556 2363 2490 2533 
Q 2425 2703 2258 2804 
Q 2091 2906 1866 2906 
Q 1506 2906 1245 2678 
Q 984 2450 984 1813 
L 984 0 
L 422 0 
z
" transform="scale(0.015625)"/>
       <path id="ArialMT-74" d="M 1650 503 
L 1731 6 
Q 1494 -44 1306 -44 
Q 1000 -44 831 53 
Q 663 150 594 308 
Q 525 466 525 972 
L 525 2881 
L 113 2881 
L 113 3319 
L 525 3319 
L 525 4141 
L 1084 4478 
L 1084 3319 
L 1650 3319 
L 1650 2881 
L 1084 2881 
L 1084 941 
Q 1084 700 1114 631 
Q 1144 563 1211 522 
Q 1278 481 1403 481 
Q 1497 481 1650 503 
z
" transform="scale(0.015625)"/>
       <path id="ArialMT-68" d="M 422 0 
L 422 4581 
L 984 4581 
L 984 2938 
Q 1378 3394 1978 3394 
Q 2347 3394 2619 3248 
Q 2891 3103 3008 2847 
Q 3125 2591 3125 2103 
L 3125 0 
L 2563 0 
L 2563 2103 
Q 2563 2525 2380 2717 
Q 2197 2909 1863 2909 
Q 1613 2909 1392 2779 
Q 1172 2650 1078 2428 
Q 984 2206 984 1816 
L 984 0 
L 422 0 
z
" transform="scale(0.015625)"/>
      </defs>
      <use xlink:href="#ArialMT-43"/>
      <use xlink:href="#ArialMT-79" transform="translate(72.216797 0)"/>
      <use xlink:href="#ArialMT-63" transform="translate(122.216797 0)"/>
      <use xlink:href="#ArialMT-6c" transform="translate(172.216797 0)"/>
      <use xlink:href="#ArialMT-65" transform="translate(194.433594 0)"/>
      <use xlink:href="#ArialMT-20" transform="translate(250.048828 0)"/>
      <use xlink:href="#ArialMT-4c" transform="translate(277.832031 0)"/>
      <use xlink:href="#ArialMT-65" transform="translate(333.447266 0)"/>
      <use xlink:href="#ArialMT-6e" transform="translate(389.0625 0)"/>
      <use xlink:href="#ArialMT-67" transform="translate(444.677734 0)"/>
      <use xlink:href="#ArialMT-74" transform="translate(500.292969 0)"/>
      <use xlink:href="#ArialMT-68" transform="translate(528.076172 0)"/>
      <use xlink:href="#ArialMT-20" transform="translate(583.691406 0)"/>
     </g>
     <!-- S.D. [days] -->
     <g style="fill: #262626" transform="translate(23.1456 78.933215) rotate(-90) scale(0.088 -0.088)">
      <defs>
       <path id="ArialMT-53" d="M 288 1472 
L 859 1522 
Q 900 1178 1048 958 
Q 1197 738 1509 602 
Q 1822 466 2213 466 
Q 2559 466 2825 569 
Q 3091 672 3220 851 
Q 3350 1031 3350 1244 
Q 3350 1459 3225 1620 
Q 3100 1781 2813 1891 
Q 2628 1963 1997 2114 
Q 1366 2266 1113 2400 
Q 784 2572 623 2826 
Q 463 3081 463 3397 
Q 463 3744 659 4045 
Q 856 4347 1234 4503 
Q 1613 4659 2075 4659 
Q 2584 4659 2973 4495 
Q 3363 4331 3572 4012 
Q 3781 3694 3797 3291 
L 3216 3247 
Q 3169 3681 2898 3903 
Q 2628 4125 2100 4125 
Q 1550 4125 1298 3923 
Q 1047 3722 1047 3438 
Q 1047 3191 1225 3031 
Q 1400 2872 2139 2705 
Q 2878 2538 3153 2413 
Q 3553 2228 3743 1945 
Q 3934 1663 3934 1294 
Q 3934 928 3725 604 
Q 3516 281 3123 101 
Q 2731 -78 2241 -78 
Q 1619 -78 1198 103 
Q 778 284 539 648 
Q 300 1013 288 1472 
z
" transform="scale(0.015625)"/>
       <path id="ArialMT-44" d="M 494 0 
L 494 4581 
L 2072 4581 
Q 2606 4581 2888 4516 
Q 3281 4425 3559 4188 
Q 3922 3881 4101 3404 
Q 4281 2928 4281 2316 
Q 4281 1794 4159 1391 
Q 4038 988 3847 723 
Q 3656 459 3429 307 
Q 3203 156 2883 78 
Q 2563 0 2147 0 
L 494 0 
z
M 1100 541 
L 2078 541 
Q 2531 541 2789 625 
Q 3047 709 3200 863 
Q 3416 1078 3536 1442 
Q 3656 1806 3656 2325 
Q 3656 3044 3420 3430 
Q 3184 3816 2847 3947 
Q 2603 4041 2063 4041 
L 1100 4041 
L 1100 541 
z
" transform="scale(0.015625)"/>
       <path id="ArialMT-64" d="M 2575 0 
L 2575 419 
Q 2259 -75 1647 -75 
Q 1250 -75 917 144 
Q 584 363 401 755 
Q 219 1147 219 1656 
Q 219 2153 384 2558 
Q 550 2963 881 3178 
Q 1213 3394 1622 3394 
Q 1922 3394 2156 3267 
Q 2391 3141 2538 2938 
L 2538 4581 
L 3097 4581 
L 3097 0 
L 2575 0 
z
M 797 1656 
Q 797 1019 1065 703 
Q 1334 388 1700 388 
Q 2069 388 2326 689 
Q 2584 991 2584 1609 
Q 2584 2291 2321 2609 
Q 2059 2928 1675 2928 
Q 1300 2928 1048 2622 
Q 797 2316 797 1656 
z
" transform="scale(0.015625)"/>
       <path id="ArialMT-61" d="M 2588 409 
Q 2275 144 1986 34 
Q 1697 -75 1366 -75 
Q 819 -75 525 192 
Q 231 459 231 875 
Q 231 1119 342 1320 
Q 453 1522 633 1644 
Q 813 1766 1038 1828 
Q 1203 1872 1538 1913 
Q 2219 1994 2541 2106 
Q 2544 2222 2544 2253 
Q 2544 2597 2384 2738 
Q 2169 2928 1744 2928 
Q 1347 2928 1158 2789 
Q 969 2650 878 2297 
L 328 2372 
Q 403 2725 575 2942 
Q 747 3159 1072 3276 
Q 1397 3394 1825 3394 
Q 2250 3394 2515 3294 
Q 2781 3194 2906 3042 
Q 3031 2891 3081 2659 
Q 3109 2516 3109 2141 
L 3109 1391 
Q 3109 606 3145 398 
Q 3181 191 3288 0 
L 2700 0 
Q 2613 175 2588 409 
z
M 2541 1666 
Q 2234 1541 1622 1453 
Q 1275 1403 1131 1340 
Q 988 1278 909 1158 
Q 831 1038 831 891 
Q 831 666 1001 516 
Q 1172 366 1500 366 
Q 1825 366 2078 508 
Q 2331 650 2450 897 
Q 2541 1088 2541 1459 
L 2541 1666 
z
" transform="scale(0.015625)"/>
       <path id="ArialMT-73" d="M 197 991 
L 753 1078 
Q 800 744 1014 566 
Q 1228 388 1613 388 
Q 2000 388 2187 545 
Q 2375 703 2375 916 
Q 2375 1106 2209 1216 
Q 2094 1291 1634 1406 
Q 1016 1563 777 1677 
Q 538 1791 414 1992 
Q 291 2194 291 2438 
Q 291 2659 392 2848 
Q 494 3038 669 3163 
Q 800 3259 1026 3326 
Q 1253 3394 1513 3394 
Q 1903 3394 2198 3281 
Q 2494 3169 2634 2976 
Q 2775 2784 2828 2463 
L 2278 2388 
Q 2241 2644 2061 2787 
Q 1881 2931 1553 2931 
Q 1166 2931 1000 2803 
Q 834 2675 834 2503 
Q 834 2394 903 2306 
Q 972 2216 1119 2156 
Q 1203 2125 1616 2013 
Q 2213 1853 2448 1751 
Q 2684 1650 2818 1456 
Q 2953 1263 2953 975 
Q 2953 694 2789 445 
Q 2625 197 2315 61 
Q 2006 -75 1616 -75 
Q 969 -75 630 194 
Q 291 463 197 991 
z
" transform="scale(0.015625)"/>
      </defs>
      <use xlink:href="#ArialMT-53"/>
      <use xlink:href="#ArialMT-2e" transform="translate(66.699219 0)"/>
      <use xlink:href="#ArialMT-44" transform="translate(94.482422 0)"/>
      <use xlink:href="#ArialMT-2e" transform="translate(166.699219 0)"/>
      <use xlink:href="#ArialMT-20" transform="translate(194.482422 0)"/>
      <use xlink:href="#ArialMT-5b" transform="translate(222.265625 0)"/>
      <use xlink:href="#ArialMT-64" transform="translate(250.048828 0)"/>
      <use xlink:href="#ArialMT-61" transform="translate(305.664062 0)"/>
      <use xlink:href="#ArialMT-79" transform="translate(361.279297 0)"/>
      <use xlink:href="#ArialMT-73" transform="translate(411.279297 0)"/>
      <use xlink:href="#ArialMT-5d" transform="translate(461.279297 0)"/>
     </g>
    </g>
   </g>
   <g id="line2d_23">
    <path d="M 50.553261 57.958931 
L 52.1564 59.332248 
L 53.759538 60.674443 
L 55.362677 61.985516 
L 56.965816 63.265469 
L 58.568954 64.5143 
L 60.172093 65.73201 
L 61.775231 66.918598 
L 63.37837 68.074065 
L 64.981509 69.198411 
L 66.584647 70.291635 
L 68.187786 71.353738 
L 69.790924 72.38472 
L 71.394063 73.384581 
L 72.997202 74.35332 
L 74.60034 75.290937 
L 76.203479 76.197434 
L 77.806618 77.072809 
L 79.409756 77.917063 
L 81.012895 78.730195 
L 82.616033 79.512206 
L 84.219172 80.263096 
L 85.822311 80.982864 
L 87.425449 81.671511 
L 89.028588 82.329037 
L 90.631726 82.955441 
L 92.234865 83.550724 
L 93.838004 84.114886 
L 95.441142 84.647926 
L 97.044281 85.149846 
L 98.64742 85.620643 
L 100.250558 86.06032 
L 101.853697 86.468875 
L 103.456835 86.846308 
L 105.059974 87.192621 
L 106.663113 87.507812 
L 108.266251 87.791881 
L 109.86939 88.04483 
L 111.472528 88.266657 
L 113.075667 88.457363 
L 114.678806 88.616947 
L 116.281944 88.74541 
L 117.885083 88.842752 
L 119.488222 88.908972 
L 121.09136 88.944071 
L 122.694499 88.948049 
L 124.297637 88.920905 
L 125.900776 88.86264 
L 127.503915 88.773254 
L 129.107053 88.652746 
L 130.710192 88.501117 
L 132.31333 88.318367 
L 133.916469 88.104495 
L 135.519608 87.859502 
L 137.122746 87.583388 
L 138.725885 87.276152 
L 140.329023 86.937795 
L 141.932162 86.568317 
L 143.535301 86.167717 
L 145.138439 85.735996 
L 146.741578 85.273154 
L 148.344717 84.77919 
L 149.947855 84.254105 
L 151.550994 83.697899 
L 153.154132 83.110571 
L 154.757271 82.492122 
L 156.36041 81.842551 
L 157.963548 81.16186 
L 159.566687 80.450047 
L 161.169825 79.707112 
L 162.772964 78.933057 
L 164.376103 78.12788 
L 165.979241 77.291581 
L 167.58238 76.424162 
L 169.185519 75.525621 
L 170.788657 74.595958 
L 172.391796 73.635174 
L 173.994934 72.643269 
L 175.598073 71.620243 
L 177.201212 70.566095 
L 178.80435 69.480826 
L 180.407489 68.364436 
L 182.010627 67.216924 
L 183.613766 66.038291 
L 185.216905 64.828537 
L 186.820043 63.587661 
L 188.423182 62.315664 
L 190.026321 61.012545 
L 191.629459 59.678306 
L 193.232598 58.312945 
L 194.835736 56.916462 
L 196.438875 55.488859 
L 198.042014 54.030133 
L 199.645152 52.540287 
L 201.248291 51.019319 
L 202.851429 49.46723 
L 204.454568 47.88402 
L 206.057707 46.269688 
L 207.660845 44.624235 
L 209.263984 42.947661 
" clip-path="url(#p9019209552)" style="fill: none; stroke: #2964d9; stroke-opacity: 0.5; stroke-width: 2; stroke-linecap: round"/>
   </g>
   <g id="FillBetweenPolyCollection_1">
    <defs>
     <path id="mb68f98096f" d="M 50.553261 -108.036863 
L 50.553261 -80.844314 
L 52.1564 -79.996314 
L 53.759538 -79.167812 
L 55.362677 -78.358747 
L 56.965816 -77.569052 
L 58.568954 -76.798655 
L 60.172093 -76.047475 
L 61.775231 -75.315425 
L 63.37837 -74.602405 
L 64.981509 -73.90831 
L 66.584647 -73.23302 
L 68.187786 -72.576406 
L 69.790924 -71.938324 
L 71.394063 -71.318616 
L 72.997202 -70.717111 
L 74.60034 -70.133619 
L 76.203479 -69.567934 
L 77.806618 -69.019832 
L 79.409756 -68.489074 
L 81.012895 -67.975401 
L 82.616033 -67.47854 
L 84.219172 -66.998209 
L 85.822311 -66.534116 
L 87.425449 -66.085972 
L 89.028588 -65.653497 
L 90.631726 -65.236435 
L 92.234865 -64.834571 
L 93.838004 -64.447752 
L 95.441142 -64.075906 
L 97.044281 -63.719067 
L 98.64742 -63.377403 
L 100.250558 -63.051232 
L 101.853697 -62.741038 
L 103.456835 -62.447479 
L 105.059974 -62.171382 
L 106.663113 -61.913728 
L 108.266251 -61.675628 
L 109.86939 -61.458288 
L 111.472528 -61.262972 
L 113.075667 -61.090959 
L 114.678806 -60.943513 
L 116.281944 -60.821843 
L 117.885083 -60.727079 
L 119.488222 -60.660256 
L 121.09136 -60.62229 
L 122.694499 -60.61398 
L 124.297637 -60.635996 
L 125.900776 -60.688881 
L 127.503915 -60.773046 
L 129.107053 -60.88878 
L 130.710192 -61.036241 
L 132.31333 -61.215464 
L 133.916469 -61.426362 
L 135.519608 -61.668722 
L 137.122746 -61.942209 
L 138.725885 -62.246368 
L 140.329023 -62.580619 
L 141.932162 -62.944265 
L 143.535301 -63.336494 
L 145.138439 -63.756385 
L 146.741578 -64.202924 
L 148.344717 -64.675011 
L 149.947855 -65.171492 
L 151.550994 -65.691175 
L 153.154132 -66.232867 
L 154.757271 -66.795402 
L 156.36041 -67.377678 
L 157.963548 -67.978687 
L 159.566687 -68.59754 
L 161.169825 -69.233489 
L 162.772964 -69.885931 
L 164.376103 -70.55442 
L 165.979241 -71.238648 
L 167.58238 -71.938443 
L 169.185519 -72.653745 
L 170.788657 -73.384589 
L 172.391796 -74.131084 
L 173.994934 -74.893396 
L 175.598073 -75.671729 
L 177.201212 -76.466313 
L 178.80435 -77.27739 
L 180.407489 -78.10521 
L 182.010627 -78.950016 
L 183.613766 -79.812047 
L 185.216905 -80.691531 
L 186.820043 -81.588683 
L 188.423182 -82.503706 
L 190.026321 -83.436786 
L 191.629459 -84.388098 
L 193.232598 -85.357802 
L 194.835736 -86.346044 
L 196.438875 -87.35296 
L 198.042014 -88.378673 
L 199.645152 -89.423296 
L 201.248291 -90.486932 
L 202.851429 -91.569674 
L 204.454568 -92.671609 
L 206.057707 -93.792815 
L 207.660845 -94.933364 
L 209.263984 -96.093321 
L 209.263984 -122.810398 
L 209.263984 -122.810398 
L 207.660845 -120.617206 
L 206.057707 -118.466849 
L 204.454568 -116.359391 
L 202.851429 -114.294905 
L 201.248291 -112.273469 
L 199.645152 -110.29517 
L 198.042014 -108.3601 
L 196.438875 -106.468362 
L 194.835736 -104.620071 
L 193.232598 -102.815349 
L 191.629459 -101.05433 
L 190.026321 -99.337163 
L 188.423182 -97.664006 
L 186.820043 -96.035035 
L 185.216905 -94.450436 
L 183.613766 -92.910411 
L 182.010627 -91.415176 
L 180.407489 -89.964959 
L 178.80435 -88.559997 
L 177.201212 -87.200537 
L 175.598073 -85.886825 
L 173.994934 -84.619106 
L 172.391796 -83.397607 
L 170.788657 -82.222535 
L 169.185519 -81.094054 
L 167.58238 -80.012274 
L 165.979241 -78.97723 
L 164.376103 -77.988861 
L 162.772964 -77.046995 
L 161.169825 -76.151327 
L 159.566687 -75.301406 
L 157.963548 -74.496633 
L 156.36041 -73.736259 
L 154.757271 -73.019395 
L 153.154132 -72.345032 
L 151.550994 -71.712068 
L 149.947855 -71.119338 
L 148.344717 -70.565649 
L 146.741578 -70.049809 
L 145.138439 -69.570663 
L 143.535301 -69.127112 
L 141.932162 -68.718142 
L 140.329023 -68.342831 
L 138.725885 -68.000368 
L 137.122746 -67.690055 
L 135.519608 -67.411314 
L 133.916469 -67.163688 
L 132.31333 -66.946843 
L 130.710192 -66.760565 
L 129.107053 -66.604768 
L 127.503915 -66.479486 
L 125.900776 -66.384879 
L 124.297637 -66.321234 
L 122.694499 -66.288963 
L 121.09136 -66.288608 
L 119.488222 -66.320841 
L 117.885083 -66.386457 
L 116.281944 -66.486378 
L 114.678806 -66.621633 
L 113.075667 -66.793356 
L 111.472528 -67.002755 
L 109.86939 -67.251092 
L 108.266251 -67.539649 
L 106.663113 -67.869689 
L 105.059974 -68.242417 
L 103.456835 -68.658945 
L 101.853697 -69.120253 
L 100.250558 -69.627169 
L 98.64742 -70.18035 
L 97.044281 -70.780282 
L 95.441142 -71.427281 
L 93.838004 -72.121516 
L 92.234865 -72.86302 
L 90.631726 -73.651723 
L 89.028588 -74.48747 
L 87.425449 -75.370046 
L 85.822311 -76.299195 
L 84.219172 -77.274639 
L 82.616033 -78.296088 
L 81.012895 -79.363249 
L 79.409756 -80.475841 
L 77.806618 -81.63359 
L 76.203479 -82.836239 
L 74.60034 -84.083546 
L 72.997202 -85.37529 
L 71.394063 -86.711262 
L 69.790924 -88.091276 
L 68.187786 -89.515157 
L 66.584647 -90.982749 
L 64.981509 -92.493908 
L 63.37837 -94.048505 
L 61.775231 -95.646419 
L 60.172093 -97.287545 
L 58.568954 -98.971785 
L 56.965816 -100.69905 
L 55.362677 -102.46926 
L 53.759538 -104.282343 
L 52.1564 -106.13823 
L 50.553261 -108.036863 
z
"/>
    </defs>
    <g clip-path="url(#p9019209552)">
     <use xlink:href="#mb68f98096f" x="0" y="152.39952" style="fill: #2964d9; fill-opacity: 0.25"/>
    </g>
   </g>
   <g id="patch_3">
    <path d="M 42.617725 107.630305 
L 42.617725 7.2 
" style="fill: none; stroke: #000000; stroke-linejoin: miter; stroke-linecap: square"/>
   </g>
   <g id="patch_4">
    <path d="M 42.617725 107.630305 
L 217.19952 107.630305 
" style="fill: none; stroke: #000000; stroke-linejoin: miter; stroke-linecap: square"/>
   </g>
   <g id="text_14">
    <!-- 97 -->
    <g style="fill: #262626" transform="translate(56.023931 33.724874) scale(0.08 -0.08)">
     <defs>
      <path id="ArialMT-39" d="M 350 1059 
L 891 1109 
Q 959 728 1153 556 
Q 1347 384 1650 384 
Q 1909 384 2104 503 
Q 2300 622 2425 820 
Q 2550 1019 2634 1356 
Q 2719 1694 2719 2044 
Q 2719 2081 2716 2156 
Q 2547 1888 2255 1720 
Q 1963 1553 1622 1553 
Q 1053 1553 659 1965 
Q 266 2378 266 3053 
Q 266 3750 677 4175 
Q 1088 4600 1706 4600 
Q 2153 4600 2523 4359 
Q 2894 4119 3086 3673 
Q 3278 3228 3278 2384 
Q 3278 1506 3087 986 
Q 2897 466 2520 194 
Q 2144 -78 1638 -78 
Q 1100 -78 759 220 
Q 419 519 350 1059 
z
M 2653 3081 
Q 2653 3566 2395 3850 
Q 2138 4134 1775 4134 
Q 1400 4134 1122 3828 
Q 844 3522 844 3034 
Q 844 2597 1108 2323 
Q 1372 2050 1759 2050 
Q 2150 2050 2401 2323 
Q 2653 2597 2653 3081 
z
" transform="scale(0.015625)"/>
      <path id="ArialMT-37" d="M 303 3981 
L 303 4522 
L 3269 4522 
L 3269 4084 
Q 2831 3619 2401 2847 
Q 1972 2075 1738 1259 
Q 1569 684 1522 0 
L 944 0 
Q 953 541 1156 1306 
Q 1359 2072 1739 2783 
Q 2119 3494 2547 3981 
L 303 3981 
z
" transform="scale(0.015625)"/>
     </defs>
     <use xlink:href="#ArialMT-39"/>
     <use xlink:href="#ArialMT-37" transform="translate(55.615234 0)"/>
    </g>
   </g>
   <g id="text_15">
    <!-- 265 -->
    <g style="fill: #262626" transform="translate(73.638397 61.257169) scale(0.08 -0.08)">
     <use xlink:href="#ArialMT-32"/>
     <use xlink:href="#ArialMT-36" transform="translate(55.615234 0)"/>
     <use xlink:href="#ArialMT-35" transform="translate(111.230469 0)"/>
    </g>
   </g>
   <g id="text_16">
    <!-- 493 -->
    <g style="fill: #262626" transform="translate(93.477237 71.886805) scale(0.08 -0.08)">
     <use xlink:href="#ArialMT-34"/>
     <use xlink:href="#ArialMT-39" transform="translate(55.615234 0)"/>
     <use xlink:href="#ArialMT-33" transform="translate(111.230469 0)"/>
    </g>
   </g>
   <g id="text_17">
    <!-- 560 -->
    <g style="fill: #262626" transform="translate(113.316077 78.744734) scale(0.08 -0.08)">
     <use xlink:href="#ArialMT-35"/>
     <use xlink:href="#ArialMT-36" transform="translate(55.615234 0)"/>
     <use xlink:href="#ArialMT-30" transform="translate(111.230469 0)"/>
    </g>
   </g>
   <g id="text_18">
    <!-- 494 -->
    <g style="fill: #262626" transform="translate(133.154918 81.654731) scale(0.08 -0.08)">
     <use xlink:href="#ArialMT-34"/>
     <use xlink:href="#ArialMT-39" transform="translate(55.615234 0)"/>
     <use xlink:href="#ArialMT-34" transform="translate(111.230469 0)"/>
    </g>
   </g>
   <g id="text_19">
    <!-- 452 -->
    <g style="fill: #262626" transform="translate(152.993758 79.169002) scale(0.08 -0.08)">
     <use xlink:href="#ArialMT-34"/>
     <use xlink:href="#ArialMT-35" transform="translate(55.615234 0)"/>
     <use xlink:href="#ArialMT-32" transform="translate(111.230469 0)"/>
    </g>
   </g>
   <g id="text_20">
    <!-- 190 -->
    <g style="fill: #262626" transform="translate(172.832598 66.213402) scale(0.08 -0.08)">
     <use xlink:href="#ArialMT-31"/>
     <use xlink:href="#ArialMT-39" transform="translate(55.615234 0)"/>
     <use xlink:href="#ArialMT-30" transform="translate(111.230469 0)"/>
    </g>
   </g>
   <g id="text_21">
    <!-- 45 -->
    <g style="fill: #262626" transform="translate(194.895814 29.793504) scale(0.08 -0.08)">
     <use xlink:href="#ArialMT-34"/>
     <use xlink:href="#ArialMT-35" transform="translate(55.615234 0)"/>
    </g>
   </g>
   <g id="line2d_24">
    <path d="M 60.472681 63.647402 
L 60.472681 35.733333 
" clip-path="url(#p9019209552)" style="fill: none; stroke: #4c4c4c; stroke-width: 2; stroke-linecap: round"/>
   </g>
   <g id="line2d_25">
    <path d="M 80.311522 79.167716 
L 80.311522 63.265629 
" clip-path="url(#p9019209552)" style="fill: none; stroke: #4c4c4c; stroke-width: 2; stroke-linecap: round"/>
   </g>
   <g id="line2d_26">
    <path d="M 100.150362 85.645436 
L 100.150362 73.895265 
" clip-path="url(#p9019209552)" style="fill: none; stroke: #4c4c4c; stroke-width: 2; stroke-linecap: round"/>
   </g>
   <g id="line2d_27">
    <path d="M 119.989202 90.478855 
L 119.989202 80.753194 
" clip-path="url(#p9019209552)" style="fill: none; stroke: #4c4c4c; stroke-width: 2; stroke-linecap: round"/>
   </g>
   <g id="line2d_28">
    <path d="M 139.828043 93.029458 
L 139.828043 83.66319 
" clip-path="url(#p9019209552)" style="fill: none; stroke: #4c4c4c; stroke-width: 2; stroke-linecap: round"/>
   </g>
   <g id="line2d_29">
    <path d="M 159.666883 91.892017 
L 159.666883 81.177461 
" clip-path="url(#p9019209552)" style="fill: none; stroke: #4c4c4c; stroke-width: 2; stroke-linecap: round"/>
   </g>
   <g id="line2d_30">
    <path d="M 179.505723 85.421101 
L 179.505723 68.221862 
" clip-path="url(#p9019209552)" style="fill: none; stroke: #4c4c4c; stroke-width: 2; stroke-linecap: round"/>
   </g>
   <g id="line2d_31">
    <path d="M 199.344564 63.408821 
L 199.344564 31.801964 
" clip-path="url(#p9019209552)" style="fill: none; stroke: #4c4c4c; stroke-width: 2; stroke-linecap: round"/>
   </g>
   <g id="line2d_32">
    <path d="M 60.472681 50.217446 
" clip-path="url(#p9019209552)" style="fill: none; stroke: #4c4c4c; stroke-width: 1.8; stroke-linecap: round"/>
    <defs>
     <path id="me1c8159f6f" d="M 0 2 
C 0.530406 2 1.03916 1.789267 1.414214 1.414214 
C 1.789267 1.03916 2 0.530406 2 0 
C 2 -0.530406 1.789267 -1.03916 1.414214 -1.414214 
C 1.03916 -1.789267 0.530406 -2 0 -2 
C -0.530406 -2 -1.03916 -1.789267 -1.414214 -1.414214 
C -1.789267 -1.03916 -2 -0.530406 -2 0 
C -2 0.530406 -1.789267 1.03916 -1.414214 1.414214 
C -1.03916 1.789267 -0.530406 2 0 2 
z
"/>
    </defs>
    <g clip-path="url(#p9019209552)">
     <use xlink:href="#me1c8159f6f" x="60.472681" y="50.217446" style="fill: #4c4c4c"/>
    </g>
   </g>
   <g id="line2d_33">
    <path d="M 80.311522 71.931083 
" clip-path="url(#p9019209552)" style="fill: none; stroke: #4c4c4c; stroke-width: 1.8; stroke-linecap: round"/>
    <g clip-path="url(#p9019209552)">
     <use xlink:href="#me1c8159f6f" x="80.311522" y="71.931083" style="fill: #4c4c4c"/>
    </g>
   </g>
   <g id="line2d_34">
    <path d="M 100.150362 80.043012 
" clip-path="url(#p9019209552)" style="fill: none; stroke: #4c4c4c; stroke-width: 1.8; stroke-linecap: round"/>
    <g clip-path="url(#p9019209552)">
     <use xlink:href="#me1c8159f6f" x="100.150362" y="80.043012" style="fill: #4c4c4c"/>
    </g>
   </g>
   <g id="line2d_35">
    <path d="M 119.989202 85.626444 
" clip-path="url(#p9019209552)" style="fill: none; stroke: #4c4c4c; stroke-width: 1.8; stroke-linecap: round"/>
    <g clip-path="url(#p9019209552)">
     <use xlink:href="#me1c8159f6f" x="119.989202" y="85.626444" style="fill: #4c4c4c"/>
    </g>
   </g>
   <g id="line2d_36">
    <path d="M 139.828043 88.457932 
" clip-path="url(#p9019209552)" style="fill: none; stroke: #4c4c4c; stroke-width: 1.8; stroke-linecap: round"/>
    <g clip-path="url(#p9019209552)">
     <use xlink:href="#me1c8159f6f" x="139.828043" y="88.457932" style="fill: #4c4c4c"/>
    </g>
   </g>
   <g id="line2d_37">
    <path d="M 159.666883 86.795179 
" clip-path="url(#p9019209552)" style="fill: none; stroke: #4c4c4c; stroke-width: 1.8; stroke-linecap: round"/>
    <g clip-path="url(#p9019209552)">
     <use xlink:href="#me1c8159f6f" x="159.666883" y="86.795179" style="fill: #4c4c4c"/>
    </g>
   </g>
   <g id="line2d_38">
    <path d="M 179.505723 76.521748 
" clip-path="url(#p9019209552)" style="fill: none; stroke: #4c4c4c; stroke-width: 1.8; stroke-linecap: round"/>
    <g clip-path="url(#p9019209552)">
     <use xlink:href="#me1c8159f6f" x="179.505723" y="76.521748" style="fill: #4c4c4c"/>
    </g>
   </g>
   <g id="line2d_39">
    <path d="M 199.344564 48.054769 
" clip-path="url(#p9019209552)" style="fill: none; stroke: #4c4c4c; stroke-width: 1.8; stroke-linecap: round"/>
    <g clip-path="url(#p9019209552)">
     <use xlink:href="#me1c8159f6f" x="199.344564" y="48.054769" style="fill: #4c4c4c"/>
    </g>
   </g>
  </g>
 </g>
 <defs>
  <clipPath id="p9019209552">
   <rect x="42.617725" y="7.2" width="174.581795" height="100.430305"/>
  </clipPath>
 </defs>
</svg>
