<?xml version="1.0" encoding="utf-8" standalone="no"?>
<!DOCTYPE svg PUBLIC "-//W3C//DTD SVG 1.1//EN"
  "http://www.w3.org/Graphics/SVG/1.1/DTD/svg11.dtd">
<svg xmlns:xlink="http://www.w3.org/1999/xlink" width="224.435758pt" height="296.587447pt" viewBox="0 0 224.435758 296.587447" xmlns="http://www.w3.org/2000/svg" version="1.1">
 <metadata>
  <rdf:RDF xmlns:dc="http://purl.org/dc/elements/1.1/" xmlns:cc="http://creativecommons.org/ns#" xmlns:rdf="http://www.w3.org/1999/02/22-rdf-syntax-ns#">
   <cc:Work>
    <dc:type rdf:resource="http://purl.org/dc/dcmitype/StillImage"/>
    <dc:date>2026-05-06T15:36:55.077672</dc:date>
    <dc:format>image/svg+xml</dc:format>
    <dc:creator>
     <cc:Agent>
      <dc:title>Matplotlib v3.10.7, https://matplotlib.org/</dc:title>
     </cc:Agent>
    </dc:creator>
   </cc:Work>
  </rdf:RDF>
 </metadata>
 <defs>
  <style type="text/css">*{stroke-linejoin: round; stroke-linecap: butt}</style>
 </defs>
 <g id="figure_1">
  <g id="patch_1">
   <path d="M 0 296.587447 
L 224.435758 296.587447 
L 224.435758 0 
L 0 0 
z
" style="fill: #ffffff"/>
  </g>
  <g id="axes_1">
   <g id="patch_2">
    <path d="M 42.84 118.51875 
L 210.24 118.51875 
L 210.24 12.67875 
L 42.84 12.67875 
z
" style="fill: #ffffff"/>
   </g>
   <g id="matplotlib.axis_1">
    <g id="xtick_1">
     <g id="line2d_1">
      <path d="M 64.283802 118.51875 
L 64.283802 12.67875 
" clip-path="url(#p6c4894b064)" style="fill: none"/>
     </g>
     <g id="line2d_2">
      <defs>
       <path id="m2d8d515e2a" d="M 0 0 
L 0 2 
" style="stroke: #000000"/>
      </defs>
      <g>
       <use xlink:href="#m2d8d515e2a" x="64.283802" y="118.51875" style="stroke: #000000"/>
      </g>
     </g>
    </g>
    <g id="xtick_2">
     <g id="line2d_3">
      <path d="M 91.953223 118.51875 
L 91.953223 12.67875 
" clip-path="url(#p6c4894b064)" style="fill: none"/>
     </g>
     <g id="line2d_4">
      <g>
       <use xlink:href="#m2d8d515e2a" x="91.953223" y="118.51875" style="stroke: #000000"/>
      </g>
     </g>
    </g>
    <g id="xtick_3">
     <g id="line2d_5">
      <path d="M 119.622645 118.51875 
L 119.622645 12.67875 
" clip-path="url(#p6c4894b064)" style="fill: none"/>
     </g>
     <g id="line2d_6">
      <g>
       <use xlink:href="#m2d8d515e2a" x="119.622645" y="118.51875" style="stroke: #000000"/>
      </g>
     </g>
    </g>
    <g id="xtick_4">
     <g id="line2d_7">
      <path d="M 147.292066 118.51875 
L 147.292066 12.67875 
" clip-path="url(#p6c4894b064)" style="fill: none"/>
     </g>
     <g id="line2d_8">
      <g>
       <use xlink:href="#m2d8d515e2a" x="147.292066" y="118.51875" style="stroke: #000000"/>
      </g>
     </g>
    </g>
    <g id="xtick_5">
     <g id="line2d_9">
      <path d="M 174.961488 118.51875 
L 174.961488 12.67875 
" clip-path="url(#p6c4894b064)" style="fill: none"/>
     </g>
     <g id="line2d_10">
      <g>
       <use xlink:href="#m2d8d515e2a" x="174.961488" y="118.51875" style="stroke: #000000"/>
      </g>
     </g>
    </g>
    <g id="xtick_6">
     <g id="line2d_11">
      <path d="M 202.630909 118.51875 
L 202.630909 12.67875 
" clip-path="url(#p6c4894b064)" style="fill: none"/>
     </g>
     <g id="line2d_12">
      <g>
       <use xlink:href="#m2d8d515e2a" x="202.630909" y="118.51875" style="stroke: #000000"/>
      </g>
     </g>
    </g>
   </g>
   <g id="matplotlib.axis_2">
    <g id="ytick_1">
     <g id="line2d_13">
      <path d="M 42.84 109.69875 
L 210.24 109.69875 
" clip-path="url(#p6c4894b064)" style="fill: none; stroke: #cccccc; stroke-width: 0.5; stroke-linecap: round"/>
     </g>
     <g id="line2d_14">
      <defs>
       <path id="m68e883586c" d="M 0 0 
L -2 0 
" style="stroke: #000000"/>
      </defs>
      <g>
       <use xlink:href="#m68e883586c" x="42.84" y="109.69875" style="stroke: #000000"/>
      </g>
     </g>
     <g id="text_1">
      <!-- 26 -->
      <g style="fill: #262626" transform="translate(31.4425 112.561875) scale(0.08 -0.08)">
       <defs>
        <path id="ArialMT-32" d="M 3222 541 
L 3222 0 
L 194 0 
Q 188 203 259 391 
Q 375 700 629 1000 
Q 884 1300 1366 1694 
Q 2113 2306 2375 2664 
Q 2638 3022 2638 3341 
Q 2638 3675 2398 3904 
Q 2159 4134 1775 4134 
Q 1369 4134 1125 3890 
Q 881 3647 878 3216 
L 300 3275 
Q 359 3922 746 4261 
Q 1134 4600 1788 4600 
Q 2447 4600 2831 4234 
Q 3216 3869 3216 3328 
Q 3216 3053 3103 2787 
Q 2991 2522 2730 2228 
Q 2469 1934 1863 1422 
Q 1356 997 1212 845 
Q 1069 694 975 541 
L 3222 541 
z
" transform="scale(0.015625)"/>
        <path id="ArialMT-36" d="M 3184 3459 
L 2625 3416 
Q 2550 3747 2413 3897 
Q 2184 4138 1850 4138 
Q 1581 4138 1378 3988 
Q 1113 3794 959 3422 
Q 806 3050 800 2363 
Q 1003 2672 1297 2822 
Q 1591 2972 1913 2972 
Q 2475 2972 2870 2558 
Q 3266 2144 3266 1488 
Q 3266 1056 3080 686 
Q 2894 316 2569 119 
Q 2244 -78 1831 -78 
Q 1128 -78 684 439 
Q 241 956 241 2144 
Q 241 3472 731 4075 
Q 1159 4600 1884 4600 
Q 2425 4600 2770 4297 
Q 3116 3994 3184 3459 
z
M 888 1484 
Q 888 1194 1011 928 
Q 1134 663 1356 523 
Q 1578 384 1822 384 
Q 2178 384 2434 671 
Q 2691 959 2691 1453 
Q 2691 1928 2437 2201 
Q 2184 2475 1800 2475 
Q 1419 2475 1153 2201 
Q 888 1928 888 1484 
z
" transform="scale(0.015625)"/>
       </defs>
       <use xlink:href="#ArialMT-32"/>
       <use xlink:href="#ArialMT-36" transform="translate(55.615234 0)"/>
      </g>
     </g>
    </g>
    <g id="ytick_2">
     <g id="line2d_15">
      <path d="M 42.84 65.59875 
L 210.24 65.59875 
" clip-path="url(#p6c4894b064)" style="fill: none; stroke: #cccccc; stroke-width: 0.5; stroke-linecap: round"/>
     </g>
     <g id="line2d_16">
      <g>
       <use xlink:href="#m68e883586c" x="42.84" y="65.59875" style="stroke: #000000"/>
      </g>
     </g>
     <g id="text_2">
      <!-- 28 -->
      <g style="fill: #262626" transform="translate(31.4425 68.461875) scale(0.08 -0.08)">
       <defs>
        <path id="ArialMT-38" d="M 1131 2484 
Q 781 2613 612 2850 
Q 444 3088 444 3419 
Q 444 3919 803 4259 
Q 1163 4600 1759 4600 
Q 2359 4600 2725 4251 
Q 3091 3903 3091 3403 
Q 3091 3084 2923 2848 
Q 2756 2613 2416 2484 
Q 2838 2347 3058 2040 
Q 3278 1734 3278 1309 
Q 3278 722 2862 322 
Q 2447 -78 1769 -78 
Q 1091 -78 675 323 
Q 259 725 259 1325 
Q 259 1772 486 2073 
Q 713 2375 1131 2484 
z
M 1019 3438 
Q 1019 3113 1228 2906 
Q 1438 2700 1772 2700 
Q 2097 2700 2305 2904 
Q 2513 3109 2513 3406 
Q 2513 3716 2298 3927 
Q 2084 4138 1766 4138 
Q 1444 4138 1231 3931 
Q 1019 3725 1019 3438 
z
M 838 1322 
Q 838 1081 952 856 
Q 1066 631 1291 507 
Q 1516 384 1775 384 
Q 2178 384 2440 643 
Q 2703 903 2703 1303 
Q 2703 1709 2433 1975 
Q 2163 2241 1756 2241 
Q 1359 2241 1098 1978 
Q 838 1716 838 1322 
z
" transform="scale(0.015625)"/>
       </defs>
       <use xlink:href="#ArialMT-32"/>
       <use xlink:href="#ArialMT-38" transform="translate(55.615234 0)"/>
      </g>
     </g>
    </g>
    <g id="ytick_3">
     <g id="line2d_17">
      <path d="M 42.84 21.49875 
L 210.24 21.49875 
" clip-path="url(#p6c4894b064)" style="fill: none; stroke: #cccccc; stroke-width: 0.5; stroke-linecap: round"/>
     </g>
     <g id="line2d_18">
      <g>
       <use xlink:href="#m68e883586c" x="42.84" y="21.49875" style="stroke: #000000"/>
      </g>
     </g>
     <g id="text_3">
      <!-- 30 -->
      <g style="fill: #262626" transform="translate(31.4425 24.361875) scale(0.08 -0.08)">
       <defs>
        <path id="ArialMT-33" d="M 269 1209 
L 831 1284 
Q 928 806 1161 595 
Q 1394 384 1728 384 
Q 2125 384 2398 659 
Q 2672 934 2672 1341 
Q 2672 1728 2419 1979 
Q 2166 2231 1775 2231 
Q 1616 2231 1378 2169 
L 1441 2663 
Q 1497 2656 1531 2656 
Q 1891 2656 2178 2843 
Q 2466 3031 2466 3422 
Q 2466 3731 2256 3934 
Q 2047 4138 1716 4138 
Q 1388 4138 1169 3931 
Q 950 3725 888 3313 
L 325 3413 
Q 428 3978 793 4289 
Q 1159 4600 1703 4600 
Q 2078 4600 2393 4439 
Q 2709 4278 2876 4000 
Q 3044 3722 3044 3409 
Q 3044 3113 2884 2869 
Q 2725 2625 2413 2481 
Q 2819 2388 3044 2092 
Q 3269 1797 3269 1353 
Q 3269 753 2831 336 
Q 2394 -81 1725 -81 
Q 1122 -81 723 278 
Q 325 638 269 1209 
z
" transform="scale(0.015625)"/>
        <path id="ArialMT-30" d="M 266 2259 
Q 266 3072 433 3567 
Q 600 4063 929 4331 
Q 1259 4600 1759 4600 
Q 2128 4600 2406 4451 
Q 2684 4303 2865 4023 
Q 3047 3744 3150 3342 
Q 3253 2941 3253 2259 
Q 3253 1453 3087 958 
Q 2922 463 2592 192 
Q 2263 -78 1759 -78 
Q 1097 -78 719 397 
Q 266 969 266 2259 
z
M 844 2259 
Q 844 1131 1108 757 
Q 1372 384 1759 384 
Q 2147 384 2411 759 
Q 2675 1134 2675 2259 
Q 2675 3391 2411 3762 
Q 2147 4134 1753 4134 
Q 1366 4134 1134 3806 
Q 844 3388 844 2259 
z
" transform="scale(0.015625)"/>
       </defs>
       <use xlink:href="#ArialMT-33"/>
       <use xlink:href="#ArialMT-30" transform="translate(55.615234 0)"/>
      </g>
     </g>
    </g>
    <g id="text_4">
     <!-- Cycle Length  -->
     <g style="fill: #262626" transform="translate(16.1796 92.502) rotate(-90) scale(0.088 -0.088)">
      <defs>
       <path id="ArialMT-43" d="M 3763 1606 
L 4369 1453 
Q 4178 706 3683 314 
Q 3188 -78 2472 -78 
Q 1731 -78 1267 223 
Q 803 525 561 1097 
Q 319 1669 319 2325 
Q 319 3041 592 3573 
Q 866 4106 1370 4382 
Q 1875 4659 2481 4659 
Q 3169 4659 3637 4309 
Q 4106 3959 4291 3325 
L 3694 3184 
Q 3534 3684 3231 3912 
Q 2928 4141 2469 4141 
Q 1941 4141 1586 3887 
Q 1231 3634 1087 3207 
Q 944 2781 944 2328 
Q 944 1744 1114 1308 
Q 1284 872 1643 656 
Q 2003 441 2422 441 
Q 2931 441 3284 734 
Q 3638 1028 3763 1606 
z
" transform="scale(0.015625)"/>
       <path id="ArialMT-79" d="M 397 -1278 
L 334 -750 
Q 519 -800 656 -800 
Q 844 -800 956 -737 
Q 1069 -675 1141 -563 
Q 1194 -478 1313 -144 
Q 1328 -97 1363 -6 
L 103 3319 
L 709 3319 
L 1400 1397 
Q 1534 1031 1641 628 
Q 1738 1016 1872 1384 
L 2581 3319 
L 3144 3319 
L 1881 -56 
Q 1678 -603 1566 -809 
Q 1416 -1088 1222 -1217 
Q 1028 -1347 759 -1347 
Q 597 -1347 397 -1278 
z
" transform="scale(0.015625)"/>
       <path id="ArialMT-63" d="M 2588 1216 
L 3141 1144 
Q 3050 572 2676 248 
Q 2303 -75 1759 -75 
Q 1078 -75 664 370 
Q 250 816 250 1647 
Q 250 2184 428 2587 
Q 606 2991 970 3192 
Q 1334 3394 1763 3394 
Q 2303 3394 2647 3120 
Q 2991 2847 3088 2344 
L 2541 2259 
Q 2463 2594 2264 2762 
Q 2066 2931 1784 2931 
Q 1359 2931 1093 2626 
Q 828 2322 828 1663 
Q 828 994 1084 691 
Q 1341 388 1753 388 
Q 2084 388 2306 591 
Q 2528 794 2588 1216 
z
" transform="scale(0.015625)"/>
       <path id="ArialMT-6c" d="M 409 0 
L 409 4581 
L 972 4581 
L 972 0 
L 409 0 
z
" transform="scale(0.015625)"/>
       <path id="ArialMT-65" d="M 2694 1069 
L 3275 997 
Q 3138 488 2766 206 
Q 2394 -75 1816 -75 
Q 1088 -75 661 373 
Q 234 822 234 1631 
Q 234 2469 665 2931 
Q 1097 3394 1784 3394 
Q 2450 3394 2872 2941 
Q 3294 2488 3294 1666 
Q 3294 1616 3291 1516 
L 816 1516 
Q 847 969 1125 678 
Q 1403 388 1819 388 
Q 2128 388 2347 550 
Q 2566 713 2694 1069 
z
M 847 1978 
L 2700 1978 
Q 2663 2397 2488 2606 
Q 2219 2931 1791 2931 
Q 1403 2931 1139 2672 
Q 875 2413 847 1978 
z
" transform="scale(0.015625)"/>
       <path id="ArialMT-20" transform="scale(0.015625)"/>
       <path id="ArialMT-4c" d="M 469 0 
L 469 4581 
L 1075 4581 
L 1075 541 
L 3331 541 
L 3331 0 
L 469 0 
z
" transform="scale(0.015625)"/>
       <path id="ArialMT-6e" d="M 422 0 
L 422 3319 
L 928 3319 
L 928 2847 
Q 1294 3394 1984 3394 
Q 2284 3394 2536 3286 
Q 2788 3178 2913 3003 
Q 3038 2828 3088 2588 
Q 3119 2431 3119 2041 
L 3119 0 
L 2556 0 
L 2556 2019 
Q 2556 2363 2490 2533 
Q 2425 2703 2258 2804 
Q 2091 2906 1866 2906 
Q 1506 2906 1245 2678 
Q 984 2450 984 1813 
L 984 0 
L 422 0 
z
" transform="scale(0.015625)"/>
       <path id="ArialMT-67" d="M 319 -275 
L 866 -356 
Q 900 -609 1056 -725 
Q 1266 -881 1628 -881 
Q 2019 -881 2231 -725 
Q 2444 -569 2519 -288 
Q 2563 -116 2559 434 
Q 2191 0 1641 0 
Q 956 0 581 494 
Q 206 988 206 1678 
Q 206 2153 378 2554 
Q 550 2956 876 3175 
Q 1203 3394 1644 3394 
Q 2231 3394 2613 2919 
L 2613 3319 
L 3131 3319 
L 3131 450 
Q 3131 -325 2973 -648 
Q 2816 -972 2473 -1159 
Q 2131 -1347 1631 -1347 
Q 1038 -1347 672 -1080 
Q 306 -813 319 -275 
z
M 784 1719 
Q 784 1066 1043 766 
Q 1303 466 1694 466 
Q 2081 466 2343 764 
Q 2606 1063 2606 1700 
Q 2606 2309 2336 2618 
Q 2066 2928 1684 2928 
Q 1309 2928 1046 2623 
Q 784 2319 784 1719 
z
" transform="scale(0.015625)"/>
       <path id="ArialMT-74" d="M 1650 503 
L 1731 6 
Q 1494 -44 1306 -44 
Q 1000 -44 831 53 
Q 663 150 594 308 
Q 525 466 525 972 
L 525 2881 
L 113 2881 
L 113 3319 
L 525 3319 
L 525 4141 
L 1084 4478 
L 1084 3319 
L 1650 3319 
L 1650 2881 
L 1084 2881 
L 1084 941 
Q 1084 700 1114 631 
Q 1144 563 1211 522 
Q 1278 481 1403 481 
Q 1497 481 1650 503 
z
" transform="scale(0.015625)"/>
       <path id="ArialMT-68" d="M 422 0 
L 422 4581 
L 984 4581 
L 984 2938 
Q 1378 3394 1978 3394 
Q 2347 3394 2619 3248 
Q 2891 3103 3008 2847 
Q 3125 2591 3125 2103 
L 3125 0 
L 2563 0 
L 2563 2103 
Q 2563 2525 2380 2717 
Q 2197 2909 1863 2909 
Q 1613 2909 1392 2779 
Q 1172 2650 1078 2428 
Q 984 2206 984 1816 
L 984 0 
L 422 0 
z
" transform="scale(0.015625)"/>
      </defs>
      <use xlink:href="#ArialMT-43"/>
      <use xlink:href="#ArialMT-79" transform="translate(72.216797 0)"/>
      <use xlink:href="#ArialMT-63" transform="translate(122.216797 0)"/>
      <use xlink:href="#ArialMT-6c" transform="translate(172.216797 0)"/>
      <use xlink:href="#ArialMT-65" transform="translate(194.433594 0)"/>
      <use xlink:href="#ArialMT-20" transform="translate(250.048828 0)"/>
      <use xlink:href="#ArialMT-4c" transform="translate(277.832031 0)"/>
      <use xlink:href="#ArialMT-65" transform="translate(333.447266 0)"/>
      <use xlink:href="#ArialMT-6e" transform="translate(389.0625 0)"/>
      <use xlink:href="#ArialMT-67" transform="translate(444.677734 0)"/>
      <use xlink:href="#ArialMT-74" transform="translate(500.292969 0)"/>
      <use xlink:href="#ArialMT-68" transform="translate(528.076172 0)"/>
      <use xlink:href="#ArialMT-20" transform="translate(583.691406 0)"/>
     </g>
     <!-- [days] -->
     <g style="fill: #262626" transform="translate(25.590375 77.337125) rotate(-90) scale(0.088 -0.088)">
      <defs>
       <path id="ArialMT-5b" d="M 434 -1272 
L 434 4581 
L 1675 4581 
L 1675 4116 
L 997 4116 
L 997 -806 
L 1675 -806 
L 1675 -1272 
L 434 -1272 
z
" transform="scale(0.015625)"/>
       <path id="ArialMT-64" d="M 2575 0 
L 2575 419 
Q 2259 -75 1647 -75 
Q 1250 -75 917 144 
Q 584 363 401 755 
Q 219 1147 219 1656 
Q 219 2153 384 2558 
Q 550 2963 881 3178 
Q 1213 3394 1622 3394 
Q 1922 3394 2156 3267 
Q 2391 3141 2538 2938 
L 2538 4581 
L 3097 4581 
L 3097 0 
L 2575 0 
z
M 797 1656 
Q 797 1019 1065 703 
Q 1334 388 1700 388 
Q 2069 388 2326 689 
Q 2584 991 2584 1609 
Q 2584 2291 2321 2609 
Q 2059 2928 1675 2928 
Q 1300 2928 1048 2622 
Q 797 2316 797 1656 
z
" transform="scale(0.015625)"/>
       <path id="ArialMT-61" d="M 2588 409 
Q 2275 144 1986 34 
Q 1697 -75 1366 -75 
Q 819 -75 525 192 
Q 231 459 231 875 
Q 231 1119 342 1320 
Q 453 1522 633 1644 
Q 813 1766 1038 1828 
Q 1203 1872 1538 1913 
Q 2219 1994 2541 2106 
Q 2544 2222 2544 2253 
Q 2544 2597 2384 2738 
Q 2169 2928 1744 2928 
Q 1347 2928 1158 2789 
Q 969 2650 878 2297 
L 328 2372 
Q 403 2725 575 2942 
Q 747 3159 1072 3276 
Q 1397 3394 1825 3394 
Q 2250 3394 2515 3294 
Q 2781 3194 2906 3042 
Q 3031 2891 3081 2659 
Q 3109 2516 3109 2141 
L 3109 1391 
Q 3109 606 3145 398 
Q 3181 191 3288 0 
L 2700 0 
Q 2613 175 2588 409 
z
M 2541 1666 
Q 2234 1541 1622 1453 
Q 1275 1403 1131 1340 
Q 988 1278 909 1158 
Q 831 1038 831 891 
Q 831 666 1001 516 
Q 1172 366 1500 366 
Q 1825 366 2078 508 
Q 2331 650 2450 897 
Q 2541 1088 2541 1459 
L 2541 1666 
z
" transform="scale(0.015625)"/>
       <path id="ArialMT-73" d="M 197 991 
L 753 1078 
Q 800 744 1014 566 
Q 1228 388 1613 388 
Q 2000 388 2187 545 
Q 2375 703 2375 916 
Q 2375 1106 2209 1216 
Q 2094 1291 1634 1406 
Q 1016 1563 777 1677 
Q 538 1791 414 1992 
Q 291 2194 291 2438 
Q 291 2659 392 2848 
Q 494 3038 669 3163 
Q 800 3259 1026 3326 
Q 1253 3394 1513 3394 
Q 1903 3394 2198 3281 
Q 2494 3169 2634 2976 
Q 2775 2784 2828 2463 
L 2278 2388 
Q 2241 2644 2061 2787 
Q 1881 2931 1553 2931 
Q 1166 2931 1000 2803 
Q 834 2675 834 2503 
Q 834 2394 903 2306 
Q 972 2216 1119 2156 
Q 1203 2125 1616 2013 
Q 2213 1853 2448 1751 
Q 2684 1650 2818 1456 
Q 2953 1263 2953 975 
Q 2953 694 2789 445 
Q 2625 197 2315 61 
Q 2006 -75 1616 -75 
Q 969 -75 630 194 
Q 291 463 197 991 
z
" transform="scale(0.015625)"/>
       <path id="ArialMT-5d" d="M 1363 -1272 
L 122 -1272 
L 122 -806 
L 800 -806 
L 800 4116 
L 122 4116 
L 122 4581 
L 1363 4581 
L 1363 -1272 
z
" transform="scale(0.015625)"/>
      </defs>
      <use xlink:href="#ArialMT-5b"/>
      <use xlink:href="#ArialMT-64" transform="translate(27.783203 0)"/>
      <use xlink:href="#ArialMT-61" transform="translate(83.398438 0)"/>
      <use xlink:href="#ArialMT-79" transform="translate(139.013672 0)"/>
      <use xlink:href="#ArialMT-73" transform="translate(189.013672 0)"/>
      <use xlink:href="#ArialMT-5d" transform="translate(239.013672 0)"/>
     </g>
    </g>
   </g>
   <g id="line2d_19">
    <path d="M 50.449091 63.070313 
L 51.846536 63.14376 
L 53.243982 63.216583 
L 54.641427 63.288784 
L 56.038873 63.360361 
L 57.436319 63.431315 
L 58.833764 63.501646 
L 60.23121 63.571353 
L 61.628655 63.640438 
L 63.026101 63.708899 
L 64.423546 63.776737 
L 65.820992 63.843952 
L 67.218437 63.910544 
L 68.615883 63.976513 
L 70.013328 64.041858 
L 71.410774 64.106581 
L 72.808219 64.17068 
L 74.205665 64.234156 
L 75.60311 64.297009 
L 77.000556 64.359238 
L 78.398002 64.420845 
L 79.795447 64.481828 
L 81.192893 64.542188 
L 82.590338 64.601925 
L 83.987784 64.661039 
L 85.385229 64.719529 
L 86.782675 64.777397 
L 88.18012 64.834641 
L 89.577566 64.891262 
L 90.975011 64.94726 
L 92.372457 65.002635 
L 93.769902 65.057387 
L 95.167348 65.111515 
L 96.564793 65.165021 
L 97.962239 65.217903 
L 99.359684 65.270162 
L 100.75713 65.321797 
L 102.154576 65.37281 
L 103.552021 65.423199 
L 104.949467 65.472966 
L 106.346912 65.522109 
L 107.744358 65.570629 
L 109.141803 65.618526 
L 110.539249 65.665799 
L 111.936694 65.71245 
L 113.33414 65.758477 
L 114.731585 65.803881 
L 116.129031 65.848662 
L 117.526476 65.89282 
L 118.923922 65.936354 
L 120.321367 65.979266 
L 121.718813 66.021554 
L 123.116258 66.063219 
L 124.513704 66.104261 
L 125.91115 66.14468 
L 127.308595 66.184475 
L 128.706041 66.223648 
L 130.103486 66.262197 
L 131.500932 66.300123 
L 132.898377 66.337426 
L 134.295823 66.374106 
L 135.693268 66.410162 
L 137.090714 66.445596 
L 138.488159 66.480406 
L 139.885605 66.514593 
L 141.28305 66.548157 
L 142.680496 66.581098 
L 144.077941 66.613416 
L 145.475387 66.64511 
L 146.872832 66.676181 
L 148.270278 66.706629 
L 149.667724 66.736454 
L 151.065169 66.765656 
L 152.462615 66.794234 
L 153.86006 66.82219 
L 155.257506 66.849522 
L 156.654951 66.876231 
L 158.052397 66.902317 
L 159.449842 66.92778 
L 160.847288 66.952619 
L 162.244733 66.976836 
L 163.642179 67.000429 
L 165.039624 67.023399 
L 166.43707 67.045746 
L 167.834515 67.06747 
L 169.231961 67.08857 
L 170.629406 67.109048 
L 172.026852 67.128902 
L 173.424298 67.148133 
L 174.821743 67.166741 
L 176.219189 67.184726 
L 177.616634 67.202087 
L 179.01408 67.218826 
L 180.411525 67.234941 
L 181.808971 67.250433 
L 183.206416 67.265302 
L 184.603862 67.279547 
L 186.001307 67.29317 
L 187.398753 67.306169 
L 188.796198 67.318546 
" clip-path="url(#p6c4894b064)" style="fill: none; stroke: #2964d9; stroke-opacity: 0.5; stroke-width: 2; stroke-linecap: round"/>
   </g>
   <g id="FillBetweenPolyCollection_1">
    <defs>
     <path id="mb5c93bdff8" d="M 50.449091 -237.589417 
L 50.449091 -229.44485 
L 51.846536 -229.505634 
L 53.243982 -229.564163 
L 54.641427 -229.620337 
L 56.038873 -229.674045 
L 57.436319 -229.725162 
L 58.833764 -229.77355 
L 60.23121 -229.819054 
L 61.628655 -229.861505 
L 63.026101 -229.900713 
L 64.423546 -229.936471 
L 65.820992 -229.968552 
L 67.218437 -229.99671 
L 68.615883 -230.020678 
L 70.013328 -230.040174 
L 71.410774 -230.054896 
L 72.808219 -230.064535 
L 74.205665 -230.068774 
L 75.60311 -230.067297 
L 77.000556 -230.059798 
L 78.398002 -230.045994 
L 79.795447 -230.025635 
L 81.192893 -229.998516 
L 82.590338 -229.964491 
L 83.987784 -229.923482 
L 85.385229 -229.875486 
L 86.782675 -229.820579 
L 88.18012 -229.758915 
L 89.577566 -229.690723 
L 90.975011 -229.616294 
L 92.372457 -229.535972 
L 93.769902 -229.45014 
L 95.167348 -229.359208 
L 96.564793 -229.263596 
L 97.962239 -229.163726 
L 99.359684 -229.060011 
L 100.75713 -228.952848 
L 102.154576 -228.842612 
L 103.552021 -228.729653 
L 104.949467 -228.614294 
L 106.346912 -228.496829 
L 107.744358 -228.377526 
L 109.141803 -228.256626 
L 110.539249 -228.134344 
L 111.936694 -228.010872 
L 113.33414 -227.886378 
L 114.731585 -227.761013 
L 116.129031 -227.634907 
L 117.526476 -227.508175 
L 118.923922 -227.380917 
L 120.321367 -227.253218 
L 121.718813 -227.125152 
L 123.116258 -226.996782 
L 124.513704 -226.86816 
L 125.91115 -226.739332 
L 127.308595 -226.610333 
L 128.706041 -226.481193 
L 130.103486 -226.351934 
L 131.500932 -226.222575 
L 132.898377 -226.093127 
L 134.295823 -225.963598 
L 135.693268 -225.833991 
L 137.090714 -225.704307 
L 138.488159 -225.574543 
L 139.885605 -225.444692 
L 141.28305 -225.314745 
L 142.680496 -225.184691 
L 144.077941 -225.054517 
L 145.475387 -224.924208 
L 146.872832 -224.793746 
L 148.270278 -224.663113 
L 149.667724 -224.53229 
L 151.065169 -224.401256 
L 152.462615 -224.269988 
L 153.86006 -224.138464 
L 155.257506 -224.00666 
L 156.654951 -223.874552 
L 158.052397 -223.742114 
L 159.449842 -223.609322 
L 160.847288 -223.476149 
L 162.244733 -223.34257 
L 163.642179 -223.208557 
L 165.039624 -223.074084 
L 166.43707 -222.939124 
L 167.834515 -222.80365 
L 169.231961 -222.667636 
L 170.629406 -222.531054 
L 172.026852 -222.393877 
L 173.424298 -222.256079 
L 174.821743 -222.117633 
L 176.219189 -221.978512 
L 177.616634 -221.83869 
L 179.01408 -221.698142 
L 180.411525 -221.55684 
L 181.808971 -221.41476 
L 183.206416 -221.271876 
L 184.603862 -221.128164 
L 186.001307 -220.983598 
L 187.398753 -220.838155 
L 188.796198 -220.691811 
L 188.796198 -237.845993 
L 188.796198 -237.845993 
L 187.398753 -237.724401 
L 186.001307 -237.604957 
L 184.603862 -237.487636 
L 183.206416 -237.372415 
L 181.808971 -237.259269 
L 180.411525 -237.148173 
L 179.01408 -237.039102 
L 177.616634 -236.93203 
L 176.219189 -236.826931 
L 174.821743 -236.72378 
L 173.424298 -236.622549 
L 172.026852 -236.523213 
L 170.629406 -236.425745 
L 169.231961 -236.330118 
L 167.834515 -236.236305 
L 166.43707 -236.144279 
L 165.039624 -236.054013 
L 163.642179 -235.96548 
L 162.244733 -235.878653 
L 160.847288 -235.793506 
L 159.449842 -235.710013 
L 158.052397 -235.628146 
L 156.654951 -235.54788 
L 155.257506 -235.46919 
L 153.86006 -235.392051 
L 152.462615 -235.316437 
L 151.065169 -235.242327 
L 149.667724 -235.169696 
L 148.270278 -235.098523 
L 146.872832 -235.028786 
L 145.475387 -234.960467 
L 144.077941 -234.893546 
L 142.680496 -234.828007 
L 141.28305 -234.763835 
L 139.885605 -234.701016 
L 138.488159 -234.639539 
L 137.090714 -234.579395 
L 135.693268 -234.520578 
L 134.295823 -234.463085 
L 132.898377 -234.406915 
L 131.500932 -234.352073 
L 130.103486 -234.298566 
L 128.706041 -234.246406 
L 127.308595 -234.195611 
L 125.91115 -234.146203 
L 124.513704 -234.098212 
L 123.116258 -234.051675 
L 121.718813 -234.006635 
L 120.321367 -233.963145 
L 118.923922 -233.921269 
L 117.526476 -233.88108 
L 116.129031 -233.842664 
L 114.731585 -233.80612 
L 113.33414 -233.771563 
L 111.936694 -233.739124 
L 110.539249 -233.708952 
L 109.141803 -233.681217 
L 107.744358 -233.656111 
L 106.346912 -233.633848 
L 104.949467 -233.614669 
L 103.552021 -233.598843 
L 102.154576 -233.586662 
L 100.75713 -233.578452 
L 99.359684 -233.57456 
L 97.962239 -233.575363 
L 96.564793 -233.581258 
L 95.167348 -233.592656 
L 93.769902 -233.609981 
L 92.372457 -233.633653 
L 90.975011 -233.66408 
L 89.577566 -233.701647 
L 88.18012 -233.746697 
L 86.782675 -233.799522 
L 85.385229 -233.860349 
L 83.987784 -233.929334 
L 82.590338 -234.006553 
L 81.192893 -234.092002 
L 79.795447 -234.185604 
L 78.398002 -234.287211 
L 77.000556 -234.39662 
L 75.60311 -234.513581 
L 74.205665 -234.637809 
L 72.808219 -234.769 
L 71.410774 -234.906837 
L 70.013328 -235.051004 
L 68.615883 -235.201191 
L 67.218437 -235.357096 
L 65.820992 -235.518438 
L 64.423546 -235.684949 
L 63.026101 -235.856383 
L 61.628655 -236.032514 
L 60.23121 -236.213133 
L 58.833764 -236.398053 
L 57.436319 -236.587103 
L 56.038873 -236.780128 
L 54.641427 -236.97699 
L 53.243982 -237.177564 
L 51.846536 -237.38174 
L 50.449091 -237.589417 
z
"/>
    </defs>
    <g clip-path="url(#p6c4894b064)">
     <use xlink:href="#mb5c93bdff8" x="0" y="296.587447" style="fill: #2964d9; fill-opacity: 0.25"/>
    </g>
   </g>
   <g id="patch_3">
    <path d="M 42.84 118.51875 
L 42.84 12.67875 
" style="fill: none; stroke: #000000; stroke-linejoin: miter; stroke-linecap: square"/>
   </g>
   <g id="patch_4">
    <path d="M 42.84 118.51875 
L 210.24 118.51875 
" style="fill: none; stroke: #000000; stroke-linejoin: miter; stroke-linecap: square"/>
   </g>
   <g id="text_5">
    <!-- 2101 -->
    <g style="fill: #262626" transform="translate(55.386302 61.07342) scale(0.08 -0.08)">
     <defs>
      <path id="ArialMT-31" d="M 2384 0 
L 1822 0 
L 1822 3584 
Q 1619 3391 1289 3197 
Q 959 3003 697 2906 
L 697 3450 
Q 1169 3672 1522 3987 
Q 1875 4303 2022 4600 
L 2384 4600 
L 2384 0 
z
" transform="scale(0.015625)"/>
     </defs>
     <use xlink:href="#ArialMT-32"/>
     <use xlink:href="#ArialMT-31" transform="translate(55.615234 0)"/>
     <use xlink:href="#ArialMT-30" transform="translate(111.230469 0)"/>
     <use xlink:href="#ArialMT-31" transform="translate(166.845703 0)"/>
    </g>
   </g>
   <g id="text_6">
    <!-- 2175 -->
    <g style="fill: #262626" transform="translate(83.055723 61.768177) scale(0.08 -0.08)">
     <defs>
      <path id="ArialMT-37" d="M 303 3981 
L 303 4522 
L 3269 4522 
L 3269 4084 
Q 2831 3619 2401 2847 
Q 1972 2075 1738 1259 
Q 1569 684 1522 0 
L 944 0 
Q 953 541 1156 1306 
Q 1359 2072 1739 2783 
Q 2119 3494 2547 3981 
L 303 3981 
z
" transform="scale(0.015625)"/>
      <path id="ArialMT-35" d="M 266 1200 
L 856 1250 
Q 922 819 1161 601 
Q 1400 384 1738 384 
Q 2144 384 2425 690 
Q 2706 997 2706 1503 
Q 2706 1984 2436 2262 
Q 2166 2541 1728 2541 
Q 1456 2541 1237 2417 
Q 1019 2294 894 2097 
L 366 2166 
L 809 4519 
L 3088 4519 
L 3088 3981 
L 1259 3981 
L 1013 2750 
Q 1425 3038 1878 3038 
Q 2478 3038 2890 2622 
Q 3303 2206 3303 1553 
Q 3303 931 2941 478 
Q 2500 -78 1738 -78 
Q 1113 -78 717 272 
Q 322 622 266 1200 
z
" transform="scale(0.015625)"/>
     </defs>
     <use xlink:href="#ArialMT-32"/>
     <use xlink:href="#ArialMT-31" transform="translate(55.615234 0)"/>
     <use xlink:href="#ArialMT-37" transform="translate(111.230469 0)"/>
     <use xlink:href="#ArialMT-35" transform="translate(166.845703 0)"/>
    </g>
   </g>
   <g id="text_7">
    <!-- 1232 -->
    <g style="fill: #262626" transform="translate(110.725145 61.828549) scale(0.08 -0.08)">
     <use xlink:href="#ArialMT-31"/>
     <use xlink:href="#ArialMT-32" transform="translate(55.615234 0)"/>
     <use xlink:href="#ArialMT-33" transform="translate(111.230469 0)"/>
     <use xlink:href="#ArialMT-32" transform="translate(166.845703 0)"/>
    </g>
   </g>
   <g id="text_8">
    <!-- 508 -->
    <g style="fill: #262626" transform="translate(140.618941 61.176154) scale(0.08 -0.08)">
     <use xlink:href="#ArialMT-35"/>
     <use xlink:href="#ArialMT-30" transform="translate(55.615234 0)"/>
     <use xlink:href="#ArialMT-38" transform="translate(111.230469 0)"/>
    </g>
   </g>
   <g id="text_9">
    <!-- 233 -->
    <g style="fill: #262626" transform="translate(168.288363 62.077688) scale(0.08 -0.08)">
     <use xlink:href="#ArialMT-32"/>
     <use xlink:href="#ArialMT-33" transform="translate(55.615234 0)"/>
     <use xlink:href="#ArialMT-33" transform="translate(111.230469 0)"/>
    </g>
   </g>
   <g id="text_10">
    <!-- 118 -->
    <g style="fill: #262626" transform="translate(196.252784 56.97775) scale(0.08 -0.08)">
     <use xlink:href="#ArialMT-31"/>
     <use xlink:href="#ArialMT-31" transform="translate(48.240234 0)"/>
     <use xlink:href="#ArialMT-38" transform="translate(103.855469 0)"/>
    </g>
   </g>
   <g id="line2d_20">
    <path d="M 64.283802 67.235002 
L 64.283802 62.88392 
" clip-path="url(#p6c4894b064)" style="fill: none; stroke: #4c4c4c; stroke-width: 2; stroke-linecap: round"/>
   </g>
   <g id="line2d_21">
    <path d="M 91.953223 67.782381 
L 91.953223 63.578677 
" clip-path="url(#p6c4894b064)" style="fill: none; stroke: #4c4c4c; stroke-width: 2; stroke-linecap: round"/>
   </g>
   <g id="line2d_22">
    <path d="M 119.622645 69.797988 
L 119.622645 63.639049 
" clip-path="url(#p6c4894b064)" style="fill: none; stroke: #4c4c4c; stroke-width: 2; stroke-linecap: round"/>
   </g>
   <g id="line2d_23">
    <path d="M 147.292066 72.63581 
L 147.292066 62.986654 
" clip-path="url(#p6c4894b064)" style="fill: none; stroke: #4c4c4c; stroke-width: 2; stroke-linecap: round"/>
   </g>
   <g id="line2d_24">
    <path d="M 174.961488 77.856212 
L 174.961488 63.888188 
" clip-path="url(#p6c4894b064)" style="fill: none; stroke: #4c4c4c; stroke-width: 2; stroke-linecap: round"/>
   </g>
   <g id="line2d_25">
    <path d="M 202.630909 77.717998 
L 202.630909 58.78825 
" clip-path="url(#p6c4894b064)" style="fill: none; stroke: #4c4c4c; stroke-width: 2; stroke-linecap: round"/>
   </g>
   <g id="line2d_26">
    <path d="M 64.283802 64.885545 
" clip-path="url(#p6c4894b064)" style="fill: none; stroke: #4c4c4c; stroke-width: 1.8; stroke-linecap: round"/>
    <defs>
     <path id="m265f14526d" d="M 0 2 
C 0.530406 2 1.03916 1.789267 1.414214 1.414214 
C 1.789267 1.03916 2 0.530406 2 0 
C 2 -0.530406 1.789267 -1.03916 1.414214 -1.414214 
C 1.03916 -1.789267 0.530406 -2 0 -2 
C -0.530406 -2 -1.03916 -1.789267 -1.414214 -1.414214 
C -1.789267 -1.03916 -2 -0.530406 -2 0 
C -2 0.530406 -1.789267 1.03916 -1.414214 1.414214 
C -1.03916 1.789267 -0.530406 2 0 2 
z
"/>
    </defs>
    <g clip-path="url(#p6c4894b064)">
     <use xlink:href="#m265f14526d" x="64.283802" y="64.885545" style="fill: #4c4c4c"/>
    </g>
   </g>
   <g id="line2d_27">
    <path d="M 91.953223 65.743715 
" clip-path="url(#p6c4894b064)" style="fill: none; stroke: #4c4c4c; stroke-width: 1.8; stroke-linecap: round"/>
    <g clip-path="url(#p6c4894b064)">
     <use xlink:href="#m265f14526d" x="91.953223" y="65.743715" style="fill: #4c4c4c"/>
    </g>
   </g>
   <g id="line2d_28">
    <path d="M 119.622645 66.631646 
" clip-path="url(#p6c4894b064)" style="fill: none; stroke: #4c4c4c; stroke-width: 1.8; stroke-linecap: round"/>
    <g clip-path="url(#p6c4894b064)">
     <use xlink:href="#m265f14526d" x="119.622645" y="66.631646" style="fill: #4c4c4c"/>
    </g>
   </g>
   <g id="line2d_29">
    <path d="M 147.292066 68.088049 
" clip-path="url(#p6c4894b064)" style="fill: none; stroke: #4c4c4c; stroke-width: 1.8; stroke-linecap: round"/>
    <g clip-path="url(#p6c4894b064)">
     <use xlink:href="#m265f14526d" x="147.292066" y="68.088049" style="fill: #4c4c4c"/>
    </g>
   </g>
   <g id="line2d_30">
    <path d="M 174.961488 71.038484 
" clip-path="url(#p6c4894b064)" style="fill: none; stroke: #4c4c4c; stroke-width: 1.8; stroke-linecap: round"/>
    <g clip-path="url(#p6c4894b064)">
     <use xlink:href="#m265f14526d" x="174.961488" y="71.038484" style="fill: #4c4c4c"/>
    </g>
   </g>
   <g id="line2d_31">
    <path d="M 202.630909 67.947907 
" clip-path="url(#p6c4894b064)" style="fill: none; stroke: #4c4c4c; stroke-width: 1.8; stroke-linecap: round"/>
    <g clip-path="url(#p6c4894b064)">
     <use xlink:href="#m265f14526d" x="202.630909" y="67.947907" style="fill: #4c4c4c"/>
    </g>
   </g>
  </g>
  <g id="axes_2">
   <g id="patch_5">
    <path d="M 42.84 245.52675 
L 210.24 245.52675 
L 210.24 139.68675 
L 42.84 139.68675 
z
" style="fill: #ffffff"/>
   </g>
   <g id="matplotlib.axis_3">
    <g id="xtick_7">
     <g id="line2d_32">
      <path d="M 64.283802 245.52675 
L 64.283802 139.68675 
" clip-path="url(#p94f2d5a43e)" style="fill: none"/>
     </g>
     <g id="line2d_33">
      <g>
       <use xlink:href="#m2d8d515e2a" x="64.283802" y="245.52675" style="stroke: #000000"/>
      </g>
     </g>
     <g id="text_11">
      <!-- [0,60] -->
      <g style="fill: #262626" transform="translate(58.678655 266.244472) rotate(-45) scale(0.08 -0.08)">
       <defs>
        <path id="ArialMT-2c" d="M 569 0 
L 569 641 
L 1209 641 
L 1209 0 
Q 1209 -353 1084 -570 
Q 959 -788 688 -906 
L 531 -666 
Q 709 -588 793 -436 
Q 878 -284 888 0 
L 569 0 
z
" transform="scale(0.015625)"/>
       </defs>
       <use xlink:href="#ArialMT-5b"/>
       <use xlink:href="#ArialMT-30" transform="translate(27.783203 0)"/>
       <use xlink:href="#ArialMT-2c" transform="translate(83.398438 0)"/>
       <use xlink:href="#ArialMT-36" transform="translate(111.181641 0)"/>
       <use xlink:href="#ArialMT-30" transform="translate(166.796875 0)"/>
       <use xlink:href="#ArialMT-5d" transform="translate(222.412109 0)"/>
      </g>
     </g>
    </g>
    <g id="xtick_8">
     <g id="line2d_34">
      <path d="M 91.953223 245.52675 
L 91.953223 139.68675 
" clip-path="url(#p94f2d5a43e)" style="fill: none"/>
     </g>
     <g id="line2d_35">
      <g>
       <use xlink:href="#m2d8d515e2a" x="91.953223" y="245.52675" style="stroke: #000000"/>
      </g>
     </g>
     <g id="text_12">
      <!-- (60,120] -->
      <g style="fill: #262626" transform="translate(83.039258 272.900115) rotate(-45) scale(0.08 -0.08)">
       <defs>
        <path id="ArialMT-28" d="M 1497 -1347 
Q 1031 -759 709 28 
Q 388 816 388 1659 
Q 388 2403 628 3084 
Q 909 3875 1497 4659 
L 1900 4659 
Q 1522 4009 1400 3731 
Q 1209 3300 1100 2831 
Q 966 2247 966 1656 
Q 966 153 1900 -1347 
L 1497 -1347 
z
" transform="scale(0.015625)"/>
       </defs>
       <use xlink:href="#ArialMT-28"/>
       <use xlink:href="#ArialMT-36" transform="translate(33.300781 0)"/>
       <use xlink:href="#ArialMT-30" transform="translate(88.916016 0)"/>
       <use xlink:href="#ArialMT-2c" transform="translate(144.53125 0)"/>
       <use xlink:href="#ArialMT-31" transform="translate(172.314453 0)"/>
       <use xlink:href="#ArialMT-32" transform="translate(227.929688 0)"/>
       <use xlink:href="#ArialMT-30" transform="translate(283.544922 0)"/>
       <use xlink:href="#ArialMT-5d" transform="translate(339.160156 0)"/>
      </g>
     </g>
    </g>
    <g id="xtick_9">
     <g id="line2d_36">
      <path d="M 119.622645 245.52675 
L 119.622645 139.68675 
" clip-path="url(#p94f2d5a43e)" style="fill: none"/>
     </g>
     <g id="line2d_37">
      <g>
       <use xlink:href="#m2d8d515e2a" x="119.622645" y="245.52675" style="stroke: #000000"/>
      </g>
     </g>
     <g id="text_13">
      <!-- (120,180] -->
      <g style="fill: #262626" transform="translate(109.135809 276.045856) rotate(-45) scale(0.08 -0.08)">
       <use xlink:href="#ArialMT-28"/>
       <use xlink:href="#ArialMT-31" transform="translate(33.300781 0)"/>
       <use xlink:href="#ArialMT-32" transform="translate(88.916016 0)"/>
       <use xlink:href="#ArialMT-30" transform="translate(144.53125 0)"/>
       <use xlink:href="#ArialMT-2c" transform="translate(200.146484 0)"/>
       <use xlink:href="#ArialMT-31" transform="translate(227.929688 0)"/>
       <use xlink:href="#ArialMT-38" transform="translate(283.544922 0)"/>
       <use xlink:href="#ArialMT-30" transform="translate(339.160156 0)"/>
       <use xlink:href="#ArialMT-5d" transform="translate(394.775391 0)"/>
      </g>
     </g>
    </g>
    <g id="xtick_10">
     <g id="line2d_38">
      <path d="M 147.292066 245.52675 
L 147.292066 139.68675 
" clip-path="url(#p94f2d5a43e)" style="fill: none"/>
     </g>
     <g id="line2d_39">
      <g>
       <use xlink:href="#m2d8d515e2a" x="147.292066" y="245.52675" style="stroke: #000000"/>
      </g>
     </g>
     <g id="text_14">
      <!-- (180,240] -->
      <g style="fill: #262626" transform="translate(136.805231 276.045856) rotate(-45) scale(0.08 -0.08)">
       <defs>
        <path id="ArialMT-34" d="M 2069 0 
L 2069 1097 
L 81 1097 
L 81 1613 
L 2172 4581 
L 2631 4581 
L 2631 1613 
L 3250 1613 
L 3250 1097 
L 2631 1097 
L 2631 0 
L 2069 0 
z
M 2069 1613 
L 2069 3678 
L 634 1613 
L 2069 1613 
z
" transform="scale(0.015625)"/>
       </defs>
       <use xlink:href="#ArialMT-28"/>
       <use xlink:href="#ArialMT-31" transform="translate(33.300781 0)"/>
       <use xlink:href="#ArialMT-38" transform="translate(88.916016 0)"/>
       <use xlink:href="#ArialMT-30" transform="translate(144.53125 0)"/>
       <use xlink:href="#ArialMT-2c" transform="translate(200.146484 0)"/>
       <use xlink:href="#ArialMT-32" transform="translate(227.929688 0)"/>
       <use xlink:href="#ArialMT-34" transform="translate(283.544922 0)"/>
       <use xlink:href="#ArialMT-30" transform="translate(339.160156 0)"/>
       <use xlink:href="#ArialMT-5d" transform="translate(394.775391 0)"/>
      </g>
     </g>
    </g>
    <g id="xtick_11">
     <g id="line2d_40">
      <path d="M 174.961488 245.52675 
L 174.961488 139.68675 
" clip-path="url(#p94f2d5a43e)" style="fill: none"/>
     </g>
     <g id="line2d_41">
      <g>
       <use xlink:href="#m2d8d515e2a" x="174.961488" y="245.52675" style="stroke: #000000"/>
      </g>
     </g>
     <g id="text_15">
      <!-- (240,300] -->
      <g style="fill: #262626" transform="translate(164.474652 276.045856) rotate(-45) scale(0.08 -0.08)">
       <use xlink:href="#ArialMT-28"/>
       <use xlink:href="#ArialMT-32" transform="translate(33.300781 0)"/>
       <use xlink:href="#ArialMT-34" transform="translate(88.916016 0)"/>
       <use xlink:href="#ArialMT-30" transform="translate(144.53125 0)"/>
       <use xlink:href="#ArialMT-2c" transform="translate(200.146484 0)"/>
       <use xlink:href="#ArialMT-33" transform="translate(227.929688 0)"/>
       <use xlink:href="#ArialMT-30" transform="translate(283.544922 0)"/>
       <use xlink:href="#ArialMT-30" transform="translate(339.160156 0)"/>
       <use xlink:href="#ArialMT-5d" transform="translate(394.775391 0)"/>
      </g>
     </g>
    </g>
    <g id="xtick_12">
     <g id="line2d_42">
      <path d="M 202.630909 245.52675 
L 202.630909 139.68675 
" clip-path="url(#p94f2d5a43e)" style="fill: none"/>
     </g>
     <g id="line2d_43">
      <g>
       <use xlink:href="#m2d8d515e2a" x="202.630909" y="245.52675" style="stroke: #000000"/>
      </g>
     </g>
     <g id="text_16">
      <!-- (300,600] -->
      <g style="fill: #262626" transform="translate(192.144074 276.045856) rotate(-45) scale(0.08 -0.08)">
       <use xlink:href="#ArialMT-28"/>
       <use xlink:href="#ArialMT-33" transform="translate(33.300781 0)"/>
       <use xlink:href="#ArialMT-30" transform="translate(88.916016 0)"/>
       <use xlink:href="#ArialMT-30" transform="translate(144.53125 0)"/>
       <use xlink:href="#ArialMT-2c" transform="translate(200.146484 0)"/>
       <use xlink:href="#ArialMT-36" transform="translate(227.929688 0)"/>
       <use xlink:href="#ArialMT-30" transform="translate(283.544922 0)"/>
       <use xlink:href="#ArialMT-30" transform="translate(339.160156 0)"/>
       <use xlink:href="#ArialMT-5d" transform="translate(394.775391 0)"/>
      </g>
     </g>
    </g>
    <g id="text_17">
     <!-- Activity Levels [intensity x mins] -->
     <g style="fill: #262626" transform="translate(64.922812 287.535322) scale(0.088 -0.088)">
      <defs>
       <path id="ArialMT-41" d="M -9 0 
L 1750 4581 
L 2403 4581 
L 4278 0 
L 3588 0 
L 3053 1388 
L 1138 1388 
L 634 0 
L -9 0 
z
M 1313 1881 
L 2866 1881 
L 2388 3150 
Q 2169 3728 2063 4100 
Q 1975 3659 1816 3225 
L 1313 1881 
z
" transform="scale(0.015625)"/>
       <path id="ArialMT-69" d="M 425 3934 
L 425 4581 
L 988 4581 
L 988 3934 
L 425 3934 
z
M 425 0 
L 425 3319 
L 988 3319 
L 988 0 
L 425 0 
z
" transform="scale(0.015625)"/>
       <path id="ArialMT-76" d="M 1344 0 
L 81 3319 
L 675 3319 
L 1388 1331 
Q 1503 1009 1600 663 
Q 1675 925 1809 1294 
L 2547 3319 
L 3125 3319 
L 1869 0 
L 1344 0 
z
" transform="scale(0.015625)"/>
       <path id="ArialMT-78" d="M 47 0 
L 1259 1725 
L 138 3319 
L 841 3319 
L 1350 2541 
Q 1494 2319 1581 2169 
Q 1719 2375 1834 2534 
L 2394 3319 
L 3066 3319 
L 1919 1756 
L 3153 0 
L 2463 0 
L 1781 1031 
L 1600 1309 
L 728 0 
L 47 0 
z
" transform="scale(0.015625)"/>
       <path id="ArialMT-6d" d="M 422 0 
L 422 3319 
L 925 3319 
L 925 2853 
Q 1081 3097 1340 3245 
Q 1600 3394 1931 3394 
Q 2300 3394 2536 3241 
Q 2772 3088 2869 2813 
Q 3263 3394 3894 3394 
Q 4388 3394 4653 3120 
Q 4919 2847 4919 2278 
L 4919 0 
L 4359 0 
L 4359 2091 
Q 4359 2428 4304 2576 
Q 4250 2725 4106 2815 
Q 3963 2906 3769 2906 
Q 3419 2906 3187 2673 
Q 2956 2441 2956 1928 
L 2956 0 
L 2394 0 
L 2394 2156 
Q 2394 2531 2256 2718 
Q 2119 2906 1806 2906 
Q 1569 2906 1367 2781 
Q 1166 2656 1075 2415 
Q 984 2175 984 1722 
L 984 0 
L 422 0 
z
" transform="scale(0.015625)"/>
      </defs>
      <use xlink:href="#ArialMT-41"/>
      <use xlink:href="#ArialMT-63" transform="translate(66.699219 0)"/>
      <use xlink:href="#ArialMT-74" transform="translate(116.699219 0)"/>
      <use xlink:href="#ArialMT-69" transform="translate(144.482422 0)"/>
      <use xlink:href="#ArialMT-76" transform="translate(166.699219 0)"/>
      <use xlink:href="#ArialMT-69" transform="translate(216.699219 0)"/>
      <use xlink:href="#ArialMT-74" transform="translate(238.916016 0)"/>
      <use xlink:href="#ArialMT-79" transform="translate(266.699219 0)"/>
      <use xlink:href="#ArialMT-20" transform="translate(316.699219 0)"/>
      <use xlink:href="#ArialMT-4c" transform="translate(344.482422 0)"/>
      <use xlink:href="#ArialMT-65" transform="translate(400.097656 0)"/>
      <use xlink:href="#ArialMT-76" transform="translate(455.712891 0)"/>
      <use xlink:href="#ArialMT-65" transform="translate(505.712891 0)"/>
      <use xlink:href="#ArialMT-6c" transform="translate(561.328125 0)"/>
      <use xlink:href="#ArialMT-73" transform="translate(583.544922 0)"/>
      <use xlink:href="#ArialMT-20" transform="translate(633.544922 0)"/>
      <use xlink:href="#ArialMT-5b" transform="translate(661.328125 0)"/>
      <use xlink:href="#ArialMT-69" transform="translate(689.111328 0)"/>
      <use xlink:href="#ArialMT-6e" transform="translate(711.328125 0)"/>
      <use xlink:href="#ArialMT-74" transform="translate(766.943359 0)"/>
      <use xlink:href="#ArialMT-65" transform="translate(794.726562 0)"/>
      <use xlink:href="#ArialMT-6e" transform="translate(850.341797 0)"/>
      <use xlink:href="#ArialMT-73" transform="translate(905.957031 0)"/>
      <use xlink:href="#ArialMT-69" transform="translate(955.957031 0)"/>
      <use xlink:href="#ArialMT-74" transform="translate(978.173828 0)"/>
      <use xlink:href="#ArialMT-79" transform="translate(1005.957031 0)"/>
      <use xlink:href="#ArialMT-20" transform="translate(1055.957031 0)"/>
      <use xlink:href="#ArialMT-78" transform="translate(1083.740234 0)"/>
      <use xlink:href="#ArialMT-20" transform="translate(1133.740234 0)"/>
      <use xlink:href="#ArialMT-6d" transform="translate(1161.523438 0)"/>
      <use xlink:href="#ArialMT-69" transform="translate(1244.824219 0)"/>
      <use xlink:href="#ArialMT-6e" transform="translate(1267.041016 0)"/>
      <use xlink:href="#ArialMT-73" transform="translate(1322.65625 0)"/>
      <use xlink:href="#ArialMT-5d" transform="translate(1372.65625 0)"/>
     </g>
    </g>
   </g>
   <g id="matplotlib.axis_4">
    <g id="ytick_4">
     <g id="line2d_44">
      <path d="M 42.84 236.70675 
L 210.24 236.70675 
" clip-path="url(#p94f2d5a43e)" style="fill: none; stroke: #cccccc; stroke-width: 0.5; stroke-linecap: round"/>
     </g>
     <g id="line2d_45">
      <g>
       <use xlink:href="#m68e883586c" x="42.84" y="236.70675" style="stroke: #000000"/>
      </g>
     </g>
     <g id="text_18">
      <!-- 0.2 -->
      <g style="fill: #262626" transform="translate(29.22 239.569875) scale(0.08 -0.08)">
       <defs>
        <path id="ArialMT-2e" d="M 581 0 
L 581 641 
L 1222 641 
L 1222 0 
L 581 0 
z
" transform="scale(0.015625)"/>
       </defs>
       <use xlink:href="#ArialMT-30"/>
       <use xlink:href="#ArialMT-2e" transform="translate(55.615234 0)"/>
       <use xlink:href="#ArialMT-32" transform="translate(83.398438 0)"/>
      </g>
     </g>
    </g>
    <g id="ytick_5">
     <g id="line2d_46">
      <path d="M 42.84 192.60675 
L 210.24 192.60675 
" clip-path="url(#p94f2d5a43e)" style="fill: none; stroke: #cccccc; stroke-width: 0.5; stroke-linecap: round"/>
     </g>
     <g id="line2d_47">
      <g>
       <use xlink:href="#m68e883586c" x="42.84" y="192.60675" style="stroke: #000000"/>
      </g>
     </g>
     <g id="text_19">
      <!-- 0.3 -->
      <g style="fill: #262626" transform="translate(29.22 195.469875) scale(0.08 -0.08)">
       <use xlink:href="#ArialMT-30"/>
       <use xlink:href="#ArialMT-2e" transform="translate(55.615234 0)"/>
       <use xlink:href="#ArialMT-33" transform="translate(83.398438 0)"/>
      </g>
     </g>
    </g>
    <g id="ytick_6">
     <g id="line2d_48">
      <path d="M 42.84 148.50675 
L 210.24 148.50675 
" clip-path="url(#p94f2d5a43e)" style="fill: none; stroke: #cccccc; stroke-width: 0.5; stroke-linecap: round"/>
     </g>
     <g id="line2d_49">
      <g>
       <use xlink:href="#m68e883586c" x="42.84" y="148.50675" style="stroke: #000000"/>
      </g>
     </g>
     <g id="text_20">
      <!-- 0.4 -->
      <g style="fill: #262626" transform="translate(29.22 151.369875) scale(0.08 -0.08)">
       <use xlink:href="#ArialMT-30"/>
       <use xlink:href="#ArialMT-2e" transform="translate(55.615234 0)"/>
       <use xlink:href="#ArialMT-34" transform="translate(83.398438 0)"/>
      </g>
     </g>
    </g>
    <g id="text_21">
     <!-- Cycle Length Deviation  -->
     <g style="fill: #262626" transform="translate(13.92575 239.074875) rotate(-90) scale(0.088 -0.088)">
      <defs>
       <path id="ArialMT-44" d="M 494 0 
L 494 4581 
L 2072 4581 
Q 2606 4581 2888 4516 
Q 3281 4425 3559 4188 
Q 3922 3881 4101 3404 
Q 4281 2928 4281 2316 
Q 4281 1794 4159 1391 
Q 4038 988 3847 723 
Q 3656 459 3429 307 
Q 3203 156 2883 78 
Q 2563 0 2147 0 
L 494 0 
z
M 1100 541 
L 2078 541 
Q 2531 541 2789 625 
Q 3047 709 3200 863 
Q 3416 1078 3536 1442 
Q 3656 1806 3656 2325 
Q 3656 3044 3420 3430 
Q 3184 3816 2847 3947 
Q 2603 4041 2063 4041 
L 1100 4041 
L 1100 541 
z
" transform="scale(0.015625)"/>
       <path id="ArialMT-6f" d="M 213 1659 
Q 213 2581 725 3025 
Q 1153 3394 1769 3394 
Q 2453 3394 2887 2945 
Q 3322 2497 3322 1706 
Q 3322 1066 3130 698 
Q 2938 331 2570 128 
Q 2203 -75 1769 -75 
Q 1072 -75 642 372 
Q 213 819 213 1659 
z
M 791 1659 
Q 791 1022 1069 705 
Q 1347 388 1769 388 
Q 2188 388 2466 706 
Q 2744 1025 2744 1678 
Q 2744 2294 2464 2611 
Q 2184 2928 1769 2928 
Q 1347 2928 1069 2612 
Q 791 2297 791 1659 
z
" transform="scale(0.015625)"/>
      </defs>
      <use xlink:href="#ArialMT-43"/>
      <use xlink:href="#ArialMT-79" transform="translate(72.216797 0)"/>
      <use xlink:href="#ArialMT-63" transform="translate(122.216797 0)"/>
      <use xlink:href="#ArialMT-6c" transform="translate(172.216797 0)"/>
      <use xlink:href="#ArialMT-65" transform="translate(194.433594 0)"/>
      <use xlink:href="#ArialMT-20" transform="translate(250.048828 0)"/>
      <use xlink:href="#ArialMT-4c" transform="translate(277.832031 0)"/>
      <use xlink:href="#ArialMT-65" transform="translate(333.447266 0)"/>
      <use xlink:href="#ArialMT-6e" transform="translate(389.0625 0)"/>
      <use xlink:href="#ArialMT-67" transform="translate(444.677734 0)"/>
      <use xlink:href="#ArialMT-74" transform="translate(500.292969 0)"/>
      <use xlink:href="#ArialMT-68" transform="translate(528.076172 0)"/>
      <use xlink:href="#ArialMT-20" transform="translate(583.691406 0)"/>
      <use xlink:href="#ArialMT-44" transform="translate(611.474609 0)"/>
      <use xlink:href="#ArialMT-65" transform="translate(683.691406 0)"/>
      <use xlink:href="#ArialMT-76" transform="translate(739.306641 0)"/>
      <use xlink:href="#ArialMT-69" transform="translate(789.306641 0)"/>
      <use xlink:href="#ArialMT-61" transform="translate(811.523438 0)"/>
      <use xlink:href="#ArialMT-74" transform="translate(867.138672 0)"/>
      <use xlink:href="#ArialMT-69" transform="translate(894.921875 0)"/>
      <use xlink:href="#ArialMT-6f" transform="translate(917.138672 0)"/>
      <use xlink:href="#ArialMT-6e" transform="translate(972.753906 0)"/>
      <use xlink:href="#ArialMT-20" transform="translate(1028.369141 0)"/>
     </g>
     <!-- [proportion ≥ 3 days] -->
     <g style="fill: #262626" transform="translate(23.367875 232.68525) rotate(-90) scale(0.088 -0.088)">
      <defs>
       <path id="ArialMT-70" d="M 422 -1272 
L 422 3319 
L 934 3319 
L 934 2888 
Q 1116 3141 1344 3267 
Q 1572 3394 1897 3394 
Q 2322 3394 2647 3175 
Q 2972 2956 3137 2557 
Q 3303 2159 3303 1684 
Q 3303 1175 3120 767 
Q 2938 359 2589 142 
Q 2241 -75 1856 -75 
Q 1575 -75 1351 44 
Q 1128 163 984 344 
L 984 -1272 
L 422 -1272 
z
M 931 1641 
Q 931 1000 1190 694 
Q 1450 388 1819 388 
Q 2194 388 2461 705 
Q 2728 1022 2728 1688 
Q 2728 2322 2467 2637 
Q 2206 2953 1844 2953 
Q 1484 2953 1207 2617 
Q 931 2281 931 1641 
z
" transform="scale(0.015625)"/>
       <path id="ArialMT-72" d="M 416 0 
L 416 3319 
L 922 3319 
L 922 2816 
Q 1116 3169 1280 3281 
Q 1444 3394 1641 3394 
Q 1925 3394 2219 3213 
L 2025 2691 
Q 1819 2813 1613 2813 
Q 1428 2813 1281 2702 
Q 1134 2591 1072 2394 
Q 978 2094 978 1738 
L 978 0 
L 416 0 
z
" transform="scale(0.015625)"/>
       <path id="ArialMT-2265" d="M 3275 2381 
L 241 1084 
L 241 1644 
L 2644 2641 
L 241 3625 
L 241 4188 
L 3275 2906 
L 3275 2381 
z
M 3269 331 
L 244 331 
L 244 853 
L 3269 853 
L 3269 331 
z
" transform="scale(0.015625)"/>
      </defs>
      <use xlink:href="#ArialMT-5b"/>
      <use xlink:href="#ArialMT-70" transform="translate(27.783203 0)"/>
      <use xlink:href="#ArialMT-72" transform="translate(83.398438 0)"/>
      <use xlink:href="#ArialMT-6f" transform="translate(116.699219 0)"/>
      <use xlink:href="#ArialMT-70" transform="translate(172.314453 0)"/>
      <use xlink:href="#ArialMT-6f" transform="translate(227.929688 0)"/>
      <use xlink:href="#ArialMT-72" transform="translate(283.544922 0)"/>
      <use xlink:href="#ArialMT-74" transform="translate(316.845703 0)"/>
      <use xlink:href="#ArialMT-69" transform="translate(344.628906 0)"/>
      <use xlink:href="#ArialMT-6f" transform="translate(366.845703 0)"/>
      <use xlink:href="#ArialMT-6e" transform="translate(422.460938 0)"/>
      <use xlink:href="#ArialMT-20" transform="translate(478.076172 0)"/>
      <use xlink:href="#ArialMT-2265" transform="translate(505.859375 0)"/>
      <use xlink:href="#ArialMT-20" transform="translate(560.742188 0)"/>
      <use xlink:href="#ArialMT-33" transform="translate(588.525391 0)"/>
      <use xlink:href="#ArialMT-20" transform="translate(644.140625 0)"/>
      <use xlink:href="#ArialMT-64" transform="translate(671.923828 0)"/>
      <use xlink:href="#ArialMT-61" transform="translate(727.539062 0)"/>
      <use xlink:href="#ArialMT-79" transform="translate(783.154297 0)"/>
      <use xlink:href="#ArialMT-73" transform="translate(833.154297 0)"/>
      <use xlink:href="#ArialMT-5d" transform="translate(883.154297 0)"/>
     </g>
    </g>
   </g>
   <g id="line2d_50">
    <path d="M 50.449091 215.381179 
L 51.846536 215.240587 
L 53.243982 215.09941 
L 54.641427 214.957648 
L 56.038873 214.8153 
L 57.436319 214.672364 
L 58.833764 214.528839 
L 60.23121 214.384724 
L 61.628655 214.240018 
L 63.026101 214.094719 
L 64.423546 213.948827 
L 65.820992 213.802341 
L 67.218437 213.655258 
L 68.615883 213.507579 
L 70.013328 213.359302 
L 71.410774 213.210425 
L 72.808219 213.060948 
L 74.205665 212.910869 
L 75.60311 212.760187 
L 77.000556 212.608902 
L 78.398002 212.457011 
L 79.795447 212.304513 
L 81.192893 212.151408 
L 82.590338 211.997695 
L 83.987784 211.843371 
L 85.385229 211.688436 
L 86.782675 211.532889 
L 88.18012 211.376728 
L 89.577566 211.219953 
L 90.975011 211.062562 
L 92.372457 210.904553 
L 93.769902 210.745926 
L 95.167348 210.586679 
L 96.564793 210.426812 
L 97.962239 210.266323 
L 99.359684 210.10521 
L 100.75713 209.943473 
L 102.154576 209.781111 
L 103.552021 209.618121 
L 104.949467 209.454504 
L 106.346912 209.290257 
L 107.744358 209.12538 
L 109.141803 208.959871 
L 110.539249 208.793729 
L 111.936694 208.626953 
L 113.33414 208.459541 
L 114.731585 208.291493 
L 116.129031 208.122807 
L 117.526476 207.953482 
L 118.923922 207.783517 
L 120.321367 207.61291 
L 121.718813 207.44166 
L 123.116258 207.269766 
L 124.513704 207.097227 
L 125.91115 206.924042 
L 127.308595 206.750208 
L 128.706041 206.575726 
L 130.103486 206.400594 
L 131.500932 206.22481 
L 132.898377 206.048373 
L 134.295823 205.871283 
L 135.693268 205.693537 
L 137.090714 205.515135 
L 138.488159 205.336075 
L 139.885605 205.156357 
L 141.28305 204.975978 
L 142.680496 204.794938 
L 144.077941 204.613235 
L 145.475387 204.430869 
L 146.872832 204.247837 
L 148.270278 204.064139 
L 149.667724 203.879773 
L 151.065169 203.694738 
L 152.462615 203.509034 
L 153.86006 203.322658 
L 155.257506 203.135609 
L 156.654951 202.947887 
L 158.052397 202.759489 
L 159.449842 202.570415 
L 160.847288 202.380664 
L 162.244733 202.190234 
L 163.642179 201.999123 
L 165.039624 201.807332 
L 166.43707 201.614858 
L 167.834515 201.4217 
L 169.231961 201.227856 
L 170.629406 201.033327 
L 172.026852 200.83811 
L 173.424298 200.642205 
L 174.821743 200.445609 
L 176.219189 200.248322 
L 177.616634 200.050343 
L 179.01408 199.85167 
L 180.411525 199.652301 
L 181.808971 199.452237 
L 183.206416 199.251475 
L 184.603862 199.050015 
L 186.001307 198.847855 
L 187.398753 198.644993 
L 188.796198 198.441429 
" clip-path="url(#p94f2d5a43e)" style="fill: none; stroke: #2964d9; stroke-opacity: 0.5; stroke-width: 2; stroke-linecap: round"/>
   </g>
   <g id="FillBetweenPolyCollection_2">
    <defs>
     <path id="m8d9df08dff" d="M 50.449091 -89.43991 
L 50.449091 -73.367213 
L 51.846536 -73.783563 
L 53.243982 -74.196519 
L 54.641427 -74.605894 
L 56.038873 -75.011476 
L 57.436319 -75.413024 
L 58.833764 -75.810265 
L 60.23121 -76.202887 
L 61.628655 -76.590533 
L 63.026101 -76.972795 
L 64.423546 -77.349205 
L 65.820992 -77.719229 
L 67.218437 -78.082256 
L 68.615883 -78.43759 
L 70.013328 -78.784443 
L 71.410774 -79.121925 
L 72.808219 -79.449044 
L 74.205665 -79.764706 
L 75.60311 -80.067722 
L 77.000556 -80.356835 
L 78.398002 -80.630748 
L 79.795447 -80.888179 
L 81.192893 -81.127925 
L 82.590338 -81.348944 
L 83.987784 -81.550433 
L 85.385229 -81.731908 
L 86.782675 -81.893255 
L 88.18012 -82.034754 
L 89.577566 -82.157063 
L 90.975011 -82.261172 
L 92.372457 -82.348319 
L 93.769902 -82.419913 
L 95.167348 -82.477445 
L 96.564793 -82.52241 
L 97.962239 -82.556258 
L 99.359684 -82.580346 
L 100.75713 -82.595918 
L 102.154576 -82.604094 
L 103.552021 -82.605867 
L 104.949467 -82.602107 
L 106.346912 -82.593571 
L 107.744358 -82.580913 
L 109.141803 -82.564695 
L 110.539249 -82.545395 
L 111.936694 -82.52342 
L 113.33414 -82.499114 
L 114.731585 -82.472769 
L 116.129031 -82.444626 
L 117.526476 -82.414888 
L 118.923922 -82.383722 
L 120.321367 -82.351263 
L 121.718813 -82.317621 
L 123.116258 -82.282883 
L 124.513704 -82.247115 
L 125.91115 -82.210367 
L 127.308595 -82.172673 
L 128.706041 -82.134053 
L 130.103486 -82.094517 
L 131.500932 -82.054064 
L 132.898377 -82.012685 
L 134.295823 -81.970364 
L 135.693268 -81.927075 
L 137.090714 -81.882789 
L 138.488159 -81.837472 
L 139.885605 -81.791083 
L 141.28305 -81.743581 
L 142.680496 -81.694918 
L 144.077941 -81.645045 
L 145.475387 -81.593909 
L 146.872832 -81.541457 
L 148.270278 -81.487632 
L 149.667724 -81.432378 
L 151.065169 -81.375635 
L 152.462615 -81.317344 
L 153.86006 -81.257443 
L 155.257506 -81.195874 
L 156.654951 -81.132572 
L 158.052397 -81.067478 
L 159.449842 -81.00053 
L 160.847288 -80.931665 
L 162.244733 -80.860823 
L 163.642179 -80.787943 
L 165.039624 -80.712963 
L 166.43707 -80.635825 
L 167.834515 -80.556469 
L 169.231961 -80.474835 
L 170.629406 -80.390867 
L 172.026852 -80.304508 
L 173.424298 -80.215701 
L 174.821743 -80.124392 
L 176.219189 -80.030526 
L 177.616634 -79.934051 
L 179.01408 -79.834916 
L 180.411525 -79.73307 
L 181.808971 -79.628464 
L 183.206416 -79.521049 
L 184.603862 -79.41078 
L 186.001307 -79.297612 
L 187.398753 -79.181499 
L 188.796198 -79.0624 
L 188.796198 -119.12227 
L 188.796198 -119.12227 
L 187.398753 -118.535798 
L 186.001307 -117.955292 
L 184.603862 -117.380669 
L 183.206416 -116.811849 
L 181.808971 -116.248749 
L 180.411525 -115.691285 
L 179.01408 -115.139371 
L 177.616634 -114.592924 
L 176.219189 -114.051857 
L 174.821743 -113.516084 
L 173.424298 -112.985516 
L 172.026852 -112.460067 
L 170.629406 -111.939647 
L 169.231961 -111.424168 
L 167.834515 -110.913541 
L 166.43707 -110.407677 
L 165.039624 -109.906485 
L 163.642179 -109.409876 
L 162.244733 -108.917761 
L 160.847288 -108.430049 
L 159.449842 -107.946651 
L 158.052397 -107.467478 
L 156.654951 -106.992441 
L 155.257506 -106.521453 
L 153.86006 -106.054426 
L 152.462615 -105.591273 
L 151.065169 -105.13191 
L 149.667724 -104.676253 
L 148.270278 -104.224219 
L 146.872832 -103.775726 
L 145.475387 -103.330698 
L 144.077941 -102.889057 
L 142.680496 -102.45073 
L 141.28305 -102.015645 
L 139.885605 -101.583735 
L 138.488159 -101.154936 
L 137.090714 -100.729189 
L 135.693268 -100.306438 
L 134.295823 -99.886635 
L 132.898377 -99.469734 
L 131.500932 -99.0557 
L 130.103486 -98.644503 
L 128.706041 -98.236122 
L 127.308595 -97.830547 
L 125.91115 -97.427775 
L 124.513704 -97.027821 
L 123.116258 -96.630709 
L 121.718813 -96.236483 
L 120.321367 -95.845202 
L 118.923922 -95.456948 
L 117.526476 -95.071825 
L 116.129031 -94.689968 
L 114.731585 -94.311539 
L 113.33414 -93.936739 
L 111.936694 -93.565811 
L 110.539249 -93.199044 
L 109.141803 -92.836784 
L 107.744358 -92.47944 
L 106.346912 -92.127495 
L 104.949467 -91.781513 
L 103.552021 -91.442152 
L 102.154576 -91.110175 
L 100.75713 -90.786461 
L 99.359684 -90.472008 
L 97.962239 -90.167946 
L 96.564793 -89.875528 
L 95.167348 -89.596122 
L 93.769902 -89.331188 
L 92.372457 -89.082236 
L 90.975011 -88.850768 
L 89.577566 -88.638207 
L 88.18012 -88.445809 
L 86.782675 -88.274578 
L 85.385229 -88.125189 
L 83.987784 -87.997941 
L 82.590338 -87.89274 
L 81.192893 -87.80912 
L 79.795447 -87.746302 
L 78.398002 -87.703262 
L 77.000556 -87.678824 
L 75.60311 -87.671727 
L 74.205665 -87.6807 
L 72.808219 -87.704512 
L 71.410774 -87.742002 
L 70.013328 -87.792103 
L 68.615883 -87.85385 
L 67.218437 -87.926386 
L 65.820992 -88.008951 
L 64.423546 -88.100883 
L 63.026101 -88.201602 
L 61.628655 -88.310608 
L 60.23121 -88.427468 
L 58.833764 -88.55181 
L 57.436319 -88.683313 
L 56.038873 -88.821703 
L 54.641427 -88.966744 
L 53.243982 -89.118235 
L 51.846536 -89.276006 
L 50.449091 -89.43991 
z
"/>
    </defs>
    <g clip-path="url(#p94f2d5a43e)">
     <use xlink:href="#m8d9df08dff" x="0" y="296.587447" style="fill: #2964d9; fill-opacity: 0.25"/>
    </g>
   </g>
   <g id="patch_6">
    <path d="M 42.84 245.52675 
L 42.84 139.68675 
" style="fill: none; stroke: #000000; stroke-linejoin: miter; stroke-linecap: square"/>
   </g>
   <g id="patch_7">
    <path d="M 42.84 245.52675 
L 210.24 245.52675 
" style="fill: none; stroke: #000000; stroke-linejoin: miter; stroke-linecap: square"/>
   </g>
   <g id="line2d_51">
    <path d="M 64.283802 210.136298 
L 64.283802 200.911086 
" clip-path="url(#p94f2d5a43e)" style="fill: none; stroke: #4c4c4c; stroke-width: 2; stroke-linecap: round"/>
   </g>
   <g id="line2d_52">
    <path d="M 91.953223 208.300487 
L 91.953223 198.478654 
" clip-path="url(#p94f2d5a43e)" style="fill: none; stroke: #4c4c4c; stroke-width: 2; stroke-linecap: round"/>
   </g>
   <g id="line2d_53">
    <path d="M 119.622645 218.668771 
L 119.622645 204.102594 
" clip-path="url(#p94f2d5a43e)" style="fill: none; stroke: #4c4c4c; stroke-width: 2; stroke-linecap: round"/>
   </g>
   <g id="line2d_54">
    <path d="M 147.292066 218.216159 
L 147.292066 193.763868 
" clip-path="url(#p94f2d5a43e)" style="fill: none; stroke: #4c4c4c; stroke-width: 2; stroke-linecap: round"/>
   </g>
   <g id="line2d_55">
    <path d="M 174.961488 216.409061 
L 174.961488 174.513192 
" clip-path="url(#p94f2d5a43e)" style="fill: none; stroke: #4c4c4c; stroke-width: 2; stroke-linecap: round"/>
   </g>
   <g id="line2d_56">
    <path d="M 202.630909 219.874997 
L 202.630909 165.705758 
" clip-path="url(#p94f2d5a43e)" style="fill: none; stroke: #4c4c4c; stroke-width: 2; stroke-linecap: round"/>
   </g>
   <g id="line2d_57">
    <path d="M 64.283802 205.606871 
" clip-path="url(#p94f2d5a43e)" style="fill: none; stroke: #4c4c4c; stroke-width: 1.8; stroke-linecap: round"/>
    <g clip-path="url(#p94f2d5a43e)">
     <use xlink:href="#m265f14526d" x="64.283802" y="205.606871" style="fill: #4c4c4c"/>
    </g>
   </g>
   <g id="line2d_58">
    <path d="M 91.953223 203.509991 
" clip-path="url(#p94f2d5a43e)" style="fill: none; stroke: #4c4c4c; stroke-width: 1.8; stroke-linecap: round"/>
    <g clip-path="url(#p94f2d5a43e)">
     <use xlink:href="#m265f14526d" x="91.953223" y="203.509991" style="fill: #4c4c4c"/>
    </g>
   </g>
   <g id="line2d_59">
    <path d="M 119.622645 211.033144 
" clip-path="url(#p94f2d5a43e)" style="fill: none; stroke: #4c4c4c; stroke-width: 1.8; stroke-linecap: round"/>
    <g clip-path="url(#p94f2d5a43e)">
     <use xlink:href="#m265f14526d" x="119.622645" y="211.033144" style="fill: #4c4c4c"/>
    </g>
   </g>
   <g id="line2d_60">
    <path d="M 147.292066 206.326023 
" clip-path="url(#p94f2d5a43e)" style="fill: none; stroke: #4c4c4c; stroke-width: 1.8; stroke-linecap: round"/>
    <g clip-path="url(#p94f2d5a43e)">
     <use xlink:href="#m265f14526d" x="147.292066" y="206.326023" style="fill: #4c4c4c"/>
    </g>
   </g>
   <g id="line2d_61">
    <path d="M 174.961488 198.384071 
" clip-path="url(#p94f2d5a43e)" style="fill: none; stroke: #4c4c4c; stroke-width: 1.8; stroke-linecap: round"/>
    <g clip-path="url(#p94f2d5a43e)">
     <use xlink:href="#m265f14526d" x="174.961488" y="198.384071" style="fill: #4c4c4c"/>
    </g>
   </g>
   <g id="line2d_62">
    <path d="M 202.630909 193.000295 
" clip-path="url(#p94f2d5a43e)" style="fill: none; stroke: #4c4c4c; stroke-width: 1.8; stroke-linecap: round"/>
    <g clip-path="url(#p94f2d5a43e)">
     <use xlink:href="#m265f14526d" x="202.630909" y="193.000295" style="fill: #4c4c4c"/>
    </g>
   </g>
  </g>
  <g id="text_22">
   <!-- a. -->
   <g style="fill: #262626" transform="translate(7.2 15.789375) scale(0.12 -0.12)">
    <defs>
     <path id="Arial-BoldMT-61" d="M 1116 2306 
L 319 2450 
Q 453 2931 781 3162 
Q 1109 3394 1756 3394 
Q 2344 3394 2631 3255 
Q 2919 3116 3036 2902 
Q 3153 2688 3153 2116 
L 3144 1091 
Q 3144 653 3186 445 
Q 3228 238 3344 0 
L 2475 0 
Q 2441 88 2391 259 
Q 2369 338 2359 363 
Q 2134 144 1878 34 
Q 1622 -75 1331 -75 
Q 819 -75 523 203 
Q 228 481 228 906 
Q 228 1188 362 1408 
Q 497 1628 739 1745 
Q 981 1863 1438 1950 
Q 2053 2066 2291 2166 
L 2291 2253 
Q 2291 2506 2166 2614 
Q 2041 2722 1694 2722 
Q 1459 2722 1328 2630 
Q 1197 2538 1116 2306 
z
M 2291 1594 
Q 2122 1538 1756 1459 
Q 1391 1381 1278 1306 
Q 1106 1184 1106 997 
Q 1106 813 1243 678 
Q 1381 544 1594 544 
Q 1831 544 2047 700 
Q 2206 819 2256 991 
Q 2291 1103 2291 1419 
L 2291 1594 
z
" transform="scale(0.015625)"/>
     <path id="Arial-BoldMT-2e" d="M 459 0 
L 459 878 
L 1338 878 
L 1338 0 
L 459 0 
z
" transform="scale(0.015625)"/>
    </defs>
    <use xlink:href="#Arial-BoldMT-61"/>
    <use xlink:href="#Arial-BoldMT-2e" transform="translate(55.615234 0)"/>
   </g>
  </g>
  <g id="text_23">
   <!-- b. -->
   <g style="fill: #262626" transform="translate(7.2 142.797375) scale(0.12 -0.12)">
    <defs>
     <path id="Arial-BoldMT-62" d="M 422 0 
L 422 4581 
L 1300 4581 
L 1300 2931 
Q 1706 3394 2263 3394 
Q 2869 3394 3266 2955 
Q 3663 2516 3663 1694 
Q 3663 844 3258 384 
Q 2853 -75 2275 -75 
Q 1991 -75 1714 67 
Q 1438 209 1238 488 
L 1238 0 
L 422 0 
z
M 1294 1731 
Q 1294 1216 1456 969 
Q 1684 619 2063 619 
Q 2353 619 2558 867 
Q 2763 1116 2763 1650 
Q 2763 2219 2556 2470 
Q 2350 2722 2028 2722 
Q 1713 2722 1503 2476 
Q 1294 2231 1294 1731 
z
" transform="scale(0.015625)"/>
    </defs>
    <use xlink:href="#Arial-BoldMT-62"/>
    <use xlink:href="#Arial-BoldMT-2e" transform="translate(61.083984 0)"/>
   </g>
  </g>
 </g>
 <defs>
  <clipPath id="p6c4894b064">
   <rect x="42.84" y="12.67875" width="167.4" height="105.84"/>
  </clipPath>
  <clipPath id="p94f2d5a43e">
   <rect x="42.84" y="139.68675" width="167.4" height="105.84"/>
  </clipPath>
 </defs>
</svg>
