<?xml version="1.0" encoding="utf-8" standalone="no"?>
<!DOCTYPE svg PUBLIC "-//W3C//DTD SVG 1.1//EN"
  "http://www.w3.org/Graphics/SVG/1.1/DTD/svg11.dtd">
<svg xmlns:xlink="http://www.w3.org/1999/xlink" width="217.44pt" height="290.19284pt" viewBox="0 0 217.44 290.19284" xmlns="http://www.w3.org/2000/svg" version="1.1">
 <metadata>
  <rdf:RDF xmlns:dc="http://purl.org/dc/elements/1.1/" xmlns:cc="http://creativecommons.org/ns#" xmlns:rdf="http://www.w3.org/1999/02/22-rdf-syntax-ns#">
   <cc:Work>
    <dc:type rdf:resource="http://purl.org/dc/dcmitype/StillImage"/>
    <dc:date>2026-05-06T15:36:52.104137</dc:date>
    <dc:format>image/svg+xml</dc:format>
    <dc:creator>
     <cc:Agent>
      <dc:title>Matplotlib v3.10.7, https://matplotlib.org/</dc:title>
     </cc:Agent>
    </dc:creator>
   </cc:Work>
  </rdf:RDF>
 </metadata>
 <defs>
  <style type="text/css">*{stroke-linejoin: round; stroke-linecap: butt}</style>
 </defs>
 <g id="figure_1">
  <g id="patch_1">
   <path d="M 0 290.19284 
L 217.44 290.19284 
L 217.44 0 
L 0 0 
z
" style="fill: #ffffff"/>
  </g>
  <g id="axes_1">
   <g id="patch_2">
    <path d="M 42.84 118.51875 
L 210.24 118.51875 
L 210.24 12.67875 
L 42.84 12.67875 
z
" style="fill: #ffffff"/>
   </g>
   <g id="matplotlib.axis_1">
    <g id="xtick_1">
     <g id="line2d_1">
      <path d="M 50.449091 118.51875 
L 50.449091 12.67875 
" clip-path="url(#p4e2f671872)" style="fill: none"/>
     </g>
     <g id="line2d_2">
      <defs>
       <path id="m36ef7d69b1" d="M 0 0 
L 0 2 
" style="stroke: #000000"/>
      </defs>
      <g>
       <use xlink:href="#m36ef7d69b1" x="50.449091" y="118.51875" style="stroke: #000000"/>
      </g>
     </g>
    </g>
    <g id="xtick_2">
     <g id="line2d_3">
      <path d="M 75.812727 118.51875 
L 75.812727 12.67875 
" clip-path="url(#p4e2f671872)" style="fill: none"/>
     </g>
     <g id="line2d_4">
      <g>
       <use xlink:href="#m36ef7d69b1" x="75.812727" y="118.51875" style="stroke: #000000"/>
      </g>
     </g>
    </g>
    <g id="xtick_3">
     <g id="line2d_5">
      <path d="M 101.176364 118.51875 
L 101.176364 12.67875 
" clip-path="url(#p4e2f671872)" style="fill: none"/>
     </g>
     <g id="line2d_6">
      <g>
       <use xlink:href="#m36ef7d69b1" x="101.176364" y="118.51875" style="stroke: #000000"/>
      </g>
     </g>
    </g>
    <g id="xtick_4">
     <g id="line2d_7">
      <path d="M 126.54 118.51875 
L 126.54 12.67875 
" clip-path="url(#p4e2f671872)" style="fill: none"/>
     </g>
     <g id="line2d_8">
      <g>
       <use xlink:href="#m36ef7d69b1" x="126.54" y="118.51875" style="stroke: #000000"/>
      </g>
     </g>
    </g>
    <g id="xtick_5">
     <g id="line2d_9">
      <path d="M 151.903636 118.51875 
L 151.903636 12.67875 
" clip-path="url(#p4e2f671872)" style="fill: none"/>
     </g>
     <g id="line2d_10">
      <g>
       <use xlink:href="#m36ef7d69b1" x="151.903636" y="118.51875" style="stroke: #000000"/>
      </g>
     </g>
    </g>
    <g id="xtick_6">
     <g id="line2d_11">
      <path d="M 177.267273 118.51875 
L 177.267273 12.67875 
" clip-path="url(#p4e2f671872)" style="fill: none"/>
     </g>
     <g id="line2d_12">
      <g>
       <use xlink:href="#m36ef7d69b1" x="177.267273" y="118.51875" style="stroke: #000000"/>
      </g>
     </g>
    </g>
    <g id="xtick_7">
     <g id="line2d_13">
      <path d="M 202.630909 118.51875 
L 202.630909 12.67875 
" clip-path="url(#p4e2f671872)" style="fill: none"/>
     </g>
     <g id="line2d_14">
      <g>
       <use xlink:href="#m36ef7d69b1" x="202.630909" y="118.51875" style="stroke: #000000"/>
      </g>
     </g>
    </g>
   </g>
   <g id="matplotlib.axis_2">
    <g id="ytick_1">
     <g id="line2d_15">
      <path d="M 42.84 109.69875 
L 210.24 109.69875 
" clip-path="url(#p4e2f671872)" style="fill: none; stroke: #cccccc; stroke-width: 0.5; stroke-linecap: round"/>
     </g>
     <g id="line2d_16">
      <defs>
       <path id="md157379917" d="M 0 0 
L -2 0 
" style="stroke: #000000"/>
      </defs>
      <g>
       <use xlink:href="#md157379917" x="42.84" y="109.69875" style="stroke: #000000"/>
      </g>
     </g>
     <g id="text_1">
      <!-- 26 -->
      <g style="fill: #262626" transform="translate(31.4425 112.561875) scale(0.08 -0.08)">
       <defs>
        <path id="ArialMT-32" d="M 3222 541 
L 3222 0 
L 194 0 
Q 188 203 259 391 
Q 375 700 629 1000 
Q 884 1300 1366 1694 
Q 2113 2306 2375 2664 
Q 2638 3022 2638 3341 
Q 2638 3675 2398 3904 
Q 2159 4134 1775 4134 
Q 1369 4134 1125 3890 
Q 881 3647 878 3216 
L 300 3275 
Q 359 3922 746 4261 
Q 1134 4600 1788 4600 
Q 2447 4600 2831 4234 
Q 3216 3869 3216 3328 
Q 3216 3053 3103 2787 
Q 2991 2522 2730 2228 
Q 2469 1934 1863 1422 
Q 1356 997 1212 845 
Q 1069 694 975 541 
L 3222 541 
z
" transform="scale(0.015625)"/>
        <path id="ArialMT-36" d="M 3184 3459 
L 2625 3416 
Q 2550 3747 2413 3897 
Q 2184 4138 1850 4138 
Q 1581 4138 1378 3988 
Q 1113 3794 959 3422 
Q 806 3050 800 2363 
Q 1003 2672 1297 2822 
Q 1591 2972 1913 2972 
Q 2475 2972 2870 2558 
Q 3266 2144 3266 1488 
Q 3266 1056 3080 686 
Q 2894 316 2569 119 
Q 2244 -78 1831 -78 
Q 1128 -78 684 439 
Q 241 956 241 2144 
Q 241 3472 731 4075 
Q 1159 4600 1884 4600 
Q 2425 4600 2770 4297 
Q 3116 3994 3184 3459 
z
M 888 1484 
Q 888 1194 1011 928 
Q 1134 663 1356 523 
Q 1578 384 1822 384 
Q 2178 384 2434 671 
Q 2691 959 2691 1453 
Q 2691 1928 2437 2201 
Q 2184 2475 1800 2475 
Q 1419 2475 1153 2201 
Q 888 1928 888 1484 
z
" transform="scale(0.015625)"/>
       </defs>
       <use xlink:href="#ArialMT-32"/>
       <use xlink:href="#ArialMT-36" transform="translate(55.615234 0)"/>
      </g>
     </g>
    </g>
    <g id="ytick_2">
     <g id="line2d_17">
      <path d="M 42.84 65.59875 
L 210.24 65.59875 
" clip-path="url(#p4e2f671872)" style="fill: none; stroke: #cccccc; stroke-width: 0.5; stroke-linecap: round"/>
     </g>
     <g id="line2d_18">
      <g>
       <use xlink:href="#md157379917" x="42.84" y="65.59875" style="stroke: #000000"/>
      </g>
     </g>
     <g id="text_2">
      <!-- 28 -->
      <g style="fill: #262626" transform="translate(31.4425 68.461875) scale(0.08 -0.08)">
       <defs>
        <path id="ArialMT-38" d="M 1131 2484 
Q 781 2613 612 2850 
Q 444 3088 444 3419 
Q 444 3919 803 4259 
Q 1163 4600 1759 4600 
Q 2359 4600 2725 4251 
Q 3091 3903 3091 3403 
Q 3091 3084 2923 2848 
Q 2756 2613 2416 2484 
Q 2838 2347 3058 2040 
Q 3278 1734 3278 1309 
Q 3278 722 2862 322 
Q 2447 -78 1769 -78 
Q 1091 -78 675 323 
Q 259 725 259 1325 
Q 259 1772 486 2073 
Q 713 2375 1131 2484 
z
M 1019 3438 
Q 1019 3113 1228 2906 
Q 1438 2700 1772 2700 
Q 2097 2700 2305 2904 
Q 2513 3109 2513 3406 
Q 2513 3716 2298 3927 
Q 2084 4138 1766 4138 
Q 1444 4138 1231 3931 
Q 1019 3725 1019 3438 
z
M 838 1322 
Q 838 1081 952 856 
Q 1066 631 1291 507 
Q 1516 384 1775 384 
Q 2178 384 2440 643 
Q 2703 903 2703 1303 
Q 2703 1709 2433 1975 
Q 2163 2241 1756 2241 
Q 1359 2241 1098 1978 
Q 838 1716 838 1322 
z
" transform="scale(0.015625)"/>
       </defs>
       <use xlink:href="#ArialMT-32"/>
       <use xlink:href="#ArialMT-38" transform="translate(55.615234 0)"/>
      </g>
     </g>
    </g>
    <g id="ytick_3">
     <g id="line2d_19">
      <path d="M 42.84 21.49875 
L 210.24 21.49875 
" clip-path="url(#p4e2f671872)" style="fill: none; stroke: #cccccc; stroke-width: 0.5; stroke-linecap: round"/>
     </g>
     <g id="line2d_20">
      <g>
       <use xlink:href="#md157379917" x="42.84" y="21.49875" style="stroke: #000000"/>
      </g>
     </g>
     <g id="text_3">
      <!-- 30 -->
      <g style="fill: #262626" transform="translate(31.4425 24.361875) scale(0.08 -0.08)">
       <defs>
        <path id="ArialMT-33" d="M 269 1209 
L 831 1284 
Q 928 806 1161 595 
Q 1394 384 1728 384 
Q 2125 384 2398 659 
Q 2672 934 2672 1341 
Q 2672 1728 2419 1979 
Q 2166 2231 1775 2231 
Q 1616 2231 1378 2169 
L 1441 2663 
Q 1497 2656 1531 2656 
Q 1891 2656 2178 2843 
Q 2466 3031 2466 3422 
Q 2466 3731 2256 3934 
Q 2047 4138 1716 4138 
Q 1388 4138 1169 3931 
Q 950 3725 888 3313 
L 325 3413 
Q 428 3978 793 4289 
Q 1159 4600 1703 4600 
Q 2078 4600 2393 4439 
Q 2709 4278 2876 4000 
Q 3044 3722 3044 3409 
Q 3044 3113 2884 2869 
Q 2725 2625 2413 2481 
Q 2819 2388 3044 2092 
Q 3269 1797 3269 1353 
Q 3269 753 2831 336 
Q 2394 -81 1725 -81 
Q 1122 -81 723 278 
Q 325 638 269 1209 
z
" transform="scale(0.015625)"/>
        <path id="ArialMT-30" d="M 266 2259 
Q 266 3072 433 3567 
Q 600 4063 929 4331 
Q 1259 4600 1759 4600 
Q 2128 4600 2406 4451 
Q 2684 4303 2865 4023 
Q 3047 3744 3150 3342 
Q 3253 2941 3253 2259 
Q 3253 1453 3087 958 
Q 2922 463 2592 192 
Q 2263 -78 1759 -78 
Q 1097 -78 719 397 
Q 266 969 266 2259 
z
M 844 2259 
Q 844 1131 1108 757 
Q 1372 384 1759 384 
Q 2147 384 2411 759 
Q 2675 1134 2675 2259 
Q 2675 3391 2411 3762 
Q 2147 4134 1753 4134 
Q 1366 4134 1134 3806 
Q 844 3388 844 2259 
z
" transform="scale(0.015625)"/>
       </defs>
       <use xlink:href="#ArialMT-33"/>
       <use xlink:href="#ArialMT-30" transform="translate(55.615234 0)"/>
      </g>
     </g>
    </g>
    <g id="text_4">
     <!-- Cycle Length  -->
     <g style="fill: #262626" transform="translate(16.1796 92.502) rotate(-90) scale(0.088 -0.088)">
      <defs>
       <path id="ArialMT-43" d="M 3763 1606 
L 4369 1453 
Q 4178 706 3683 314 
Q 3188 -78 2472 -78 
Q 1731 -78 1267 223 
Q 803 525 561 1097 
Q 319 1669 319 2325 
Q 319 3041 592 3573 
Q 866 4106 1370 4382 
Q 1875 4659 2481 4659 
Q 3169 4659 3637 4309 
Q 4106 3959 4291 3325 
L 3694 3184 
Q 3534 3684 3231 3912 
Q 2928 4141 2469 4141 
Q 1941 4141 1586 3887 
Q 1231 3634 1087 3207 
Q 944 2781 944 2328 
Q 944 1744 1114 1308 
Q 1284 872 1643 656 
Q 2003 441 2422 441 
Q 2931 441 3284 734 
Q 3638 1028 3763 1606 
z
" transform="scale(0.015625)"/>
       <path id="ArialMT-79" d="M 397 -1278 
L 334 -750 
Q 519 -800 656 -800 
Q 844 -800 956 -737 
Q 1069 -675 1141 -563 
Q 1194 -478 1313 -144 
Q 1328 -97 1363 -6 
L 103 3319 
L 709 3319 
L 1400 1397 
Q 1534 1031 1641 628 
Q 1738 1016 1872 1384 
L 2581 3319 
L 3144 3319 
L 1881 -56 
Q 1678 -603 1566 -809 
Q 1416 -1088 1222 -1217 
Q 1028 -1347 759 -1347 
Q 597 -1347 397 -1278 
z
" transform="scale(0.015625)"/>
       <path id="ArialMT-63" d="M 2588 1216 
L 3141 1144 
Q 3050 572 2676 248 
Q 2303 -75 1759 -75 
Q 1078 -75 664 370 
Q 250 816 250 1647 
Q 250 2184 428 2587 
Q 606 2991 970 3192 
Q 1334 3394 1763 3394 
Q 2303 3394 2647 3120 
Q 2991 2847 3088 2344 
L 2541 2259 
Q 2463 2594 2264 2762 
Q 2066 2931 1784 2931 
Q 1359 2931 1093 2626 
Q 828 2322 828 1663 
Q 828 994 1084 691 
Q 1341 388 1753 388 
Q 2084 388 2306 591 
Q 2528 794 2588 1216 
z
" transform="scale(0.015625)"/>
       <path id="ArialMT-6c" d="M 409 0 
L 409 4581 
L 972 4581 
L 972 0 
L 409 0 
z
" transform="scale(0.015625)"/>
       <path id="ArialMT-65" d="M 2694 1069 
L 3275 997 
Q 3138 488 2766 206 
Q 2394 -75 1816 -75 
Q 1088 -75 661 373 
Q 234 822 234 1631 
Q 234 2469 665 2931 
Q 1097 3394 1784 3394 
Q 2450 3394 2872 2941 
Q 3294 2488 3294 1666 
Q 3294 1616 3291 1516 
L 816 1516 
Q 847 969 1125 678 
Q 1403 388 1819 388 
Q 2128 388 2347 550 
Q 2566 713 2694 1069 
z
M 847 1978 
L 2700 1978 
Q 2663 2397 2488 2606 
Q 2219 2931 1791 2931 
Q 1403 2931 1139 2672 
Q 875 2413 847 1978 
z
" transform="scale(0.015625)"/>
       <path id="ArialMT-20" transform="scale(0.015625)"/>
       <path id="ArialMT-4c" d="M 469 0 
L 469 4581 
L 1075 4581 
L 1075 541 
L 3331 541 
L 3331 0 
L 469 0 
z
" transform="scale(0.015625)"/>
       <path id="ArialMT-6e" d="M 422 0 
L 422 3319 
L 928 3319 
L 928 2847 
Q 1294 3394 1984 3394 
Q 2284 3394 2536 3286 
Q 2788 3178 2913 3003 
Q 3038 2828 3088 2588 
Q 3119 2431 3119 2041 
L 3119 0 
L 2556 0 
L 2556 2019 
Q 2556 2363 2490 2533 
Q 2425 2703 2258 2804 
Q 2091 2906 1866 2906 
Q 1506 2906 1245 2678 
Q 984 2450 984 1813 
L 984 0 
L 422 0 
z
" transform="scale(0.015625)"/>
       <path id="ArialMT-67" d="M 319 -275 
L 866 -356 
Q 900 -609 1056 -725 
Q 1266 -881 1628 -881 
Q 2019 -881 2231 -725 
Q 2444 -569 2519 -288 
Q 2563 -116 2559 434 
Q 2191 0 1641 0 
Q 956 0 581 494 
Q 206 988 206 1678 
Q 206 2153 378 2554 
Q 550 2956 876 3175 
Q 1203 3394 1644 3394 
Q 2231 3394 2613 2919 
L 2613 3319 
L 3131 3319 
L 3131 450 
Q 3131 -325 2973 -648 
Q 2816 -972 2473 -1159 
Q 2131 -1347 1631 -1347 
Q 1038 -1347 672 -1080 
Q 306 -813 319 -275 
z
M 784 1719 
Q 784 1066 1043 766 
Q 1303 466 1694 466 
Q 2081 466 2343 764 
Q 2606 1063 2606 1700 
Q 2606 2309 2336 2618 
Q 2066 2928 1684 2928 
Q 1309 2928 1046 2623 
Q 784 2319 784 1719 
z
" transform="scale(0.015625)"/>
       <path id="ArialMT-74" d="M 1650 503 
L 1731 6 
Q 1494 -44 1306 -44 
Q 1000 -44 831 53 
Q 663 150 594 308 
Q 525 466 525 972 
L 525 2881 
L 113 2881 
L 113 3319 
L 525 3319 
L 525 4141 
L 1084 4478 
L 1084 3319 
L 1650 3319 
L 1650 2881 
L 1084 2881 
L 1084 941 
Q 1084 700 1114 631 
Q 1144 563 1211 522 
Q 1278 481 1403 481 
Q 1497 481 1650 503 
z
" transform="scale(0.015625)"/>
       <path id="ArialMT-68" d="M 422 0 
L 422 4581 
L 984 4581 
L 984 2938 
Q 1378 3394 1978 3394 
Q 2347 3394 2619 3248 
Q 2891 3103 3008 2847 
Q 3125 2591 3125 2103 
L 3125 0 
L 2563 0 
L 2563 2103 
Q 2563 2525 2380 2717 
Q 2197 2909 1863 2909 
Q 1613 2909 1392 2779 
Q 1172 2650 1078 2428 
Q 984 2206 984 1816 
L 984 0 
L 422 0 
z
" transform="scale(0.015625)"/>
      </defs>
      <use xlink:href="#ArialMT-43"/>
      <use xlink:href="#ArialMT-79" transform="translate(72.216797 0)"/>
      <use xlink:href="#ArialMT-63" transform="translate(122.216797 0)"/>
      <use xlink:href="#ArialMT-6c" transform="translate(172.216797 0)"/>
      <use xlink:href="#ArialMT-65" transform="translate(194.433594 0)"/>
      <use xlink:href="#ArialMT-20" transform="translate(250.048828 0)"/>
      <use xlink:href="#ArialMT-4c" transform="translate(277.832031 0)"/>
      <use xlink:href="#ArialMT-65" transform="translate(333.447266 0)"/>
      <use xlink:href="#ArialMT-6e" transform="translate(389.0625 0)"/>
      <use xlink:href="#ArialMT-67" transform="translate(444.677734 0)"/>
      <use xlink:href="#ArialMT-74" transform="translate(500.292969 0)"/>
      <use xlink:href="#ArialMT-68" transform="translate(528.076172 0)"/>
      <use xlink:href="#ArialMT-20" transform="translate(583.691406 0)"/>
     </g>
     <!-- [days] -->
     <g style="fill: #262626" transform="translate(25.590375 77.337125) rotate(-90) scale(0.088 -0.088)">
      <defs>
       <path id="ArialMT-5b" d="M 434 -1272 
L 434 4581 
L 1675 4581 
L 1675 4116 
L 997 4116 
L 997 -806 
L 1675 -806 
L 1675 -1272 
L 434 -1272 
z
" transform="scale(0.015625)"/>
       <path id="ArialMT-64" d="M 2575 0 
L 2575 419 
Q 2259 -75 1647 -75 
Q 1250 -75 917 144 
Q 584 363 401 755 
Q 219 1147 219 1656 
Q 219 2153 384 2558 
Q 550 2963 881 3178 
Q 1213 3394 1622 3394 
Q 1922 3394 2156 3267 
Q 2391 3141 2538 2938 
L 2538 4581 
L 3097 4581 
L 3097 0 
L 2575 0 
z
M 797 1656 
Q 797 1019 1065 703 
Q 1334 388 1700 388 
Q 2069 388 2326 689 
Q 2584 991 2584 1609 
Q 2584 2291 2321 2609 
Q 2059 2928 1675 2928 
Q 1300 2928 1048 2622 
Q 797 2316 797 1656 
z
" transform="scale(0.015625)"/>
       <path id="ArialMT-61" d="M 2588 409 
Q 2275 144 1986 34 
Q 1697 -75 1366 -75 
Q 819 -75 525 192 
Q 231 459 231 875 
Q 231 1119 342 1320 
Q 453 1522 633 1644 
Q 813 1766 1038 1828 
Q 1203 1872 1538 1913 
Q 2219 1994 2541 2106 
Q 2544 2222 2544 2253 
Q 2544 2597 2384 2738 
Q 2169 2928 1744 2928 
Q 1347 2928 1158 2789 
Q 969 2650 878 2297 
L 328 2372 
Q 403 2725 575 2942 
Q 747 3159 1072 3276 
Q 1397 3394 1825 3394 
Q 2250 3394 2515 3294 
Q 2781 3194 2906 3042 
Q 3031 2891 3081 2659 
Q 3109 2516 3109 2141 
L 3109 1391 
Q 3109 606 3145 398 
Q 3181 191 3288 0 
L 2700 0 
Q 2613 175 2588 409 
z
M 2541 1666 
Q 2234 1541 1622 1453 
Q 1275 1403 1131 1340 
Q 988 1278 909 1158 
Q 831 1038 831 891 
Q 831 666 1001 516 
Q 1172 366 1500 366 
Q 1825 366 2078 508 
Q 2331 650 2450 897 
Q 2541 1088 2541 1459 
L 2541 1666 
z
" transform="scale(0.015625)"/>
       <path id="ArialMT-73" d="M 197 991 
L 753 1078 
Q 800 744 1014 566 
Q 1228 388 1613 388 
Q 2000 388 2187 545 
Q 2375 703 2375 916 
Q 2375 1106 2209 1216 
Q 2094 1291 1634 1406 
Q 1016 1563 777 1677 
Q 538 1791 414 1992 
Q 291 2194 291 2438 
Q 291 2659 392 2848 
Q 494 3038 669 3163 
Q 800 3259 1026 3326 
Q 1253 3394 1513 3394 
Q 1903 3394 2198 3281 
Q 2494 3169 2634 2976 
Q 2775 2784 2828 2463 
L 2278 2388 
Q 2241 2644 2061 2787 
Q 1881 2931 1553 2931 
Q 1166 2931 1000 2803 
Q 834 2675 834 2503 
Q 834 2394 903 2306 
Q 972 2216 1119 2156 
Q 1203 2125 1616 2013 
Q 2213 1853 2448 1751 
Q 2684 1650 2818 1456 
Q 2953 1263 2953 975 
Q 2953 694 2789 445 
Q 2625 197 2315 61 
Q 2006 -75 1616 -75 
Q 969 -75 630 194 
Q 291 463 197 991 
z
" transform="scale(0.015625)"/>
       <path id="ArialMT-5d" d="M 1363 -1272 
L 122 -1272 
L 122 -806 
L 800 -806 
L 800 4116 
L 122 4116 
L 122 4581 
L 1363 4581 
L 1363 -1272 
z
" transform="scale(0.015625)"/>
      </defs>
      <use xlink:href="#ArialMT-5b"/>
      <use xlink:href="#ArialMT-64" transform="translate(27.783203 0)"/>
      <use xlink:href="#ArialMT-61" transform="translate(83.398438 0)"/>
      <use xlink:href="#ArialMT-79" transform="translate(139.013672 0)"/>
      <use xlink:href="#ArialMT-73" transform="translate(189.013672 0)"/>
      <use xlink:href="#ArialMT-5d" transform="translate(239.013672 0)"/>
     </g>
    </g>
   </g>
   <g id="line2d_21">
    <path d="M 63.130909 65.819002 
L 64.411901 65.845063 
L 65.692893 65.869171 
L 66.973884 65.891325 
L 68.254876 65.911526 
L 69.535868 65.929774 
L 70.81686 65.946069 
L 72.097851 65.960411 
L 73.378843 65.972799 
L 74.659835 65.983234 
L 75.940826 65.991716 
L 77.221818 65.998245 
L 78.50281 66.002821 
L 79.783802 66.005443 
L 81.064793 66.006112 
L 82.345785 66.004828 
L 83.626777 66.001591 
L 84.907769 65.9964 
L 86.18876 65.989256 
L 87.469752 65.980159 
L 88.750744 65.969109 
L 90.031736 65.956106 
L 91.312727 65.941149 
L 92.593719 65.924239 
L 93.874711 65.905376 
L 95.155702 65.88456 
L 96.436694 65.861791 
L 97.717686 65.837068 
L 98.998678 65.810392 
L 100.279669 65.781763 
L 101.560661 65.751181 
L 102.841653 65.718645 
L 104.122645 65.684156 
L 105.403636 65.647714 
L 106.684628 65.609319 
L 107.96562 65.568971 
L 109.246612 65.526669 
L 110.527603 65.482414 
L 111.808595 65.436206 
L 113.089587 65.388045 
L 114.370579 65.337931 
L 115.65157 65.285863 
L 116.932562 65.231842 
L 118.213554 65.175868 
L 119.494545 65.117941 
L 120.775537 65.05806 
L 122.056529 64.996226 
L 123.337521 64.932439 
L 124.618512 64.866699 
L 125.899504 64.799006 
L 127.180496 64.729359 
L 128.461488 64.657759 
L 129.742479 64.584206 
L 131.023471 64.5087 
L 132.304463 64.43124 
L 133.585455 64.351828 
L 134.866446 64.270462 
L 136.147438 64.187143 
L 137.42843 64.10187 
L 138.709421 64.014645 
L 139.990413 63.925466 
L 141.271405 63.834334 
L 142.552397 63.741249 
L 143.833388 63.64621 
L 145.11438 63.549219 
L 146.395372 63.450274 
L 147.676364 63.349376 
L 148.957355 63.246524 
L 150.238347 63.14172 
L 151.519339 63.034962 
L 152.800331 62.926251 
L 154.081322 62.815587 
L 155.362314 62.70297 
L 156.643306 62.588399 
L 157.924298 62.471875 
L 159.205289 62.353398 
L 160.486281 62.232968 
L 161.767273 62.110585 
L 163.048264 61.986248 
L 164.329256 61.859958 
L 165.610248 61.731715 
L 166.89124 61.601519 
L 168.172231 61.469369 
L 169.453223 61.335267 
L 170.734215 61.199211 
L 172.015207 61.061202 
L 173.296198 60.921239 
L 174.57719 60.779324 
L 175.858182 60.635455 
L 177.139174 60.489633 
L 178.420165 60.341858 
L 179.701157 60.192129 
L 180.982149 60.040447 
L 182.26314 59.886813 
L 183.544132 59.731224 
L 184.825124 59.573683 
L 186.106116 59.414189 
L 187.387107 59.252741 
L 188.668099 59.08934 
L 189.949091 58.923986 
" clip-path="url(#p4e2f671872)" style="fill: none; stroke: #2964d9; stroke-opacity: 0.5; stroke-width: 2; stroke-linecap: round"/>
   </g>
   <g id="FillBetweenPolyCollection_1">
    <defs>
     <path id="mccefe0355a" d="M 63.130909 -229.483811 
L 63.130909 -219.263865 
L 64.411901 -219.429105 
L 65.692893 -219.591779 
L 66.973884 -219.751799 
L 68.254876 -219.909069 
L 69.535868 -220.063482 
L 70.81686 -220.214918 
L 72.097851 -220.363243 
L 73.378843 -220.508312 
L 74.659835 -220.649959 
L 75.940826 -220.788005 
L 77.221818 -220.92225 
L 78.50281 -221.052479 
L 79.783802 -221.178456 
L 81.064793 -221.299926 
L 82.345785 -221.416621 
L 83.626777 -221.528257 
L 84.907769 -221.634542 
L 86.18876 -221.735181 
L 87.469752 -221.829887 
L 88.750744 -221.918389 
L 90.031736 -222.000446 
L 91.312727 -222.075864 
L 92.593719 -222.144508 
L 93.874711 -222.206317 
L 95.155702 -222.261316 
L 96.436694 -222.309626 
L 97.717686 -222.351463 
L 98.998678 -222.38714 
L 100.279669 -222.417053 
L 101.560661 -222.441672 
L 102.841653 -222.461519 
L 104.122645 -222.477155 
L 105.403636 -222.489157 
L 106.684628 -222.4981 
L 107.96562 -222.504549 
L 109.246612 -222.509041 
L 110.527603 -222.512079 
L 111.808595 -222.514128 
L 113.089587 -222.515609 
L 114.370579 -222.516903 
L 115.65157 -222.518345 
L 116.932562 -222.520231 
L 118.213554 -222.522816 
L 119.494545 -222.526322 
L 120.775537 -222.530933 
L 122.056529 -222.536806 
L 123.337521 -222.544068 
L 124.618512 -222.55282 
L 125.899504 -222.563141 
L 127.180496 -222.575088 
L 128.461488 -222.588699 
L 129.742479 -222.603995 
L 131.023471 -222.620981 
L 132.304463 -222.639649 
L 133.585455 -222.659975 
L 134.866446 -222.681927 
L 136.147438 -222.705459 
L 137.42843 -222.730519 
L 138.709421 -222.757044 
L 139.990413 -222.784962 
L 141.271405 -222.814196 
L 142.552397 -222.844662 
L 143.833388 -222.87627 
L 145.11438 -222.908925 
L 146.395372 -222.942529 
L 147.676364 -222.976976 
L 148.957355 -223.012163 
L 150.238347 -223.047979 
L 151.519339 -223.084315 
L 152.800331 -223.121056 
L 154.081322 -223.158091 
L 155.362314 -223.195304 
L 156.643306 -223.232583 
L 157.924298 -223.269813 
L 159.205289 -223.306882 
L 160.486281 -223.343679 
L 161.767273 -223.380095 
L 163.048264 -223.416021 
L 164.329256 -223.451354 
L 165.610248 -223.485991 
L 166.89124 -223.519832 
L 168.172231 -223.552782 
L 169.453223 -223.584749 
L 170.734215 -223.615643 
L 172.015207 -223.64538 
L 173.296198 -223.673879 
L 174.57719 -223.701063 
L 175.858182 -223.726859 
L 177.139174 -223.751197 
L 178.420165 -223.774013 
L 179.701157 -223.795246 
L 180.982149 -223.814839 
L 182.26314 -223.832738 
L 183.544132 -223.848895 
L 184.825124 -223.863264 
L 186.106116 -223.875802 
L 187.387107 -223.886472 
L 188.668099 -223.895236 
L 189.949091 -223.902063 
L 189.949091 -238.635645 
L 189.949091 -238.635645 
L 188.668099 -238.311764 
L 187.387107 -237.993726 
L 186.106116 -237.6815 
L 184.825124 -237.375049 
L 183.544132 -237.074335 
L 182.26314 -236.779316 
L 180.982149 -236.489946 
L 179.701157 -236.206175 
L 178.420165 -235.927951 
L 177.139174 -235.655217 
L 175.858182 -235.387911 
L 174.57719 -235.125969 
L 173.296198 -234.869322 
L 172.015207 -234.617896 
L 170.734215 -234.371615 
L 169.453223 -234.130397 
L 168.172231 -233.894159 
L 166.89124 -233.66281 
L 165.610248 -233.436258 
L 164.329256 -233.214409 
L 163.048264 -232.997162 
L 161.767273 -232.784415 
L 160.486281 -232.576064 
L 159.205289 -232.372 
L 157.924298 -232.172116 
L 156.643306 -231.976298 
L 155.362314 -231.784436 
L 154.081322 -231.596414 
L 152.800331 -231.412121 
L 151.519339 -231.23144 
L 150.238347 -231.05426 
L 148.957355 -230.880467 
L 147.676364 -230.709951 
L 146.395372 -230.542603 
L 145.11438 -230.378317 
L 143.833388 -230.216989 
L 142.552397 -230.05852 
L 141.271405 -229.902815 
L 139.990413 -229.749786 
L 138.709421 -229.599346 
L 137.42843 -229.451419 
L 136.147438 -229.305935 
L 134.866446 -229.162829 
L 133.585455 -229.022049 
L 132.304463 -228.88355 
L 131.023471 -228.747298 
L 129.742479 -228.613272 
L 128.461488 -228.481462 
L 127.180496 -228.351873 
L 125.899504 -228.224527 
L 124.618512 -228.099461 
L 123.337521 -227.976733 
L 122.056529 -227.856421 
L 120.775537 -227.738626 
L 119.494545 -227.623477 
L 118.213554 -227.511127 
L 116.932562 -227.401765 
L 115.65157 -227.295609 
L 114.370579 -227.192915 
L 113.089587 -227.09398 
L 111.808595 -226.999139 
L 110.527603 -226.908772 
L 109.246612 -226.8233 
L 107.96562 -226.743188 
L 106.684628 -226.66894 
L 105.403636 -226.601094 
L 104.122645 -226.540211 
L 102.841653 -226.48687 
L 101.560661 -226.441646 
L 100.279669 -226.4051 
L 98.998678 -226.377756 
L 97.717686 -226.36008 
L 96.436694 -226.352472 
L 95.155702 -226.355243 
L 93.874711 -226.36861 
L 92.593719 -226.392692 
L 91.312727 -226.427516 
L 90.031736 -226.473021 
L 88.750744 -226.529072 
L 87.469752 -226.595474 
L 86.18876 -226.671986 
L 84.907769 -226.758337 
L 83.626777 -226.854241 
L 82.345785 -226.959402 
L 81.064793 -227.073529 
L 79.783802 -227.196338 
L 78.50281 -227.327559 
L 77.221818 -227.466939 
L 75.940826 -227.614242 
L 74.659835 -227.769252 
L 73.378843 -227.931769 
L 72.097851 -228.101614 
L 70.81686 -228.278623 
L 69.535868 -228.462649 
L 68.254876 -228.653558 
L 66.973884 -228.85123 
L 65.692893 -229.055559 
L 64.411901 -229.266448 
L 63.130909 -229.483811 
z
"/>
    </defs>
    <g clip-path="url(#p4e2f671872)">
     <use xlink:href="#mccefe0355a" x="0" y="290.19284" style="fill: #2964d9; fill-opacity: 0.25"/>
    </g>
   </g>
   <g id="patch_3">
    <path d="M 42.84 118.51875 
L 42.84 12.67875 
" style="fill: none; stroke: #000000; stroke-linejoin: miter; stroke-linecap: square"/>
   </g>
   <g id="patch_4">
    <path d="M 42.84 118.51875 
L 210.24 118.51875 
" style="fill: none; stroke: #000000; stroke-linejoin: miter; stroke-linecap: square"/>
   </g>
   <g id="text_5">
    <!-- 21 -->
    <g style="fill: #262626" transform="translate(46.000341 36.670314) scale(0.08 -0.08)">
     <defs>
      <path id="ArialMT-31" d="M 2384 0 
L 1822 0 
L 1822 3584 
Q 1619 3391 1289 3197 
Q 959 3003 697 2906 
L 697 3450 
Q 1169 3672 1522 3987 
Q 1875 4303 2022 4600 
L 2384 4600 
L 2384 0 
z
" transform="scale(0.015625)"/>
     </defs>
     <use xlink:href="#ArialMT-32"/>
     <use xlink:href="#ArialMT-31" transform="translate(55.615234 0)"/>
    </g>
   </g>
   <g id="text_6">
    <!-- 669 -->
    <g style="fill: #262626" transform="translate(69.139602 58.834282) scale(0.08 -0.08)">
     <defs>
      <path id="ArialMT-39" d="M 350 1059 
L 891 1109 
Q 959 728 1153 556 
Q 1347 384 1650 384 
Q 1909 384 2104 503 
Q 2300 622 2425 820 
Q 2550 1019 2634 1356 
Q 2719 1694 2719 2044 
Q 2719 2081 2716 2156 
Q 2547 1888 2255 1720 
Q 1963 1553 1622 1553 
Q 1053 1553 659 1965 
Q 266 2378 266 3053 
Q 266 3750 677 4175 
Q 1088 4600 1706 4600 
Q 2153 4600 2523 4359 
Q 2894 4119 3086 3673 
Q 3278 3228 3278 2384 
Q 3278 1506 3087 986 
Q 2897 466 2520 194 
Q 2144 -78 1638 -78 
Q 1100 -78 759 220 
Q 419 519 350 1059 
z
M 2653 3081 
Q 2653 3566 2395 3850 
Q 2138 4134 1775 4134 
Q 1400 4134 1122 3828 
Q 844 3522 844 3034 
Q 844 2597 1108 2323 
Q 1372 2050 1759 2050 
Q 2150 2050 2401 2323 
Q 2653 2597 2653 3081 
z
" transform="scale(0.015625)"/>
     </defs>
     <use xlink:href="#ArialMT-36"/>
     <use xlink:href="#ArialMT-36" transform="translate(55.615234 0)"/>
     <use xlink:href="#ArialMT-39" transform="translate(111.230469 0)"/>
    </g>
   </g>
   <g id="text_7">
    <!-- 1168 -->
    <g style="fill: #262626" transform="translate(92.573864 60.12194) scale(0.08 -0.08)">
     <use xlink:href="#ArialMT-31"/>
     <use xlink:href="#ArialMT-31" transform="translate(48.240234 0)"/>
     <use xlink:href="#ArialMT-36" transform="translate(103.855469 0)"/>
     <use xlink:href="#ArialMT-38" transform="translate(159.470703 0)"/>
    </g>
   </g>
   <g id="text_8">
    <!-- 459 -->
    <g style="fill: #262626" transform="translate(119.866875 59.699135) scale(0.08 -0.08)">
     <defs>
      <path id="ArialMT-34" d="M 2069 0 
L 2069 1097 
L 81 1097 
L 81 1613 
L 2172 4581 
L 2631 4581 
L 2631 1613 
L 3250 1613 
L 3250 1097 
L 2631 1097 
L 2631 0 
L 2069 0 
z
M 2069 1613 
L 2069 3678 
L 634 1613 
L 2069 1613 
z
" transform="scale(0.015625)"/>
      <path id="ArialMT-35" d="M 266 1200 
L 856 1250 
Q 922 819 1161 601 
Q 1400 384 1738 384 
Q 2144 384 2425 690 
Q 2706 997 2706 1503 
Q 2706 1984 2436 2262 
Q 2166 2541 1728 2541 
Q 1456 2541 1237 2417 
Q 1019 2294 894 2097 
L 366 2166 
L 809 4519 
L 3088 4519 
L 3088 3981 
L 1259 3981 
L 1013 2750 
Q 1425 3038 1878 3038 
Q 2478 3038 2890 2622 
Q 3303 2206 3303 1553 
Q 3303 931 2941 478 
Q 2500 -78 1738 -78 
Q 1113 -78 717 272 
Q 322 622 266 1200 
z
" transform="scale(0.015625)"/>
     </defs>
     <use xlink:href="#ArialMT-34"/>
     <use xlink:href="#ArialMT-35" transform="translate(55.615234 0)"/>
     <use xlink:href="#ArialMT-39" transform="translate(111.230469 0)"/>
    </g>
   </g>
   <g id="text_9">
    <!-- 171 -->
    <g style="fill: #262626" transform="translate(145.230511 53.176576) scale(0.08 -0.08)">
     <defs>
      <path id="ArialMT-37" d="M 303 3981 
L 303 4522 
L 3269 4522 
L 3269 4084 
Q 2831 3619 2401 2847 
Q 1972 2075 1738 1259 
Q 1569 684 1522 0 
L 944 0 
Q 953 541 1156 1306 
Q 1359 2072 1739 2783 
Q 2119 3494 2547 3981 
L 303 3981 
z
" transform="scale(0.015625)"/>
     </defs>
     <use xlink:href="#ArialMT-31"/>
     <use xlink:href="#ArialMT-37" transform="translate(55.615234 0)"/>
     <use xlink:href="#ArialMT-31" transform="translate(111.230469 0)"/>
    </g>
   </g>
   <g id="text_10">
    <!-- 62 -->
    <g style="fill: #262626" transform="translate(172.818523 32.365797) scale(0.08 -0.08)">
     <use xlink:href="#ArialMT-36"/>
     <use xlink:href="#ArialMT-32" transform="translate(55.615234 0)"/>
    </g>
   </g>
   <g id="text_11">
    <!-- 46 -->
    <g style="fill: #262626" transform="translate(198.182159 43.368182) scale(0.08 -0.08)">
     <use xlink:href="#ArialMT-34"/>
     <use xlink:href="#ArialMT-36" transform="translate(55.615234 0)"/>
    </g>
   </g>
   <g id="line2d_22">
    <path d="M 50.449091 79.458266 
L 50.449091 38.480814 
" clip-path="url(#p4e2f671872)" style="fill: none; stroke: #4c4c4c; stroke-width: 2; stroke-linecap: round"/>
   </g>
   <g id="line2d_23">
    <path d="M 75.812727 68.494633 
L 75.812727 60.644782 
" clip-path="url(#p4e2f671872)" style="fill: none; stroke: #4c4c4c; stroke-width: 2; stroke-linecap: round"/>
   </g>
   <g id="line2d_24">
    <path d="M 101.176364 68.156952 
L 101.176364 61.93244 
" clip-path="url(#p4e2f671872)" style="fill: none; stroke: #4c4c4c; stroke-width: 2; stroke-linecap: round"/>
   </g>
   <g id="line2d_25">
    <path d="M 126.54 71.210561 
L 126.54 61.509635 
" clip-path="url(#p4e2f671872)" style="fill: none; stroke: #4c4c4c; stroke-width: 2; stroke-linecap: round"/>
   </g>
   <g id="line2d_26">
    <path d="M 151.903636 69.510334 
L 151.903636 54.987076 
" clip-path="url(#p4e2f671872)" style="fill: none; stroke: #4c4c4c; stroke-width: 2; stroke-linecap: round"/>
   </g>
   <g id="line2d_27">
    <path d="M 177.267273 63.524257 
L 177.267273 34.176297 
" clip-path="url(#p4e2f671872)" style="fill: none; stroke: #4c4c4c; stroke-width: 2; stroke-linecap: round"/>
   </g>
   <g id="line2d_28">
    <path d="M 202.630909 83.801751 
L 202.630909 45.178682 
" clip-path="url(#p4e2f671872)" style="fill: none; stroke: #4c4c4c; stroke-width: 2; stroke-linecap: round"/>
   </g>
   <g id="line2d_29">
    <path d="M 50.449091 59.888296 
" clip-path="url(#p4e2f671872)" style="fill: none; stroke: #4c4c4c; stroke-width: 1.8; stroke-linecap: round"/>
    <defs>
     <path id="m38f038eb53" d="M 0 2 
C 0.530406 2 1.03916 1.789267 1.414214 1.414214 
C 1.789267 1.03916 2 0.530406 2 0 
C 2 -0.530406 1.789267 -1.03916 1.414214 -1.414214 
C 1.03916 -1.789267 0.530406 -2 0 -2 
C -0.530406 -2 -1.03916 -1.789267 -1.414214 -1.414214 
C -1.789267 -1.03916 -2 -0.530406 -2 0 
C -2 0.530406 -1.789267 1.03916 -1.414214 1.414214 
C -1.03916 1.789267 -0.530406 2 0 2 
z
"/>
    </defs>
    <g clip-path="url(#p4e2f671872)">
     <use xlink:href="#m38f038eb53" x="50.449091" y="59.888296" style="fill: #4c4c4c"/>
    </g>
   </g>
   <g id="line2d_30">
    <path d="M 75.812727 64.310473 
" clip-path="url(#p4e2f671872)" style="fill: none; stroke: #4c4c4c; stroke-width: 1.8; stroke-linecap: round"/>
    <g clip-path="url(#p4e2f671872)">
     <use xlink:href="#m38f038eb53" x="75.812727" y="64.310473" style="fill: #4c4c4c"/>
    </g>
   </g>
   <g id="line2d_31">
    <path d="M 101.176364 65.236009 
" clip-path="url(#p4e2f671872)" style="fill: none; stroke: #4c4c4c; stroke-width: 1.8; stroke-linecap: round"/>
    <g clip-path="url(#p4e2f671872)">
     <use xlink:href="#m38f038eb53" x="101.176364" y="65.236009" style="fill: #4c4c4c"/>
    </g>
   </g>
   <g id="line2d_32">
    <path d="M 126.54 66.403958 
" clip-path="url(#p4e2f671872)" style="fill: none; stroke: #4c4c4c; stroke-width: 1.8; stroke-linecap: round"/>
    <g clip-path="url(#p4e2f671872)">
     <use xlink:href="#m38f038eb53" x="126.54" y="66.403958" style="fill: #4c4c4c"/>
    </g>
   </g>
   <g id="line2d_33">
    <path d="M 151.903636 62.449595 
" clip-path="url(#p4e2f671872)" style="fill: none; stroke: #4c4c4c; stroke-width: 1.8; stroke-linecap: round"/>
    <g clip-path="url(#p4e2f671872)">
     <use xlink:href="#m38f038eb53" x="151.903636" y="62.449595" style="fill: #4c4c4c"/>
    </g>
   </g>
   <g id="line2d_34">
    <path d="M 177.267273 48.795199 
" clip-path="url(#p4e2f671872)" style="fill: none; stroke: #4c4c4c; stroke-width: 1.8; stroke-linecap: round"/>
    <g clip-path="url(#p4e2f671872)">
     <use xlink:href="#m38f038eb53" x="177.267273" y="48.795199" style="fill: #4c4c4c"/>
    </g>
   </g>
   <g id="line2d_35">
    <path d="M 202.630909 65.18743 
" clip-path="url(#p4e2f671872)" style="fill: none; stroke: #4c4c4c; stroke-width: 1.8; stroke-linecap: round"/>
    <g clip-path="url(#p4e2f671872)">
     <use xlink:href="#m38f038eb53" x="202.630909" y="65.18743" style="fill: #4c4c4c"/>
    </g>
   </g>
  </g>
  <g id="axes_2">
   <g id="patch_5">
    <path d="M 42.84 245.52675 
L 210.24 245.52675 
L 210.24 139.68675 
L 42.84 139.68675 
z
" style="fill: #ffffff"/>
   </g>
   <g id="matplotlib.axis_3">
    <g id="xtick_8">
     <g id="line2d_36">
      <path d="M 50.449091 245.52675 
L 50.449091 139.68675 
" clip-path="url(#pe4c1b4fa99)" style="fill: none"/>
     </g>
     <g id="line2d_37">
      <g>
       <use xlink:href="#m36ef7d69b1" x="50.449091" y="245.52675" style="stroke: #000000"/>
      </g>
     </g>
     <g id="text_12">
      <!-- &lt;=18 -->
      <g style="fill: #262626" transform="translate(45.461778 264.975216) rotate(-45) scale(0.08 -0.08)">
       <defs>
        <path id="ArialMT-3c" d="M 350 2003 
L 350 2528 
L 3384 3809 
L 3384 3250 
L 978 2263 
L 3384 1266 
L 3384 706 
L 350 2003 
z
" transform="scale(0.015625)"/>
        <path id="ArialMT-3d" d="M 3381 2694 
L 356 2694 
L 356 3219 
L 3381 3219 
L 3381 2694 
z
M 3381 1303 
L 356 1303 
L 356 1828 
L 3381 1828 
L 3381 1303 
z
" transform="scale(0.015625)"/>
       </defs>
       <use xlink:href="#ArialMT-3c"/>
       <use xlink:href="#ArialMT-3d" transform="translate(58.398438 0)"/>
       <use xlink:href="#ArialMT-31" transform="translate(116.796875 0)"/>
       <use xlink:href="#ArialMT-38" transform="translate(172.412109 0)"/>
      </g>
     </g>
    </g>
    <g id="xtick_9">
     <g id="line2d_38">
      <path d="M 75.812727 245.52675 
L 75.812727 139.68675 
" clip-path="url(#pe4c1b4fa99)" style="fill: none"/>
     </g>
     <g id="line2d_39">
      <g>
       <use xlink:href="#m36ef7d69b1" x="75.812727" y="245.52675" style="stroke: #000000"/>
      </g>
     </g>
     <g id="text_13">
      <!-- (18,22] -->
      <g style="fill: #262626" transform="translate(68.471633 269.754374) rotate(-45) scale(0.08 -0.08)">
       <defs>
        <path id="ArialMT-28" d="M 1497 -1347 
Q 1031 -759 709 28 
Q 388 816 388 1659 
Q 388 2403 628 3084 
Q 909 3875 1497 4659 
L 1900 4659 
Q 1522 4009 1400 3731 
Q 1209 3300 1100 2831 
Q 966 2247 966 1656 
Q 966 153 1900 -1347 
L 1497 -1347 
z
" transform="scale(0.015625)"/>
        <path id="ArialMT-2c" d="M 569 0 
L 569 641 
L 1209 641 
L 1209 0 
Q 1209 -353 1084 -570 
Q 959 -788 688 -906 
L 531 -666 
Q 709 -588 793 -436 
Q 878 -284 888 0 
L 569 0 
z
" transform="scale(0.015625)"/>
       </defs>
       <use xlink:href="#ArialMT-28"/>
       <use xlink:href="#ArialMT-31" transform="translate(33.300781 0)"/>
       <use xlink:href="#ArialMT-38" transform="translate(88.916016 0)"/>
       <use xlink:href="#ArialMT-2c" transform="translate(144.53125 0)"/>
       <use xlink:href="#ArialMT-32" transform="translate(172.314453 0)"/>
       <use xlink:href="#ArialMT-32" transform="translate(227.929688 0)"/>
       <use xlink:href="#ArialMT-5d" transform="translate(283.544922 0)"/>
      </g>
     </g>
    </g>
    <g id="xtick_10">
     <g id="line2d_40">
      <path d="M 101.176364 245.52675 
L 101.176364 139.68675 
" clip-path="url(#pe4c1b4fa99)" style="fill: none"/>
     </g>
     <g id="line2d_41">
      <g>
       <use xlink:href="#m36ef7d69b1" x="101.176364" y="245.52675" style="stroke: #000000"/>
      </g>
     </g>
     <g id="text_14">
      <!-- (22,26] -->
      <g style="fill: #262626" transform="translate(93.835269 269.754374) rotate(-45) scale(0.08 -0.08)">
       <use xlink:href="#ArialMT-28"/>
       <use xlink:href="#ArialMT-32" transform="translate(33.300781 0)"/>
       <use xlink:href="#ArialMT-32" transform="translate(88.916016 0)"/>
       <use xlink:href="#ArialMT-2c" transform="translate(144.53125 0)"/>
       <use xlink:href="#ArialMT-32" transform="translate(172.314453 0)"/>
       <use xlink:href="#ArialMT-36" transform="translate(227.929688 0)"/>
       <use xlink:href="#ArialMT-5d" transform="translate(283.544922 0)"/>
      </g>
     </g>
    </g>
    <g id="xtick_11">
     <g id="line2d_42">
      <path d="M 126.54 245.52675 
L 126.54 139.68675 
" clip-path="url(#pe4c1b4fa99)" style="fill: none"/>
     </g>
     <g id="line2d_43">
      <g>
       <use xlink:href="#m36ef7d69b1" x="126.54" y="245.52675" style="stroke: #000000"/>
      </g>
     </g>
     <g id="text_15">
      <!-- (26,30] -->
      <g style="fill: #262626" transform="translate(119.198906 269.754374) rotate(-45) scale(0.08 -0.08)">
       <use xlink:href="#ArialMT-28"/>
       <use xlink:href="#ArialMT-32" transform="translate(33.300781 0)"/>
       <use xlink:href="#ArialMT-36" transform="translate(88.916016 0)"/>
       <use xlink:href="#ArialMT-2c" transform="translate(144.53125 0)"/>
       <use xlink:href="#ArialMT-33" transform="translate(172.314453 0)"/>
       <use xlink:href="#ArialMT-30" transform="translate(227.929688 0)"/>
       <use xlink:href="#ArialMT-5d" transform="translate(283.544922 0)"/>
      </g>
     </g>
    </g>
    <g id="xtick_12">
     <g id="line2d_44">
      <path d="M 151.903636 245.52675 
L 151.903636 139.68675 
" clip-path="url(#pe4c1b4fa99)" style="fill: none"/>
     </g>
     <g id="line2d_45">
      <g>
       <use xlink:href="#m36ef7d69b1" x="151.903636" y="245.52675" style="stroke: #000000"/>
      </g>
     </g>
     <g id="text_16">
      <!-- (30,34] -->
      <g style="fill: #262626" transform="translate(144.562542 269.754374) rotate(-45) scale(0.08 -0.08)">
       <use xlink:href="#ArialMT-28"/>
       <use xlink:href="#ArialMT-33" transform="translate(33.300781 0)"/>
       <use xlink:href="#ArialMT-30" transform="translate(88.916016 0)"/>
       <use xlink:href="#ArialMT-2c" transform="translate(144.53125 0)"/>
       <use xlink:href="#ArialMT-33" transform="translate(172.314453 0)"/>
       <use xlink:href="#ArialMT-34" transform="translate(227.929688 0)"/>
       <use xlink:href="#ArialMT-5d" transform="translate(283.544922 0)"/>
      </g>
     </g>
    </g>
    <g id="xtick_13">
     <g id="line2d_46">
      <path d="M 177.267273 245.52675 
L 177.267273 139.68675 
" clip-path="url(#pe4c1b4fa99)" style="fill: none"/>
     </g>
     <g id="line2d_47">
      <g>
       <use xlink:href="#m36ef7d69b1" x="177.267273" y="245.52675" style="stroke: #000000"/>
      </g>
     </g>
     <g id="text_17">
      <!-- (34,38] -->
      <g style="fill: #262626" transform="translate(169.926179 269.754374) rotate(-45) scale(0.08 -0.08)">
       <use xlink:href="#ArialMT-28"/>
       <use xlink:href="#ArialMT-33" transform="translate(33.300781 0)"/>
       <use xlink:href="#ArialMT-34" transform="translate(88.916016 0)"/>
       <use xlink:href="#ArialMT-2c" transform="translate(144.53125 0)"/>
       <use xlink:href="#ArialMT-33" transform="translate(172.314453 0)"/>
       <use xlink:href="#ArialMT-38" transform="translate(227.929688 0)"/>
       <use xlink:href="#ArialMT-5d" transform="translate(283.544922 0)"/>
      </g>
     </g>
    </g>
    <g id="xtick_14">
     <g id="line2d_48">
      <path d="M 202.630909 245.52675 
L 202.630909 139.68675 
" clip-path="url(#pe4c1b4fa99)" style="fill: none"/>
     </g>
     <g id="line2d_49">
      <g>
       <use xlink:href="#m36ef7d69b1" x="202.630909" y="245.52675" style="stroke: #000000"/>
      </g>
     </g>
     <g id="text_18">
      <!-- &gt;38 -->
      <g style="fill: #262626" transform="translate(199.295575 261.671259) rotate(-45) scale(0.08 -0.08)">
       <defs>
        <path id="ArialMT-3e" d="M 3384 2003 
L 350 706 
L 350 1266 
L 2753 2263 
L 350 3250 
L 350 3809 
L 3384 2528 
L 3384 2003 
z
" transform="scale(0.015625)"/>
       </defs>
       <use xlink:href="#ArialMT-3e"/>
       <use xlink:href="#ArialMT-33" transform="translate(58.398438 0)"/>
       <use xlink:href="#ArialMT-38" transform="translate(114.013672 0)"/>
      </g>
     </g>
    </g>
    <g id="text_19">
     <!-- BMI -->
     <g style="fill: #262626" transform="translate(118.717625 281.24384) scale(0.088 -0.088)">
      <defs>
       <path id="ArialMT-42" d="M 469 0 
L 469 4581 
L 2188 4581 
Q 2713 4581 3030 4442 
Q 3347 4303 3526 4014 
Q 3706 3725 3706 3409 
Q 3706 3116 3547 2856 
Q 3388 2597 3066 2438 
Q 3481 2316 3704 2022 
Q 3928 1728 3928 1328 
Q 3928 1006 3792 729 
Q 3656 453 3456 303 
Q 3256 153 2954 76 
Q 2653 0 2216 0 
L 469 0 
z
M 1075 2656 
L 2066 2656 
Q 2469 2656 2644 2709 
Q 2875 2778 2992 2937 
Q 3109 3097 3109 3338 
Q 3109 3566 3000 3739 
Q 2891 3913 2687 3977 
Q 2484 4041 1991 4041 
L 1075 4041 
L 1075 2656 
z
M 1075 541 
L 2216 541 
Q 2509 541 2628 563 
Q 2838 600 2978 687 
Q 3119 775 3209 942 
Q 3300 1109 3300 1328 
Q 3300 1584 3169 1773 
Q 3038 1963 2805 2039 
Q 2572 2116 2134 2116 
L 1075 2116 
L 1075 541 
z
" transform="scale(0.015625)"/>
       <path id="ArialMT-4d" d="M 475 0 
L 475 4581 
L 1388 4581 
L 2472 1338 
Q 2622 884 2691 659 
Q 2769 909 2934 1394 
L 4031 4581 
L 4847 4581 
L 4847 0 
L 4263 0 
L 4263 3834 
L 2931 0 
L 2384 0 
L 1059 3900 
L 1059 0 
L 475 0 
z
" transform="scale(0.015625)"/>
       <path id="ArialMT-49" d="M 597 0 
L 597 4581 
L 1203 4581 
L 1203 0 
L 597 0 
z
" transform="scale(0.015625)"/>
      </defs>
      <use xlink:href="#ArialMT-42"/>
      <use xlink:href="#ArialMT-4d" transform="translate(66.699219 0)"/>
      <use xlink:href="#ArialMT-49" transform="translate(150 0)"/>
     </g>
    </g>
   </g>
   <g id="matplotlib.axis_4">
    <g id="ytick_4">
     <g id="line2d_50">
      <path d="M 42.84 236.70675 
L 210.24 236.70675 
" clip-path="url(#pe4c1b4fa99)" style="fill: none; stroke: #cccccc; stroke-width: 0.5; stroke-linecap: round"/>
     </g>
     <g id="line2d_51">
      <g>
       <use xlink:href="#md157379917" x="42.84" y="236.70675" style="stroke: #000000"/>
      </g>
     </g>
     <g id="text_20">
      <!-- 0.2 -->
      <g style="fill: #262626" transform="translate(29.22 239.569875) scale(0.08 -0.08)">
       <defs>
        <path id="ArialMT-2e" d="M 581 0 
L 581 641 
L 1222 641 
L 1222 0 
L 581 0 
z
" transform="scale(0.015625)"/>
       </defs>
       <use xlink:href="#ArialMT-30"/>
       <use xlink:href="#ArialMT-2e" transform="translate(55.615234 0)"/>
       <use xlink:href="#ArialMT-32" transform="translate(83.398438 0)"/>
      </g>
     </g>
    </g>
    <g id="ytick_5">
     <g id="line2d_52">
      <path d="M 42.84 192.60675 
L 210.24 192.60675 
" clip-path="url(#pe4c1b4fa99)" style="fill: none; stroke: #cccccc; stroke-width: 0.5; stroke-linecap: round"/>
     </g>
     <g id="line2d_53">
      <g>
       <use xlink:href="#md157379917" x="42.84" y="192.60675" style="stroke: #000000"/>
      </g>
     </g>
     <g id="text_21">
      <!-- 0.3 -->
      <g style="fill: #262626" transform="translate(29.22 195.469875) scale(0.08 -0.08)">
       <use xlink:href="#ArialMT-30"/>
       <use xlink:href="#ArialMT-2e" transform="translate(55.615234 0)"/>
       <use xlink:href="#ArialMT-33" transform="translate(83.398438 0)"/>
      </g>
     </g>
    </g>
    <g id="ytick_6">
     <g id="line2d_54">
      <path d="M 42.84 148.50675 
L 210.24 148.50675 
" clip-path="url(#pe4c1b4fa99)" style="fill: none; stroke: #cccccc; stroke-width: 0.5; stroke-linecap: round"/>
     </g>
     <g id="line2d_55">
      <g>
       <use xlink:href="#md157379917" x="42.84" y="148.50675" style="stroke: #000000"/>
      </g>
     </g>
     <g id="text_22">
      <!-- 0.4 -->
      <g style="fill: #262626" transform="translate(29.22 151.369875) scale(0.08 -0.08)">
       <use xlink:href="#ArialMT-30"/>
       <use xlink:href="#ArialMT-2e" transform="translate(55.615234 0)"/>
       <use xlink:href="#ArialMT-34" transform="translate(83.398438 0)"/>
      </g>
     </g>
    </g>
    <g id="text_23">
     <!-- Cycle Length Deviation  -->
     <g style="fill: #262626" transform="translate(13.92575 239.074875) rotate(-90) scale(0.088 -0.088)">
      <defs>
       <path id="ArialMT-44" d="M 494 0 
L 494 4581 
L 2072 4581 
Q 2606 4581 2888 4516 
Q 3281 4425 3559 4188 
Q 3922 3881 4101 3404 
Q 4281 2928 4281 2316 
Q 4281 1794 4159 1391 
Q 4038 988 3847 723 
Q 3656 459 3429 307 
Q 3203 156 2883 78 
Q 2563 0 2147 0 
L 494 0 
z
M 1100 541 
L 2078 541 
Q 2531 541 2789 625 
Q 3047 709 3200 863 
Q 3416 1078 3536 1442 
Q 3656 1806 3656 2325 
Q 3656 3044 3420 3430 
Q 3184 3816 2847 3947 
Q 2603 4041 2063 4041 
L 1100 4041 
L 1100 541 
z
" transform="scale(0.015625)"/>
       <path id="ArialMT-76" d="M 1344 0 
L 81 3319 
L 675 3319 
L 1388 1331 
Q 1503 1009 1600 663 
Q 1675 925 1809 1294 
L 2547 3319 
L 3125 3319 
L 1869 0 
L 1344 0 
z
" transform="scale(0.015625)"/>
       <path id="ArialMT-69" d="M 425 3934 
L 425 4581 
L 988 4581 
L 988 3934 
L 425 3934 
z
M 425 0 
L 425 3319 
L 988 3319 
L 988 0 
L 425 0 
z
" transform="scale(0.015625)"/>
       <path id="ArialMT-6f" d="M 213 1659 
Q 213 2581 725 3025 
Q 1153 3394 1769 3394 
Q 2453 3394 2887 2945 
Q 3322 2497 3322 1706 
Q 3322 1066 3130 698 
Q 2938 331 2570 128 
Q 2203 -75 1769 -75 
Q 1072 -75 642 372 
Q 213 819 213 1659 
z
M 791 1659 
Q 791 1022 1069 705 
Q 1347 388 1769 388 
Q 2188 388 2466 706 
Q 2744 1025 2744 1678 
Q 2744 2294 2464 2611 
Q 2184 2928 1769 2928 
Q 1347 2928 1069 2612 
Q 791 2297 791 1659 
z
" transform="scale(0.015625)"/>
      </defs>
      <use xlink:href="#ArialMT-43"/>
      <use xlink:href="#ArialMT-79" transform="translate(72.216797 0)"/>
      <use xlink:href="#ArialMT-63" transform="translate(122.216797 0)"/>
      <use xlink:href="#ArialMT-6c" transform="translate(172.216797 0)"/>
      <use xlink:href="#ArialMT-65" transform="translate(194.433594 0)"/>
      <use xlink:href="#ArialMT-20" transform="translate(250.048828 0)"/>
      <use xlink:href="#ArialMT-4c" transform="translate(277.832031 0)"/>
      <use xlink:href="#ArialMT-65" transform="translate(333.447266 0)"/>
      <use xlink:href="#ArialMT-6e" transform="translate(389.0625 0)"/>
      <use xlink:href="#ArialMT-67" transform="translate(444.677734 0)"/>
      <use xlink:href="#ArialMT-74" transform="translate(500.292969 0)"/>
      <use xlink:href="#ArialMT-68" transform="translate(528.076172 0)"/>
      <use xlink:href="#ArialMT-20" transform="translate(583.691406 0)"/>
      <use xlink:href="#ArialMT-44" transform="translate(611.474609 0)"/>
      <use xlink:href="#ArialMT-65" transform="translate(683.691406 0)"/>
      <use xlink:href="#ArialMT-76" transform="translate(739.306641 0)"/>
      <use xlink:href="#ArialMT-69" transform="translate(789.306641 0)"/>
      <use xlink:href="#ArialMT-61" transform="translate(811.523438 0)"/>
      <use xlink:href="#ArialMT-74" transform="translate(867.138672 0)"/>
      <use xlink:href="#ArialMT-69" transform="translate(894.921875 0)"/>
      <use xlink:href="#ArialMT-6f" transform="translate(917.138672 0)"/>
      <use xlink:href="#ArialMT-6e" transform="translate(972.753906 0)"/>
      <use xlink:href="#ArialMT-20" transform="translate(1028.369141 0)"/>
     </g>
     <!-- [proportion ≥ 3 days] -->
     <g style="fill: #262626" transform="translate(23.367875 232.68525) rotate(-90) scale(0.088 -0.088)">
      <defs>
       <path id="ArialMT-70" d="M 422 -1272 
L 422 3319 
L 934 3319 
L 934 2888 
Q 1116 3141 1344 3267 
Q 1572 3394 1897 3394 
Q 2322 3394 2647 3175 
Q 2972 2956 3137 2557 
Q 3303 2159 3303 1684 
Q 3303 1175 3120 767 
Q 2938 359 2589 142 
Q 2241 -75 1856 -75 
Q 1575 -75 1351 44 
Q 1128 163 984 344 
L 984 -1272 
L 422 -1272 
z
M 931 1641 
Q 931 1000 1190 694 
Q 1450 388 1819 388 
Q 2194 388 2461 705 
Q 2728 1022 2728 1688 
Q 2728 2322 2467 2637 
Q 2206 2953 1844 2953 
Q 1484 2953 1207 2617 
Q 931 2281 931 1641 
z
" transform="scale(0.015625)"/>
       <path id="ArialMT-72" d="M 416 0 
L 416 3319 
L 922 3319 
L 922 2816 
Q 1116 3169 1280 3281 
Q 1444 3394 1641 3394 
Q 1925 3394 2219 3213 
L 2025 2691 
Q 1819 2813 1613 2813 
Q 1428 2813 1281 2702 
Q 1134 2591 1072 2394 
Q 978 2094 978 1738 
L 978 0 
L 416 0 
z
" transform="scale(0.015625)"/>
       <path id="ArialMT-2265" d="M 3275 2381 
L 241 1084 
L 241 1644 
L 2644 2641 
L 241 3625 
L 241 4188 
L 3275 2906 
L 3275 2381 
z
M 3269 331 
L 244 331 
L 244 853 
L 3269 853 
L 3269 331 
z
" transform="scale(0.015625)"/>
      </defs>
      <use xlink:href="#ArialMT-5b"/>
      <use xlink:href="#ArialMT-70" transform="translate(27.783203 0)"/>
      <use xlink:href="#ArialMT-72" transform="translate(83.398438 0)"/>
      <use xlink:href="#ArialMT-6f" transform="translate(116.699219 0)"/>
      <use xlink:href="#ArialMT-70" transform="translate(172.314453 0)"/>
      <use xlink:href="#ArialMT-6f" transform="translate(227.929688 0)"/>
      <use xlink:href="#ArialMT-72" transform="translate(283.544922 0)"/>
      <use xlink:href="#ArialMT-74" transform="translate(316.845703 0)"/>
      <use xlink:href="#ArialMT-69" transform="translate(344.628906 0)"/>
      <use xlink:href="#ArialMT-6f" transform="translate(366.845703 0)"/>
      <use xlink:href="#ArialMT-6e" transform="translate(422.460938 0)"/>
      <use xlink:href="#ArialMT-20" transform="translate(478.076172 0)"/>
      <use xlink:href="#ArialMT-2265" transform="translate(505.859375 0)"/>
      <use xlink:href="#ArialMT-20" transform="translate(560.742188 0)"/>
      <use xlink:href="#ArialMT-33" transform="translate(588.525391 0)"/>
      <use xlink:href="#ArialMT-20" transform="translate(644.140625 0)"/>
      <use xlink:href="#ArialMT-64" transform="translate(671.923828 0)"/>
      <use xlink:href="#ArialMT-61" transform="translate(727.539062 0)"/>
      <use xlink:href="#ArialMT-79" transform="translate(783.154297 0)"/>
      <use xlink:href="#ArialMT-73" transform="translate(833.154297 0)"/>
      <use xlink:href="#ArialMT-5d" transform="translate(883.154297 0)"/>
     </g>
    </g>
   </g>
   <g id="line2d_56">
    <path d="M 63.130909 202.148058 
L 64.411901 202.511489 
L 65.692893 202.869531 
L 66.973884 203.222209 
L 68.254876 203.569547 
L 69.535868 203.911569 
L 70.81686 204.2483 
L 72.097851 204.579761 
L 73.378843 204.905977 
L 74.659835 205.226971 
L 75.940826 205.542764 
L 77.221818 205.853381 
L 78.50281 206.158842 
L 79.783802 206.459171 
L 81.064793 206.754387 
L 82.345785 207.044514 
L 83.626777 207.329572 
L 84.907769 207.609581 
L 86.18876 207.884562 
L 87.469752 208.154536 
L 88.750744 208.419522 
L 90.031736 208.679541 
L 91.312727 208.93461 
L 92.593719 209.18475 
L 93.874711 209.429979 
L 95.155702 209.670316 
L 96.436694 209.905778 
L 97.717686 210.136383 
L 98.998678 210.362149 
L 100.279669 210.583094 
L 101.560661 210.799233 
L 102.841653 211.010583 
L 104.122645 211.217161 
L 105.403636 211.418982 
L 106.684628 211.616063 
L 107.96562 211.808417 
L 109.246612 211.996061 
L 110.527603 212.179008 
L 111.808595 212.357273 
L 113.089587 212.53087 
L 114.370579 212.699812 
L 115.65157 212.864113 
L 116.932562 213.023785 
L 118.213554 213.178841 
L 119.494545 213.329293 
L 120.775537 213.475153 
L 122.056529 213.616433 
L 123.337521 213.753143 
L 124.618512 213.885295 
L 125.899504 214.012899 
L 127.180496 214.135965 
L 128.461488 214.254503 
L 129.742479 214.368523 
L 131.023471 214.478032 
L 132.304463 214.583042 
L 133.585455 214.683559 
L 134.866446 214.779591 
L 136.147438 214.871147 
L 137.42843 214.958234 
L 138.709421 215.040858 
L 139.990413 215.119027 
L 141.271405 215.192747 
L 142.552397 215.262023 
L 143.833388 215.326861 
L 145.11438 215.387267 
L 146.395372 215.443245 
L 147.676364 215.4948 
L 148.957355 215.541937 
L 150.238347 215.584657 
L 151.519339 215.622967 
L 152.800331 215.656867 
L 154.081322 215.686362 
L 155.362314 215.711453 
L 156.643306 215.732143 
L 157.924298 215.748433 
L 159.205289 215.760325 
L 160.486281 215.767819 
L 161.767273 215.770916 
L 163.048264 215.769617 
L 164.329256 215.763921 
L 165.610248 215.753827 
L 166.89124 215.739336 
L 168.172231 215.720446 
L 169.453223 215.697154 
L 170.734215 215.669461 
L 172.015207 215.637362 
L 173.296198 215.600856 
L 174.57719 215.559939 
L 175.858182 215.514609 
L 177.139174 215.464862 
L 178.420165 215.410693 
L 179.701157 215.352098 
L 180.982149 215.289073 
L 182.26314 215.221612 
L 183.544132 215.14971 
L 184.825124 215.073361 
L 186.106116 214.99256 
L 187.387107 214.907298 
L 188.668099 214.817571 
L 189.949091 214.72337 
" clip-path="url(#pe4c1b4fa99)" style="fill: none; stroke: #2964d9; stroke-opacity: 0.5; stroke-width: 2; stroke-linecap: round"/>
   </g>
   <g id="FillBetweenPolyCollection_2">
    <defs>
     <path id="m1f6b7987f0" d="M 63.130909 -96.009084 
L 63.130909 -80.385705 
L 64.411901 -80.320551 
L 65.692893 -80.252591 
L 66.973884 -80.181675 
L 68.254876 -80.107637 
L 69.535868 -80.030295 
L 70.81686 -79.949448 
L 72.097851 -79.864876 
L 73.378843 -79.77634 
L 74.659835 -79.683578 
L 75.940826 -79.586311 
L 77.221818 -79.484237 
L 78.50281 -79.377036 
L 79.783802 -79.264373 
L 81.064793 -79.1459 
L 82.345785 -79.021265 
L 83.626777 -78.89012 
L 84.907769 -78.75213 
L 86.18876 -78.606987 
L 87.469752 -78.454428 
L 88.750744 -78.294248 
L 90.031736 -78.126322 
L 91.312727 -77.950617 
L 92.593719 -77.767211 
L 93.874711 -77.576299 
L 95.155702 -77.378199 
L 96.436694 -77.17335 
L 97.717686 -76.962304 
L 98.998678 -76.745708 
L 100.279669 -76.524286 
L 101.560661 -76.298817 
L 102.841653 -76.07011 
L 104.122645 -75.838984 
L 105.403636 -75.606244 
L 106.684628 -75.372669 
L 107.96562 -75.138996 
L 109.246612 -74.905912 
L 110.527603 -74.674047 
L 111.808595 -74.443972 
L 113.089587 -74.2162 
L 114.370579 -73.991182 
L 115.65157 -73.769314 
L 116.932562 -73.550936 
L 118.213554 -73.33634 
L 119.494545 -73.12577 
L 120.775537 -72.919425 
L 122.056529 -72.717468 
L 123.337521 -72.520021 
L 124.618512 -72.327176 
L 125.899504 -72.138993 
L 127.180496 -71.955505 
L 128.461488 -71.776718 
L 129.742479 -71.602617 
L 131.023471 -71.433162 
L 132.304463 -71.268297 
L 133.585455 -71.107945 
L 134.866446 -70.952013 
L 136.147438 -70.800392 
L 137.42843 -70.65296 
L 138.709421 -70.50958 
L 139.990413 -70.370104 
L 141.271405 -70.234373 
L 142.552397 -70.102217 
L 143.833388 -69.973456 
L 145.11438 -69.847905 
L 146.395372 -69.725368 
L 147.676364 -69.605646 
L 148.957355 -69.488533 
L 150.238347 -69.37382 
L 151.519339 -69.261293 
L 152.800331 -69.150737 
L 154.081322 -69.041938 
L 155.362314 -68.934678 
L 156.643306 -68.828744 
L 157.924298 -68.723923 
L 159.205289 -68.620006 
L 160.486281 -68.516787 
L 161.767273 -68.414067 
L 163.048264 -68.31165 
L 164.329256 -68.209349 
L 165.610248 -68.106985 
L 166.89124 -68.004383 
L 168.172231 -67.901382 
L 169.453223 -67.797825 
L 170.734215 -67.693567 
L 172.015207 -67.588472 
L 173.296198 -67.482412 
L 174.57719 -67.375271 
L 175.858182 -67.266941 
L 177.139174 -67.157324 
L 178.420165 -67.046332 
L 179.701157 -66.933883 
L 180.982149 -66.819908 
L 182.26314 -66.704342 
L 183.544132 -66.587132 
L 184.825124 -66.468229 
L 186.106116 -66.347593 
L 187.387107 -66.22519 
L 188.668099 -66.100992 
L 189.949091 -65.974977 
L 189.949091 -85.542879 
L 189.949091 -85.542879 
L 188.668099 -85.201971 
L 187.387107 -84.87316 
L 186.106116 -84.556357 
L 184.825124 -84.251468 
L 183.544132 -83.958396 
L 182.26314 -83.677038 
L 180.982149 -83.407288 
L 179.701157 -83.149032 
L 178.420165 -82.90215 
L 177.139174 -82.666515 
L 175.858182 -82.441996 
L 174.57719 -82.228451 
L 173.296198 -82.025732 
L 172.015207 -81.833685 
L 170.734215 -81.652145 
L 169.453223 -81.480942 
L 168.172231 -81.319897 
L 166.89124 -81.168823 
L 165.610248 -81.027527 
L 164.329256 -80.895808 
L 163.048264 -80.773457 
L 161.767273 -80.660262 
L 160.486281 -80.556003 
L 159.205289 -80.460456 
L 157.924298 -80.373393 
L 156.643306 -80.294583 
L 155.362314 -80.223793 
L 154.081322 -80.160787 
L 152.800331 -80.105331 
L 151.519339 -80.05719 
L 150.238347 -80.016133 
L 148.957355 -79.981929 
L 147.676364 -79.954354 
L 146.395372 -79.933186 
L 145.11438 -79.918211 
L 143.833388 -79.909221 
L 142.552397 -79.906018 
L 141.271405 -79.90841 
L 139.990413 -79.916218 
L 138.709421 -79.929272 
L 137.42843 -79.947415 
L 136.147438 -79.970503 
L 134.866446 -79.998406 
L 133.585455 -80.031009 
L 132.304463 -80.068213 
L 131.023471 -80.109937 
L 129.742479 -80.156119 
L 128.461488 -80.206717 
L 127.180496 -80.261709 
L 125.899504 -80.321098 
L 124.618512 -80.384913 
L 123.337521 -80.453209 
L 122.056529 -80.526072 
L 120.775537 -80.603618 
L 119.494545 -80.686002 
L 118.213554 -80.773414 
L 116.932562 -80.866086 
L 115.65157 -80.964298 
L 114.370579 -81.068375 
L 113.089587 -81.178697 
L 111.808595 -81.295699 
L 110.527603 -81.419875 
L 109.246612 -81.551778 
L 107.96562 -81.692025 
L 106.684628 -81.841294 
L 105.403636 -82.000321 
L 104.122645 -82.169891 
L 102.841653 -82.350836 
L 101.560661 -82.544016 
L 100.279669 -82.750304 
L 98.998678 -82.970566 
L 97.717686 -83.205641 
L 96.436694 -83.456313 
L 95.155702 -83.723291 
L 93.874711 -84.00719 
L 92.593719 -84.308515 
L 91.312727 -84.627651 
L 90.031736 -84.964863 
L 88.750744 -85.320296 
L 87.469752 -85.69399 
L 86.18876 -86.085893 
L 84.907769 -86.495874 
L 83.626777 -86.923745 
L 82.345785 -87.369277 
L 81.064793 -87.832214 
L 79.783802 -88.312286 
L 78.50281 -88.809221 
L 77.221818 -89.322757 
L 75.940826 -89.852639 
L 74.659835 -90.398634 
L 73.378843 -90.960526 
L 72.097851 -91.53812 
L 70.81686 -92.131245 
L 69.535868 -92.73975 
L 68.254876 -93.363503 
L 66.973884 -94.002397 
L 65.692893 -94.656338 
L 64.411901 -95.325253 
L 63.130909 -96.009084 
z
"/>
    </defs>
    <g clip-path="url(#pe4c1b4fa99)">
     <use xlink:href="#m1f6b7987f0" x="0" y="290.19284" style="fill: #2964d9; fill-opacity: 0.25"/>
    </g>
   </g>
   <g id="patch_6">
    <path d="M 42.84 245.52675 
L 42.84 139.68675 
" style="fill: none; stroke: #000000; stroke-linejoin: miter; stroke-linecap: square"/>
   </g>
   <g id="patch_7">
    <path d="M 42.84 245.52675 
L 210.24 245.52675 
" style="fill: none; stroke: #000000; stroke-linejoin: miter; stroke-linecap: square"/>
   </g>
   <g id="line2d_57">
    <path d="M 50.449091 222.345063 
L 50.449091 148.274513 
" clip-path="url(#pe4c1b4fa99)" style="fill: none; stroke: #4c4c4c; stroke-width: 2; stroke-linecap: round"/>
   </g>
   <g id="line2d_58">
    <path d="M 75.812727 207.678773 
L 75.812727 196.185423 
" clip-path="url(#pe4c1b4fa99)" style="fill: none; stroke: #4c4c4c; stroke-width: 2; stroke-linecap: round"/>
   </g>
   <g id="line2d_59">
    <path d="M 101.176364 210.343308 
L 101.176364 201.950554 
" clip-path="url(#pe4c1b4fa99)" style="fill: none; stroke: #4c4c4c; stroke-width: 2; stroke-linecap: round"/>
   </g>
   <g id="line2d_60">
    <path d="M 126.54 220.192546 
L 126.54 207.298371 
" clip-path="url(#pe4c1b4fa99)" style="fill: none; stroke: #4c4c4c; stroke-width: 2; stroke-linecap: round"/>
   </g>
   <g id="line2d_61">
    <path d="M 151.903636 222.799732 
L 151.903636 201.716579 
" clip-path="url(#pe4c1b4fa99)" style="fill: none; stroke: #4c4c4c; stroke-width: 2; stroke-linecap: round"/>
   </g>
   <g id="line2d_62">
    <path d="M 177.267273 215.66849 
L 177.267273 173.812382 
" clip-path="url(#pe4c1b4fa99)" style="fill: none; stroke: #4c4c4c; stroke-width: 2; stroke-linecap: round"/>
   </g>
   <g id="line2d_63">
    <path d="M 202.630909 219.245121 
L 202.630909 174.390457 
" clip-path="url(#pe4c1b4fa99)" style="fill: none; stroke: #4c4c4c; stroke-width: 2; stroke-linecap: round"/>
   </g>
   <g id="line2d_64">
    <path d="M 50.449091 188.20855 
" clip-path="url(#pe4c1b4fa99)" style="fill: none; stroke: #4c4c4c; stroke-width: 1.8; stroke-linecap: round"/>
    <g clip-path="url(#pe4c1b4fa99)">
     <use xlink:href="#m38f038eb53" x="50.449091" y="188.20855" style="fill: #4c4c4c"/>
    </g>
   </g>
   <g id="line2d_65">
    <path d="M 75.812727 202.64858 
" clip-path="url(#pe4c1b4fa99)" style="fill: none; stroke: #4c4c4c; stroke-width: 1.8; stroke-linecap: round"/>
    <g clip-path="url(#pe4c1b4fa99)">
     <use xlink:href="#m38f038eb53" x="75.812727" y="202.64858" style="fill: #4c4c4c"/>
    </g>
   </g>
   <g id="line2d_66">
    <path d="M 101.176364 206.021463 
" clip-path="url(#pe4c1b4fa99)" style="fill: none; stroke: #4c4c4c; stroke-width: 1.8; stroke-linecap: round"/>
    <g clip-path="url(#pe4c1b4fa99)">
     <use xlink:href="#m38f038eb53" x="101.176364" y="206.021463" style="fill: #4c4c4c"/>
    </g>
   </g>
   <g id="line2d_67">
    <path d="M 126.54 214.450274 
" clip-path="url(#pe4c1b4fa99)" style="fill: none; stroke: #4c4c4c; stroke-width: 1.8; stroke-linecap: round"/>
    <g clip-path="url(#pe4c1b4fa99)">
     <use xlink:href="#m38f038eb53" x="126.54" y="214.450274" style="fill: #4c4c4c"/>
    </g>
   </g>
   <g id="line2d_68">
    <path d="M 151.903636 212.290136 
" clip-path="url(#pe4c1b4fa99)" style="fill: none; stroke: #4c4c4c; stroke-width: 1.8; stroke-linecap: round"/>
    <g clip-path="url(#pe4c1b4fa99)">
     <use xlink:href="#m38f038eb53" x="151.903636" y="212.290136" style="fill: #4c4c4c"/>
    </g>
   </g>
   <g id="line2d_69">
    <path d="M 177.267273 195.242221 
" clip-path="url(#pe4c1b4fa99)" style="fill: none; stroke: #4c4c4c; stroke-width: 1.8; stroke-linecap: round"/>
    <g clip-path="url(#pe4c1b4fa99)">
     <use xlink:href="#m38f038eb53" x="177.267273" y="195.242221" style="fill: #4c4c4c"/>
    </g>
   </g>
   <g id="line2d_70">
    <path d="M 202.630909 198.700559 
" clip-path="url(#pe4c1b4fa99)" style="fill: none; stroke: #4c4c4c; stroke-width: 1.8; stroke-linecap: round"/>
    <g clip-path="url(#pe4c1b4fa99)">
     <use xlink:href="#m38f038eb53" x="202.630909" y="198.700559" style="fill: #4c4c4c"/>
    </g>
   </g>
  </g>
  <g id="text_24">
   <!-- a. -->
   <g style="fill: #262626" transform="translate(7.2 15.789375) scale(0.12 -0.12)">
    <defs>
     <path id="Arial-BoldMT-61" d="M 1116 2306 
L 319 2450 
Q 453 2931 781 3162 
Q 1109 3394 1756 3394 
Q 2344 3394 2631 3255 
Q 2919 3116 3036 2902 
Q 3153 2688 3153 2116 
L 3144 1091 
Q 3144 653 3186 445 
Q 3228 238 3344 0 
L 2475 0 
Q 2441 88 2391 259 
Q 2369 338 2359 363 
Q 2134 144 1878 34 
Q 1622 -75 1331 -75 
Q 819 -75 523 203 
Q 228 481 228 906 
Q 228 1188 362 1408 
Q 497 1628 739 1745 
Q 981 1863 1438 1950 
Q 2053 2066 2291 2166 
L 2291 2253 
Q 2291 2506 2166 2614 
Q 2041 2722 1694 2722 
Q 1459 2722 1328 2630 
Q 1197 2538 1116 2306 
z
M 2291 1594 
Q 2122 1538 1756 1459 
Q 1391 1381 1278 1306 
Q 1106 1184 1106 997 
Q 1106 813 1243 678 
Q 1381 544 1594 544 
Q 1831 544 2047 700 
Q 2206 819 2256 991 
Q 2291 1103 2291 1419 
L 2291 1594 
z
" transform="scale(0.015625)"/>
     <path id="Arial-BoldMT-2e" d="M 459 0 
L 459 878 
L 1338 878 
L 1338 0 
L 459 0 
z
" transform="scale(0.015625)"/>
    </defs>
    <use xlink:href="#Arial-BoldMT-61"/>
    <use xlink:href="#Arial-BoldMT-2e" transform="translate(55.615234 0)"/>
   </g>
  </g>
  <g id="text_25">
   <!-- b. -->
   <g style="fill: #262626" transform="translate(7.2 142.797375) scale(0.12 -0.12)">
    <defs>
     <path id="Arial-BoldMT-62" d="M 422 0 
L 422 4581 
L 1300 4581 
L 1300 2931 
Q 1706 3394 2263 3394 
Q 2869 3394 3266 2955 
Q 3663 2516 3663 1694 
Q 3663 844 3258 384 
Q 2853 -75 2275 -75 
Q 1991 -75 1714 67 
Q 1438 209 1238 488 
L 1238 0 
L 422 0 
z
M 1294 1731 
Q 1294 1216 1456 969 
Q 1684 619 2063 619 
Q 2353 619 2558 867 
Q 2763 1116 2763 1650 
Q 2763 2219 2556 2470 
Q 2350 2722 2028 2722 
Q 1713 2722 1503 2476 
Q 1294 2231 1294 1731 
z
" transform="scale(0.015625)"/>
    </defs>
    <use xlink:href="#Arial-BoldMT-62"/>
    <use xlink:href="#Arial-BoldMT-2e" transform="translate(61.083984 0)"/>
   </g>
  </g>
 </g>
 <defs>
  <clipPath id="p4e2f671872">
   <rect x="42.84" y="12.67875" width="167.4" height="105.84"/>
  </clipPath>
  <clipPath id="pe4c1b4fa99">
   <rect x="42.84" y="139.68675" width="167.4" height="105.84"/>
  </clipPath>
 </defs>
</svg>
